<svg width="519" height="350" viewBox="0 0 519 350" fill="none" xmlns="http://www.w3.org/2000/svg">
<path d="M218.543 66.8868H163.189C162.675 66.8868 162.258 66.4688 162.258 65.9539V59.3516C162.258 58.8366 162.675 58.4187 163.189 58.4187H218.543C219.057 58.4187 219.474 58.8366 219.474 59.3516V65.9539C219.474 66.4688 219.057 66.8868 218.543 66.8868ZM164.119 65.0209H217.611V60.2845H164.119V65.0209Z" fill="black"/>
<path d="M264.182 99.439H2.80713C2.29323 99.439 1.87616 99.0211 1.87616 98.5061V85.8605C1.87616 85.3455 2.29323 84.9276 2.80713 84.9276H264.183C264.697 84.9276 265.114 85.3455 265.114 85.8605V98.5061C265.113 99.022 264.697 99.439 264.182 99.439ZM3.7381 97.5732H263.252V86.7934H3.7381V97.5732Z" fill="black"/>
<path d="M264.182 89.955H2.80713C2.29323 89.955 1.87616 89.5371 1.87616 89.0221C1.87616 88.5071 2.29323 88.0892 2.80713 88.0892H264.183C264.697 88.0892 265.114 88.5071 265.114 89.0221C265.113 89.538 264.697 89.955 264.182 89.955Z" fill="black"/>
<path d="M51.0408 74.1972C41.4695 74.1972 33.6819 66.3942 33.6819 56.802V47.7789C33.6819 47.2639 34.099 46.8459 34.6129 46.8459H67.4678C67.9817 46.8459 68.3988 47.2639 68.3988 47.7789V56.802C68.3997 66.3933 60.6122 74.1972 51.0408 74.1972ZM35.5448 48.7118V56.802C35.5448 65.3643 42.4964 72.3313 51.0418 72.3313C59.5862 72.3313 66.5387 65.3652 66.5387 56.802V48.7118H35.5448Z" fill="black"/>
<path d="M67.4688 53.91H34.6138C34.0999 53.91 33.6829 53.492 33.6829 52.977C33.6829 52.4621 34.0999 52.0441 34.6138 52.0441H67.4688C67.9826 52.0441 68.3997 52.4621 68.3997 52.977C68.3997 53.492 67.9826 53.91 67.4688 53.91Z" fill="black"/>
<path d="M49.6109 48.7118H39.5537C39.0398 48.7118 38.6227 48.2938 38.6227 47.7788V25.0474C38.6227 21.7542 41.2964 19.0758 44.5818 19.0758C47.8672 19.0758 50.5419 21.7552 50.5419 25.0474V47.7788C50.5419 48.2938 50.1258 48.7118 49.6109 48.7118ZM40.4846 46.8459H48.68V25.0474C48.68 22.7832 46.8413 20.9417 44.5818 20.9417C42.3224 20.9417 40.4846 22.7842 40.4846 25.0474V46.8459Z" fill="black"/>
<path d="M39.5536 40.9807H36.3958C35.8819 40.9807 35.4648 40.5628 35.4648 40.0478C35.4648 39.5328 35.8819 39.1149 36.3958 39.1149H39.5536C40.0675 39.1149 40.4846 39.5328 40.4846 40.0478C40.4846 40.5628 40.0675 40.9807 39.5536 40.9807Z" fill="black"/>
<path d="M46.6876 34.8262H43.998C43.4842 34.8262 43.0671 34.4083 43.0671 33.8933C43.0671 33.3784 43.4842 32.9604 43.998 32.9604H46.6876C47.2015 32.9604 47.6186 33.3784 47.6186 33.8933C47.6186 34.4083 47.2015 34.8262 46.6876 34.8262Z" fill="black"/>
<path d="M44.5827 27.8546H42.1268C41.6129 27.8546 41.1958 27.4366 41.1958 26.9217C41.1958 26.4067 41.6129 25.9887 42.1268 25.9887H44.5827C45.0966 25.9887 45.5136 26.4067 45.5136 26.9217C45.5136 27.4366 45.0966 27.8546 44.5827 27.8546Z" fill="black"/>
<path d="M52.184 42.8559H49.6108C49.0969 42.8559 48.6799 42.4379 48.6799 41.9229C48.6799 41.408 49.0969 40.99 49.6108 40.99H52.184C52.6979 40.99 53.115 41.408 53.115 41.9229C53.115 42.4379 52.6979 42.8559 52.184 42.8559Z" fill="black"/>
<path d="M52.8851 28.9097H49.6108C49.0969 28.9097 48.6799 28.4918 48.6799 27.9768C48.6799 27.4618 49.0969 27.0439 49.6108 27.0439H52.8851C53.399 27.0439 53.816 27.4618 53.816 27.9768C53.816 28.4927 53.3999 28.9097 52.8851 28.9097Z" fill="black"/>
<path d="M39.5536 32.0583H37.2485C36.7346 32.0583 36.3175 31.6404 36.3175 31.1254C36.3175 30.6104 36.7346 30.1925 37.2485 30.1925H39.5536C40.0675 30.1925 40.4845 30.6104 40.4845 31.1254C40.4845 31.6404 40.0675 32.0583 39.5536 32.0583Z" fill="black"/>
<path d="M46.6867 21.4081C46.5489 21.4081 46.4092 21.3773 46.277 21.312C45.8153 21.0853 45.6254 20.5256 45.8516 20.0638L47.0944 17.5291C47.3207 17.0663 47.8783 16.876 48.3401 17.1027C48.8018 17.3294 48.9918 17.8892 48.7646 18.351L47.5227 20.8857C47.3607 21.2169 47.0302 21.4081 46.6867 21.4081Z" fill="black"/>
<path d="M41.382 22.0948C41.018 22.0948 40.6726 21.8792 40.5227 21.5219L39.1765 18.3015C38.9782 17.8267 39.2017 17.28 39.6755 17.0803C40.1475 16.8816 40.6949 17.1046 40.8942 17.5804L42.2403 20.8008C42.4386 21.2757 42.2152 21.8223 41.7413 22.022C41.6231 22.0705 41.5012 22.0948 41.382 22.0948Z" fill="black"/>
<path d="M84.2317 86.7934H16.861C16.3471 86.7934 15.93 86.3755 15.93 85.8605V73.2643C15.93 72.7493 16.3471 72.3314 16.861 72.3314H84.2317C84.7455 72.3314 85.1626 72.7493 85.1626 73.2643V85.8605C85.1626 86.3755 84.7455 86.7934 84.2317 86.7934ZM17.7919 84.9276H83.3007V74.1972H17.7919V84.9276Z" fill="black"/>
<path d="M32.9146 82.9358H24.4009C23.887 82.9358 23.4699 82.5178 23.4699 82.0029V77.6601C23.4699 77.1452 23.887 76.7272 24.4009 76.7272H32.9146C33.4285 76.7272 33.8456 77.1452 33.8456 77.6601V82.0029C33.8456 82.5188 33.4285 82.9358 32.9146 82.9358ZM25.3319 81.07H31.9836V78.5931H25.3319V81.07Z" fill="black"/>
<path d="M41.3808 86.7934H37.9744C37.4605 86.7934 37.0434 86.3755 37.0434 85.8605V73.2643C37.0434 72.7493 37.4605 72.3314 37.9744 72.3314H41.3808C41.8947 72.3314 42.3118 72.7493 42.3118 73.2643V85.8605C42.3118 86.3755 41.8947 86.7934 41.3808 86.7934ZM38.9053 84.9276H40.4498V74.1972H38.9053V84.9276Z" fill="black"/>
<path d="M107.833 86.7933H97.1053C96.5914 86.7933 96.1743 86.3753 96.1743 85.8603V32.8437C96.1743 32.3287 96.5914 31.9108 97.1053 31.9108H107.833C108.347 31.9108 108.764 32.3287 108.764 32.8437V85.8613C108.764 86.3753 108.347 86.7933 107.833 86.7933ZM98.0363 84.9274H106.902V33.7766H98.0363V84.9274Z" fill="black"/>
<path d="M104.429 75.3352H100.715C100.201 75.3352 99.7837 74.9173 99.7837 74.4023V41.9228C99.7837 41.4079 100.201 40.9899 100.715 40.9899H104.429C104.943 40.9899 105.36 41.4079 105.36 41.9228V74.4023C105.36 74.9182 104.943 75.3352 104.429 75.3352ZM101.645 73.4694H103.497V42.8558H101.645V73.4694Z" fill="black"/>
<path d="M107.833 38.7276H97.1053C96.5914 38.7276 96.1743 38.3097 96.1743 37.7947V32.8437C96.1743 32.3287 96.5914 31.9108 97.1053 31.9108H107.833C108.347 31.9108 108.764 32.3287 108.764 32.8437V37.7956C108.764 38.3097 108.347 38.7276 107.833 38.7276ZM98.0363 36.8618H106.902V33.7766H98.0363V36.8618Z" fill="black"/>
<path d="M125.855 86.7933H114.699C114.185 86.7933 113.768 86.3753 113.768 85.8603V25.9635C113.768 25.4485 114.185 25.0305 114.699 25.0305H125.855C126.369 25.0305 126.786 25.4485 126.786 25.9635V85.8613C126.786 86.3753 126.369 86.7933 125.855 86.7933ZM115.629 84.9274H124.924V26.8964H115.629V84.9274Z" fill="black"/>
<path d="M120.105 35.6107C118.403 35.6107 117.019 34.2235 117.019 32.5181C117.019 30.8128 118.403 29.4255 120.105 29.4255C121.807 29.4255 123.192 30.8128 123.192 32.5181C123.192 34.2235 121.807 35.6107 120.105 35.6107ZM120.105 31.2913C119.43 31.2913 118.881 31.8418 118.881 32.5181C118.881 33.1945 119.43 33.7449 120.105 33.7449C120.78 33.7449 121.33 33.1945 121.33 32.5181C121.33 31.8418 120.78 31.2913 120.105 31.2913Z" fill="black"/>
<path d="M120.105 43.1403C118.403 43.1403 117.019 41.7531 117.019 40.0477C117.019 38.3423 118.403 36.9551 120.105 36.9551C121.807 36.9551 123.192 38.3423 123.192 40.0477C123.192 41.7531 121.807 43.1403 120.105 43.1403ZM120.105 38.8209C119.43 38.8209 118.881 39.3713 118.881 40.0477C118.881 40.7241 119.43 41.2745 120.105 41.2745C120.78 41.2745 121.33 40.7241 121.33 40.0477C121.33 39.3713 120.78 38.8209 120.105 38.8209Z" fill="black"/>
<path d="M120.105 50.6708C118.403 50.6708 117.019 49.2836 117.019 47.5782C117.019 45.8728 118.403 44.4856 120.105 44.4856C121.807 44.4856 123.192 45.8728 123.192 47.5782C123.192 49.2826 121.807 50.6708 120.105 50.6708ZM120.105 46.3514C119.43 46.3514 118.881 46.9018 118.881 47.5782C118.881 48.2546 119.43 48.805 120.105 48.805C120.78 48.805 121.33 48.2546 121.33 47.5782C121.33 46.9018 120.78 46.3514 120.105 46.3514Z" fill="black"/>
<path d="M146.452 86.7933H125.856C125.342 86.7933 124.925 86.3753 124.925 85.8603V32.8437C124.925 32.3287 125.342 31.9108 125.856 31.9108H146.452C146.966 31.9108 147.383 32.3287 147.383 32.8437V85.8613C147.383 86.3753 146.967 86.7933 146.452 86.7933ZM126.787 84.9274H145.521V33.7766H126.787V84.9274Z" fill="black"/>
<path d="M138.39 72.1726H133.918C133.404 72.1726 132.987 71.7547 132.987 71.2397C132.987 69.6966 131.735 68.4419 130.196 68.4419C129.682 68.4419 129.265 68.0239 129.265 67.509V41.5254C129.265 41.0104 129.682 40.5925 130.196 40.5925C131.735 40.5925 132.987 39.3377 132.987 37.7947C132.987 37.2797 133.404 36.8618 133.918 36.8618H138.39C138.904 36.8618 139.321 37.2797 139.321 37.7947C139.321 39.3377 140.573 40.5925 142.113 40.5925C142.627 40.5925 143.044 41.0104 143.044 41.5254V67.509C143.044 68.0239 142.627 68.4419 142.113 68.4419C140.573 68.4419 139.321 69.6966 139.321 71.2397C139.321 71.7547 138.904 72.1726 138.39 72.1726ZM134.755 70.3068H137.552C137.923 68.482 139.361 67.0416 141.181 66.6703V42.365C139.36 41.9937 137.923 40.5524 137.552 38.7285H134.755C134.384 40.5533 132.947 41.9937 131.126 42.365V66.6703C132.947 67.0416 134.384 68.482 134.755 70.3068Z" fill="black"/>
<path d="M146.452 82.9357H125.856C125.342 82.9357 124.925 82.5177 124.925 82.0028V75.9071C124.925 75.3921 125.342 74.9742 125.856 74.9742H146.452C146.966 74.9742 147.383 75.3921 147.383 75.9071V82.0028C147.383 82.5187 146.967 82.9357 146.452 82.9357ZM126.787 81.0698H145.521V76.84H126.787V81.0698Z" fill="black"/>
<path d="M153.747 86.7933H146.453C145.939 86.7933 145.522 86.3754 145.522 85.8604V16.9329C145.522 16.4179 145.939 16 146.453 16H153.747C154.261 16 154.678 16.4179 154.678 16.9329V85.8604C154.678 86.3754 154.261 86.7933 153.747 86.7933ZM147.383 84.9275H152.815V17.8658H147.383V84.9275Z" fill="black"/>
<path d="M153.747 25.1762H146.453C145.939 25.1762 145.522 24.7582 145.522 24.2432V16.9329C145.522 16.4179 145.939 16 146.453 16H153.747C154.261 16 154.678 16.4179 154.678 16.9329V24.2432C154.678 24.7582 154.261 25.1762 153.747 25.1762ZM147.383 23.3103H152.815V17.8658H147.383V23.3103Z" fill="black"/>
<path d="M153.747 55.9847H146.453C145.939 55.9847 145.522 55.5668 145.522 55.0518V47.7415C145.522 47.2265 145.939 46.8086 146.453 46.8086H153.747C154.261 46.8086 154.678 47.2265 154.678 47.7415V55.0518C154.678 55.5677 154.261 55.9847 153.747 55.9847ZM147.383 54.1189H152.815V48.6744H147.383V54.1189Z" fill="black"/>
<path d="M210.82 86.7932H153.747C153.233 86.7932 152.816 86.3753 152.816 85.8603V65.9538C152.816 65.4388 153.233 65.0209 153.747 65.0209H210.82C211.334 65.0209 211.751 65.4388 211.751 65.9538V85.8603C211.751 86.3753 211.334 86.7932 210.82 86.7932ZM154.678 84.9274H209.889V66.8867H154.678V84.9274Z" fill="black"/>
<path d="M183.219 82.0055H159.697C159.183 82.0055 158.766 81.5876 158.766 81.0726V70.3086C158.766 69.7937 159.183 69.3757 159.697 69.3757H183.219C183.733 69.3757 184.15 69.7937 184.15 70.3086V81.0726C184.15 81.5876 183.733 82.0055 183.219 82.0055ZM160.628 80.1397H182.288V71.2416H160.628V80.1397Z" fill="black"/>
<path d="M191.887 82.0055H187.554C187.04 82.0055 186.623 81.5876 186.623 81.0726V70.3086C186.623 69.7937 187.04 69.3757 187.554 69.3757H191.887C192.401 69.3757 192.818 69.7937 192.818 70.3086V81.0726C192.818 81.5876 192.401 82.0055 191.887 82.0055ZM188.484 80.1397H190.955V71.2416H188.484V80.1397Z" fill="black"/>
<path d="M204.426 86.7932H199.318C198.804 86.7932 198.387 86.3753 198.387 85.8603V65.9538C198.387 65.4388 198.804 65.0209 199.318 65.0209H204.426C204.94 65.0209 205.357 65.4388 205.357 65.9538V85.8603C205.357 86.3753 204.94 86.7932 204.426 86.7932ZM200.248 84.9274H203.495V66.8867H200.248V84.9274Z" fill="black"/>
<path d="M241.772 86.7932H226.209C225.695 86.7932 225.278 86.3753 225.278 85.8603V23.8662C225.278 23.3513 225.695 22.9333 226.209 22.9333H241.772C242.285 22.9333 242.703 23.3513 242.703 23.8662V85.8612C242.703 86.3753 242.285 86.7932 241.772 86.7932ZM227.14 84.9274H240.841V24.7991H227.14V84.9274Z" fill="black"/>
<path d="M241.772 35.6107H226.209C225.695 35.6107 225.278 35.1928 225.278 34.6778V23.8662C225.278 23.3513 225.695 22.9333 226.209 22.9333H241.772C242.285 22.9333 242.703 23.3513 242.703 23.8662V34.6778C242.703 35.1928 242.285 35.6107 241.772 35.6107ZM227.14 33.7449H240.841V24.7991H227.14V33.7449Z" fill="black"/>
<path d="M233.991 31.9929C232.494 31.9929 231.275 30.7726 231.275 29.2715C231.275 27.7714 232.494 26.5502 233.991 26.5502C235.488 26.5502 236.706 27.7714 236.706 29.2715C236.706 30.7726 235.488 31.9929 233.991 31.9929ZM233.991 28.4161C233.52 28.4161 233.137 28.7995 233.137 29.2715C233.137 29.7427 233.52 30.127 233.991 30.127C234.462 30.127 234.844 29.7436 234.844 29.2715C234.844 28.8004 234.462 28.4161 233.991 28.4161Z" fill="black"/>
<path d="M234.223 78.7477C230.234 78.7477 230.12 61.9292 230.12 60.0111C230.12 58.093 230.234 41.2744 234.223 41.2744C238.212 41.2744 238.328 58.093 238.328 60.0111C238.327 61.9292 238.212 78.7477 234.223 78.7477ZM234.223 43.2391C233.39 44.2532 231.981 49.86 231.981 60.012C231.981 70.1631 233.391 75.7699 234.223 76.7849C235.056 75.7708 236.466 70.164 236.466 60.012C236.465 49.8591 235.056 44.2532 234.223 43.2391Z" fill="black"/>
<path d="M256.988 86.7933H241.772C241.258 86.7933 240.841 86.3753 240.841 85.8604V44.66C240.841 44.1451 241.258 43.7271 241.772 43.7271H256.988C257.502 43.7271 257.919 44.1451 257.919 44.66V85.8613C257.919 86.3753 257.503 86.7933 256.988 86.7933ZM242.703 84.9274H256.058V45.5929H242.703V84.9274Z" fill="black"/>
<path d="M256.989 61.6857H241.772C241.258 61.6857 240.841 61.2678 240.841 60.7528V47.7414C240.841 47.2265 241.258 46.8085 241.772 46.8085H256.989C257.502 46.8085 257.919 47.2265 257.919 47.7414V60.7519C257.919 61.2678 257.503 61.6857 256.989 61.6857ZM242.703 59.8199H256.058V48.6744H242.703V59.8199Z" fill="black"/>
<path d="M256.989 73.9396H241.772C241.258 73.9396 240.841 73.5216 240.841 73.0067V55.633C240.841 55.118 241.258 54.7001 241.772 54.7001H256.989C257.502 54.7001 257.919 55.118 257.919 55.633V73.0067C257.919 73.5216 257.503 73.9396 256.989 73.9396ZM242.703 72.0738H256.058V56.5659H242.703V72.0738Z" fill="black"/>
<path d="M108.913 188.555C107.209 188.704 105.644 189.327 104.136 190.122C103.468 190.48 102.801 190.849 102.11 191.16C102.076 191.171 102.053 191.183 102.018 191.206C101.983 191.137 101.949 191.068 101.937 190.999C101.166 185.108 102.559 179.032 106.622 173.568C110.892 167.827 115.186 162.536 115.899 155.1C116.463 149.163 114.518 143.837 114.104 137.981C113.586 130.603 113.436 123.133 114.887 115.847C115.393 113.322 116.084 110.832 116.912 108.388C119.79 99.8575 124.417 91.3843 130.057 84.3637C136.986 75.7407 145.631 73.0431 156.289 75.9251C156.761 76.0519 157.256 76.1903 157.751 76.1096C158.246 76.0289 158.683 75.7407 159.132 75.4871C165.049 72.1785 174.775 73.7002 180.645 76.2594C189.151 79.9715 196.011 86.5425 199.499 95.2116C202.457 102.601 203.067 110.141 203.01 118.003C202.964 124.62 199.695 130.453 201.168 137.197C201.214 137.393 201.26 137.6 201.306 137.796C202.169 141.301 203.792 144.656 203.873 148.264C203.953 151.907 202.446 155.354 201.479 158.87C199.626 165.614 199.821 172.876 201.916 179.54C203.551 184.75 205.979 188.958 206.509 194.296C206.52 194.411 206.509 194.538 206.52 194.653C205.116 194.296 203.93 193.385 202.641 192.751C202.561 192.532 202.423 192.324 202.204 192.232C200.638 191.552 199.027 190.976 197.439 190.353C197.393 190.33 197.347 190.353 197.301 190.33C197.185 189.915 196.863 189.581 196.311 189.592C195.689 189.604 194.883 188.9 194.227 188.658C193.329 188.324 192.34 188.266 191.442 187.921C190.682 187.632 190.084 187.01 189.335 186.687C188.495 186.318 187.632 186.214 186.734 186.191C186.653 185.742 186.423 185.327 185.997 185.05C185.571 184.785 185.1 184.739 184.616 184.808C184.582 184.739 184.559 184.658 184.524 184.6C184.006 183.678 183.074 183.033 182.13 182.618C181.658 182.41 181.163 182.226 180.668 182.053C180.484 181.984 180.288 181.926 180.104 181.857C179.989 181.534 179.793 181.257 179.552 181.004C179.252 180.692 178.884 180.416 178.481 180.197C178.447 180.162 178.412 180.116 178.378 180.081C178.401 179.943 178.401 179.805 178.354 179.643C178.159 178.871 177.629 178.375 177.054 177.903C177.088 177.672 177.054 177.43 176.939 177.222C176.283 176.162 175.926 174.963 175.845 173.845C175.753 172.519 175.845 171.182 175.845 169.856C175.845 169.718 175.811 169.579 175.765 169.464C175.811 169.337 175.845 169.21 175.845 169.072C175.845 168.669 175.845 168.265 175.822 167.873C175.776 166.893 175.65 165.879 175.178 165.014C174.936 164.576 174.568 164.15 174.107 163.919C173.981 163.861 173.865 163.815 173.739 163.769C174.533 163.562 175.304 163.227 176.006 162.801C176.524 162.49 177.019 162.144 177.56 161.879C178.297 161.521 178.815 160.806 179.149 160.057C179.275 159.953 179.402 159.85 179.517 159.734C179.931 159.515 180.277 159.227 180.564 158.881C181.382 158.386 181.911 157.613 182.164 156.726C182.187 156.702 182.21 156.679 182.233 156.656C183.177 156.068 183.741 155.1 183.914 154.039C184.213 153.648 184.42 153.186 184.559 152.714C185.456 152.068 185.963 151.042 186.078 149.959C186.135 149.74 186.182 149.509 186.205 149.278C186.941 148.506 187.321 147.434 187.298 146.35C187.804 145.843 188.138 145.186 188.299 144.471C188.979 143.699 189.301 142.638 189.266 141.601C189.381 141.324 189.508 141.047 189.589 140.759C189.681 140.436 189.738 140.102 189.773 139.768C189.98 139.26 190.107 138.707 190.107 138.154C190.694 137.335 190.97 136.298 190.866 135.283C191.05 134.868 191.2 134.419 191.235 133.958C191.603 133.266 191.753 132.447 191.706 131.652C192.593 130.695 192.95 129.312 192.696 128.009C192.788 127.652 192.858 127.283 192.858 126.914C193.122 125.381 192.581 123.686 191.223 122.821C190.774 122.118 190.084 121.565 189.163 121.323C189.071 121.254 189.002 121.161 188.898 121.092C188.852 119.663 188.654 118.155 187.261 117.533C187.1 117.268 186.958 116.787 186.762 116.533C186.509 115.265 185.456 114.383 184.662 113.368C184.662 112.481 184.409 111.605 183.902 110.901C183.879 110.763 183.868 110.613 183.822 110.475C183.534 109.368 183.016 108.331 182.763 107.212C182.763 107.132 182.751 107.051 182.763 106.97C182.797 105.921 182.303 104.941 181.612 104.192C181.497 104.065 181.37 103.973 181.244 103.881C181.29 103.8 181.324 103.731 181.37 103.65C182.475 101.76 179.54 100.042 178.447 101.933C178.389 102.036 178.331 102.14 178.274 102.244C177.929 102.267 177.572 102.44 177.273 102.797C176.939 103.201 176.616 103.604 176.283 104.008C176.214 104.065 176.133 104.111 176.075 104.18C175.845 104.411 175.673 104.665 175.511 104.93C174.832 105.714 174.119 106.463 173.29 107.074C171.529 108.377 169.653 109.541 167.88 110.832C164.68 113.161 160.962 115.513 157.187 116.758C155.84 117.196 154.252 117.599 153.216 118.625C152.168 119.663 152.157 121.184 152.007 122.568C151.846 124.009 151.087 126.049 149.579 126.58C148.807 126.845 147.484 126.672 146.839 126.142C146.264 125.657 146.045 124.7 145.746 124.02C144.929 122.153 142.373 123.536 142.73 125.346C142.258 125.657 141.947 126.199 141.901 126.776C141.901 126.787 141.901 126.799 141.901 126.81C141.878 126.914 141.867 127.018 141.832 127.11C141.786 127.294 141.729 127.479 141.66 127.663C141.66 127.663 141.66 127.663 141.66 127.675C141.625 127.755 141.579 127.836 141.544 127.905C141.441 128.09 141.337 128.263 141.222 128.436C141.199 128.47 141.211 128.459 141.199 128.482C141.153 128.539 141.107 128.597 141.05 128.655C140.911 128.816 140.762 128.966 140.612 129.116C140.463 129.266 140.301 129.404 140.14 129.542C140.083 129.588 140.014 129.646 139.956 129.692C139.933 129.704 139.921 129.715 139.91 129.727C138.54 130.73 136.986 131.444 135.479 132.217C135.133 132.39 134.926 132.701 134.799 133.035C134.696 133.024 134.627 132.978 134.512 132.978C134.304 132.978 134.143 133.035 133.982 133.081C133.821 133.024 133.648 132.978 133.453 132.978C131.381 132.978 131.3 135.975 133.142 136.309C133.257 136.69 130.851 136.413 131.174 136.632C129.493 134.223 133.752 135.214 133.821 135.237C135.87 136.182 134.351 134.43 136.296 134.972C136.791 135.11 138.655 133.704 139.162 133.75C139.392 133.796 141.51 139.168 141.74 139.249C141.763 139.249 141.89 140.39 141.913 140.402C142.028 140.459 140.336 143.099 140.393 143.226C140.416 143.284 140.439 143.341 140.463 143.388C140.52 143.514 140.451 143.341 140.393 143.238C140.578 143.687 140.808 144.033 141.199 144.298C140.911 144.656 140.727 145.128 140.727 145.716C140.739 148.437 141.165 151.123 141.418 153.82C141.084 154.189 140.865 154.685 140.865 155.331C140.865 156.852 140.877 158.374 140.865 159.896C140.405 160.265 140.094 160.841 140.083 161.613C140.06 165.614 139.254 169.579 137.769 173.291C136.445 173.326 135.651 174.387 135.502 175.609C135.536 175.343 135.409 175.816 135.375 175.966C135.352 176.012 135.271 176.162 135.271 176.185C135.168 176.369 135.041 176.565 134.915 176.761C133.315 177.165 132.267 178.295 131.036 179.367C130.863 179.367 130.679 179.401 130.483 179.459C128.722 179.943 127.387 181.303 125.729 182.03C124.037 182.768 122.242 183.286 120.504 183.886C116.74 185.177 112.987 186.526 109.362 188.197C109.189 188.278 109.039 188.393 108.901 188.52L108.913 188.555Z" fill="black"/>
<path d="M210.825 216.775C203.366 220.534 194.768 221.225 186.584 221.998C167.27 223.842 147.449 225.767 127.893 224.418C115.071 223.531 101.316 222.171 90.3004 215.081C85.6157 212.072 85.57 207.259 87.4692 202.533C90.9799 197.841 95.503 193.581 101.707 191.16C111.79 187.229 123.277 184.197 132.325 178.122C133.453 177.361 134.546 176.542 135.444 175.528C136.733 174.064 137.55 172.242 138.218 170.398C140.601 163.746 141.176 154.501 140.957 149.705C140.923 148.852 140.957 147.457 141.015 144.644C141.061 142.431 139.507 133.197 139.691 133.139C140.497 132.885 143.398 148.183 147.944 153.809C152.203 159.077 157.567 161.498 160.295 162.478C162.815 163.389 166.096 164.565 170.32 164.196C172.783 163.977 173.359 163.423 174.406 163.908C177.767 165.441 174.28 173.303 178.113 178.537C181.75 183.505 187.793 185.961 193.467 188.324C203.343 192.451 213.369 197.316 220.16 205.605C220.333 205.812 220.494 206.031 220.666 206.25C220.471 208.106 219.619 209.893 218.433 211.357C216.35 213.951 213.703 215.311 210.825 216.764V216.775Z" stroke="black" stroke-width="2" stroke-miterlimit="10"/>
<path d="M81.0462 215.749C82.2778 210.354 84.0697 207.906 86.9703 204.033C85.0711 208.759 85.6273 212.06 90.312 215.081C101.327 222.171 115.082 223.531 127.905 224.418C147.461 225.767 167.282 223.842 186.596 221.998C194.78 221.214 203.366 220.534 210.837 216.775C213.714 215.323 216.35 213.963 218.445 211.369C219.619 209.905 220.482 208.118 220.678 206.262C238.22 228.35 234.272 259.844 235.607 288.146L360.103 313.969L358.779 337.578H105.31C97.4023 337.578 90.6918 331.803 89.5063 323.975C85.4201 297.022 80.9656 266.738 79.78 240.846C79.4002 232.454 79.2045 223.957 81.0692 215.761L81.0462 215.749Z" stroke="black" stroke-width="2" stroke-miterlimit="10"/>
<path d="M191.568 194.63C185.042 195.391 178.481 195.99 171.978 196.924C170.481 197.143 169.1 197.65 168.156 199.149" stroke="black" stroke-width="2" stroke-linecap="round" stroke-linejoin="round"/>
<path d="M126.788 194.63C134.581 195.391 142.419 195.99 150.2 196.924C151.984 197.143 153.63 197.65 154.758 199.149" stroke="black" stroke-width="2" stroke-linecap="round" stroke-linejoin="round"/>
<path d="M218.376 337.567C218.376 337.567 219.884 309.726 233.846 303.282L126.88 292.1C126.88 292.1 121.942 247.14 119.79 232.085" stroke="black" stroke-width="2" stroke-linecap="round" stroke-linejoin="round"/>
<path d="M210.008 300.85C210.054 292.653 210.1 284.457 210.146 276.272C210.146 275.546 210.158 274.796 210.48 274.151C210.825 273.471 211.47 272.998 212.068 272.525C218.445 267.522 222.255 259.418 222.059 251.314C221.864 243.209 217.651 235.301 211.032 230.621" stroke="black" stroke-width="2" stroke-miterlimit="10"/>
<path d="M191.718 123.628C192.144 124.113 192.581 124.562 193.019 124.966C193.272 125.196 193.537 125.427 193.629 125.75C193.732 126.072 193.64 126.407 193.56 126.729C191.142 135.963 188.909 146.685 183.914 154.904C182.464 157.29 180.668 159.504 178.435 161.175C174.464 164.138 170.781 164.657 165.935 163.931C161.158 163.204 156.542 161.291 152.698 158.339C146.689 153.728 142.477 146.627 141.544 139.111C139.15 138.799 137.286 139.111 134.96 138.062C132.785 137.07 130.874 135.468 129.597 133.427C127.214 129.623 127.156 124.481 129.459 120.62C131.991 116.366 136.975 116.147 140.877 118.614C142.787 119.824 144.18 121.496 145.251 123.467C146.195 125.208 147.346 127.594 149.889 126.349C151.167 125.715 151.904 124.332 152.26 122.948C152.606 121.565 152.652 120.124 152.974 118.729C154.885 118.164 156.669 117.253 158.419 116.296C164.853 112.78 171.011 108.596 176.547 103.777C177.134 103.27 179.126 100.699 179.897 100.71C181.036 100.734 181.209 103.108 181.52 104.065C182.659 107.627 184.029 111.12 185.802 114.406C187.39 117.357 189.37 120.965 191.718 123.628Z" stroke="black" stroke-width="0.86" stroke-miterlimit="10"/>
<path d="M179.298 122.36C178.285 125.45 177.917 128.747 178.239 131.986C178.389 133.496 178.7 135.018 179.494 136.309C180.288 137.6 181.635 138.615 183.154 138.684C183.649 138.707 184.179 138.638 184.605 138.892C185.422 139.376 185.249 140.644 184.72 141.439C183.833 142.777 182.291 143.595 180.703 143.837C179.114 144.091 177.491 143.826 175.96 143.33" stroke="black" stroke-linecap="round" stroke-linejoin="round"/>
<path d="M173.774 151.567L173.785 151.692C168.996 152.483 165.023 148.891 163.23 144.667C163.126 144.425 162.735 144.575 162.815 144.829M173.774 151.567C169.062 152.351 165.128 148.819 163.345 144.618L163.345 144.618C163.305 144.524 163.233 144.463 163.148 144.436C163.067 144.41 162.981 144.417 162.909 144.445C162.766 144.501 162.632 144.657 162.695 144.863M173.774 151.567L173.774 151.565C173.977 151.528 174.119 151.663 174.161 151.81C174.203 151.955 174.159 152.145 173.974 152.228L173.974 152.228L173.97 152.23C171.421 153.26 168.897 152.561 166.87 151.04C164.845 149.52 163.301 147.172 162.695 144.863M173.774 151.567L173.923 152.114C168.927 154.132 164.013 149.394 162.815 144.829M162.695 144.863C162.695 144.862 162.695 144.861 162.695 144.86L162.815 144.829M162.695 144.863C162.696 144.864 162.696 144.865 162.696 144.866L162.815 144.829" fill="black" stroke="black" stroke-width="0.25"/>
<path d="M166.211 127.329C165.808 129.3 166.441 131.099 167.627 131.329C168.801 131.571 170.09 130.165 170.493 128.193C170.896 126.222 170.263 124.424 169.077 124.193C167.903 123.951 166.614 125.358 166.211 127.329Z" fill="black"/>
<path d="M184.305 131.018C183.902 132.989 184.535 134.788 185.721 135.018C186.907 135.249 188.184 133.854 188.587 131.882C188.99 129.911 188.357 128.113 187.171 127.882C185.997 127.64 184.708 129.047 184.305 131.018Z" fill="black"/>
<path d="M172.637 71.8467C172.637 71.8467 144.456 70.3856 138.363 112.681C138.363 112.681 133.988 115.478 128.204 112.738C128.204 112.738 132.57 65.3194 172.637 71.8467Z" stroke="white" stroke-width="2" stroke-miterlimit="10"/>
<path d="M144.756 122.568C144.756 129.346 139.265 134.845 132.497 134.845C125.729 134.845 120.239 129.346 120.239 122.568C120.239 115.789 125.729 110.29 132.497 110.29C139.265 110.29 144.756 115.789 144.756 122.568Z" fill="white"/>
<path d="M144.756 122.568C144.756 129.346 139.265 134.845 132.497 134.845C125.729 134.845 120.239 129.346 120.239 122.568C120.239 115.789 125.729 110.29 132.497 110.29C139.265 110.29 144.756 115.789 144.756 122.568Z" stroke="black" stroke-width="0.86" stroke-miterlimit="10"/>
<path d="M132.497 110.29C125.729 110.29 120.239 115.789 120.239 122.568C120.239 129.346 125.729 134.845 132.497 134.845C139.265 134.845 144.756 129.346 144.756 122.568C144.756 115.789 139.265 110.29 132.497 110.29ZM132.497 109.426C139.737 109.426 145.619 115.317 145.619 122.568C145.619 129.819 139.737 135.71 132.497 135.71C125.257 135.71 119.376 129.819 119.376 122.568C119.376 115.317 125.257 109.426 132.497 109.426Z" fill="black"/>
<path d="M140.059 122.568C140.059 127.363 136.18 131.248 131.392 131.248C126.604 131.248 122.725 127.363 122.725 122.568C122.725 117.772 126.604 113.887 131.392 113.887C136.18 113.887 140.059 117.772 140.059 122.568Z" stroke="black" stroke-miterlimit="10"/>
<path d="M127.443 120.49L135 121.707C135.37 121.767 135.622 122.116 135.562 122.487L135.175 124.9C135.115 125.271 134.767 125.523 134.396 125.463L126.839 124.246C126.469 124.186 126.217 123.837 126.277 123.466L126.664 121.053C126.724 120.682 127.072 120.43 127.443 120.49Z" fill="black"/>
<path d="M174.568 119.686C173.14 116.977 169.572 116.135 166.81 116.965C165.877 117.207 165.037 117.657 164.243 118.141C164.013 118.279 163.932 118.591 164.082 118.821C164.208 119.029 164.45 119.109 164.669 119.029C166.188 118.441 167.903 118.003 169.515 118.245C171.091 118.452 172.438 119.374 173.773 120.274C174.165 120.643 174.821 120.158 174.568 119.686Z" fill="black"/>
<path d="M183.338 122.441C185.606 122.245 187.896 122.464 189.6 124.101C190.118 124.528 190.751 125.3 191.177 125.83C191.327 126.049 191.637 126.095 191.845 125.922C192.017 125.784 192.063 125.542 191.96 125.358C190.544 122.118 186.343 119.64 182.993 121.588C182.556 121.853 182.843 122.545 183.338 122.441Z" fill="black"/>
<path d="M155.149 153.682C155.149 155.757 156.83 157.429 158.89 157.429C160.95 157.429 162.631 155.746 162.631 153.682C162.631 151.619 160.95 149.935 158.89 149.935C156.83 149.935 155.149 151.619 155.149 153.682Z" fill="white" stroke="black" stroke-width="2" stroke-miterlimit="10"/>
<path d="M517.07 348.533V338.533H8.13693V348.533H517.07Z" stroke="black" stroke-width="2" stroke-linecap="round" stroke-linejoin="round"/>
<path d="M75.1944 215.049C75.1944 217.02 74.9182 219.095 74.0779 221.136C73.2722 223.211 71.9715 225.009 71.396 226.416C70.7399 227.834 70.4521 229.217 70.2335 230.785C70.1299 231.569 70.0608 232.353 70.0148 233.125C70.0032 233.874 70.0263 234.589 70.1183 235.246C70.1874 235.915 70.3601 236.526 70.5442 237.218C70.7514 237.909 71.0046 238.774 71.2694 239.823C71.5341 240.861 71.7528 242.129 71.8218 243.339C71.8449 243.95 71.8679 244.573 71.8334 245.172L71.7873 246.083L71.6953 246.959L71.5917 247.835L71.442 248.665C71.3384 249.218 71.2348 249.772 71.0852 250.325C70.8205 251.42 70.4752 252.55 70.0148 253.703C69.5774 254.856 68.9213 256.031 68.2422 257.15C67.54 258.245 66.7804 259.236 66.1703 260.032C64.9732 261.542 64.5243 262.28 64.0409 263.456C63.5459 264.562 63.1316 266.095 62.8899 267.375L62.7978 267.848L62.7517 268.297C62.6942 268.597 62.7057 268.874 62.6827 269.162C62.6827 269.738 62.6827 270.246 62.7863 270.995C62.8668 271.744 63.051 272.678 63.1776 273.865C63.2812 275.053 63.3388 276.355 63.2121 277.624C63.1776 278.269 63.0625 278.857 62.9704 279.48C62.8668 280.079 62.7172 280.655 62.5791 281.232C62.2683 282.35 61.9345 283.434 61.4971 284.494C61.0712 285.566 60.5532 286.673 59.9202 287.78C59.2756 288.875 58.5044 289.982 57.6757 290.95C57.2613 291.457 56.8469 291.861 56.4441 292.299C56.0642 292.679 55.6844 293.071 55.3506 293.371C54.683 294.005 54.1535 294.501 53.6816 294.996C52.9564 295.757 52.3464 296.587 51.7939 297.452C51.2644 298.27 50.8616 299.216 50.1249 299.942C49.6185 300.438 48.9739 300.841 48.2602 301.106C46.8214 301.648 45.1524 301.625 43.7367 301.06C41.6878 300.23 40.5483 298.432 40.721 296.633C40.9166 294.524 41.4231 292.241 42.5741 289.982C43.1151 288.852 43.8057 287.814 44.3812 286.927L45.1754 285.728C45.3826 285.394 45.6013 285.048 45.7395 284.759C46.0733 284.16 46.2919 283.618 46.4991 283.019C46.6948 282.419 46.8905 281.785 47.0401 281.082C47.2013 280.379 47.3279 279.664 47.4315 278.961C47.4545 278.638 47.512 278.292 47.512 277.981C47.5005 277.681 47.5581 277.358 47.5236 277.082C47.5236 276.505 47.4315 275.964 47.3279 275.318L46.8329 272.713C46.6257 271.641 46.4991 270.303 46.5106 269.035C46.5337 268.401 46.5337 267.744 46.6142 267.133L46.7178 266.199L46.8675 265.312L47.0286 264.424L47.2473 263.582C47.397 263.029 47.5351 262.464 47.7307 261.922C48.076 260.827 48.4904 259.697 49.0429 258.556C49.5724 257.415 50.286 256.25 51.0572 255.155C51.8399 254.083 52.6572 253.126 53.3248 252.377C54.6485 250.959 55.2355 250.256 55.8916 249.092C56.5476 247.996 57.1117 246.463 57.526 245.149L57.6757 244.653L57.7908 244.181C57.8829 243.858 57.9174 243.558 57.9749 243.258C58.044 242.636 58.1361 242.059 58.09 241.264C58.0785 240.48 57.9749 239.535 57.9404 238.393C57.9174 237.252 57.9404 236.03 58.1361 234.854C58.2972 233.667 58.6195 232.56 58.9648 231.488C59.3332 230.439 59.736 229.425 60.231 228.433C60.7144 227.442 61.2669 226.427 61.923 225.447C62.5906 224.479 63.3503 223.511 64.1905 222.669C65.8941 220.928 67.4479 219.891 68.668 218.692C69.9227 217.493 71.0161 216.029 72.0405 214.427L72.0636 214.392C72.501 213.7 73.5254 213.447 74.3426 213.816C74.9066 214.069 75.2289 214.565 75.2289 215.061L75.1944 215.049Z" stroke="black" stroke-miterlimit="10"/>
<path d="M64.9503 230.67C64.9503 230.67 64.9963 230.704 65.0078 230.739C65.0309 230.785 65.0078 230.843 65.0078 230.9C64.6855 232.33 64.4093 233.817 64.3402 235.281C64.2711 236.238 64.3402 237.183 64.4323 238.14C64.5474 239.085 64.7201 240.042 64.8467 240.999C65.1459 242.924 65.0999 244.918 64.7316 246.855C64.3633 248.792 63.8108 250.694 63.005 252.55C62.6137 253.472 62.0957 254.371 61.5547 255.236C60.9792 256.089 60.3461 256.908 59.7131 257.715C59.0685 258.51 58.4469 259.305 57.8945 260.124C57.365 260.954 56.8585 261.807 56.4787 262.706C55.6845 264.482 55.132 266.361 54.7636 268.251C54.3953 270.142 54.3378 272.044 54.614 273.935C54.7406 274.88 54.9018 275.837 55.0169 276.805C55.109 277.773 55.1665 278.765 55.0859 279.745C54.9708 281.716 54.4989 283.653 53.8888 285.532C53.2673 287.411 52.4155 289.278 51.1954 290.95C49.9984 292.633 48.548 294.109 47.5121 295.803C46.4417 297.475 45.728 299.319 45.1755 301.176C45.141 301.302 44.9914 301.383 44.8417 301.36C44.6921 301.325 44.6115 301.199 44.6461 301.072C45.1755 299.17 45.8777 297.291 46.9596 295.538C48.0071 293.774 49.4574 292.253 50.5854 290.616C51.7594 288.99 52.5767 287.203 53.1752 285.359C53.7737 283.514 54.2342 281.612 54.3378 279.722C54.4068 278.776 54.3493 277.82 54.2572 276.874C54.1536 275.929 53.9809 274.984 53.8543 274.015C53.5666 272.079 53.6126 270.084 53.9924 268.148C54.3723 266.211 54.9248 264.297 55.742 262.453C56.1334 261.53 56.6513 260.631 57.2038 259.767C57.7793 258.913 58.4124 258.095 59.057 257.3C59.7016 256.504 60.3346 255.72 60.8871 254.89C61.4281 254.06 61.9231 253.207 62.3144 252.308C63.1201 250.533 63.6841 248.653 64.064 246.763C64.4438 244.872 64.5129 242.959 64.2366 241.068C64.1215 240.123 63.9489 239.166 63.8453 238.198C63.7532 237.229 63.6957 236.249 63.7877 235.269C63.8798 233.805 64.0294 232.111 64.7891 230.762C64.8122 230.716 64.8467 230.681 64.8927 230.67C64.9272 230.67 64.9503 230.67 64.9733 230.681L64.9503 230.67Z" fill="black"/>
<path d="M4.23321 216.882C5.60294 218.473 6.84604 220.283 7.59421 222.346C8.39993 224.421 8.60714 226.52 9.1251 227.937C9.58552 229.402 10.3337 230.67 11.243 232.053C11.7034 232.733 12.2099 233.413 12.7048 234.047C13.2228 234.658 13.7407 235.223 14.2702 235.707C14.7882 236.215 15.3637 236.618 15.9967 237.091C16.6413 237.552 17.4586 238.117 18.4139 238.832C19.3578 239.535 20.4167 240.445 21.326 241.402C21.7749 241.886 22.2353 242.382 22.6152 242.878L23.2137 243.627L23.7547 244.377L24.2842 245.126L24.7446 245.875C25.0439 246.371 25.3546 246.878 25.6079 247.385C26.1604 248.4 26.6783 249.483 27.1042 250.648C27.5531 251.801 27.8524 253.069 28.0826 254.314C28.2783 255.547 28.3704 256.723 28.4279 257.668C28.52 259.478 28.6811 260.297 29.107 261.496C29.4869 262.637 30.2235 264.078 30.9256 265.231L31.1904 265.657L31.4666 266.038C31.6393 266.314 31.835 266.522 32.0191 266.764C32.4335 267.225 32.7788 267.64 33.3889 268.194C33.9759 268.747 34.7816 269.427 35.7139 270.326C36.6232 271.237 37.5901 272.263 38.3728 273.335C38.7987 273.865 39.121 274.407 39.4778 274.949C39.8116 275.491 40.0879 276.021 40.3871 276.563C40.9166 277.624 41.4116 278.661 41.8029 279.745C42.2058 280.828 42.5741 281.981 42.8273 283.18C43.0691 284.391 43.2302 285.659 43.2302 286.858C43.2417 287.469 43.2072 288.01 43.1726 288.552C43.1266 289.048 43.0921 289.555 43.0345 289.959C42.9424 290.8 42.8504 291.457 42.8273 292.103C42.7698 293.083 42.8619 294.051 43.023 295.019C43.1726 295.942 43.5064 296.91 43.4259 297.855C43.3683 298.512 43.1266 299.158 42.7352 299.723C41.9525 300.876 40.5943 301.694 39.0404 301.936C36.8074 302.282 34.632 301.394 33.504 299.861C32.1918 298.063 30.9947 295.965 30.3386 293.578C29.9818 292.403 29.8207 291.215 29.6595 290.212L29.4638 288.852C29.3948 288.483 29.3257 288.091 29.2336 287.791C29.084 287.146 28.8768 286.604 28.6236 286.016C28.3588 285.428 28.0711 284.817 27.7028 284.183C27.3344 283.537 26.9431 282.892 26.5402 282.281C26.333 282.004 26.1374 281.705 25.9187 281.451C25.7 281.209 25.5158 280.932 25.2971 280.713C24.8942 280.24 24.4453 279.848 23.9044 279.387L21.6828 277.531C20.762 276.77 19.7261 275.756 18.8398 274.73C18.4024 274.2 17.9535 273.681 17.5967 273.139L17.0327 272.332L16.5377 271.537L16.0428 270.741L15.6284 269.957C15.3522 269.439 15.0759 268.908 14.8457 268.378C14.3623 267.329 13.9019 266.211 13.5451 265C13.1767 263.813 12.935 262.51 12.7854 261.254C12.6588 259.997 12.6472 258.821 12.6703 257.876C12.7393 256.066 12.7278 255.213 12.44 253.945C12.1983 252.734 11.5883 251.224 11.0013 249.956L10.7826 249.483L10.5409 249.045C10.3912 248.746 10.207 248.481 10.0344 248.204C9.65455 247.674 9.32075 247.155 8.73372 246.532C8.18123 245.91 7.43308 245.195 6.60434 244.296C5.78711 243.385 4.94683 242.382 4.27923 241.333C3.5771 240.296 3.05913 239.235 2.58721 238.209C2.14982 237.183 1.75847 236.169 1.47071 235.119C1.15993 234.082 0.906708 232.987 0.757073 231.869C0.618949 230.75 0.54988 229.598 0.641963 228.502C0.803108 226.254 1.33258 224.64 1.47071 223.061C1.64336 221.47 1.49375 219.753 1.20599 217.931V217.896C1.07938 217.124 1.72396 216.409 2.64478 216.294C3.27785 216.225 3.87639 216.455 4.23321 216.859V216.882Z" stroke="black" stroke-miterlimit="10"/>
<path d="M6.90387 234.589C6.90387 234.589 6.97295 234.589 6.99597 234.612C7.04201 234.647 7.07654 234.693 7.09956 234.751C7.83622 236.065 8.65346 237.402 9.62032 238.612C10.2304 239.419 10.9555 240.157 11.6922 240.872C12.4403 241.587 13.2576 242.267 14.0288 242.97C15.6172 244.377 16.9754 246.013 18.0344 247.754C19.0933 249.507 19.9796 251.316 20.6242 253.207C20.958 254.152 21.1652 255.121 21.3263 256.101C21.4644 257.08 21.5335 258.049 21.5681 259.017C21.6026 259.974 21.6601 260.931 21.7868 261.865C21.9364 262.798 22.132 263.732 22.4543 264.654C23.0644 266.487 23.9277 268.274 24.9521 269.98C25.9765 271.687 27.2656 273.254 28.808 274.638C29.5677 275.341 30.3734 276.033 31.1446 276.759C31.9043 277.497 32.641 278.269 33.2625 279.099C34.5517 280.748 35.5186 282.546 36.3473 284.367C37.1645 286.2 37.7861 288.126 37.9703 290.085C38.1775 292.045 38.0508 293.959 38.3961 295.838C38.7069 297.729 39.4206 299.562 40.2723 301.337C40.3299 301.464 40.2723 301.602 40.1342 301.648C39.9961 301.694 39.8349 301.637 39.7659 301.51C38.8681 299.711 38.1084 297.844 37.7631 295.896C37.3717 293.947 37.4753 291.999 37.2336 290.12C37.0379 288.229 36.4509 286.373 35.6452 284.587C34.8394 282.8 33.8726 281.047 32.6295 279.457C32.0194 278.65 31.3058 277.923 30.5691 277.197C29.8209 276.482 29.0152 275.802 28.2325 275.087C26.6441 273.669 25.2859 272.032 24.2269 270.28C23.1795 268.528 22.2932 266.706 21.6601 264.816C21.3263 263.871 21.1192 262.891 20.958 261.922C20.8199 260.942 20.7623 259.974 20.7278 259.006C20.6933 258.049 20.6472 257.092 20.5206 256.158C20.371 255.224 20.1868 254.279 19.8645 253.368C19.266 251.535 18.4027 249.737 17.3898 248.031C16.3769 246.313 15.0877 244.745 13.5454 243.351C12.7857 242.647 11.9799 241.956 11.2202 241.218C10.4721 240.48 9.73542 239.719 9.11387 238.878C8.15851 237.656 7.09955 236.203 6.76575 234.739C6.76575 234.693 6.74274 234.647 6.77727 234.612C6.80029 234.589 6.82332 234.578 6.85785 234.578L6.90387 234.589Z" fill="black"/>
<path d="M45.912 186.16C46.6026 188.604 46.9939 191.255 46.6717 194.01C46.4069 196.789 45.417 199.359 45.1983 201.25C44.8876 203.175 45.0142 204.974 45.2904 206.979C45.44 207.982 45.6357 208.974 45.8429 209.942C46.0846 210.876 46.3839 211.764 46.7177 212.559C47.0285 213.366 47.4659 214.092 47.9493 214.911C48.4442 215.718 49.0773 216.732 49.7679 217.966C50.4701 219.188 51.1837 220.709 51.6901 222.208C51.9319 222.969 52.1851 223.741 52.3578 224.491L52.6225 225.632L52.8182 226.739L53.0023 227.845L53.1059 228.917C53.175 229.632 53.2325 230.347 53.244 231.062C53.3016 232.48 53.2786 233.978 53.1059 235.535C52.9678 237.079 52.5764 238.705 52.116 240.261C51.6211 241.806 51.0341 243.224 50.5622 244.354C49.6068 246.521 49.3075 247.558 49.1234 249.149C48.9047 250.648 48.9277 252.654 49.0773 254.314L49.1349 254.925L49.227 255.49C49.273 255.882 49.3766 256.216 49.4457 256.573C49.6643 257.288 49.8255 257.922 50.2168 258.833C50.5852 259.744 51.1377 260.862 51.7132 262.314C52.2542 263.767 52.7836 265.369 53.0829 266.972C53.267 267.779 53.3361 268.551 53.4397 269.335C53.5203 270.119 53.5318 270.857 53.5779 271.617C53.5779 273.082 53.5548 274.511 53.3822 275.952C53.221 277.393 52.9793 278.903 52.5765 280.436C52.1506 281.958 51.5981 283.537 50.9075 284.944C50.5621 285.67 50.2053 286.293 49.8485 286.927C49.5032 287.492 49.1694 288.08 48.8701 288.529C48.2601 289.486 47.7766 290.224 47.3738 290.973C46.7292 292.103 46.2688 293.29 45.8889 294.489C45.5206 295.642 45.3595 296.922 44.6919 298.005C44.2315 298.755 43.5754 299.412 42.7927 299.919C41.2043 300.956 39.1094 301.348 37.1411 300.991C34.2981 300.472 32.2607 298.524 31.8233 296.241C31.3284 293.578 31.1442 290.593 31.7773 287.515C32.042 285.97 32.5485 284.506 32.9513 283.261L33.5153 281.578C33.6534 281.105 33.8031 280.632 33.8722 280.229C34.0794 279.399 34.1484 278.673 34.206 277.877C34.2405 277.082 34.2635 276.24 34.206 275.329C34.1484 274.419 34.0679 273.485 33.9412 272.597C33.8492 272.182 33.8031 271.744 33.6995 271.352C33.5729 270.983 33.5384 270.568 33.4003 270.234C33.2046 269.508 32.8938 268.862 32.537 268.09L31.0061 264.977C30.373 263.698 29.74 262.061 29.3026 260.481C29.0954 259.686 28.8767 258.867 28.7616 258.095L28.5544 256.908L28.4278 255.766L28.3127 254.625L28.2897 253.53C28.2782 252.804 28.2551 252.066 28.2897 251.34C28.3357 249.899 28.4508 248.388 28.7271 246.821C28.9803 245.264 29.4637 243.639 30.0277 242.082C30.6147 240.549 31.2938 239.154 31.8694 238.048C33.0204 235.95 33.4923 234.935 33.8952 233.321C34.3211 231.788 34.4822 229.747 34.5398 228.007V227.35L34.5282 226.739C34.5282 226.312 34.4592 225.943 34.4247 225.54C34.2865 224.744 34.1945 224.006 33.8722 223.038C33.5844 222.07 33.1125 220.917 32.6636 219.51C32.2377 218.104 31.8348 216.571 31.6622 215.049C31.4435 213.539 31.455 212.063 31.501 210.657C31.5931 209.262 31.7313 207.902 31.996 206.553C32.2492 205.193 32.5715 203.809 33.0549 202.426C33.5499 201.042 34.1484 199.659 34.8851 198.403C36.3929 195.809 37.9583 194.137 39.0403 192.327C40.1798 190.529 41.0201 188.431 41.7337 186.171V186.125C42.056 185.157 43.23 184.58 44.3811 184.845C45.1753 185.018 45.7393 185.549 45.9235 186.183L45.912 186.16Z" stroke="black" stroke-miterlimit="10"/>
<path d="M38.6835 208.155C38.6835 208.155 38.7525 208.19 38.7755 208.224C38.8216 208.282 38.8216 208.351 38.8216 208.432C38.9137 210.288 39.0978 212.213 39.5352 214.046C39.7885 215.245 40.2028 216.421 40.6517 217.574C41.1237 218.727 41.6761 219.868 42.1826 221.032C43.23 223.361 43.8861 225.851 44.1048 228.352C44.3235 230.854 44.3235 233.367 43.9667 235.857C43.8056 237.114 43.4833 238.347 43.1034 239.558C42.6891 240.768 42.1941 241.944 41.6762 243.097C41.1582 244.25 40.6633 245.391 40.2604 246.555C39.8921 247.72 39.5698 248.907 39.4086 250.118C39.0518 252.527 39.0288 255.005 39.2245 257.438C39.4317 259.882 40.0302 262.257 41.0431 264.539C41.5265 265.692 42.079 266.833 42.5509 268.021C43.0113 269.208 43.4372 270.419 43.679 271.664C44.2315 274.142 44.3236 276.667 44.2315 279.168C44.1279 281.67 43.725 284.195 42.7927 286.581C41.8949 288.979 40.6172 291.181 39.9266 293.544C39.1899 295.896 38.9482 298.363 38.9137 300.818C38.9137 300.991 38.7525 301.129 38.5569 301.129C38.3612 301.129 38.2116 300.991 38.2116 300.818C38.2116 298.328 38.4072 295.803 39.1324 293.359C39.8 290.904 41.0776 288.644 41.9064 286.327C42.7927 284.01 43.1725 281.578 43.2761 279.134C43.3682 276.69 43.2761 274.211 42.7236 271.825C42.4819 270.626 42.0675 269.462 41.6186 268.309C41.1582 267.156 40.6057 266.015 40.0992 264.85C39.0633 262.522 38.4187 260.02 38.2 257.507C37.9928 255.005 38.0044 252.492 38.3727 249.991C38.5338 248.734 38.8676 247.501 39.2475 246.29C39.6618 245.08 40.1568 243.904 40.6863 242.751C41.2157 241.61 41.7107 240.469 42.1135 239.304C42.4934 238.14 42.8157 236.952 42.9768 235.742C43.3451 233.333 43.3797 230.854 43.1955 228.41C42.9998 225.966 42.4013 223.568 41.3999 221.286C40.9165 220.133 40.3755 218.992 39.9036 217.804C39.4547 216.617 39.0288 215.406 38.7871 214.173C38.3842 212.328 37.9813 210.184 38.4417 208.317C38.4533 208.259 38.4763 208.201 38.5338 208.167C38.5684 208.155 38.6029 208.155 38.649 208.167L38.6835 208.155Z" fill="black"/>
<path d="M56.1448 337.633H29.015L21.752 311.303H63.4078L56.1448 337.633Z" stroke="black" stroke-width="2" stroke-miterlimit="10"/>
<path d="M17.7696 302.51H67.3791C67.8971 302.51 68.3115 302.925 68.3115 303.444V309.749C68.3115 310.268 67.8971 310.683 67.3791 310.683H17.7696C17.2516 310.683 16.8373 310.268 16.8373 309.749V303.444C16.8373 302.925 17.2516 302.51 17.7696 302.51Z" stroke="black" stroke-width="2" stroke-miterlimit="10"/>
<path d="M225.131 328H340.89V338H225.131V328Z" stroke="black" stroke-width="2" stroke-linecap="round" stroke-linejoin="round"/>
<path d="M265.459 331.457V330.957H265.959H276.445H276.945V331.457V334.477V334.977H276.445H265.959H265.459V334.477V331.457Z" stroke="black" stroke-miterlimit="10"/>
<path d="M283.416 331.457V330.957H283.916H294.402H294.902V331.457V334.477V334.977H294.402H283.916H283.416V334.477V331.457Z" stroke="black" stroke-miterlimit="10"/>
<path d="M301.383 331.457V330.957H301.883H312.369H312.869V331.457V334.477V334.977H312.369H301.883H301.383V334.477V331.457Z" stroke="black" stroke-miterlimit="10"/>
<path d="M319.339 331.457V330.957H319.839H330.325H330.825V331.457V334.477V334.977H330.325H319.839H319.339V334.477V331.457Z" stroke="black" stroke-miterlimit="10"/>
<path d="M331.58 327.998H340.535L392.803 239.382L386.162 235.451L331.58 327.998Z" stroke="black" stroke-width="2" stroke-linecap="round" stroke-linejoin="round"/>
<path d="M515.575 238.533L392.803 239.382L386.162 235.451H508.183L515.575 238.533Z" stroke="black" stroke-width="2" stroke-linecap="round" stroke-linejoin="round"/>
<path d="M392.803 239.382L340.535 327.998H462.556L514.824 239.382H392.803Z" stroke="black" stroke-width="2" stroke-miterlimit="10"/>
<path d="M340.535 327.998H462.556V337.67H340.535V327.998Z" stroke="black" stroke-width="2" stroke-miterlimit="10"/>
<path d="M411.83 286.082C411.83 290.555 421.395 294.187 433.182 294.187C444.968 294.187 454.533 290.555 454.533 286.082C454.533 281.609 444.968 277.978 433.182 277.978C421.395 277.978 411.83 281.609 411.83 286.082Z" stroke="black" stroke-width="2" stroke-miterlimit="10"/>
<path d="M141.671 131.248C142.316 133.923 143.662 139.318 147.069 143.952C150.223 148.241 153.964 150.777 156.059 151.976" stroke="black" stroke-width="2" stroke-miterlimit="10"/>
<path d="M226.698 309.772C232.706 304.147 242.789 306.372 250.881 304.873C253.977 304.297 257.085 303.743 260.239 303.605C262.805 303.49 265.372 303.64 267.928 303.859C276.031 304.527 284.077 305.772 292.007 307.559C293.135 307.813 294.298 308.101 295.207 308.804C296.116 309.507 296.715 310.764 296.324 311.848C295.84 313.173 294.217 313.623 292.836 313.853C287.322 314.753 281.694 315.006 276.123 314.591C280.036 317.3 283.938 319.917 287.84 322.638C289.728 323.952 291.604 325.428 292.755 327.468C293.193 328.24 293.584 329.036 293.296 329.935C292.042 333.809 285.907 330.177 284.007 328.886C286.033 330.604 287.76 332.494 286.804 335.399C286.425 336.564 285.435 337.567 284.226 337.763C283.133 337.947 282.039 337.486 281.107 336.887C280.175 336.287 279.346 335.526 278.379 334.996C279.162 336.287 279.495 337.878 279.162 339.342C278.828 340.818 277.803 342.143 276.399 342.708C274.339 343.538 271.657 342.236 269.804 341.302C267.087 339.93 264.474 338.362 261.988 336.61C260.906 335.849 259.847 335.042 258.719 334.35C258.535 334.235 258.328 334.12 258.121 334.131C257.925 334.143 257.752 334.258 257.591 334.362C254.645 336.356 252.043 338.673 248.866 340.276C245.586 341.924 242.144 342.455 238.496 342.489C233.673 342.535 227.883 342.04 223.624 339.619C222.07 338.743 219.573 336.598 218.606 335.088C218.606 335.088 219.204 316.77 226.709 309.726L226.698 309.772Z" fill="white" stroke="black" stroke-width="2" stroke-linecap="round" stroke-linejoin="round"/>
<path d="M283.996 328.886C283.996 328.886 270.483 319.525 265.96 318.845" stroke="black" stroke-width="2" stroke-linecap="round" stroke-linejoin="round"/>
<path d="M278.356 335.019C278.356 335.019 266.984 326.039 259.732 324.482" stroke="black" stroke-width="2" stroke-linecap="round" stroke-linejoin="round"/>
<rect x="361.551" y="48" width="155" height="133" stroke="black" stroke-width="2"/>
<rect x="374.551" y="62" width="59" height="106" stroke="black" stroke-width="2"/>
<rect x="443.551" y="62" width="59" height="106" stroke="black" stroke-width="2"/>
<path d="M389.551 91.5L402.551 79" stroke="black" stroke-width="2" stroke-linecap="round" stroke-linejoin="round"/>
<path d="M459.551 91.5L472.551 79" stroke="black" stroke-width="2" stroke-linecap="round" stroke-linejoin="round"/>
<path d="M387.551 85L395.551 77" stroke="black" stroke-width="2" stroke-linecap="round" stroke-linejoin="round"/>
<path d="M457.551 85L465.551 77" stroke="black" stroke-width="2" stroke-linecap="round" stroke-linejoin="round"/>
<path d="M63.0202 157.9H3.36974C2.81889 157.9 2.37183 157.453 2.37183 156.9V109C2.37183 108.447 2.81889 108 3.36974 108H63.0202C63.5711 108 64.0182 108.447 64.0182 109V156.9C64.0182 157.453 63.5711 157.9 63.0202 157.9ZM4.36766 155.9H62.0223V110H4.36766V155.9Z" fill="black"/>
<path d="M56.9539 151.897H9.43609C8.88524 151.897 8.43817 151.45 8.43817 150.897V115.004C8.43817 114.451 8.88524 114.004 9.43609 114.004H56.9539C57.5047 114.004 57.9518 114.451 57.9518 115.004V150.897C57.9518 151.45 57.5047 151.897 56.9539 151.897ZM10.434 149.897H55.956V116.004H10.434V149.897Z" fill="black"/>
<path d="M33.1955 136.515C31.2336 136.515 29.6379 134.915 29.6379 132.95C29.6379 130.984 31.2336 129.386 33.1955 129.386C35.1564 129.386 36.7521 130.985 36.7521 132.95C36.7521 134.915 35.1564 136.515 33.1955 136.515ZM33.1955 131.385C32.3343 131.385 31.6338 132.087 31.6338 132.949C31.6338 133.812 32.3343 134.514 33.1955 134.514C34.0567 134.514 34.7563 133.812 34.7563 132.949C34.7563 132.087 34.0567 131.385 33.1955 131.385Z" fill="black"/>
<path d="M31.6799 131.894C31.4105 131.894 31.143 131.786 30.9464 131.573L20.8286 120.605C20.4544 120.2 20.4793 119.567 20.8845 119.192C21.2886 118.817 21.9203 118.841 22.2945 119.248L32.4124 130.216C32.7866 130.621 32.7617 131.254 32.3565 131.629C32.1649 131.806 31.9214 131.894 31.6799 131.894Z" fill="black"/>
<path d="M35.391 132.651C35.0986 132.651 34.8092 132.523 34.6116 132.277C34.2673 131.846 34.3362 131.216 34.7663 130.871L39.8387 126.794C40.2668 126.449 40.8965 126.518 41.2418 126.948C41.5861 127.379 41.5172 128.008 41.0871 128.354L36.0147 132.431C35.8311 132.578 35.6105 132.651 35.391 132.651Z" fill="black"/>
<path d="M33.1955 121.632C32.6447 121.632 32.1976 121.185 32.1976 120.632V118.161C32.1976 117.608 32.6447 117.161 33.1955 117.161C33.7464 117.161 34.1935 117.608 34.1935 118.161V120.632C34.1935 121.185 33.7464 121.632 33.1955 121.632Z" fill="black"/>
<path d="M33.1955 148.738C32.6447 148.738 32.1976 148.291 32.1976 147.738V145.267C32.1976 144.714 32.6447 144.267 33.1955 144.267C33.7464 144.267 34.1935 144.714 34.1935 145.267V147.738C34.1935 148.29 33.7464 148.738 33.1955 148.738Z" fill="black"/>
<path d="M53.2356 133.95H50.7698C50.2189 133.95 49.7719 133.503 49.7719 132.95C49.7719 132.397 50.2189 131.95 50.7698 131.95H53.2356C53.7864 131.95 54.2335 132.397 54.2335 132.95C54.2335 133.502 53.7864 133.95 53.2356 133.95Z" fill="black"/>
<path d="M15.5732 133.95H13.1074C12.5566 133.95 12.1095 133.503 12.1095 132.95C12.1095 132.397 12.5566 131.95 13.1074 131.95H15.5732C16.1241 131.95 16.5712 132.397 16.5712 132.95C16.5712 133.502 16.1241 133.95 15.5732 133.95Z" fill="black"/>
<mask id="path-102-inside-1_339_2898" fill="white">
<path d="M318.659 109H310.331C309.266 108.999 308.245 108.515 307.492 107.656C306.739 106.797 306.315 105.632 306.314 104.417V99.4972H287.866C287.265 99.4972 286.674 99.3101 286.159 98.956C285.644 98.6019 285.223 98.0943 284.942 97.4878C284.661 96.8812 284.53 96.1986 284.563 95.5134C284.596 94.8282 284.792 94.1663 285.131 93.5989C285.178 93.5197 285.232 93.4461 285.293 93.3793L305.62 70.8783V62.9484C305.623 60.509 306.397 58.1525 307.799 56.3111C309.201 54.4697 311.138 53.2667 313.255 52.9228V2.83117H306.167C305.838 2.83117 305.522 2.68203 305.29 2.41655C305.057 2.15108 304.926 1.79102 304.926 1.41558C304.926 1.04015 305.057 0.680089 305.29 0.414615C305.522 0.149141 305.838 0 306.167 0H322.824C323.153 0 323.468 0.149141 323.701 0.414615C323.934 0.680089 324.064 1.04015 324.064 1.41558C324.064 1.79102 323.934 2.15108 323.701 2.41655C323.468 2.68203 323.153 2.83117 322.824 2.83117H315.736V52.9228C317.852 53.2667 319.789 54.4697 321.192 56.3111C322.594 58.1525 323.367 60.509 323.37 62.9484V70.8783L343.698 93.3788C343.758 93.4456 343.812 93.5192 343.86 93.5984C344.198 94.1658 344.394 94.8277 344.428 95.5129C344.461 96.1981 344.33 96.8807 344.049 97.4873C343.767 98.0939 343.346 98.6015 342.831 98.9555C342.316 99.3096 341.726 99.4967 341.125 99.4967H322.676V104.416C322.675 105.632 322.252 106.797 321.499 107.656C320.746 108.515 319.724 108.999 318.659 109ZM308.796 104.417C308.797 104.881 308.959 105.326 309.246 105.655C309.534 105.983 309.924 106.168 310.331 106.169H318.659C319.067 106.168 319.457 105.984 319.745 105.655C320.033 105.327 320.195 104.881 320.195 104.417V99.4972H308.796L308.796 104.417ZM314.495 55.653C312.8 55.6552 311.175 56.4245 309.976 57.7922C308.778 59.1599 308.103 61.0143 308.102 62.9484V70.0618H320.889V62.9484C320.887 61.0143 320.213 59.1599 319.014 57.7922C317.816 56.4245 316.19 55.6552 314.495 55.653ZM341.856 96.1637C341.92 96.0298 341.953 95.8799 341.954 95.7273C341.955 95.5748 341.923 95.4244 341.86 95.2896L321.627 72.8929H307.364L287.13 95.2896C287.065 95.4335 287.033 95.5941 287.039 95.756C287.044 95.9179 287.085 96.0755 287.159 96.2138C287.233 96.352 287.337 96.4663 287.461 96.5455C287.584 96.6247 287.724 96.6662 287.866 96.666H341.125C341.275 96.6683 341.424 96.6225 341.553 96.5337C341.682 96.445 341.787 96.3168 341.856 96.1637Z"/>
</mask>
<path d="M318.659 109L318.662 111H318.659V109ZM310.331 109V111H310.328L310.331 109ZM306.314 104.417L304.314 104.419V104.417H306.314ZM306.314 99.4972V97.4972H308.314V99.4972H306.314ZM287.866 99.4972V101.497H287.866L287.866 99.4972ZM285.131 93.5989L283.413 92.5747L283.414 92.5724L285.131 93.5989ZM285.293 93.3793L283.808 92.0397L283.809 92.0385L285.293 93.3793ZM305.62 70.8783H307.62V71.6479L307.104 72.219L305.62 70.8783ZM305.62 62.9484H303.62V62.9461L305.62 62.9484ZM313.255 52.9228H315.255V54.6241L313.575 54.8969L313.255 52.9228ZM313.255 2.83117V0.831169H315.255V2.83117H313.255ZM306.167 2.83117V4.83117V2.83117ZM322.824 0V2V0ZM315.736 2.83117H313.736V0.831169H315.736V2.83117ZM315.736 52.9228L315.415 54.8969L313.736 54.6241V52.9228H315.736ZM323.37 62.9484L325.37 62.9461V62.9484H323.37ZM323.37 70.8783L321.886 72.2191L321.37 71.648V70.8783H323.37ZM343.698 93.3788L345.182 92.038L345.183 92.0393L343.698 93.3788ZM343.86 93.5984L345.576 92.572L345.578 92.5742L343.86 93.5984ZM341.125 99.4967L341.125 101.497H341.125V99.4967ZM322.676 99.4967H320.676V97.4967H322.676V99.4967ZM322.676 104.416H324.676L324.676 104.418L322.676 104.416ZM308.796 104.417L306.796 104.419L306.796 104.417L308.796 104.417ZM310.331 106.169V108.169L310.327 108.169L310.331 106.169ZM318.659 106.169L318.662 108.169H318.659V106.169ZM320.195 104.417H322.195L322.195 104.419L320.195 104.417ZM320.195 99.4972V97.4972H322.195V99.4972H320.195ZM308.796 99.4972L306.796 99.4975L306.795 97.4972H308.796V99.4972ZM314.495 55.653L314.493 53.653L314.498 53.653L314.495 55.653ZM308.102 62.9484H306.102V62.9465L308.102 62.9484ZM308.102 70.0618V72.0618H306.102V70.0618H308.102ZM320.889 70.0618H322.889V72.0618H320.889V70.0618ZM320.889 62.9484L322.889 62.9465V62.9484H320.889ZM341.856 96.1637L340.031 95.3442L340.041 95.3233L340.051 95.3027L341.856 96.1637ZM341.86 95.2896L343.344 93.9489L343.548 94.174L343.675 94.4493L341.86 95.2896ZM321.627 72.8929V70.8929H322.515L323.111 71.5522L321.627 72.8929ZM307.364 72.8929L305.88 71.5522L306.475 70.8929H307.364V72.8929ZM287.13 95.2896L285.308 94.4656L285.436 94.1808L285.646 93.9489L287.13 95.2896ZM287.866 96.666L287.864 94.666H287.866V96.666ZM341.125 96.666V94.666H341.14L341.155 94.6662L341.125 96.666ZM318.659 111H310.331V107H318.659V111ZM310.328 111C308.643 110.998 307.089 110.231 305.988 108.974L308.996 106.338C309.401 106.8 309.89 106.999 310.334 107L310.328 111ZM305.988 108.974C304.894 107.726 304.316 106.085 304.314 104.419L308.314 104.415C308.315 105.179 308.584 105.867 308.996 106.338L305.988 108.974ZM304.314 104.417V99.4972H308.314V104.417H304.314ZM306.314 101.497H287.866V97.4972H306.314V101.497ZM287.866 101.497C286.843 101.497 285.861 101.178 285.027 100.604L287.292 97.3077C287.488 97.4423 287.686 97.4972 287.866 97.4972L287.866 101.497ZM285.027 100.604C284.195 100.033 283.549 99.2375 283.127 98.3291L286.756 96.6464C286.898 96.9512 287.093 97.1708 287.292 97.3077L285.027 100.604ZM283.127 98.3291C282.707 97.4214 282.517 96.4159 282.565 95.4164L286.56 95.6104C286.542 95.9813 286.615 96.341 286.756 96.6464L283.127 98.3291ZM282.565 95.4164C282.614 94.4169 282.9 93.4345 283.413 92.5747L286.849 94.6232C286.685 94.8981 286.578 95.2395 286.56 95.6104L282.565 95.4164ZM283.414 92.5724C283.527 92.3844 283.658 92.2055 283.808 92.0397L286.778 94.7188C286.807 94.6867 286.83 94.655 286.847 94.6254L283.414 92.5724ZM283.809 92.0385L304.136 69.5376L307.104 72.219L286.777 94.72L283.809 92.0385ZM303.62 70.8783V62.9484H307.62V70.8783H303.62ZM303.62 62.9461C303.624 60.095 304.526 57.3081 306.208 55.0994L309.39 57.5228C308.267 58.997 307.623 60.9231 307.62 62.9508L303.62 62.9461ZM306.208 55.0994C307.893 52.886 310.269 51.3816 312.934 50.9487L313.575 54.8969C312.007 55.1518 310.509 56.0533 309.39 57.5228L306.208 55.0994ZM311.255 52.9228V2.83117H315.255V52.9228H311.255ZM313.255 4.83117H306.167V0.831169H313.255V4.83117ZM306.167 4.83117C305.216 4.83117 304.367 4.39786 303.785 3.73477L306.794 1.09834C306.678 0.966194 306.46 0.831169 306.167 0.831169V4.83117ZM303.785 3.73477C303.212 3.08012 302.926 2.24252 302.926 1.41558H306.926C306.926 1.33952 306.902 1.22204 306.794 1.09834L303.785 3.73477ZM302.926 1.41558C302.926 0.588652 303.212 -0.248953 303.785 -0.903599L306.794 1.73283C306.902 1.60913 306.926 1.49164 306.926 1.41558H302.926ZM303.785 -0.903599C304.367 -1.56669 305.216 -2 306.167 -2V2C306.46 2 306.678 1.86497 306.794 1.73283L303.785 -0.903599ZM306.167 -2H322.824V2H306.167V-2ZM322.824 -2C323.775 -2 324.624 -1.5667 325.205 -0.903599L322.197 1.73283C322.313 1.86499 322.531 2 322.824 2V-2ZM325.205 -0.903599C325.779 -0.248935 326.064 0.588676 326.064 1.41558H322.064C322.064 1.49162 322.088 1.60911 322.197 1.73283L325.205 -0.903599ZM326.064 1.41558C326.064 2.24249 325.779 3.0801 325.205 3.73477L322.197 1.09834C322.088 1.22206 322.064 1.33955 322.064 1.41558H326.064ZM325.205 3.73477C324.624 4.39787 323.775 4.83117 322.824 4.83117V0.831169C322.531 0.831169 322.313 0.966182 322.197 1.09834L325.205 3.73477ZM322.824 4.83117H315.736V0.831169H322.824V4.83117ZM317.736 2.83117V52.9228H313.736V2.83117H317.736ZM316.057 50.9487C318.721 51.3816 321.097 52.886 322.783 55.0994L319.6 57.5228C318.482 56.0533 316.984 55.1518 315.415 54.8969L316.057 50.9487ZM322.783 55.0994C324.465 57.3081 325.367 60.095 325.37 62.9461L321.37 62.9508C321.368 60.9231 320.723 58.997 319.6 57.5228L322.783 55.0994ZM325.37 62.9484V70.8783H321.37V62.9484H325.37ZM324.854 69.5376L345.182 92.038L342.214 94.7195L321.886 72.2191L324.854 69.5376ZM345.183 92.0393C345.333 92.2051 345.464 92.384 345.576 92.572L342.143 94.6249C342.161 94.6544 342.184 94.6861 342.213 94.7183L345.183 92.0393ZM345.578 92.5742C346.09 93.4341 346.377 94.4164 346.425 95.4159L342.43 95.61C342.412 95.239 342.306 94.8976 342.142 94.6227L345.578 92.5742ZM346.425 95.4159C346.474 96.4154 346.284 97.4209 345.863 98.3287L342.234 96.6459C342.376 96.3405 342.448 95.9809 342.43 95.61L346.425 95.4159ZM345.863 98.3287C345.442 99.237 344.795 100.033 343.964 100.604L341.699 97.3072C341.898 97.1703 342.093 96.9507 342.234 96.6459L345.863 98.3287ZM343.964 100.604C343.129 101.177 342.147 101.497 341.125 101.497L341.124 97.4967C341.305 97.4967 341.503 97.4418 341.699 97.3072L343.964 100.604ZM341.125 101.497H322.676V97.4967H341.125V101.497ZM324.676 99.4967V104.416H320.676V99.4967H324.676ZM324.676 104.418C324.675 106.084 324.096 107.726 323.003 108.974L319.994 106.338C320.407 105.867 320.676 105.179 320.676 104.415L324.676 104.418ZM323.003 108.974C321.902 110.23 320.348 110.998 318.662 111L318.657 107C319.101 106.999 319.589 106.8 319.994 106.338L323.003 108.974ZM310.796 104.415C310.796 104.417 310.797 104.413 310.793 104.404C310.79 104.394 310.779 104.369 310.751 104.337L307.742 106.973C307.114 106.256 306.797 105.334 306.796 104.419L310.796 104.415ZM310.751 104.337C310.691 104.268 310.549 104.169 310.335 104.169L310.327 108.169C309.3 108.167 308.377 107.698 307.742 106.973L310.751 104.337ZM310.331 104.169H318.659V108.169H310.331V104.169ZM318.657 104.169C318.443 104.169 318.301 104.268 318.241 104.337L321.249 106.973C320.613 107.699 319.69 108.168 318.662 108.169L318.657 104.169ZM318.241 104.337C318.212 104.369 318.201 104.394 318.198 104.404C318.194 104.413 318.195 104.417 318.195 104.415L322.195 104.419C322.194 105.334 321.877 106.256 321.249 106.973L318.241 104.337ZM318.195 104.417V99.4972H322.195V104.417H318.195ZM320.195 101.497H308.796V97.4972H320.195V101.497ZM310.796 99.4968L310.796 104.416L306.796 104.417L306.796 99.4975L310.796 99.4968ZM314.498 57.653C313.424 57.6544 312.331 58.1397 311.48 59.1104L308.472 56.474C310.019 54.7093 312.177 53.656 314.493 53.653L314.498 57.653ZM311.48 59.1104C310.622 60.0895 310.103 61.467 310.102 62.9504L306.102 62.9465C306.104 60.5615 306.933 58.2304 308.472 56.474L311.48 59.1104ZM310.102 62.9484V70.0618H306.102V62.9484H310.102ZM308.102 68.0618H320.889V72.0618H308.102V68.0618ZM318.889 70.0618V62.9484H322.889V70.0618H318.889ZM318.889 62.9504C318.887 61.4671 318.368 60.0895 317.51 59.1104L320.518 56.474C322.058 58.2304 322.887 60.5615 322.889 62.9465L318.889 62.9504ZM317.51 59.1104C316.659 58.1397 315.567 57.6544 314.493 57.653L314.498 53.653C316.814 53.656 318.972 54.7093 320.518 56.474L317.51 59.1104ZM340.051 95.3027C339.984 95.4417 339.955 95.5831 339.954 95.7165L343.954 95.7382C343.952 96.1766 343.855 96.6178 343.661 97.0248L340.051 95.3027ZM339.954 95.7165C339.954 95.8498 339.981 95.9909 340.046 96.1299L343.675 94.4493C343.865 94.858 343.957 95.2998 343.954 95.7382L339.954 95.7165ZM340.376 96.6303L320.143 74.2337L323.111 71.5522L343.344 93.9489L340.376 96.6303ZM321.627 74.8929H307.364V70.8929H321.627V74.8929ZM308.848 74.2337L288.614 96.6303L285.646 93.9489L305.88 71.5522L308.848 74.2337ZM288.952 96.1136C289.016 95.9723 289.042 95.8288 289.038 95.6934L285.039 95.8186C285.025 95.3595 285.114 94.8948 285.308 94.4656L288.952 96.1136ZM289.038 95.6934C289.033 95.558 288.999 95.413 288.923 95.2708L285.395 97.1568C285.171 96.738 285.054 96.2777 285.039 95.8186L289.038 95.6934ZM288.923 95.2708C288.846 95.1279 288.722 94.9783 288.538 94.8607L286.383 98.2302C285.951 97.9543 285.619 97.5761 285.395 97.1568L288.923 95.2708ZM288.538 94.8607C288.352 94.7413 288.118 94.6657 287.864 94.666L287.868 98.666C287.33 98.6667 286.817 98.508 286.383 98.2302L288.538 94.8607ZM287.866 94.666H341.125V98.666H287.866V94.666ZM341.155 94.6662C340.874 94.662 340.619 94.749 340.42 94.8853L342.685 98.1822C342.229 98.4959 341.677 98.6746 341.094 98.6658L341.155 94.6662ZM340.42 94.8853C340.226 95.019 340.102 95.1875 340.031 95.3442L343.68 96.9832C343.472 97.4462 343.138 97.871 342.685 98.1822L340.42 94.8853Z" fill="black" mask="url(#path-102-inside-1_339_2898)"/>
</svg>
