<svg width="579" height="362" viewBox="0 0 579 362" fill="none" xmlns="http://www.w3.org/2000/svg">
<g clip-path="url(#clip0_1101_2254)">
<path fill-rule="evenodd" clip-rule="evenodd" d="M72.9575 157.103H3.51896C1.40817 157.103 0 155.459 0 153.583V40.4681C0 38.5918 1.40817 36.9479 3.51896 36.9479H72.9575C75.0683 36.9479 76.4765 38.5918 76.4765 40.4681V153.583C76.4765 155.459 75.0683 157.103 72.9575 157.103ZM3.51896 39.7652C3.04861 39.7652 2.81633 40.0005 2.81633 40.4681V153.583C2.81633 154.054 3.05151 154.286 3.51896 154.286H72.9575C73.4279 154.286 73.6601 154.051 73.6601 153.583V40.4681C73.6601 39.9976 73.425 39.7652 72.9575 39.7652H3.51896Z" fill="black"/>
<path fill-rule="evenodd" clip-rule="evenodd" d="M66.8603 147.246H55.833C54.8952 147.246 54.4249 146.775 54.4249 145.837C54.4249 145.134 54.8952 144.428 55.833 144.428H65.4521V137.623C65.4521 136.92 65.9225 136.214 66.8603 136.214C67.5629 136.214 68.2685 136.917 68.2685 137.623V145.837C68.2685 146.775 67.5658 147.246 66.8603 147.246ZM20.6434 147.246H9.61617C8.91354 147.246 8.20801 146.775 8.20801 145.837V137.623C8.20801 136.92 8.91064 136.214 9.61617 136.214C10.554 136.214 11.0243 136.917 11.0243 137.623V144.428H20.6434C21.5812 144.428 22.0516 145.131 22.0516 145.837C22.0516 146.775 21.5812 147.246 20.6434 147.246ZM66.8603 57.834C65.9225 57.834 65.4521 57.1311 65.4521 56.4253V49.6201H55.833C54.8952 49.6201 54.4249 48.9172 54.4249 48.2114C54.4249 47.2733 54.8952 46.8027 55.833 46.8027H66.8603C67.5629 46.8027 68.2685 47.2733 68.2685 48.2114V56.4253C68.2685 57.1282 67.5658 57.834 66.8603 57.834ZM9.61908 57.834C8.91645 57.834 8.21091 57.1311 8.21091 56.4253V48.2114C8.21091 47.2733 8.91354 46.8027 9.61908 46.8027H20.6463C21.5841 46.8027 22.0545 47.2733 22.0545 48.2114C22.0545 48.9143 21.5841 49.6201 20.6463 49.6201H11.0272V56.4253C11.0272 57.1282 10.5569 57.834 9.61908 57.834Z" fill="black"/>
<path fill-rule="evenodd" clip-rule="evenodd" d="M60.2898 101.953H16.1866C14.7785 101.953 13.6055 100.78 13.6055 99.371V63.4658C13.6055 62.0571 14.7785 60.8837 16.1866 60.8837H60.2898C61.698 60.8837 62.8709 62.0571 62.8709 63.4658V99.371C62.8709 100.78 61.698 101.953 60.2898 101.953ZM16.4218 99.1386H60.0575V63.701H16.4218V99.1386Z" fill="black"/>
<path fill-rule="evenodd" clip-rule="evenodd" d="M50.2033 101.953H26.2761C25.5735 101.953 24.8679 101.25 24.8679 100.544V91.1571C24.8679 87.4016 27.9165 84.5872 31.4355 84.5872H45.041C48.5599 84.5872 51.6085 87.4045 51.6085 91.1571V100.544C51.6085 101.247 50.9059 101.953 50.2004 101.953H50.2033ZM27.6813 99.1386H48.7951V91.16C48.7951 89.0484 47.1518 87.4045 45.041 87.4045H31.4355C29.3247 87.4045 27.6813 89.0484 27.6813 91.16V99.1386Z" fill="black"/>
<path fill-rule="evenodd" clip-rule="evenodd" d="M38.2382 87.4045C33.0759 87.4045 28.8543 82.9461 28.8543 77.7819C28.8543 72.6178 33.0759 68.3947 38.2382 68.3947C43.4005 68.3947 47.6221 72.6178 47.6221 77.7819C47.6221 82.9461 43.4005 87.4045 38.2382 87.4045ZM38.2382 71.212C34.4841 71.212 31.6706 74.0293 31.6706 77.7819C31.6706 81.5345 34.487 84.5871 38.2382 84.5871C41.9894 84.5871 44.8058 81.5374 44.8058 77.7819C44.8058 74.0264 41.9894 71.212 38.2382 71.212Z" fill="black"/>
<path fill-rule="evenodd" clip-rule="evenodd" d="M57.4764 112.278H19.003C18.0651 112.278 17.5948 111.808 17.5948 110.87C17.5948 110.167 18.0651 109.461 19.003 109.461H57.4764C58.4142 109.461 58.8845 110.164 58.8845 110.87C58.8845 111.808 58.4142 112.278 57.4764 112.278Z" fill="black"/>
<path fill-rule="evenodd" clip-rule="evenodd" d="M57.4764 122.839H19.003C18.0651 122.839 17.5948 122.136 17.5948 121.43C17.5948 120.492 18.0651 120.022 19.003 120.022H57.4764C58.4142 120.022 58.8845 120.492 58.8845 121.43C58.8845 122.133 58.4142 122.839 57.4764 122.839Z" fill="black"/>
<path fill-rule="evenodd" clip-rule="evenodd" d="M57.4764 133.167H19.003C18.0651 133.167 17.5948 132.465 17.5948 131.759C17.5948 130.821 18.0651 130.35 19.003 130.35H57.4764C58.4142 130.35 58.8845 130.821 58.8845 131.759C58.8845 132.462 58.4142 133.167 57.4764 133.167Z" fill="black"/>
<path fill-rule="evenodd" clip-rule="evenodd" d="M173.463 156.891H104.024C101.913 156.891 100.505 155.247 100.505 153.371V40.259C100.505 38.3827 101.913 36.7388 104.024 36.7388H173.463C175.574 36.7388 176.982 38.3827 176.982 40.259V153.374C176.982 155.25 175.574 156.894 173.463 156.894V156.891ZM104.024 39.5532C103.554 39.5532 103.322 39.7885 103.322 40.2561V153.371C103.322 153.842 103.557 154.074 104.024 154.074H173.463C173.933 154.074 174.165 153.839 174.165 153.371V40.259C174.165 39.7885 173.93 39.5561 173.463 39.5561H104.024V39.5532Z" fill="black"/>
<path fill-rule="evenodd" clip-rule="evenodd" d="M167.363 147.036H156.335C155.398 147.036 154.927 146.566 154.927 145.628C154.927 144.925 155.398 144.219 156.335 144.219H165.955V137.414C165.955 136.711 166.425 136.005 167.363 136.005C168.065 136.005 168.771 136.708 168.771 137.414V145.628C168.771 146.566 168.068 147.036 167.363 147.036ZM121.149 147.036H110.121C109.419 147.036 108.713 146.566 108.713 145.628V137.414C108.713 136.711 109.416 136.005 110.121 136.005C111.059 136.005 111.53 136.708 111.53 137.414V144.219H121.149C122.087 144.219 122.557 144.922 122.557 145.628C122.557 146.566 122.087 147.036 121.149 147.036ZM167.363 57.6248C166.425 57.6248 165.955 56.922 165.955 56.2162V49.411H156.335C155.398 49.411 154.927 48.7081 154.927 48.0023C154.927 47.0642 155.398 46.5936 156.335 46.5936H167.363C168.065 46.5936 168.771 47.0642 168.771 48.0023V56.2162C168.771 56.9191 168.068 57.6248 167.363 57.6248ZM110.121 57.6248C109.419 57.6248 108.713 56.922 108.713 56.2162V48.0023C108.713 47.0642 109.416 46.5936 110.121 46.5936H121.149C122.087 46.5936 122.557 47.0642 122.557 48.0023C122.557 48.7052 122.087 49.411 121.149 49.411H111.53V56.2162C111.53 56.9191 111.059 57.6248 110.121 57.6248Z" fill="black"/>
<path fill-rule="evenodd" clip-rule="evenodd" d="M160.795 101.744H116.692C115.284 101.744 114.111 100.571 114.111 99.1618V63.2566C114.111 61.848 115.284 60.6746 116.692 60.6746H160.795C162.203 60.6746 163.376 61.848 163.376 63.2566V99.1618C163.376 100.571 162.203 101.744 160.795 101.744ZM116.927 98.9266H160.563V63.489H116.927V98.9266Z" fill="black"/>
<path fill-rule="evenodd" clip-rule="evenodd" d="M150.709 101.744H126.781C126.079 101.744 125.373 101.041 125.373 100.335V90.948C125.373 87.1925 128.422 84.3781 131.941 84.3781H145.546C149.065 84.3781 152.114 87.1954 152.114 90.948V100.335C152.114 101.038 151.411 101.744 150.706 101.744H150.709ZM128.187 98.9266H149.3V90.948C149.3 88.8364 147.657 87.1925 145.546 87.1925H131.941C129.83 87.1925 128.187 88.8364 128.187 90.948V98.9266Z" fill="black"/>
<path fill-rule="evenodd" clip-rule="evenodd" d="M138.744 87.1924C133.581 87.1924 129.36 82.7341 129.36 77.5699C129.36 72.4057 133.581 68.1826 138.744 68.1826C143.906 68.1826 148.127 72.4057 148.127 77.5699C148.127 82.7341 143.906 87.1924 138.744 87.1924ZM138.744 71C134.989 71 132.176 73.8173 132.176 77.5699C132.176 81.3225 134.992 84.3751 138.744 84.3751C142.495 84.3751 145.311 81.3254 145.311 77.5699C145.311 73.8144 142.495 71 138.744 71Z" fill="black"/>
<path fill-rule="evenodd" clip-rule="evenodd" d="M157.979 112.069H119.505C118.568 112.069 118.097 111.599 118.097 110.661C118.097 109.958 118.568 109.252 119.505 109.252H157.979C158.917 109.252 159.387 109.955 159.387 110.661C159.387 111.599 158.917 112.069 157.979 112.069Z" fill="black"/>
<path fill-rule="evenodd" clip-rule="evenodd" d="M157.979 122.63H119.505C118.568 122.63 118.097 121.927 118.097 121.221C118.097 120.283 118.568 119.813 119.505 119.813H157.979C158.917 119.813 159.387 120.283 159.387 121.221C159.387 121.924 158.917 122.63 157.979 122.63Z" fill="black"/>
<path fill-rule="evenodd" clip-rule="evenodd" d="M157.979 132.955H119.505C118.568 132.955 118.097 132.253 118.097 131.547C118.097 130.609 118.568 130.138 119.505 130.138H157.979C158.917 130.138 159.387 130.609 159.387 131.547C159.387 132.25 158.917 132.955 157.979 132.955Z" fill="black"/>
<path fill-rule="evenodd" clip-rule="evenodd" d="M273.968 156.891H204.53C202.419 156.891 201.011 155.247 201.011 153.371V40.259C201.011 38.3827 202.419 36.7388 204.53 36.7388H273.968C276.079 36.7388 277.487 38.3827 277.487 40.259V153.374C277.487 155.25 276.079 156.894 273.968 156.894V156.891ZM204.527 39.5532C204.056 39.5532 203.824 39.7885 203.824 40.2561V153.371C203.824 153.842 204.059 154.074 204.527 154.074H273.965C274.436 154.074 274.668 153.839 274.668 153.371V40.259C274.668 39.7885 274.433 39.5561 273.965 39.5561H204.527V39.5532Z" fill="black"/>
<path fill-rule="evenodd" clip-rule="evenodd" d="M267.868 147.036H256.841C255.903 147.036 255.433 146.566 255.433 145.628C255.433 144.925 255.903 144.219 256.841 144.219H266.46V137.414C266.46 136.711 266.93 136.005 267.868 136.005C268.571 136.005 269.276 136.708 269.276 137.414V145.628C269.276 146.566 268.574 147.036 267.868 147.036ZM221.654 147.036H210.627C209.924 147.036 209.219 146.566 209.219 145.628V137.414C209.219 136.711 209.921 136.005 210.627 136.005C211.565 136.005 212.035 136.708 212.035 137.414V144.219H221.654C222.592 144.219 223.062 144.922 223.062 145.628C223.062 146.566 222.592 147.036 221.654 147.036ZM267.868 57.6248C266.93 57.6248 266.46 56.922 266.46 56.2162V49.411H256.841C255.903 49.411 255.433 48.7081 255.433 48.0023C255.433 47.0642 255.903 46.5936 256.841 46.5936H267.868C268.571 46.5936 269.276 47.0642 269.276 48.0023V56.2162C269.276 56.9191 268.574 57.6248 267.868 57.6248ZM210.627 57.6248C209.924 57.6248 209.219 56.922 209.219 56.2162V48.0023C209.219 47.0642 209.921 46.5936 210.627 46.5936H221.654C222.592 46.5936 223.062 47.0642 223.062 48.0023C223.062 48.7052 222.592 49.411 221.654 49.411H212.035V56.2162C212.035 56.9191 211.565 57.6248 210.627 57.6248Z" fill="black"/>
<path fill-rule="evenodd" clip-rule="evenodd" d="M261.3 101.744H217.197C215.789 101.744 214.616 100.571 214.616 99.1618V63.2566C214.616 61.848 215.789 60.6746 217.197 60.6746H261.3C262.709 60.6746 263.882 61.848 263.882 63.2566V99.1618C263.882 100.571 262.709 101.744 261.3 101.744ZM217.43 98.9266H261.065V63.489H217.43V98.9266Z" fill="black"/>
<path fill-rule="evenodd" clip-rule="evenodd" d="M251.211 101.744H227.284C226.581 101.744 225.876 101.041 225.876 100.335V90.948C225.876 87.1925 228.924 84.3781 232.443 84.3781H246.049C249.568 84.3781 252.616 87.1954 252.616 90.948V100.335C252.616 101.038 251.914 101.744 251.208 101.744H251.211ZM228.692 98.9266H249.806V90.948C249.806 88.8364 248.162 87.1925 246.052 87.1925H232.446C230.335 87.1925 228.692 88.8364 228.692 90.948V98.9266Z" fill="black"/>
<path fill-rule="evenodd" clip-rule="evenodd" d="M239.249 87.1924C234.087 87.1924 229.865 82.7341 229.865 77.5699C229.865 72.4057 234.087 68.1826 239.249 68.1826C244.411 68.1826 248.633 72.4057 248.633 77.5699C248.633 82.7341 244.411 87.1924 239.249 87.1924ZM239.249 71C235.495 71 232.681 73.8173 232.681 77.5699C232.681 81.3225 235.498 84.3751 239.249 84.3751C243 84.3751 245.816 81.3254 245.816 77.5699C245.816 73.8144 243 71 239.249 71Z" fill="black"/>
<path fill-rule="evenodd" clip-rule="evenodd" d="M258.484 112.069H220.011C219.073 112.069 218.602 111.599 218.602 110.661C218.602 109.958 219.073 109.252 220.011 109.252H258.484C259.422 109.252 259.892 109.955 259.892 110.661C259.892 111.599 259.422 112.069 258.484 112.069Z" fill="black"/>
<path fill-rule="evenodd" clip-rule="evenodd" d="M258.484 122.63H220.011C219.073 122.63 218.602 121.927 218.602 121.221C218.602 120.283 219.073 119.813 220.011 119.813H258.484C259.422 119.813 259.892 120.283 259.892 121.221C259.892 121.924 259.422 122.63 258.484 122.63Z" fill="black"/>
<path fill-rule="evenodd" clip-rule="evenodd" d="M258.484 132.955H220.011C219.073 132.955 218.602 132.253 218.602 131.547C218.602 130.609 219.073 130.138 220.011 130.138H258.484C259.422 130.138 259.892 130.609 259.892 131.547C259.892 132.25 259.422 132.955 258.484 132.955Z" fill="black"/>
<path fill-rule="evenodd" clip-rule="evenodd" d="M374.473 157.103H305.035C302.924 157.103 301.516 155.459 301.516 153.583V40.4681C301.516 38.5918 302.924 36.9479 305.035 36.9479H374.473C376.584 36.9479 377.992 38.5918 377.992 40.4681V153.583C377.992 155.459 376.584 157.103 374.473 157.103ZM305.032 39.7652C304.562 39.7652 304.329 40.0005 304.329 40.4681V153.583C304.329 154.054 304.564 154.286 305.032 154.286H374.47C374.941 154.286 375.173 154.051 375.173 153.583V40.4681C375.173 39.9976 374.938 39.7652 374.47 39.7652H305.032Z" fill="black"/>
<path fill-rule="evenodd" clip-rule="evenodd" d="M368.373 147.246H357.346C356.408 147.246 355.938 146.775 355.938 145.837C355.938 145.134 356.408 144.428 357.346 144.428H366.965V137.623C366.965 136.92 367.435 136.214 368.373 136.214C369.076 136.214 369.781 136.917 369.781 137.623V145.837C369.781 146.775 369.079 147.246 368.373 147.246ZM322.159 147.246H311.132C310.429 147.246 309.724 146.775 309.724 145.837V137.623C309.724 136.92 310.427 136.214 311.132 136.214C312.07 136.214 312.54 136.917 312.54 137.623V144.428H322.159C323.097 144.428 323.567 145.131 323.567 145.837C323.567 146.775 323.097 147.246 322.159 147.246ZM368.373 57.834C367.435 57.834 366.965 57.1311 366.965 56.4253V49.6201H357.346C356.408 49.6201 355.938 48.9172 355.938 48.2114C355.938 47.2733 356.408 46.8027 357.346 46.8027H368.373C369.076 46.8027 369.781 47.2733 369.781 48.2114V56.4253C369.781 57.1282 369.079 57.834 368.373 57.834ZM311.132 57.834C310.429 57.834 309.724 57.1311 309.724 56.4253V48.2114C309.724 47.2733 310.427 46.8027 311.132 46.8027H322.159C323.097 46.8027 323.567 47.2733 323.567 48.2114C323.567 48.9143 323.097 49.6201 322.159 49.6201H312.54V56.4253C312.54 57.1282 312.07 57.834 311.132 57.834Z" fill="black"/>
<path fill-rule="evenodd" clip-rule="evenodd" d="M361.803 101.953H317.7C316.291 101.953 315.118 100.78 315.118 99.371V63.4658C315.118 62.0571 316.291 60.8837 317.7 60.8837H361.803C363.211 60.8837 364.384 62.0571 364.384 63.4658V99.371C364.384 100.78 363.211 101.953 361.803 101.953ZM317.935 99.1386H361.57V63.701H317.935V99.1386Z" fill="black"/>
<path fill-rule="evenodd" clip-rule="evenodd" d="M351.716 101.953H327.789C327.086 101.953 326.381 101.25 326.381 100.544V91.1571C326.381 87.4016 329.429 84.5872 332.948 84.5872H346.554C350.073 84.5872 353.121 87.4045 353.121 91.1571V100.544C353.121 101.247 352.419 101.953 351.713 101.953H351.716ZM329.194 99.1386H350.308V91.16C350.308 89.0484 348.665 87.4045 346.554 87.4045H332.948C330.838 87.4045 329.194 89.0484 329.194 91.16V99.1386Z" fill="black"/>
<path fill-rule="evenodd" clip-rule="evenodd" d="M339.751 87.4045C334.589 87.4045 330.367 82.9461 330.367 77.7819C330.367 72.6178 334.589 68.3947 339.751 68.3947C344.914 68.3947 349.135 72.6178 349.135 77.7819C349.135 82.9461 344.914 87.4045 339.751 87.4045ZM339.751 71.212C335.997 71.212 333.184 74.0293 333.184 77.7819C333.184 81.5345 336 84.5871 339.751 84.5871C343.502 84.5871 346.319 81.5374 346.319 77.7819C346.319 74.0264 343.502 71.212 339.751 71.212Z" fill="black"/>
<path fill-rule="evenodd" clip-rule="evenodd" d="M358.989 112.278H320.516C319.578 112.278 319.108 111.808 319.108 110.87C319.108 110.167 319.578 109.461 320.516 109.461H358.989C359.927 109.461 360.398 110.164 360.398 110.87C360.398 111.808 359.927 112.278 358.989 112.278Z" fill="black"/>
<path fill-rule="evenodd" clip-rule="evenodd" d="M358.989 122.839H320.516C319.578 122.839 319.108 122.136 319.108 121.43C319.108 120.492 319.578 120.022 320.516 120.022H358.989C359.927 120.022 360.398 120.492 360.398 121.43C360.398 122.133 359.927 122.839 358.989 122.839Z" fill="black"/>
<path fill-rule="evenodd" clip-rule="evenodd" d="M358.989 133.167H320.516C319.578 133.167 319.108 132.465 319.108 131.759C319.108 130.821 319.578 130.35 320.516 130.35H358.989C359.927 130.35 360.398 130.821 360.398 131.759C360.398 132.462 359.927 133.167 358.989 133.167Z" fill="black"/>
<path fill-rule="evenodd" clip-rule="evenodd" d="M474.976 156.891H405.537C403.426 156.891 402.018 155.247 402.018 153.371V40.259C402.018 38.3827 403.426 36.7388 405.537 36.7388H474.976C477.087 36.7388 478.495 38.3827 478.495 40.259V153.374C478.495 155.25 477.087 156.894 474.976 156.894V156.891ZM405.537 39.5532C405.067 39.5532 404.835 39.7885 404.835 40.2561V153.371C404.835 153.842 405.07 154.074 405.537 154.074H474.976C475.446 154.074 475.678 153.839 475.678 153.371V40.259C475.678 39.7885 475.443 39.5561 474.976 39.5561H405.537V39.5532Z" fill="black"/>
<path fill-rule="evenodd" clip-rule="evenodd" d="M468.879 147.036H457.851C456.914 147.036 456.443 146.566 456.443 145.628C456.443 144.925 456.914 144.219 457.851 144.219H467.47V137.414C467.47 136.711 467.941 136.005 468.879 136.005C469.581 136.005 470.287 136.708 470.287 137.414V145.628C470.287 146.566 469.584 147.036 468.879 147.036ZM422.662 147.036H411.634C410.932 147.036 410.226 146.566 410.226 145.628V137.414C410.226 136.711 410.929 136.005 411.634 136.005C412.572 136.005 413.043 136.708 413.043 137.414V144.219H422.662C423.599 144.219 424.07 144.922 424.07 145.628C424.07 146.566 423.599 147.036 422.662 147.036ZM468.879 57.6248C467.941 57.6248 467.47 56.922 467.47 56.2162V49.411H457.851C456.914 49.411 456.443 48.7081 456.443 48.0023C456.443 47.0642 456.914 46.5936 457.851 46.5936H468.879C469.581 46.5936 470.287 47.0642 470.287 48.0023V56.2162C470.287 56.9191 469.584 57.6248 468.879 57.6248ZM411.637 57.6248C410.935 57.6248 410.229 56.922 410.229 56.2162V48.0023C410.229 47.0642 410.932 46.5936 411.637 46.5936H422.665C423.602 46.5936 424.073 47.0642 424.073 48.0023C424.073 48.7052 423.602 49.411 422.665 49.411H413.046V56.2162C413.046 56.9191 412.575 57.6248 411.637 57.6248Z" fill="black"/>
<path fill-rule="evenodd" clip-rule="evenodd" d="M462.308 101.744H418.205C416.797 101.744 415.624 100.571 415.624 99.1618V63.2566C415.624 61.848 416.797 60.6746 418.205 60.6746H462.308C463.716 60.6746 464.889 61.848 464.889 63.2566V99.1618C464.889 100.571 463.716 101.744 462.308 101.744ZM418.44 98.9266H462.076V63.489H418.44V98.9266Z" fill="black"/>
<path fill-rule="evenodd" clip-rule="evenodd" d="M452.222 101.744H428.294C427.592 101.744 426.886 101.041 426.886 100.335V90.948C426.886 87.1925 429.935 84.3781 433.454 84.3781H447.059C450.578 84.3781 453.627 87.1954 453.627 90.948V100.335C453.627 101.038 452.924 101.744 452.219 101.744H452.222ZM429.7 98.9266H450.813V90.948C450.813 88.8364 449.17 87.1925 447.059 87.1925H433.454C431.343 87.1925 429.7 88.8364 429.7 90.948V98.9266Z" fill="black"/>
<path fill-rule="evenodd" clip-rule="evenodd" d="M440.256 87.1924C435.094 87.1924 430.873 82.7341 430.873 77.5699C430.873 72.4057 435.094 68.1826 440.256 68.1826C445.419 68.1826 449.64 72.4057 449.64 77.5699C449.64 82.7341 445.419 87.1924 440.256 87.1924ZM440.256 71C436.502 71 433.689 73.8173 433.689 77.5699C433.689 81.3225 436.505 84.3751 440.256 84.3751C444.008 84.3751 446.824 81.3254 446.824 77.5699C446.824 73.8144 444.008 71 440.256 71Z" fill="black"/>
<path fill-rule="evenodd" clip-rule="evenodd" d="M459.495 112.069H421.021C420.083 112.069 419.613 111.599 419.613 110.661C419.613 109.958 420.083 109.252 421.021 109.252H459.495C460.432 109.252 460.903 109.955 460.903 110.661C460.903 111.599 460.432 112.069 459.495 112.069Z" fill="black"/>
<path fill-rule="evenodd" clip-rule="evenodd" d="M459.495 122.63H421.021C420.083 122.63 419.613 121.927 419.613 121.221C419.613 120.283 420.083 119.813 421.021 119.813H459.495C460.432 119.813 460.903 120.283 460.903 121.221C460.903 121.924 460.432 122.63 459.495 122.63Z" fill="black"/>
<path fill-rule="evenodd" clip-rule="evenodd" d="M459.495 132.955H421.021C420.083 132.955 419.613 132.253 419.613 131.547C419.613 130.609 420.083 130.138 421.021 130.138H459.495C460.432 130.138 460.903 130.609 460.903 131.547C460.903 132.25 460.432 132.955 459.495 132.955Z" fill="black"/>
<path fill-rule="evenodd" clip-rule="evenodd" d="M575.481 156.891H506.043C503.932 156.891 502.524 155.247 502.524 153.371V40.259C502.524 38.3827 503.932 36.7388 506.043 36.7388H575.481C577.592 36.7388 579 38.3827 579 40.259V153.374C579 155.25 577.592 156.894 575.481 156.894V156.891ZM506.043 39.5532C505.572 39.5532 505.34 39.7885 505.34 40.2561V153.371C505.34 153.842 505.575 154.074 506.043 154.074H575.481C575.951 154.074 576.184 153.839 576.184 153.371V40.259C576.184 39.7885 575.948 39.5561 575.481 39.5561H506.043V39.5532Z" fill="black"/>
<path fill-rule="evenodd" clip-rule="evenodd" d="M569.381 147.036H558.354C557.416 147.036 556.946 146.566 556.946 145.628C556.946 144.925 557.416 144.219 558.354 144.219H567.973V137.414C567.973 136.711 568.443 136.005 569.381 136.005C570.084 136.005 570.789 136.708 570.789 137.414V145.628C570.789 146.566 570.086 147.036 569.381 147.036ZM523.167 147.036H512.14C511.437 147.036 510.732 146.566 510.732 145.628V137.414C510.732 136.711 511.434 136.005 512.14 136.005C513.078 136.005 513.548 136.708 513.548 137.414V144.219H523.167C524.105 144.219 524.575 144.922 524.575 145.628C524.575 146.566 524.105 147.036 523.167 147.036ZM569.381 57.6248C568.443 57.6248 567.973 56.922 567.973 56.2162V49.411H558.354C557.416 49.411 556.946 48.7081 556.946 48.0023C556.946 47.0642 557.416 46.5936 558.354 46.5936H569.381C570.084 46.5936 570.789 47.0642 570.789 48.0023V56.2162C570.789 56.9191 570.086 57.6248 569.381 57.6248ZM512.143 57.6248C511.44 57.6248 510.734 56.922 510.734 56.2162V48.0023C510.734 47.0642 511.437 46.5936 512.143 46.5936H523.17C524.108 46.5936 524.578 47.0642 524.578 48.0023C524.578 48.7052 524.108 49.411 523.17 49.411H513.551V56.2162C513.551 56.9191 513.08 57.6248 512.143 57.6248Z" fill="black"/>
<path fill-rule="evenodd" clip-rule="evenodd" d="M562.813 101.744H518.71C517.302 101.744 516.129 100.571 516.129 99.1618V63.2566C516.129 61.848 517.302 60.6746 518.71 60.6746H562.813C564.222 60.6746 565.395 61.848 565.395 63.2566V99.1618C565.395 100.571 564.222 101.744 562.813 101.744ZM518.945 98.9266H562.581V63.489H518.945V98.9266Z" fill="black"/>
<path fill-rule="evenodd" clip-rule="evenodd" d="M552.727 101.744H528.8C528.097 101.744 527.391 101.041 527.391 100.335V90.948C527.391 87.1925 530.44 84.3781 533.959 84.3781H547.565C551.084 84.3781 554.132 87.1954 554.132 90.948V100.335C554.132 101.038 553.429 101.744 552.724 101.744H552.727ZM530.205 98.9266H551.319V90.948C551.319 88.8364 549.675 87.1925 547.565 87.1925H533.959C531.848 87.1925 530.205 88.8364 530.205 90.948V98.9266Z" fill="black"/>
<path fill-rule="evenodd" clip-rule="evenodd" d="M540.762 87.1924C535.599 87.1924 531.378 82.7341 531.378 77.5699C531.378 72.4057 535.599 68.1826 540.762 68.1826C545.924 68.1826 550.146 72.4057 550.146 77.5699C550.146 82.7341 545.924 87.1924 540.762 87.1924ZM540.762 71C537.008 71 534.194 73.8173 534.194 77.5699C534.194 81.3225 537.011 84.3751 540.762 84.3751C544.513 84.3751 547.329 81.3254 547.329 77.5699C547.329 73.8144 544.513 71 540.762 71Z" fill="black"/>
<path fill-rule="evenodd" clip-rule="evenodd" d="M559.997 112.069H521.524C520.586 112.069 520.115 111.599 520.115 110.661C520.115 109.958 520.586 109.252 521.524 109.252H559.997C560.935 109.252 561.405 109.955 561.405 110.661C561.405 111.599 560.935 112.069 559.997 112.069Z" fill="black"/>
<path fill-rule="evenodd" clip-rule="evenodd" d="M559.997 122.63H521.524C520.586 122.63 520.115 121.927 520.115 121.221C520.115 120.283 520.586 119.813 521.524 119.813H559.997C560.935 119.813 561.405 120.283 561.405 121.221C561.405 121.924 560.935 122.63 559.997 122.63Z" fill="black"/>
<path fill-rule="evenodd" clip-rule="evenodd" d="M559.997 132.955H521.524C520.586 132.955 520.115 132.253 520.115 131.547C520.115 130.609 520.586 130.138 521.524 130.138H559.997C560.935 130.138 561.405 130.609 561.405 131.547C561.405 132.25 560.935 132.955 559.997 132.955Z" fill="black"/>
<path d="M339.836 47.5203C349.686 47.5203 357.672 39.532 357.672 29.678C357.672 19.8241 349.686 11.8358 339.836 11.8358C329.985 11.8358 322 19.8241 322 29.678C322 39.532 329.985 47.5203 339.836 47.5203Z" fill="white" stroke="black" stroke-width="2" stroke-miterlimit="10"/>
<path fill-rule="evenodd" clip-rule="evenodd" d="M347.904 23.3144C348.45 23.8168 348.488 24.665 347.986 25.211L338.14 35.9576C337.893 36.2277 337.545 36.3845 337.179 36.3932C336.813 36.402 336.459 36.2596 336.201 36.0011L331.724 31.5224C331.198 30.9967 331.198 30.1486 331.724 29.6229C332.249 29.0972 333.097 29.0972 333.622 29.6229L337.107 33.1083L346.006 23.3957C346.508 22.8497 347.356 22.8119 347.902 23.3144H347.904Z" fill="black"/>
<path d="M37.8358 47.5203C47.6862 47.5203 55.6716 39.532 55.6716 29.678C55.6716 19.8241 47.6862 11.8358 37.8358 11.8358C27.9854 11.8358 20 19.8241 20 29.678C20 39.532 27.9854 47.5203 37.8358 47.5203Z" fill="white" stroke="black" stroke-width="2" stroke-miterlimit="10"/>
<path fill-rule="evenodd" clip-rule="evenodd" d="M45.9044 23.3144C46.4503 23.8168 46.488 24.665 45.9857 25.211L36.1402 35.9576C35.8934 36.2277 35.545 36.3845 35.1792 36.3932C34.8133 36.402 34.4591 36.2596 34.2007 36.0011L29.7236 31.5224C29.1981 30.9967 29.1981 30.1486 29.7236 29.6229C30.2491 29.0972 31.0969 29.0972 31.6224 29.6229L35.1066 33.1083L44.0056 23.3957C44.5079 22.8497 45.3557 22.8119 45.9015 23.3144H45.9044Z" fill="black"/>
<path d="M136.836 47.6845C146.686 47.6845 154.672 39.6962 154.672 29.8422C154.672 19.9882 146.686 12 136.836 12C126.985 12 119 19.9882 119 29.8422C119 39.6962 126.985 47.6845 136.836 47.6845Z" fill="white" stroke="black" stroke-width="2" stroke-miterlimit="10"/>
<path fill-rule="evenodd" clip-rule="evenodd" d="M144.904 23.4786C145.45 23.981 145.488 24.8291 144.986 25.3752L135.14 36.1218C134.893 36.3919 134.545 36.5487 134.179 36.5574C133.813 36.5661 133.459 36.4238 133.201 36.1653L128.724 31.6866C128.198 31.1609 128.198 30.3128 128.724 29.7871C129.249 29.2614 130.097 29.2614 130.622 29.7871L134.107 33.2725L143.006 23.5599C143.508 23.0138 144.356 22.9761 144.902 23.4786H144.904Z" fill="black"/>
<path d="M238.836 46.6845C248.686 46.6845 256.672 38.6962 256.672 28.8422C256.672 18.9882 248.686 11 238.836 11C228.985 11 221 18.9882 221 28.8422C221 38.6962 228.985 46.6845 238.836 46.6845Z" fill="white" stroke="black" stroke-width="2" stroke-miterlimit="10"/>
<path d="M246.669 21.0089C246.176 20.5151 245.377 20.5151 244.887 21.0089L238.839 27.0589L232.791 21.0089C232.297 20.5151 231.499 20.5151 231.008 21.0089C230.515 21.5026 230.515 22.3014 231.008 22.7922L237.056 28.8423L231.008 34.8923C230.515 35.3861 230.515 36.1848 231.008 36.6756C231.255 36.9225 231.577 37.0445 231.9 37.0445C232.222 37.0445 232.544 36.9225 232.791 36.6756L238.839 30.6256L244.887 36.6756C245.133 36.9225 245.456 37.0445 245.778 37.0445C246.1 37.0445 246.422 36.9225 246.669 36.6756C247.163 36.1819 247.163 35.3832 246.669 34.8923L240.621 28.8423L246.669 22.7922C247.163 22.3014 247.163 21.4997 246.669 21.0089Z" fill="black"/>
<path d="M194.312 50.8458L196.658 62.4318L170.565 63.5297L175.1 31.4352L192.674 33.4683L194.312 50.8458Z" fill="white" stroke="black" stroke-width="2" stroke-miterlimit="10"/>
<path d="M194.312 50.8458L196.658 62.4318L170.565 63.5297L175.1 31.4352L192.674 33.4683L194.312 50.8458Z" fill="white"/>
<mask id="mask0_1101_2254" style="mask-type:luminance" maskUnits="userSpaceOnUse" x="170" y="31" width="27" height="33">
<path d="M194.312 50.8458L196.658 62.4318L170.565 63.5297L175.1 31.4352L192.674 33.4683L194.312 50.8458Z" fill="white"/>
</mask>
<g mask="url(#mask0_1101_2254)">
<path d="M205.943 33.2737L184.121 39.7768C184.4 41.9929 184.887 45.0223 185.66 47.1484C187.013 50.8719 194.82 57.529 199.881 57.407C204.941 57.285 205.502 41.2349 205.502 41.2349L208.582 39.4806C209.32 39.0623 209.523 38.0922 209.015 37.4126L205.94 33.2766L205.943 33.2737Z" fill="white" stroke="black" stroke-width="2" stroke-miterlimit="10"/>
</g>
<path d="M194.312 50.8458L196.658 62.4318L170.565 63.5297L175.1 31.4352L192.674 33.4683L194.312 50.8458Z" stroke="black" stroke-width="2" stroke-miterlimit="10"/>
<path d="M194.312 50.8458L196.658 62.4318L170.565 63.5297L175.1 31.4352L192.674 33.4683L194.312 50.8458Z" fill="white" stroke="black" stroke-width="2" stroke-miterlimit="10"/>
<path d="M195.511 10.0437C195.511 10.0437 201.843 11.3333 201.196 4.45546C200.548 -2.42235 188.74 1.78914 182.594 2.56464C176.447 3.34014 156.564 10.7582 163.594 22.4778C163.594 22.4778 159.456 29.0913 174.374 40.1864C174.374 40.1864 181.453 36.8462 185.346 41.72L188.38 35.8006L196.057 22.1931L195.514 10.0408L195.511 10.0437Z" fill="black" stroke="black" stroke-width="2" stroke-miterlimit="10"/>
<path d="M195.044 9.01263C195.044 9.01263 201.112 12.3993 204.602 8.16162C204.602 8.16162 204.976 17.2004 195.044 9.01263Z" fill="white" stroke="black" stroke-width="2" stroke-miterlimit="10"/>
<path d="M195.688 8.07446C195.688 8.07446 204.666 17.5895 204.413 24.113V30.0585L209.195 35.4289C209.729 36.0301 209.619 36.9653 208.957 37.4242L206.187 39.3441C206.187 39.3441 207 54.581 202.224 55.1212C197.445 55.6615 189.498 50.0152 187.907 46.6053C186.316 43.1925 185.308 37.0612 185.308 37.0612C185.308 37.0612 180.59 35.9546 180.03 30.9443C179.47 25.9341 184.516 26.0706 185.819 29.3585L186.879 32.0306L190.163 31.9144C190.163 31.9144 188.287 27.1889 189.399 25.7947C190.511 24.4006 194.869 21.0052 192.866 17.758C190.863 14.5108 191.545 9.0039 195.688 8.07446Z" fill="white" stroke="black" stroke-width="2" stroke-miterlimit="10"/>
<path d="M200.772 42.3241C200.772 42.3241 201.928 44.5605 204.602 44.1133L200.772 42.3241Z" fill="white"/>
<path d="M200.772 42.3241C200.772 42.3241 201.928 44.5605 204.602 44.1133" stroke="black" stroke-width="2" stroke-miterlimit="10"/>
<path d="M198.464 24.1536C198.464 24.1536 200.519 21.2956 202.465 23.9038L198.464 24.1536Z" fill="white"/>
<path d="M198.464 24.1536C198.464 24.1536 200.519 21.2956 202.465 23.9038" stroke="black" stroke-width="2" stroke-miterlimit="10"/>
<path d="M201.704 30.102C201.727 30.9937 201.359 31.7286 200.88 31.7402C200.4 31.7518 199.991 31.0402 199.965 30.1485C199.939 29.2568 200.31 28.522 200.79 28.5104C201.269 28.4988 201.678 29.2104 201.704 30.102Z" fill="black" stroke="black" stroke-width="2" stroke-miterlimit="10"/>
<path d="M160.321 316.08L156.556 348.52L167.766 350.248L173.941 318.18L160.321 316.08Z" fill="white" stroke="black" stroke-width="2" stroke-miterlimit="10"/>
<path d="M155.034 172.727C155.034 172.727 155.493 191.519 162.174 204.78L163.689 254.665L156.03 335.046L173.059 336.67L188.549 252.594L193.76 176.421L155.034 172.729V172.727Z" fill="white" stroke="black" stroke-width="2" stroke-miterlimit="10"/>
<path d="M155.034 172.727C155.034 172.727 155.493 191.519 162.174 204.78L163.689 254.665L156.03 335.046L173.059 336.67L188.549 252.594L193.76 176.421L155.034 172.729V172.727Z" fill="white"/>
<mask id="mask1_1101_2254" style="mask-type:luminance" maskUnits="userSpaceOnUse" x="155" y="172" width="39" height="165">
<path d="M155.034 172.727C155.034 172.727 155.493 191.519 162.174 204.78L163.689 254.665L156.03 335.046L173.059 336.67L188.549 252.594L193.76 176.421L155.034 172.729V172.727Z" fill="white"/>
</mask>
<g mask="url(#mask1_1101_2254)">
<path opacity="0.2" d="M153.539 179.169L169.078 188.013C169.078 188.013 169.325 194.792 172.275 201.896C172.975 203.581 171.636 205.402 169.819 205.26C168.428 205.152 167.261 205.315 167.261 206.16C167.261 208.254 177.356 215.004 177.356 215.004C177.356 215.004 187.532 247.926 187.167 260.088C186.801 272.249 187.175 278.763 187.175 278.763L199.338 263.637L189.823 204.066L183.311 175.91L163.538 165.904L155.031 172.727L153.536 179.169H153.539Z" fill="white" stroke="black" stroke-width="2" stroke-miterlimit="10"/>
</g>
<path d="M155.034 172.727C155.034 172.727 155.493 191.519 162.174 204.78L163.689 254.665L156.03 335.046L173.059 336.67L188.549 252.594L193.76 176.421L155.034 172.729V172.727Z" stroke="black" stroke-width="2" stroke-miterlimit="10"/>
<path d="M155.034 172.727C155.034 172.727 155.493 191.519 162.174 204.78L163.689 254.665L156.03 335.046L173.059 336.67L188.549 252.594L193.76 176.421L155.034 172.729V172.727Z" fill="white" stroke="black" stroke-width="2" stroke-miterlimit="10"/>
<path d="M194.547 318.206L195.767 350.841H207.11L208.33 318.206H194.547Z" fill="white" stroke="black" stroke-width="2" stroke-miterlimit="10"/>
<path d="M225.181 355.439C221.953 354.367 216.378 352.418 214.29 351.102C212.618 350.048 210.269 346.629 208.539 345.668C208.034 345.389 206.678 345.302 206.231 345.668C205.406 346.342 205.374 349.839 205.374 349.839C205.374 349.839 203.917 346.266 202.857 345.668C201.379 344.834 197.387 344.596 196.071 345.668C193.903 347.437 193.119 353.577 192.689 356.342C192.596 356.943 192.689 360.307 192.689 360.307H227.577V358.773C227.577 357.26 226.613 355.915 225.178 355.436L225.181 355.439Z" fill="white" stroke="black" stroke-width="2" stroke-miterlimit="10"/>
<path d="M218.277 174.281L215.487 249.675L210.835 335.775H193.156C193.156 335.775 189.434 269.69 190.366 250.607L181.061 206.395C181.061 206.395 171.291 193.363 173.616 177.539L218.277 174.281Z" fill="white" stroke="black" stroke-width="2" stroke-miterlimit="10"/>
<path d="M191.525 329.377L192.105 339.731H211.529L213.042 329.377H191.525Z" fill="white" stroke="black" stroke-width="2" stroke-miterlimit="10"/>
<path d="M154.564 328.479L154.16 338.843L173.494 340.687L175.983 330.521L154.564 328.479Z" fill="white" stroke="black" stroke-width="2" stroke-miterlimit="10"/>
<path d="M247.677 124.646L220.841 107.573L249.12 79.2836L275.957 96.3561L247.677 124.646Z" fill="white" stroke="black" stroke-width="2" stroke-miterlimit="10"/>
<path d="M249.216 118.805L227.635 105.078L250.374 82.3304L271.953 96.057L249.216 118.805Z" fill="white" stroke="black" stroke-width="2" stroke-miterlimit="10"/>
<path d="M250.787 95.2437L254.55 91.4795L249.707 88.3978L245.944 92.162L250.787 95.2437Z" fill="white" stroke="black" stroke-width="2" stroke-miterlimit="10"/>
<path d="M244.936 101.096L248.699 97.332L243.856 94.2504L240.093 98.0146L244.936 101.096Z" fill="white" stroke="black" stroke-width="2" stroke-miterlimit="10"/>
<path d="M238.883 107.152L242.645 103.388L237.802 100.306L234.04 104.07L238.883 107.152Z" fill="white" stroke="black" stroke-width="2" stroke-miterlimit="10"/>
<path d="M260.017 83.6867L256.445 87.2593C255.725 87.9796 255.856 89.182 256.715 89.7281L261.933 93.0479C263.106 93.7943 264.639 93.6259 265.62 92.6413L268.916 89.3447L260.017 83.6838V83.6867Z" fill="white" stroke="black" stroke-width="2" stroke-miterlimit="10"/>
<path d="M164.54 61.6563L169.191 51.418C169.191 51.418 196.176 48.3944 203.385 70.9651L164.537 61.6563H164.54Z" fill="white" stroke="black" stroke-width="2" stroke-miterlimit="10"/>
<path d="M149.19 70.3813C149.19 70.3813 142.541 121.416 144.306 139.493C145.7 153.804 155.124 165.904 155.124 165.904L169.081 160.435L161.985 139.491C161.985 139.491 164.195 101.793 166.288 93.0682L149.19 70.3813Z" fill="white" stroke="black" stroke-width="2" stroke-miterlimit="10"/>
<path d="M151.109 163.403L155.034 168.114L171.172 161.832L169.078 155.549L151.109 163.403Z" fill="white" stroke="black" stroke-width="2" stroke-miterlimit="10"/>
<path d="M149.19 70.3813C149.19 70.3813 147.096 99.7021 153.028 120.295C158.96 140.888 153.028 174.745 153.028 174.745C153.028 174.745 180.593 192.547 222.812 178.933C222.812 178.933 217.577 78.755 210.6 73.1726C203.623 67.5872 164.195 46.2945 149.19 70.3813Z" fill="white" stroke="black" stroke-width="2" stroke-miterlimit="10"/>
<path d="M149.19 70.3813C149.19 70.3813 147.096 99.7021 153.028 120.295C158.96 140.888 153.028 174.745 153.028 174.745C153.028 174.745 180.593 192.547 222.812 178.933C222.812 178.933 217.577 78.755 210.6 73.1726C203.623 67.5872 164.195 46.2945 149.19 70.3813Z" fill="white"/>
<mask id="mask2_1101_2254" style="mask-type:luminance" maskUnits="userSpaceOnUse" x="148" y="59" width="75" height="126">
<path d="M149.19 70.3813C149.19 70.3813 147.096 99.7021 153.028 120.295C158.96 140.888 153.028 174.745 153.028 174.745C153.028 174.745 180.593 192.547 222.812 178.933C222.812 178.933 217.577 78.755 210.6 73.1726C203.623 67.5872 164.195 46.2945 149.19 70.3813Z" fill="white"/>
</mask>
<g mask="url(#mask2_1101_2254)">
<path opacity="0.2" d="M233.116 185.683L230.93 168.114L222.812 127.274C222.812 127.274 202.299 68.0694 201.527 108.16C200.758 148.248 225.416 145.892 205.876 152.872C194.036 157.103 184.568 153.929 178.944 150.772C177.431 149.923 175.878 151.808 176.952 153.174C181.853 159.412 189.306 163.296 195.049 165.535C197.43 166.464 197.053 169.979 194.527 170.351C168.985 174.124 151.109 153.801 151.109 153.801L141.676 183.122L145.665 185.681H233.116V185.683Z" fill="white" stroke="black" stroke-width="2" stroke-miterlimit="10"/>
</g>
<path d="M149.19 70.3813C149.19 70.3813 147.096 99.7021 153.028 120.295C158.96 140.888 153.028 174.745 153.028 174.745C153.028 174.745 180.593 192.547 222.812 178.933C222.812 178.933 217.577 78.755 210.6 73.1726C203.623 67.5872 164.195 46.2945 149.19 70.3813Z" stroke="black" stroke-width="2" stroke-miterlimit="10"/>
<path d="M149.19 70.3813C149.19 70.3813 147.096 99.7021 153.028 120.295C158.96 140.888 153.028 174.745 153.028 174.745C153.028 174.745 180.593 192.547 222.812 178.933C222.812 178.933 217.577 78.755 210.6 73.1726C203.623 67.5872 164.195 46.2945 149.19 70.3813Z" fill="white" stroke="black" stroke-width="2" stroke-miterlimit="10"/>
<path d="M210.6 73.1755C210.6 73.1755 218.625 76.3153 220.022 85.9175C221.416 95.5168 230.315 125.012 230.315 125.012L233.279 123.092C233.279 123.092 241.827 126.583 240.433 136.357C240.433 136.357 233.186 150.563 225.254 147.876C217.113 145.12 212.551 138.462 208.507 127.562C206.352 121.756 200.13 104.248 200.13 104.248" fill="white"/>
<path d="M210.6 73.1755C210.6 73.1755 218.625 76.3153 220.022 85.9175C221.416 95.5168 230.315 125.012 230.315 125.012L233.279 123.092C233.279 123.092 241.827 126.583 240.433 136.357C240.433 136.357 233.186 150.563 225.254 147.876C217.113 145.12 212.551 138.462 208.507 127.562C206.352 121.756 200.13 104.248 200.13 104.248" stroke="black" stroke-width="2" stroke-miterlimit="10"/>
<path d="M233.909 133.562C233.953 134.257 233.923 135.012 233.804 135.831L233.909 133.562Z" fill="white"/>
<path d="M233.909 133.562C233.953 134.257 233.923 135.012 233.804 135.831" stroke="black" stroke-width="2" stroke-miterlimit="10"/>
<path d="M228.57 139.493C228.57 139.493 231.011 135.654 230.663 127.277C230.663 127.277 232.341 128.372 233.291 130.751" fill="white"/>
<path d="M228.57 139.493C228.57 139.493 231.011 135.654 230.663 127.277C230.663 127.277 232.341 128.372 233.291 130.751" stroke="black" stroke-width="2" stroke-miterlimit="10"/>
<path d="M235.256 122.276L244.562 115.645C244.562 115.645 245.839 108.782 252.819 106.92C252.819 106.92 257.122 99.8212 259.564 100.637C262.005 101.451 256.657 104.361 256.19 108.084L258.167 110.733C258.167 110.733 264.563 109.598 266.192 107.504C266.192 107.504 265.844 111.924 263.286 112.624C263.286 112.624 263.286 115.999 261.541 115.88L248.746 119.487L241.301 133.391L235.253 122.279L235.256 122.276Z" fill="white" stroke="black" stroke-width="2" stroke-miterlimit="10"/>
<path d="M197.157 154.553C198.586 154.42 200.043 154.176 201.527 153.804L197.157 154.553Z" fill="white"/>
<path d="M197.157 154.553C198.586 154.42 200.043 154.176 201.527 153.804" stroke="black" stroke-width="2" stroke-miterlimit="10"/>
<path d="M160.589 133.385C160.589 133.385 174.307 154.388 194.132 154.672L160.589 133.385Z" fill="white"/>
<path d="M160.589 133.385C160.589 133.385 174.307 154.388 194.132 154.672" stroke="black" stroke-width="2" stroke-miterlimit="10"/>
<path d="M231.247 122.508C231.247 122.508 240.956 129.839 240.024 138.68L243.514 131.991C243.514 131.991 243.397 126.348 235.372 120.414L231.247 122.508Z" fill="white" stroke="black" stroke-width="2" stroke-miterlimit="10"/>
<path d="M192.692 360.31H227.579V358.776C227.579 358.387 227.513 358.012 227.397 357.658H192.651C192.651 358.831 192.692 360.31 192.692 360.31Z" fill="white" stroke="black" stroke-width="2" stroke-miterlimit="10"/>
<path d="M185.332 355.439C182.103 354.367 176.528 352.418 174.441 351.102C172.768 350.048 170.42 346.629 168.689 345.668C168.184 345.389 166.828 345.302 166.381 345.668C165.556 346.342 165.524 349.839 165.524 349.839C165.524 349.839 164.067 346.266 163.007 345.668C161.529 344.834 157.537 344.596 156.222 345.668C154.053 347.437 153.269 353.577 152.839 356.342C152.746 356.943 152.839 360.307 152.839 360.307H187.727V358.773C187.727 357.26 186.763 355.915 185.329 355.436L185.332 355.439Z" fill="white" stroke="black" stroke-width="2" stroke-miterlimit="10"/>
<path d="M152.839 360.31H187.727V358.776C187.727 358.387 187.663 358.012 187.544 357.658H152.799C152.799 358.831 152.839 360.31 152.839 360.31Z" fill="white" stroke="black" stroke-width="2" stroke-miterlimit="10"/>
<path d="M204.25 251.072C204.25 251.072 200.548 257.462 194.55 255.028L204.25 251.072Z" fill="white"/>
<path d="M204.25 251.072C204.25 251.072 200.548 257.462 194.55 255.028" stroke="black" stroke-width="2" stroke-miterlimit="10"/>
<path d="M178.427 253.326C178.427 253.326 171.778 258.998 166.282 255.028L178.427 253.326Z" fill="white"/>
<path d="M178.427 253.326C178.427 253.326 171.778 258.998 166.282 255.028" stroke="black" stroke-width="2" stroke-miterlimit="10"/>
<path d="M247.779 87.9505L248.699 92.5745H256.936L250.247 91.0031L250.569 87.8634L247.779 87.9505Z" fill="white" stroke="black" stroke-width="2" stroke-miterlimit="10"/>
<path d="M376.901 329.043L376.192 349.662L386.863 350.173L390.747 329.043H376.901Z" fill="white" stroke="black" stroke-width="2" stroke-miterlimit="10"/>
<path d="M356.022 355.982C359.625 354.785 365.85 352.61 368.179 351.143C370.046 349.967 372.668 346.15 374.599 345.079C375.162 344.765 376.674 344.672 377.174 345.079C377.432 345.291 377.621 345.749 377.757 346.301C377.981 347.205 379.209 347.364 379.691 346.569C380.103 345.886 380.545 345.299 380.937 345.079C382.586 344.149 387.043 343.879 388.512 345.079C390.933 347.054 391.81 353.905 392.286 356.996C392.391 357.667 392.286 361.419 392.286 361.419H353.342V359.705C353.342 358.015 354.417 356.513 356.019 355.982H356.022Z" fill="white" stroke="black" stroke-width="2" stroke-miterlimit="10"/>
<path d="M392.289 361.419H353.345V359.706C353.345 359.273 353.418 358.852 353.551 358.457H392.336C392.336 359.767 392.292 361.419 392.292 361.419H392.289Z" fill="white" stroke="black" stroke-width="2" stroke-miterlimit="10"/>
<path d="M383.634 169.221L375.452 336.882L390.492 339.406C390.492 339.406 399.925 290.887 401.084 274.996C401.357 271.241 401.084 259.934 401.084 259.934L411.687 207.717C411.687 207.717 418.661 201.275 419.477 170.572L383.634 169.221Z" fill="white" stroke="black" stroke-width="2" stroke-miterlimit="10"/>
<path d="M383.634 169.221L375.452 336.882L390.492 339.406C390.492 339.406 399.925 290.887 401.084 274.996C401.357 271.241 401.084 259.934 401.084 259.934L411.687 207.717C411.687 207.717 418.661 201.275 419.477 170.572L383.634 169.221Z" fill="white"/>
<mask id="mask3_1101_2254" style="mask-type:luminance" maskUnits="userSpaceOnUse" x="375" y="169" width="45" height="171">
<path d="M383.634 169.221L375.452 336.882L390.492 339.406C390.492 339.406 399.925 290.887 401.084 274.996C401.357 271.241 401.084 259.934 401.084 259.934L411.687 207.717C411.687 207.717 418.661 201.275 419.477 170.572L383.634 169.221Z" fill="white"/>
</mask>
<g mask="url(#mask3_1101_2254)">
<path opacity="0.7" d="M406.702 180.2C406.702 180.2 403.775 219.14 406.702 245.493C409.628 271.842 417.418 210.36 417.418 210.36L413.42 186.869L406.699 180.2H406.702Z" fill="white" stroke="black" stroke-width="2" stroke-miterlimit="10"/>
</g>
<path d="M383.634 169.221L375.452 336.882L390.492 339.406C390.492 339.406 399.925 290.887 401.084 274.996C401.357 271.241 401.084 259.934 401.084 259.934L411.687 207.717C411.687 207.717 418.661 201.275 419.477 170.572L383.634 169.221Z" stroke="black" stroke-width="2" stroke-miterlimit="10"/>
<path d="M383.634 169.221L375.452 336.882L390.492 339.406C390.492 339.406 399.925 290.887 401.084 274.996C401.357 271.241 401.084 259.934 401.084 259.934L411.687 207.717C411.687 207.717 418.661 201.275 419.477 170.572L383.634 169.221Z" fill="white" stroke="black" stroke-width="2" stroke-miterlimit="10"/>
<path d="M382.914 265.124C382.914 265.124 386.651 264.471 389.966 261.287L382.914 265.124Z" fill="white"/>
<path d="M382.914 265.124C382.914 265.124 386.651 264.471 389.966 261.287" stroke="black" stroke-width="2" stroke-miterlimit="10"/>
<path d="M373.469 340.08L391.589 341.555L392.942 335.688L373.469 334.167V340.08Z" fill="white" stroke="black" stroke-width="2" stroke-miterlimit="10"/>
<path d="M425.812 326.507L429.665 350.603L439.537 349.827L439.206 325.16L425.812 326.507Z" fill="white" stroke="black" stroke-width="2" stroke-miterlimit="10"/>
<path d="M409.283 355.982C412.886 354.785 419.111 352.61 421.44 351.143C423.309 349.967 425.928 346.15 427.859 345.078C428.422 344.765 429.935 344.672 430.434 345.078C430.629 345.235 430.783 345.534 430.905 345.906C431.236 346.908 432.621 347.051 433.204 346.173C433.541 345.665 433.887 345.259 434.2 345.081C435.849 344.152 440.306 343.882 441.775 345.081C444.197 347.056 445.074 353.908 445.55 356.998C445.654 357.669 445.55 361.422 445.55 361.422H406.606V359.708C406.606 358.018 407.683 356.516 409.286 355.985L409.283 355.982Z" fill="white" stroke="black" stroke-width="2" stroke-miterlimit="10"/>
<path d="M445.55 361.419H406.606V359.705C406.606 359.273 406.679 358.852 406.812 358.457H445.596C445.596 359.766 445.553 361.419 445.553 361.419H445.55Z" fill="white" stroke="black" stroke-width="2" stroke-miterlimit="10"/>
<path d="M404.484 174.269C404.484 174.269 408.232 195.977 411.687 214.185C414.027 226.52 414.216 262.992 414.216 262.992L426.14 338.233L440.896 336.255C440.896 336.255 441.076 289.893 439.406 274.99C439.034 271.674 438.425 261.851 438.425 261.851C438.425 261.851 438.979 222.515 442.019 209.375C444.188 199.994 448.517 190.151 443.259 170.943L404.484 174.266V174.269Z" fill="white" stroke="black" stroke-width="2" stroke-miterlimit="10"/>
<path d="M417.418 265.124C417.418 265.124 419.619 268.461 423.672 269.138L417.418 265.124Z" fill="white"/>
<path d="M417.418 265.124C417.418 265.124 419.619 268.461 423.672 269.138" stroke="black" stroke-width="2" stroke-miterlimit="10"/>
<path d="M423.672 334.916L424.517 340.437L442.806 338.471L442.678 332.534L423.672 334.916Z" fill="white" stroke="black" stroke-width="2" stroke-miterlimit="10"/>
<path d="M334.88 73.8784L330.847 67.0994C330.847 67.0994 329.868 56.013 327.621 53.8521C325.374 51.6911 320.377 45.3361 319.671 46.5879C318.548 48.5775 322.702 52.1413 322.702 52.1413L323.475 56.2628C323.475 56.2628 316.739 51.4152 314.834 51.4239C314.834 51.4239 309.472 45.0544 307.573 45.0457C305.674 45.037 308.351 49.4431 308.351 49.4431C308.351 49.4431 306.536 48.0605 306.191 48.9232C305.845 49.7858 308.525 52.728 308.525 52.728C308.525 52.728 307.488 53.8521 309.045 56.2715C309.045 56.2715 308.267 59.0366 310.343 60.6805C312.419 62.3244 323.568 68.633 323.568 68.633L327.284 77.451L334.888 73.8755L334.88 73.8784Z" fill="white" stroke="black" stroke-width="2" stroke-miterlimit="10"/>
<path d="M309.988 52.9023C309.988 52.9023 311.458 53.5065 310.854 55.6674C310.854 55.6674 311.661 56.6259 311.803 58.5225C311.945 60.4162 321.57 59.4723 324.163 63.5386" fill="white"/>
<path d="M309.988 52.9023C309.988 52.9023 311.458 53.5065 310.854 55.6674C310.854 55.6674 311.661 56.6259 311.803 58.5225C311.945 60.4162 321.57 59.4723 324.163 63.5386" stroke="black" stroke-width="2" stroke-miterlimit="10"/>
<path d="M309.988 50.5671L313.908 54.7176" stroke="black" stroke-width="2" stroke-miterlimit="10"/>
<path d="M376.526 72.1735L350.779 92.2319L333.152 68.2002L324.163 72.6992C324.163 72.6992 338.279 111.698 348.964 111.698C360.314 111.698 381.898 93.4663 381.898 93.4663C381.898 93.4663 383.259 89.978 376.529 72.1735H376.526Z" fill="white" stroke="black" stroke-width="2" stroke-miterlimit="10"/>
<path d="M351.748 94.1459C351.748 94.1459 352.739 96.1877 353.084 98.1628L351.748 94.1459Z" fill="white"/>
<path d="M351.748 94.1459C351.748 94.1459 352.739 96.1877 353.084 98.1628" stroke="black" stroke-width="2" stroke-miterlimit="10"/>
<path d="M376.526 72.1735L381.999 144.78V174.931C381.999 174.931 413.586 178.73 444.757 174.132L443.677 143.083L446.842 73.8784C446.842 73.8784 432.371 63.4136 410.166 63.4136C387.96 63.4136 376.526 72.1735 376.526 72.1735Z" fill="white" stroke="black" stroke-width="2" stroke-miterlimit="10"/>
<path d="M376.526 72.1735L381.999 144.78V174.931C381.999 174.931 413.586 178.73 444.757 174.132L443.677 143.083L446.842 73.8784C446.842 73.8784 432.371 63.4136 410.166 63.4136C387.96 63.4136 376.526 72.1735 376.526 72.1735Z" fill="white"/>
<mask id="mask4_1101_2254" style="mask-type:luminance" maskUnits="userSpaceOnUse" x="376" y="63" width="71" height="114">
<path d="M376.526 72.1735L381.999 144.78V174.931C381.999 174.931 413.586 178.73 444.757 174.132L443.677 143.083L446.842 73.8784C446.842 73.8784 432.371 63.4136 410.166 63.4136C387.96 63.4136 376.526 72.1735 376.526 72.1735Z" fill="white"/>
</mask>
<g mask="url(#mask4_1101_2254)">
<path opacity="0.2" d="M381.999 156.075C381.999 156.075 382.115 165.881 392.919 166.726C403.723 167.571 417.418 165.204 417.418 165.204C417.418 165.204 421.533 153.38 425.121 154.057C428.71 154.733 445.477 160.49 443.68 143.086C441.883 125.68 468.22 167.801 468.22 167.801L461.127 197.932L400.599 193.479L371.64 177.478L376.526 156.075H381.999Z" fill="white" stroke="black" stroke-width="2" stroke-miterlimit="10"/>
</g>
<path d="M376.526 72.1735L381.999 144.78V174.931C381.999 174.931 413.586 178.73 444.757 174.132L443.677 143.083L446.842 73.8784C446.842 73.8784 432.371 63.4136 410.166 63.4136C387.96 63.4136 376.526 72.1735 376.526 72.1735Z" stroke="black" stroke-width="2" stroke-miterlimit="10"/>
<path d="M376.526 72.1735L381.999 144.78V174.931C381.999 174.931 413.586 178.73 444.757 174.132L443.677 143.083L446.842 73.8784C446.842 73.8784 432.371 63.4136 410.166 63.4136C387.96 63.4136 376.526 72.1735 376.526 72.1735Z" fill="white" stroke="black" stroke-width="2" stroke-miterlimit="10"/>
<path d="M396.804 144.08C404.675 143.217 419.756 140.339 433.866 130.719L396.804 144.08Z" fill="white"/>
<path d="M396.804 144.08C404.675 143.217 419.756 140.339 433.866 130.719" stroke="black" stroke-width="2" stroke-miterlimit="10"/>
<path d="M391.305 144.446C391.305 144.446 392.365 144.451 394.232 144.315L391.305 144.446Z" fill="white"/>
<path d="M391.305 144.446C391.305 144.446 392.365 144.451 394.232 144.315" stroke="black" stroke-width="2" stroke-miterlimit="10"/>
<path d="M401.99 75.6763L396.519 73.6838L391.305 78.7318L395.123 63.1115L399.728 59.4896L402.074 60.9738L412.57 60.5701L420.728 61.241L424.607 60.0357L428.75 64.1833L419.523 81.8454L415.647 75.1535L407.114 76.2252L401.99 75.6763Z" fill="white" stroke="black" stroke-width="2" stroke-miterlimit="10"/>
<path d="M401.99 75.6763L396.519 73.6838L391.305 78.7318L395.123 63.1115L399.728 59.4896L402.074 60.9738L412.57 60.5701L420.728 61.241L424.607 60.0357L428.75 64.1833L419.523 81.8454L415.647 75.1535L407.114 76.2252L401.99 75.6763Z" fill="white"/>
<mask id="mask5_1101_2254" style="mask-type:luminance" maskUnits="userSpaceOnUse" x="391" y="59" width="38" height="23">
<path d="M401.99 75.6763L396.519 73.6838L391.305 78.7318L395.123 63.1115L399.728 59.4896L402.074 60.9738L412.57 60.5701L420.728 61.241L424.607 60.0357L428.75 64.1833L419.523 81.8454L415.647 75.1535L407.114 76.2252L401.99 75.6763Z" fill="white"/>
</mask>
<g mask="url(#mask5_1101_2254)">
<path opacity="0.5" d="M401.99 75.6763L396.519 73.6838L391.305 78.7318L395.123 63.1115L399.728 59.4896L402.074 60.9738L412.57 60.5701L420.728 61.241L424.607 60.0357L428.75 64.1833L419.523 81.8454L415.647 75.1535L407.114 76.2252L401.99 75.6763Z" fill="white" stroke="black" stroke-width="2" stroke-miterlimit="10"/>
</g>
<path d="M401.99 75.6763L396.519 73.6838L391.305 78.7318L395.123 63.1115L399.728 59.4896L402.074 60.9738L412.57 60.5701L420.728 61.241L424.607 60.0357L428.75 64.1833L419.523 81.8454L415.647 75.1535L407.114 76.2252L401.99 75.6763Z" stroke="black" stroke-width="2" stroke-miterlimit="10"/>
<path d="M401.99 75.6763L396.519 73.6838L391.305 78.7318L395.123 63.1115L399.728 59.4896L402.074 60.9738L412.57 60.5701L420.728 61.241L424.607 60.0357L428.75 64.1833L419.523 81.8454L415.647 75.1535L407.114 76.2252L401.99 75.6763Z" fill="white" stroke="black" stroke-width="2" stroke-miterlimit="10"/>
<path d="M420.156 64.1426L418.922 45.0457L406.85 47.1398L404.318 56.1059L401.789 63.8783C401.394 63.9219 400.991 63.9596 400.602 64.0061L403.885 81.8454L421.303 64.3053C420.929 64.2443 420.54 64.1978 420.159 64.1426H420.156Z" fill="white" stroke="black" stroke-width="2" stroke-miterlimit="10"/>
<path d="M420.156 64.1426L418.922 45.0457L406.85 47.1398L404.318 56.1059L401.789 63.8783C401.394 63.9219 400.991 63.9596 400.602 64.0061L403.885 81.8454L421.303 64.3053C420.929 64.2443 420.54 64.1978 420.159 64.1426H420.156Z" fill="white"/>
<mask id="mask6_1101_2254" style="mask-type:luminance" maskUnits="userSpaceOnUse" x="400" y="45" width="22" height="37">
<path d="M420.156 64.1426L418.922 45.0457L406.85 47.1398L404.318 56.1059L401.789 63.8783C401.394 63.9219 400.991 63.9596 400.602 64.0061L403.885 81.8454L421.303 64.3053C420.929 64.2443 420.54 64.1978 420.159 64.1426H420.156Z" fill="white"/>
</mask>
<g mask="url(#mask6_1101_2254)">
<path d="M390.501 46.3788C390.501 51.2147 391.244 62.0688 397.899 63.3322C404.803 64.6393 412.7 56.8001 415.543 53.6603C416.251 52.8761 416.797 51.9699 417.172 50.9824L418.687 46.9684C418.687 46.9684 420.136 47.1514 421.535 46.3788H390.501Z" fill="white" stroke="black" stroke-width="2" stroke-miterlimit="10"/>
</g>
<path d="M420.156 64.1426L418.922 45.0457L406.85 47.1398L404.318 56.1059L401.789 63.8783C401.394 63.9219 400.991 63.9596 400.602 64.0061L403.885 81.8454L421.303 64.3053C420.929 64.2443 420.54 64.1978 420.159 64.1426H420.156Z" stroke="black" stroke-width="2" stroke-miterlimit="10"/>
<path d="M420.156 64.1426L418.922 45.0457L406.85 47.1398L404.318 56.1059L401.789 63.8783C401.394 63.9219 400.991 63.9596 400.602 64.0061L403.885 81.8454L421.303 64.3053C420.929 64.2443 420.54 64.1978 420.159 64.1426H420.156Z" fill="white" stroke="black" stroke-width="2" stroke-miterlimit="10"/>
<path d="M398.546 21.8592C398.546 21.8592 392.829 17.5083 395.631 14.0897C397.089 12.3121 398.993 14.6532 398.993 14.6532C398.993 14.6532 397.98 9.20434 402.033 8.4608C405.805 7.76953 405.636 12.0653 405.636 12.0653C405.636 12.0653 407.573 8.38819 410.95 9.20434C413.658 9.86076 412.616 13.6802 412.616 13.6802C412.616 13.6802 416.216 9.20434 419.933 11.1649C423.138 12.8553 420.496 16.907 420.496 16.907C420.496 16.907 424.323 15.5564 426.463 17.6941C428.6 19.8318 426.463 22.7625 426.463 22.7625C426.463 22.7625 430.661 22.8031 430.853 25.9138C431.044 29.0245 427.598 29.6287 427.598 29.6287C427.598 29.6287 432.458 31.2058 432.499 35.0339C432.539 38.862 429.276 37.6247 429.276 37.6247C429.276 37.6247 431.303 41.2292 429.613 43.1432C427.923 45.0573 426.349 43.1432 426.349 43.1432C426.349 43.1432 428.451 47.6771 425.786 48.9928C423.876 49.9368 422.749 47.6423 422.749 47.6423C422.749 47.6423 421.141 51.5633 419.19 49.1555C417.235 46.7477 407.579 28.2781 407.579 28.2781L398.549 21.8621L398.546 21.8592Z" fill="black" stroke="black" stroke-width="2" stroke-miterlimit="10"/>
<path d="M396.891 22.0334L393.302 29.5038C392.925 30.2909 392.73 31.1593 392.739 32.0336L392.759 34.3862L390.776 39.3645C390.672 39.6259 390.591 39.8815 390.527 40.1574C389.888 42.8266 386.857 57.1167 394.229 60.027C400.764 62.6061 409.991 56.3876 413.371 53.8375C414.216 53.2014 414.919 52.4143 415.473 51.511L417.715 47.8514C417.715 47.8514 420.952 48.9202 422.955 46.0245C424.959 43.1287 427.284 41.5777 424.529 38.9724C421.773 36.367 419.224 40.5292 419.224 40.5292L419.593 33.1983L416.399 27.5752L416.24 24.0404C416.24 24.0404 405.764 22.8874 398.735 19.036L396.9 22.0334H396.891Z" fill="white" stroke="black" stroke-width="2" stroke-miterlimit="10"/>
<path d="M396.891 22.0334L393.302 29.5038C392.925 30.2909 392.73 31.1593 392.739 32.0336L392.759 34.3862L390.776 39.3645C390.672 39.6259 390.591 39.8815 390.527 40.1574C389.888 42.8266 386.857 57.1167 394.229 60.027C400.764 62.6061 409.991 56.3876 413.371 53.8375C414.216 53.2014 414.919 52.4143 415.473 51.511L417.715 47.8514C417.715 47.8514 420.952 48.9202 422.955 46.0245C424.959 43.1287 427.284 41.5777 424.529 38.9724C421.773 36.367 419.224 40.5292 419.224 40.5292L419.593 33.1983L416.399 27.5752L416.24 24.0404C416.24 24.0404 405.764 22.8874 398.735 19.036L396.9 22.0334H396.891Z" fill="white" stroke="black" stroke-width="2" stroke-miterlimit="10"/>
<path d="M403.261 47.6394C401.238 51.5488 398.485 50.8953 396.769 49.9223L403.261 47.6394Z" fill="white"/>
<path d="M403.261 47.6394C401.238 51.5488 398.485 50.8953 396.769 49.9223" stroke="black" stroke-width="2" stroke-miterlimit="10"/>
<path d="M403.302 38.7487C403.026 39.6375 402.46 40.2503 402.036 40.1196C401.612 39.9889 401.49 39.1612 401.763 38.2724C402.039 37.3836 402.605 36.7708 403.029 36.9015C403.456 37.0351 403.575 37.86 403.302 38.7487Z" fill="white" stroke="black" stroke-width="2" stroke-miterlimit="10"/>
<path d="M394.96 36.1695C394.684 37.0583 394.118 37.6711 393.694 37.5404C393.271 37.4097 393.149 36.5819 393.422 35.6932C393.697 34.8044 394.264 34.1915 394.687 34.3223C395.114 34.453 395.233 35.2807 394.96 36.1695Z" fill="white" stroke="black" stroke-width="2" stroke-miterlimit="10"/>
<path d="M394.362 30.3926C394.362 30.3926 396.856 29.6868 397.483 32.3066L394.362 30.3926Z" fill="white"/>
<path d="M394.362 30.3926C394.362 30.3926 396.856 29.6868 397.483 32.3066" stroke="black" stroke-width="2" stroke-miterlimit="10"/>
<path d="M401.545 33.8024C401.545 33.8024 404.452 30.7353 406.406 33.997L401.545 33.8024Z" fill="white"/>
<path d="M401.545 33.8024C401.545 33.8024 404.452 30.7353 406.406 33.997" stroke="black" stroke-width="2" stroke-miterlimit="10"/>
<path d="M397.483 36.948C397.483 36.948 397.083 40.4392 392.919 42.24L395.201 45.8444" fill="white"/>
<path d="M397.483 36.948C397.483 36.948 397.083 40.4392 392.919 42.24L395.201 45.8444" stroke="black" stroke-width="2" stroke-miterlimit="10"/>
<path d="M412.038 180.2L411.405 184.057C411.188 185.39 412.091 186.651 413.423 186.869L453.47 193.447C454.803 193.665 456.06 192.762 456.281 191.429L456.914 187.571L412.038 180.2Z" fill="white" stroke="black" stroke-width="2" stroke-miterlimit="10"/>
<path d="M453.926 192.12L413.412 185.466C412.207 185.268 411.391 184.133 411.588 182.927L415.604 158.451C415.801 157.246 416.936 156.43 418.141 156.627L458.656 163.281C459.861 163.479 460.677 164.614 460.479 165.82L456.464 190.296C456.266 191.498 455.131 192.314 453.926 192.117V192.12Z" fill="white" stroke="black" stroke-width="2" stroke-miterlimit="10"/>
<path d="M453.926 192.12L413.412 185.466C412.207 185.268 411.391 184.133 411.588 182.927L415.604 158.451C415.801 157.246 416.936 156.43 418.141 156.627L458.656 163.281C459.861 163.479 460.677 164.614 460.479 165.82L456.464 190.296C456.266 191.498 455.131 192.314 453.926 192.117V192.12Z" fill="white"/>
<mask id="mask7_1101_2254" style="mask-type:luminance" maskUnits="userSpaceOnUse" x="411" y="156" width="50" height="37">
<path d="M453.926 192.12L413.412 185.466C412.207 185.268 411.391 184.133 411.588 182.927L415.604 158.451C415.801 157.246 416.936 156.43 418.141 156.627L458.656 163.281C459.861 163.479 460.677 164.614 460.479 165.82L456.464 190.296C456.266 191.498 455.131 192.314 453.926 192.117V192.12Z" fill="white"/>
</mask>
<g mask="url(#mask7_1101_2254)">
<path opacity="0.5" d="M453.926 192.12L413.412 185.466C412.207 185.268 411.391 184.133 411.588 182.927L415.604 158.451C415.801 157.246 416.936 156.43 418.141 156.627L458.656 163.281C459.861 163.479 460.677 164.614 460.479 165.82L456.464 190.296C456.266 191.498 455.131 192.314 453.926 192.117V192.12Z" fill="white" stroke="black" stroke-width="2" stroke-miterlimit="10"/>
</g>
<path d="M453.926 192.12L413.412 185.466C412.207 185.268 411.391 184.133 411.588 182.927L415.604 158.451C415.801 157.246 416.936 156.43 418.141 156.627L458.656 163.281C459.861 163.479 460.677 164.614 460.479 165.82L456.464 190.296C456.266 191.498 455.131 192.314 453.926 192.117V192.12Z" stroke="black" stroke-width="2" stroke-miterlimit="10"/>
<path d="M453.926 192.12L413.412 185.466C412.207 185.268 411.391 184.133 411.588 182.927L415.604 158.451C415.801 157.246 416.936 156.43 418.141 156.627L458.656 163.281C459.861 163.479 460.677 164.614 460.479 165.82L456.464 190.296C456.266 191.498 455.131 192.314 453.926 192.117V192.12Z" fill="white" stroke="black" stroke-width="2" stroke-miterlimit="10"/>
<path d="M443.07 167.798L440.852 175.259L433.373 180.627C433.373 180.627 431.137 187.339 429.572 190.261C429.166 191.019 429.697 191.98 430.556 191.989C431.587 191.998 432.795 191.513 433.46 189.503C433.46 189.503 433.75 193.459 436.189 191.042C436.189 191.042 437.676 194.865 439.995 191.853C439.995 191.853 445.373 192.648 446.281 188.765C447.19 184.879 448.41 178.042 448.41 178.042L451.839 170.002L443.07 167.795V167.798Z" fill="white" stroke="black" stroke-width="2" stroke-miterlimit="10"/>
<path d="M433.445 187.993L434.296 182.207" stroke="black" stroke-width="2" stroke-miterlimit="10"/>
<path d="M434.784 188.327C434.784 188.327 435.373 190.249 436.7 189.927C438.027 189.605 439.914 191.089 444.031 189.355" fill="white"/>
<path d="M434.784 188.327C434.784 188.327 435.373 190.249 436.7 189.927C438.027 189.605 439.914 191.089 444.031 189.355" stroke="black" stroke-width="2" stroke-miterlimit="10"/>
<path d="M446.845 73.8784C446.845 73.8784 465.578 125.959 465.223 133.568C464.869 141.178 451.551 174.269 451.551 174.269L441.308 171.001L448.177 132.183L442.025 105.209C442.025 105.209 440.579 85.4324 446.848 73.8784H446.845Z" fill="white" stroke="black" stroke-width="2" stroke-miterlimit="10"/>
<path d="M450.442 131.32C450.442 131.32 452.422 129.592 455.36 130.283L450.442 131.32Z" fill="white"/>
<path d="M450.442 131.32C450.442 131.32 452.422 129.592 455.36 130.283" stroke="black" stroke-width="2" stroke-miterlimit="10"/>
<path d="M438.253 171.823C437.85 171.26 437.574 170.688 437.432 170.179C436.041 170.156 434.804 171.144 434.572 172.558C434.316 174.115 435.37 175.582 436.924 175.834C438.48 176.09 439.946 175.036 440.199 173.482C440.199 173.473 440.199 173.467 440.199 173.459C439.609 173.278 438.869 172.683 438.25 171.82L438.253 171.823Z" fill="white" stroke="black" stroke-width="2" stroke-miterlimit="10"/>
</g>
<defs>
<clipPath id="clip0_1101_2254">
<rect width="579" height="362" fill="white"/>
</clipPath>
</defs>
</svg>
