<svg width="455" height="325" viewBox="0 0 455 425" fill="none" xmlns="http://www.w3.org/2000/svg">
<g clip-path="url(#clip0_1059_2986)">
<path d="M406.79 71.11C423.486 71.11 437.02 57.5756 437.02 40.88C437.02 24.1845 423.486 10.65 406.79 10.65C390.094 10.65 376.56 24.1845 376.56 40.88C376.56 57.5756 390.094 71.11 406.79 71.11Z" stroke="black" stroke-miterlimit="10"/>
<path d="M406.79 66.53C420.956 66.53 432.44 55.0461 432.44 40.88C432.44 26.7139 420.956 15.23 406.79 15.23C392.624 15.23 381.14 26.7139 381.14 40.88C381.14 55.0461 392.624 66.53 406.79 66.53Z" stroke="black" stroke-miterlimit="10"/>
<path d="M406.79 49.21V40.88H391.33" stroke="black" stroke-miterlimit="10"/>
<path d="M393.52 130.44H421.96C424.62 130.44 426.78 132.6 426.78 135.26V154.53C426.78 157.19 424.62 159.35 421.96 159.35H405.26L397.62 170.1V159.35H393.52C390.86 159.35 388.7 157.19 388.7 154.53V135.26C388.7 132.6 390.86 130.44 393.52 130.44Z" fill="black"/>
<path d="M391.34 128.88H419.78C422.44 128.88 424.6 131.04 424.6 133.7V152.97C424.6 155.63 422.44 157.79 419.78 157.79H403.08L395.44 168.54V157.79H391.34C388.68 157.79 386.52 155.63 386.52 152.97V133.7C386.52 131.04 388.68 128.88 391.34 128.88Z" fill="white" stroke="black" stroke-linecap="round" stroke-linejoin="round"/>
<path d="M398.6 142.85L403.76 150.26L416.93 134.25" stroke="black" stroke-width="3" stroke-linecap="round" stroke-linejoin="round"/>
<path d="M362.43 0.5H97.49V359.9H362.43V0.5Z" fill="white" stroke="black" stroke-linecap="round" stroke-linejoin="round"/>
<path d="M133.54 92.97H330.29" stroke="black" stroke-linecap="round" stroke-linejoin="round"/>
<path d="M133.54 104.78H330.29" stroke="black" stroke-linecap="round" stroke-linejoin="round"/>
<path d="M133.54 116.58H330.29" stroke="black" stroke-linecap="round" stroke-linejoin="round"/>
<path d="M133.54 128.39H330.29" stroke="black" stroke-linecap="round" stroke-linejoin="round"/>
<path d="M133.54 235.29H330.29" stroke="black" stroke-linecap="round" stroke-linejoin="round"/>
<path d="M133.54 247.1H330.29" stroke="black" stroke-linecap="round" stroke-linejoin="round"/>
<path d="M133.54 258.9H330.29" stroke="black" stroke-linecap="round" stroke-linejoin="round"/>
<path d="M133.54 270.71H330.29" stroke="black" stroke-linecap="round" stroke-linejoin="round"/>
<path d="M204.44 146.1H266.65" stroke="black" stroke-linecap="round" stroke-linejoin="round"/>
<path d="M204.44 160.53H266.65" stroke="black" stroke-linecap="round" stroke-linejoin="round"/>
<path d="M204.44 174.95H266.65" stroke="black" stroke-linecap="round" stroke-linejoin="round"/>
<path d="M204.44 189.38H266.65" stroke="black" stroke-linecap="round" stroke-linejoin="round"/>
<path d="M204.44 203.81H266.65" stroke="black" stroke-linecap="round" stroke-linejoin="round"/>
<path d="M204.44 218.24H266.65" stroke="black" stroke-linecap="round" stroke-linejoin="round"/>
<path d="M138.67 146.1H189.82" stroke="black" stroke-linecap="round" stroke-linejoin="round"/>
<path d="M138.67 160.53H189.82" stroke="black" stroke-linecap="round" stroke-linejoin="round"/>
<path d="M138.67 174.95H189.82" stroke="black" stroke-linecap="round" stroke-linejoin="round"/>
<path d="M138.67 189.38H189.82" stroke="black" stroke-linecap="round" stroke-linejoin="round"/>
<path d="M138.67 203.81H189.82" stroke="black" stroke-linecap="round" stroke-linejoin="round"/>
<path d="M138.67 218.24H189.82" stroke="black" stroke-linecap="round" stroke-linejoin="round"/>
<path d="M279.13 146.1H330.29" stroke="black" stroke-linecap="round" stroke-linejoin="round"/>
<path d="M279.13 160.53H330.29" stroke="black" stroke-linecap="round" stroke-linejoin="round"/>
<path d="M279.13 174.95H330.29" stroke="black" stroke-linecap="round" stroke-linejoin="round"/>
<path d="M279.13 189.38H330.29" stroke="black" stroke-linecap="round" stroke-linejoin="round"/>
<path d="M279.13 203.81H330.29" stroke="black" stroke-linecap="round" stroke-linejoin="round"/>
<path d="M279.13 218.24H330.29" stroke="black" stroke-linecap="round" stroke-linejoin="round"/>
<path d="M133.54 282.51H184.69" stroke="black" stroke-linecap="round" stroke-linejoin="round"/>
<path d="M133.54 295.89H184.69" stroke="black" stroke-linecap="round" stroke-linejoin="round"/>
<path d="M133.54 309.27H184.69" stroke="black" stroke-linecap="round" stroke-linejoin="round"/>
<path d="M133.54 322.65H184.69" stroke="black" stroke-linecap="round" stroke-linejoin="round"/>
<path d="M133.54 336.03H184.69" stroke="black" stroke-linecap="round" stroke-linejoin="round"/>
<path d="M133.54 349.41H184.69" stroke="black" stroke-linecap="round" stroke-linejoin="round"/>
<path d="M201.59 250.98C187.38 250.92 173.18 250.86 158.97 250.8C149.25 250.76 139.42 250.73 129.95 252.94C127.38 253.54 124.35 254.9 124.22 257.54C124.16 258.83 124.88 260.03 125.76 260.96C128.09 263.44 131.52 264.52 134.82 265.35C153.99 270.19 174.19 269.94 193.72 266.87C199.24 266 204.89 264.85 209.53 261.74C210.59 261.03 211.67 260.07 211.74 258.8C211.81 257.52 210.82 256.43 209.78 255.68C206.19 253.09 201.5 252.61 197.08 252.8C192.66 252.99 188.23 253.76 183.83 253.3" stroke="black" stroke-width="2" stroke-linecap="round" stroke-linejoin="round"/>
<path d="M187.96 305.5C187.52 307.07 187.08 308.64 186.63 310.2C190.65 306.29 194.91 302.62 199.37 299.22" stroke="black" stroke-width="2" stroke-linecap="round" stroke-linejoin="round"/>
<path d="M187.77 319.13C187.31 320.13 186.89 321.16 186.53 322.2C190.16 318.1 195.12 315.2 200.47 314.05" stroke="black" stroke-width="2" stroke-linecap="round" stroke-linejoin="round"/>
<path d="M192.62 328.87C190.35 331.26 188.42 333.97 186.9 336.9" stroke="black" stroke-width="2" stroke-linecap="round" stroke-linejoin="round"/>
<path d="M183.34 328.69C188.49 331.38 193.39 334.52 197.99 338.06" stroke="black" stroke-width="2" stroke-linecap="round" stroke-linejoin="round"/>
<path d="M289.82 120.99C291.03 120.78 292.27 120.72 293.5 120.83H329.91" stroke="black" stroke-width="2" stroke-linecap="round" stroke-linejoin="round"/>
<path d="M340.21 105.32H350.8" stroke="black" stroke-width="2" stroke-linecap="round" stroke-linejoin="round"/>
<path d="M340.07 108.45H349.92" stroke="black" stroke-width="2" stroke-linecap="round" stroke-linejoin="round"/>
<path d="M340.36 111.72C343.64 111.67 346.92 111.64 350.21 111.59H354.39" stroke="black" stroke-width="2" stroke-linecap="round" stroke-linejoin="round"/>
<path d="M340.21 114.87H355.15" stroke="black" stroke-width="2" stroke-linecap="round" stroke-linejoin="round"/>
<path d="M343.33 117.48C339.85 118.27 336.49 119.63 333.44 121.47" stroke="black" stroke-width="2" stroke-linecap="round" stroke-linejoin="round"/>
<path d="M335.19 118.48C334.36 119.75 333.53 121.01 332.7 122.28C335.31 122.12 337.91 121.97 340.52 121.81" stroke="black" stroke-width="2" stroke-linecap="round" stroke-linejoin="round"/>
<path d="M400.43 302.26C402.04 302.96 405.97 302.87 405.97 302.87C406.01 302.87 405.12 300.3 405.05 300.14C404.19 298.34 401.46 295.36 399.24 295.66C397.64 295.88 396.75 297.48 397.11 298.98C397.48 300.52 399.06 301.66 400.42 302.26H400.43Z" fill="black"/>
<path d="M401.79 313.65C403.46 313.89 406.96 312.88 407.24 312.79C407.79 314.75 408.52 316.72 409.37 318.68C409.85 319.8 410.37 320.91 410.91 322.01C410.59 321.54 410.3 321.12 410.25 321.07C408.94 319.56 405.52 317.4 403.46 318.28C401.98 318.91 401.54 320.69 402.29 322.04C403.05 323.43 404.87 324.11 406.35 324.33C407.85 324.55 410.86 323.74 411.65 323.52C411.86 323.94 412.07 324.37 412.28 324.79C413.3 326.81 414.32 328.83 415.26 330.83C415.59 331.54 415.89 332.25 416.2 332.95C415.92 332.53 415.67 332.19 415.63 332.14C414.32 330.63 410.9 328.47 408.84 329.35C407.36 329.98 406.92 331.76 407.67 333.11C408.43 334.5 410.25 335.18 411.73 335.4C413.16 335.61 415.94 334.89 416.89 334.63C417.18 335.36 417.47 336.1 417.72 336.82C417.88 337.32 418.07 337.79 418.2 338.3C418.34 338.8 418.48 339.3 418.62 339.79C418.85 340.75 419.09 341.73 419.29 342.67C419.43 343.32 419.56 343.95 419.69 344.57C419.37 343.86 418.71 342.49 418.64 342.38C417.58 340.69 414.53 338.04 412.35 338.59C410.79 338.99 410.09 340.68 410.62 342.13C411.16 343.61 412.86 344.57 414.29 345.01C415.86 345.49 419.34 345.05 419.78 344.99C419.99 346.03 420.18 347.04 420.35 348C420.47 348.71 420.59 349.39 420.69 350.05H422.08C421.95 349.32 421.81 348.56 421.65 347.76C421.44 346.7 421.2 345.58 420.94 344.42C421.2 344.32 422.69 343.72 424 342.98C425.15 344.22 428.08 345.67 428.46 345.86C428.06 346.84 427.66 347.79 427.27 348.69C427.06 349.16 426.87 349.61 426.67 350.05H428.14C428.26 349.77 428.37 349.5 428.49 349.2C428.9 348.2 429.32 347.13 429.74 346.03C430.16 346.12 433.61 346.82 435.21 346.46C436.67 346.13 438.43 345.31 439.08 343.87C439.72 342.46 439.15 340.72 437.62 340.21C435.5 339.5 432.26 341.91 431.07 343.52C431 343.62 430.36 344.73 429.96 345.44C430.13 344.99 430.3 344.55 430.47 344.08C430.81 343.16 431.12 342.22 431.46 341.22C431.61 340.73 431.75 340.24 431.9 339.74C432.06 339.25 432.16 338.71 432.3 338.19C432.59 336.98 432.82 335.74 433.03 334.48C433.84 334.77 436.73 335.78 438.23 335.67C439.72 335.56 441.59 335.02 442.45 333.69C443.3 332.39 442.99 330.59 441.56 329.85C439.57 328.82 436 330.72 434.58 332.13C434.49 332.22 433.59 333.34 433.1 333.97C433.22 333.21 433.34 332.46 433.44 331.69C433.72 329.47 433.92 327.21 434.14 324.96C434.21 324.27 434.28 323.58 434.35 322.9C434.64 323.01 438.04 324.28 439.72 324.16C441.21 324.06 443.08 323.51 443.94 322.18C444.79 320.88 444.48 319.08 443.05 318.34C441.06 317.31 437.49 319.2 436.07 320.62C435.96 320.73 434.67 322.35 434.36 322.78C434.52 321.27 434.69 319.76 434.92 318.28C435.24 316.24 435.66 314.26 436.21 312.37C436.34 312.42 439.89 313.76 441.61 313.64C443.1 313.53 444.97 312.99 445.83 311.66C446.68 310.36 446.37 308.56 444.94 307.82C442.95 306.79 439.38 308.69 437.96 310.1C437.85 310.21 436.45 311.96 436.22 312.29C436.25 312.18 436.27 312.06 436.31 311.95C436.92 309.94 437.77 308.07 438.65 306.35C439.16 305.35 439.7 304.43 440.25 303.54C440.89 303.86 443.81 305.28 445.36 305.34C446.85 305.4 448.77 305.06 449.77 303.84C450.75 302.64 450.65 300.82 449.31 299.92C447.44 298.68 443.69 300.17 442.13 301.42C442.05 301.49 441.26 302.27 440.69 302.85C440.94 302.45 441.2 302.04 441.45 301.67C442.39 300.26 443.33 299.03 444.18 297.94C444.67 297.33 445.12 296.78 445.54 296.27C446.33 296.26 449.49 296.16 450.88 295.51C452.23 294.87 453.78 293.69 454.1 292.15C454.42 290.64 453.49 289.06 451.88 288.89C449.65 288.65 447.01 291.7 446.2 293.53C446.13 293.69 445.31 296.28 445.35 296.28H445.4C444.98 296.76 444.53 297.28 444.06 297.85C443.19 298.92 442.21 300.14 441.24 301.53C440.27 302.92 439.25 304.46 438.32 306.18C437.39 307.9 436.5 309.76 435.83 311.79C435.83 311.81 435.82 311.84 435.81 311.86C435.82 311.2 435.79 309.37 435.77 309.23C435.51 307.25 433.85 303.57 431.65 303.16C430.06 302.87 428.72 304.11 428.59 305.65C428.46 307.23 429.6 308.8 430.72 309.8C431.98 310.92 435.46 312.01 435.74 312.09C435.12 314.03 434.64 316.08 434.27 318.17C434.06 319.37 433.88 320.58 433.72 321.8C433.72 321.23 433.7 320.72 433.69 320.65C433.43 318.67 431.77 314.99 429.57 314.58C427.98 314.29 426.64 315.53 426.51 317.07C426.38 318.65 427.52 320.22 428.64 321.22C429.77 322.23 432.72 323.22 433.51 323.47C433.45 323.94 433.39 324.4 433.33 324.87C433.06 327.12 432.8 329.36 432.48 331.55C432.37 332.32 432.23 333.08 432.09 333.84C432.09 333.34 432.07 332.91 432.06 332.85C431.8 330.87 430.14 327.19 427.94 326.78C426.35 326.49 425.01 327.73 424.88 329.27C424.75 330.85 425.89 332.42 427.01 333.42C428.09 334.38 430.81 335.32 431.74 335.62C431.58 336.39 431.41 337.17 431.22 337.91C431.08 338.41 430.97 338.91 430.8 339.4C430.64 339.89 430.48 340.39 430.32 340.87C429.98 341.79 429.64 342.75 429.29 343.64C429.05 344.26 428.81 344.85 428.57 345.45C428.69 344.68 428.9 343.17 428.9 343.05C428.93 341.72 428.46 339.56 427.52 338.04C427.52 337.84 427.52 337.65 427.48 337.45C427.23 335.92 425.8 334.79 424.24 335.2C422.08 335.78 420.7 339.57 420.6 341.57C420.6 341.69 420.67 342.97 420.73 343.78C420.62 343.31 420.52 342.85 420.4 342.37C420.17 341.41 419.92 340.47 419.65 339.44C419.5 338.95 419.35 338.46 419.2 337.96C419.06 337.46 418.85 336.95 418.68 336.45C418.25 335.28 417.76 334.12 417.24 332.95C418.08 332.75 421.04 331.99 422.23 331.08C423.41 330.17 424.67 328.68 424.66 327.1C424.65 325.55 423.4 324.21 421.8 324.39C419.57 324.63 417.64 328.18 417.24 330.14C417.22 330.26 417.08 331.7 417.03 332.49C416.71 331.79 416.4 331.1 416.05 330.4C415.06 328.4 413.99 326.4 412.93 324.4C412.61 323.79 412.29 323.17 411.97 322.56C412.27 322.49 415.81 321.67 417.14 320.65C418.32 319.74 419.58 318.25 419.57 316.67C419.56 315.12 418.31 313.78 416.71 313.96C414.48 314.2 412.55 317.75 412.15 319.71C412.12 319.86 411.93 321.93 411.91 322.45C411.21 321.1 410.52 319.75 409.9 318.39C409.04 316.51 408.3 314.63 407.72 312.75C407.86 312.72 411.56 311.88 412.93 310.83C414.11 309.92 415.37 308.43 415.36 306.85C415.35 305.3 414.1 303.96 412.5 304.14C410.27 304.38 408.34 307.93 407.94 309.89C407.91 310.04 407.71 312.27 407.7 312.68C407.66 312.57 407.62 312.46 407.58 312.34C406.98 310.32 406.66 308.29 406.45 306.38C406.33 305.27 406.27 304.2 406.24 303.16C406.94 303.07 410.16 302.64 411.5 301.84C412.78 301.07 414.19 299.73 414.35 298.15C414.51 296.61 413.42 295.14 411.8 295.14C409.56 295.14 407.25 298.45 406.63 300.35C406.6 300.45 406.37 301.54 406.22 302.34C406.22 301.87 406.2 301.38 406.2 300.93C406.2 299.24 406.31 297.69 406.42 296.31C406.49 295.53 406.56 294.83 406.64 294.17C407.29 293.72 409.88 291.9 410.67 290.59C411.45 289.32 412.08 287.48 411.5 286.01C410.93 284.57 409.29 283.77 407.85 284.51C405.86 285.54 405.34 289.54 405.67 291.52C405.7 291.69 406.45 294.31 406.48 294.28C406.48 294.28 406.51 294.26 406.52 294.25C406.43 294.88 406.35 295.56 406.27 296.3C406.13 297.67 405.99 299.22 405.95 300.92C405.91 302.62 405.9 304.47 406.08 306.41C406.25 308.36 406.53 310.4 407.1 312.47C407.1 312.49 407.12 312.52 407.12 312.54C406.77 311.99 405.73 310.47 405.64 310.37C404.33 308.86 400.91 306.7 398.85 307.58C397.37 308.21 396.93 309.99 397.68 311.35C398.44 312.73 400.27 313.42 401.74 313.63L401.79 313.65Z" fill="black"/>
<path d="M440.18 303.13C440.18 303.13 440.89 300.52 440.92 300.35C441.2 298.37 440.56 294.38 438.55 293.41C437.1 292.71 435.47 293.55 434.94 295.01C434.4 296.49 435.08 298.32 435.9 299.57C436.85 301.04 440.18 303.14 440.18 303.14V303.13Z" fill="black"/>
<path d="M434.12 387.16H413.95L417.99 349.87H430.08L434.12 387.16Z" fill="black"/>
<path d="M355.1 256.58C355.1 256.58 348.22 275.51 348.03 288.51C347.84 301.51 356.06 351.99 356.25 354.09C356.44 356.19 362.37 392.52 362.37 392.52L360.27 394.24C360.27 394.24 359.7 395.2 359.31 395.96C358.92 396.72 353.57 399.78 352.04 400.17C350.51 400.55 351.66 401.89 353 402.27C354.34 402.65 365.62 403.61 368.68 404.18C371.74 404.75 373.27 403.22 373.08 400.36C372.89 397.49 371.74 392.52 371.55 391.76C371.36 390.99 370.21 386.21 370.02 385.07C369.83 383.92 371.36 340.71 371.36 340.71L391 387.84C391 387.84 389.66 388.99 389.66 389.94C389.66 390.89 389.85 393 389.85 393C389.85 393 383.35 396.82 384.31 398.16C385.27 399.5 391.38 400.65 391.38 400.65C391.38 400.65 397.88 401.8 399.41 401.42C400.94 401.04 401.9 400.08 401.51 397.79C401.13 395.5 399.41 390.14 399.41 390.14C399.41 390.14 397.12 381.73 396.92 380.39C396.73 379.05 388.18 341.68 387.8 337.66C387.42 333.64 387.23 331.92 387.23 330.59C387.23 329.26 395.07 297.9 395.26 288.53C395.45 279.16 393.16 268.84 392.2 265.59C391.24 262.34 389.91 258.23 389.91 258.23L355.11 256.61L355.1 256.58Z" fill="white" stroke="black" stroke-linecap="round" stroke-linejoin="round"/>
<path d="M371.54 335.93L372.88 306.1L374.98 291.76L380.33 289.85" stroke="black" stroke-linecap="round" stroke-linejoin="round"/>
<path d="M320.87 205.03L333.68 221.3L345.03 214.28L332.48 198.4L320.87 205.03Z" fill="black" stroke="black" stroke-linecap="round" stroke-linejoin="round"/>
<path d="M332.34 200.81L324.15 205.66L325.81 207.99L334.15 202.84L332.34 200.81Z" fill="white" stroke="black" stroke-width="0.5" stroke-linecap="round" stroke-linejoin="round"/>
<path d="M339.75 215.65L337.92 213.46L335.74 214.77L337.54 217.02L339.75 215.65Z" fill="white" stroke="black" stroke-width="0.5" stroke-linecap="round" stroke-linejoin="round"/>
<path d="M337.79 211.74L339.88 210.44L338.03 208.35L335.98 209.57L337.79 211.74Z" fill="white" stroke="black" stroke-width="0.5" stroke-linecap="round" stroke-linejoin="round"/>
<path d="M336.93 212.28L335.11 210.09L332.99 211.36L334.8 213.61L336.93 212.28Z" fill="white" stroke="black" stroke-width="0.5" stroke-linecap="round" stroke-linejoin="round"/>
<path d="M331.94 210.06L334.01 208.78L332.24 206.65L330.18 207.87L331.94 210.06Z" fill="white" stroke="black" stroke-width="0.5" stroke-linecap="round" stroke-linejoin="round"/>
<path d="M340.6 215.11L342.64 213.85L340.78 211.76L338.79 212.94L340.6 215.11Z" fill="white" stroke="black" stroke-width="0.5" stroke-linecap="round" stroke-linejoin="round"/>
<path d="M334.87 208.25L337.05 206.9L335.24 204.87L333.11 206.13L334.87 208.25Z" fill="white" stroke="black" stroke-width="0.5" stroke-linecap="round" stroke-linejoin="round"/>
<path d="M334.87 215.29L332.41 216.76L334.12 219.15L336.69 217.55L334.87 215.29Z" fill="white" stroke="black" stroke-width="0.5" stroke-linecap="round" stroke-linejoin="round"/>
<path d="M332.12 211.88L329.66 213.35L331.36 215.74L333.94 214.14L332.12 211.88Z" fill="white" stroke="black" stroke-width="0.5" stroke-linecap="round" stroke-linejoin="round"/>
<path d="M329.31 208.38L327.05 209.72L328.71 212.05L331.08 210.59L329.31 208.38Z" fill="white" stroke="black" stroke-width="0.5" stroke-linecap="round" stroke-linejoin="round"/>
<path d="M347.58 236.36C347.58 236.36 335.03 222.38 334.14 221.49C333.25 220.6 334.4 218.05 334.14 216.77C333.88 215.49 332.23 213.71 331.84 212.94C331.46 212.17 331.2 209.37 330.31 209.11C329.42 208.85 328.27 209.62 328.27 210.9C328.27 212.18 329.04 213.58 329.04 213.58L329.81 215.75L324.58 210.14C324.58 210.14 323.43 211.03 323.81 212.18C324.19 213.33 325.09 218.43 325.6 219.96C326.11 221.49 326.49 223.02 328.41 224.17C330.32 225.32 331.6 226.47 331.6 226.47L340.22 244.12C340.22 244.12 344.96 236.83 347.6 236.36H347.58Z" fill="white" stroke="black" stroke-linecap="round" stroke-linejoin="round"/>
<path d="M344.56 211.27L343.54 213.19C343.54 213.19 345 214.71 346.4 215.9C347.8 217.09 349.47 216.78 349.47 216.78C349.47 216.78 350.93 217.2 351.41 217.18C351.89 217.16 352.87 215.39 352.87 215.39L354.54 213.97C354.54 213.97 347.88 209.07 344.57 211.28L344.56 211.27Z" fill="white" stroke="black" stroke-linecap="round" stroke-linejoin="round"/>
<path d="M348.04 208.47C348.04 208.47 344.2 208.64 342.43 208.76C340.66 208.88 338.24 209.62 339.05 210.64C339.86 211.66 341.87 211.29 342.97 211.29C344.07 211.29 347.81 212.04 347.81 212.04C347.81 212.04 346.56 213.1 345.14 213.65C343.72 214.19 341.12 215.2 342.59 215.77C344.06 216.34 345.35 216.24 346.39 215.91C347.43 215.58 348.66 215.14 349.58 215.24C350.5 215.34 350.75 215.57 352.86 215.39L354.97 215.2L361.56 224.19L369.53 222.83C369.53 222.83 357.49 211.34 355.03 210C352.57 208.66 348.04 208.48 348.04 208.48V208.47Z" fill="white" stroke="black" stroke-linecap="round" stroke-linejoin="round"/>
<path d="M403.26 229.09C401.99 222.25 401.99 214.29 400.87 211.91C399.76 209.52 386.71 205.07 384.48 205.55C384.48 205.55 353.62 213.35 353.78 215.26C353.94 217.17 351.71 241.19 351.71 241.19C351.71 241.19 350.3 238.63 347.58 236.37C346.23 237.01 343.65 239.2 341.79 241.78C341.15 242.66 340.63 243.44 340.2 244.13C343.15 248.4 345.79 252.09 346.78 253.13C349.48 255.99 355.21 258.86 355.21 258.86C355.21 258.86 365.07 265.22 376.85 263C388.63 260.78 389.9 258.23 389.9 258.23L392.11 251.86C392.11 251.86 395.74 249.28 396.7 247.85C397.65 246.42 404.54 235.96 403.27 229.12L403.26 229.09Z" fill="white" stroke="black" stroke-linecap="round" stroke-linejoin="round"/>
<path d="M399.11 225.06L400.08 221.3" stroke="black" stroke-linecap="round" stroke-linejoin="round"/>
<path d="M392.3 251.26L397.94 229.58" stroke="black" stroke-linecap="round" stroke-linejoin="round"/>
<path d="M361.26 175.48C361.26 175.48 358.71 178.18 358.56 181.69C358.4 185.19 358.08 190.12 357.61 190.92C357.13 191.72 354.11 193.31 354.91 194.74C355.71 196.17 358.41 197.45 358.41 197.45C358.41 197.45 361.27 205.72 362.71 206.2C364.14 206.68 368.12 204.45 368.12 204.45L369.71 211.29L384.66 208.27L383.07 200.16C383.07 200.16 387.37 193.32 384.66 182.18C381.96 171.04 373.05 171.04 368.59 172.32C364.14 173.59 361.27 175.5 361.27 175.5L361.26 175.48Z" fill="white" stroke="black" stroke-linecap="round" stroke-linejoin="round"/>
<path d="M360.39 191.39C360.699 191.39 360.95 190.642 360.95 189.72C360.95 188.798 360.699 188.05 360.39 188.05C360.081 188.05 359.83 188.798 359.83 189.72C359.83 190.642 360.081 191.39 360.39 191.39Z" fill="black"/>
<path d="M360.31 199.02C360.31 199.02 362.06 199.5 363.01 197.27" stroke="black" stroke-linecap="round" stroke-linejoin="round"/>
<path d="M359.35 186.14C359.35 186.14 361.58 184.71 362.37 186.62" stroke="black" stroke-linecap="round" stroke-linejoin="round"/>
<path d="M352.67 172.46C352.67 172.46 353.62 176.12 354.9 177.07C356.17 178.02 358.56 179.46 358.56 179.46L360.31 177.07C360.31 177.07 359.36 180.09 362.38 182.48C365.4 184.87 368.11 190.12 368.11 190.12C368.11 190.12 365.88 204.12 366.68 207.46C367.48 210.8 370.18 211.44 377.34 210.64C384.5 209.84 399.61 208.73 399.61 201.57C399.61 194.41 393.09 188.05 390.86 183.75C388.63 179.45 388.63 166.25 374.79 165.29C368.42 164.85 356.79 167.43 352.68 172.45L352.67 172.46Z" fill="black" stroke="black" stroke-linecap="round" stroke-linejoin="round"/>
<path d="M367.31 228.62C367.31 228.62 361.11 256.3 359.67 257.73C358.24 259.16 355.22 258.84 355.22 258.84" stroke="black" stroke-linecap="round" stroke-linejoin="round"/>
<path d="M354.9 252.16C351.88 249.3 351.72 241.18 351.72 241.18C351.72 241.18 349.97 245.48 350.92 249.45" stroke="black" stroke-linecap="round" stroke-linejoin="round"/>
<path d="M359.43 231.04C359.9 231.84 360.41 232.59 360.94 233.23" stroke="black" stroke-linecap="round" stroke-linejoin="round"/>
<path d="M354.9 219.07C354.9 219.07 356.09 224.17 358.22 228.72" stroke="black" stroke-linecap="round" stroke-linejoin="round"/>
<path d="M256.35 350.74C256.35 350.74 233.72 338.41 231.11 339.42C228.5 340.43 224.73 346.67 225.31 349.72C225.89 352.77 229.95 370.61 230.1 371.48C230.24 372.35 255.34 381.2 255.34 381.2L256.36 350.73L256.35 350.74Z" fill="white" stroke="black" stroke-linecap="round" stroke-linejoin="round"/>
<path d="M231.84 354.36C231.84 354.36 245.04 373.36 251.13 378.3" stroke="white" stroke-linecap="round" stroke-linejoin="round"/>
<path d="M204.69 269.73C204.69 269.73 207.14 270.07 207.14 271C207.14 271.93 205.79 275.06 205.53 275.82C205.28 276.58 203.16 275.31 203.16 274.55C203.16 273.79 204.68 269.73 204.68 269.73H204.69Z" fill="white" stroke="black" stroke-linecap="round" stroke-linejoin="round"/>
<path d="M207.14 271C207.14 271 208.58 273.03 208.41 274.05C208.24 275.07 206.63 277.52 206.38 277.6C206.13 277.68 205.53 275.82 205.53 275.82L207.14 271Z" fill="white" stroke="black" stroke-linecap="round" stroke-linejoin="round"/>
<path d="M208.41 274.04C208.41 274.04 209.34 275.73 208.92 276.58C208.5 277.43 207.74 278.86 207.14 278.78C206.55 278.7 207.05 277.93 207.05 277.93L208.4 274.04H208.41Z" fill="white" stroke="black" stroke-linecap="round" stroke-linejoin="round"/>
<path d="M259.84 296.92C259.84 296.92 247.22 294.45 246.06 295.18C244.9 295.91 223.86 318.68 223.86 318.68C223.86 318.68 218.49 309.25 214.43 300.55C210.37 291.85 207.76 282.71 207.76 282.71C207.76 282.71 203.55 269.94 200.65 271.1C197.75 272.26 194.85 281.11 196.88 283.14C198.91 285.17 204.13 290.68 204.13 290.68C204.13 290.68 207.61 311.13 212.4 320.13C217.19 329.12 220.81 337.25 222.12 336.67C223.43 336.09 245.33 317.09 245.33 317.09C245.33 317.09 244.17 328.26 245.04 330.73C245.91 333.2 248.52 337.69 248.81 338.42C249.1 339.15 249.68 371.64 249.68 371.64C249.68 371.64 241.99 368.16 231.26 367.43C220.52 366.7 201.96 371.2 200.65 372.8C199.34 374.4 198.47 382.66 200.22 384.26C201.97 385.86 215.45 398.62 218.64 398.62C221.83 398.62 267.53 411.82 269.56 412.84C271.59 413.86 281.75 423.72 284.5 424.16C287.26 424.59 289.87 424.59 291.75 422.56C293.63 420.53 290.3 416.18 287.98 411.97C285.66 407.76 282.47 405.73 281.45 405.15C280.43 404.57 278.11 398.19 278.11 398.19C278.11 398.19 295.23 393.55 299.58 386.73C303.93 379.91 301.47 371.5 299.87 367.15C298.27 362.8 295.81 357.43 295.81 357.43C295.81 357.43 301.9 333.64 300.89 328.13C299.88 322.62 287.54 297.81 287.11 297.23C286.823 296.843 286.387 296.65 285.8 296.65C284.93 296.65 282.9 296.94 282.9 296.94H259.83L259.84 296.92Z" fill="white" stroke="black" stroke-linecap="round" stroke-linejoin="round"/>
<path d="M196.66 281.99C196.66 281.99 194.63 276.49 194.55 275.56C194.46 274.63 194.04 270.49 194.21 270.23C194.38 269.97 199.2 268.03 200.89 267.69C202.58 267.35 203.43 265.91 203.68 266.93C203.93 267.95 203.51 268.88 202.83 269.81C202.15 270.74 199.28 271.42 199.28 271.42V275.56L203.34 277.25" fill="white"/>
<path d="M196.66 281.99C196.66 281.99 194.63 276.49 194.55 275.56C194.46 274.63 194.04 270.49 194.21 270.23C194.38 269.97 199.2 268.03 200.89 267.69C202.58 267.35 203.43 265.91 203.68 266.93C203.93 267.95 203.51 268.88 202.83 269.81C202.15 270.74 199.28 271.42 199.28 271.42V275.56L203.34 277.25" stroke="black" stroke-linecap="round" stroke-linejoin="round"/>
<path d="M291.75 422.55C293.64 420.52 290.3 416.17 287.98 411.96C285.66 407.75 282.47 405.72 281.45 405.14C280.51 404.6 278.44 399.07 278.15 398.28C274.05 398.5 264.45 398.99 263.32 398.76C263.32 398.76 261.58 400.07 262.3 403.84C263.03 407.61 266.36 410.51 269.55 412.83C271.58 413.85 281.74 423.71 284.49 424.15C287.25 424.58 289.86 424.58 291.74 422.55H291.75Z" fill="white" stroke="black" stroke-linecap="round" stroke-linejoin="round"/>
<path d="M268.98 404.85C271.3 407.75 271.16 409.35 273.33 413.12C275.46 416.82 283.17 423.3 286.61 424.36C288.56 424.43 290.35 424.05 291.75 422.54C293.64 420.51 290.3 416.16 287.98 411.95C285.66 407.74 282.47 405.71 281.45 405.13C280.51 404.59 278.44 399.06 278.15 398.27C275.94 398.39 272.13 398.59 268.91 398.7C268.56 399.26 266.88 402.22 268.98 404.84V404.85Z" fill="white" stroke="black" stroke-linecap="round" stroke-linejoin="round"/>
<path d="M295.81 357.41C295.81 357.41 301.9 333.62 300.89 328.11C299.87 322.6 287.54 297.79 287.11 297.21C286.823 296.823 286.387 296.63 285.8 296.63C284.93 296.63 282.9 296.92 282.9 296.92H259.83C259.83 296.92 247.21 294.45 246.05 295.18C244.89 295.91 223.85 318.68 223.85 318.68C223.85 318.68 221.8 315.08 219.28 310.28C217.24 311.03 213.86 312.75 210.74 316.47C211.27 317.82 211.82 319.06 212.39 320.13C217.18 329.12 220.8 337.25 222.11 336.67C223.42 336.09 245.32 317.09 245.32 317.09C245.32 317.09 244.16 328.26 245.03 330.73C245.9 333.2 248.51 337.69 248.8 338.42C248.98 338.87 249.27 351.51 249.47 361.07C252.8 362.66 262.04 366.24 275.43 364.81C286.24 363.65 292.79 360.37 296.13 358.13C295.93 357.69 295.81 357.43 295.81 357.43V357.41Z" fill="white" stroke="black" stroke-linecap="round" stroke-linejoin="round"/>
<path d="M295.81 357.41L291.03 335.65L287.98 306.34" fill="white"/>
<path d="M295.81 357.41L291.03 335.65L287.98 306.34" stroke="black" stroke-linecap="round" stroke-linejoin="round"/>
<path d="M295.81 357.41C295.81 357.41 295.96 356.83 296.21 355.82C294.12 356.79 288.24 359.27 277.1 362.2C265.92 365.13 254.14 361.66 249.46 359.97C249.59 366.33 249.69 371.63 249.69 371.63C249.69 371.63 242 368.15 231.27 367.42C220.53 366.69 201.97 371.19 200.66 372.79C199.35 374.39 198.48 382.65 200.23 384.25C201.98 385.85 215.46 398.61 218.65 398.61C220.48 398.61 236.26 402.94 249.79 406.84C249.7 406.58 249.62 406.3 249.55 406.01C248.97 403.69 250.42 397.31 250.42 397.31C250.42 397.31 259.41 399.34 267.1 399.05C274.79 398.76 278.12 398.18 278.12 398.18C278.12 398.18 295.24 393.54 299.59 386.72C303.94 379.9 301.48 371.49 299.88 367.14C298.28 362.79 295.82 357.42 295.82 357.42L295.81 357.41Z" stroke="black" stroke-linecap="round" stroke-linejoin="round"/>
<path d="M249.25 397.16C249.25 397.16 230.54 389.91 224.88 387.3C219.22 384.69 215.74 386.43 211.39 382.51" stroke="white" stroke-linecap="round" stroke-linejoin="round"/>
<path d="M223.86 318.68C223.86 318.68 220.98 326.74 221.39 329.78" stroke="black" stroke-linecap="round" stroke-linejoin="round"/>
<path d="M221.18 318.84C221.18 318.84 218.55 323.5 218.55 326.53" stroke="black" stroke-linecap="round" stroke-linejoin="round"/>
<path d="M245.33 317.08L252.96 311.75" stroke="black" stroke-linecap="round" stroke-linejoin="round"/>
<path d="M247.09 317.42L254.38 314.18" stroke="black" stroke-linecap="round" stroke-linejoin="round"/>
<path d="M292.84 342.52L295.81 357.41C295.81 357.41 297.47 350.93 298.91 343.95C295.71 344.52 292.84 342.52 292.84 342.52Z" fill="white" stroke="black" stroke-linecap="round" stroke-linejoin="round"/>
<path d="M204.52 266.35L195.04 282.81C194.76 283.29 194.93 283.91 195.41 284.19C195.9 284.47 196.53 284.29 196.8 283.79L205.78 267.03L206.2 265.08L204.51 266.35H204.52Z" fill="black" stroke="black" stroke-linecap="round" stroke-linejoin="round"/>
<path d="M201.39 278.86C201.39 278.86 200.46 274.88 200.46 274.63C200.46 274.38 201.73 270.91 201.98 270.06C202.23 269.21 201.56 267.35 203.33 267.61C205.11 267.86 205.28 269.89 205.11 270.74C204.94 271.59 204.35 272.85 204.35 272.85C204.35 272.85 206.21 275.81 207.06 277.92C207.91 280.03 205.79 284.09 205.79 284.09" fill="white"/>
<path d="M201.39 278.86C201.39 278.86 200.46 274.88 200.46 274.63C200.46 274.38 201.73 270.91 201.98 270.06C202.23 269.21 201.56 267.35 203.33 267.61C205.11 267.86 205.28 269.89 205.11 270.74C204.94 271.59 204.35 272.85 204.35 272.85C204.35 272.85 206.21 275.81 207.06 277.92C207.91 280.03 205.79 284.09 205.79 284.09" stroke="black" stroke-linecap="round" stroke-linejoin="round"/>
<path d="M254.18 266.58C253.11 269.27 250.84 270.9 249.11 270.22C247.38 269.54 246.84 266.79 247.91 264.1C248.98 261.4 251.25 259.78 252.98 260.46C254.71 261.15 255.25 263.89 254.18 266.58Z" stroke="black" stroke-linecap="round" stroke-linejoin="round"/>
<path d="M254.9 258.33C254.9 258.33 254.03 260.22 253.16 262.97C252.29 265.73 250.26 268.34 248.81 268.48C247.36 268.62 245.33 268.34 245.47 269.93C245.61 271.53 247.65 273.41 247.65 273.41C247.65 273.41 247.51 284.43 249.1 285.6C250.7 286.76 254.76 286.62 254.76 286.62L255.05 294.16L263.32 294.02C263.32 294.02 260.42 289.09 262.01 283.43C263.61 277.77 266.94 274.58 264.77 267.76C262.6 260.94 254.91 258.33 254.91 258.33H254.9Z" fill="white" stroke="black" stroke-linecap="round" stroke-linejoin="round"/>
<path d="M256.5 297.06L259.4 341.02L273.47 339.13L266.36 296.19L256.5 297.06Z" fill="white" stroke="black" stroke-linecap="round" stroke-linejoin="round"/>
<path d="M263.9 289.95C263.47 289.95 252.58 289.81 252.29 291.69C252 293.58 250.61 295.4 251.48 295.84C252.35 296.27 264.33 298.36 264.77 298.22C265.21 298.08 263.9 289.95 263.9 289.95Z" fill="white" stroke="black" stroke-linecap="round" stroke-linejoin="round"/>
<path d="M247.91 264.1L263.17 271.82" stroke="black" stroke-linecap="round" stroke-linejoin="round"/>
<path d="M271.3 250.2C271.3 250.2 268.25 245.85 264.77 245.56C261.29 245.27 254.62 245.7 253.31 252.38C252 259.06 256.94 265.44 258.53 266.89C260.13 268.34 262.74 273.56 260.13 277.34C257.52 281.12 255.63 285.17 257.37 288.36C259.11 291.55 261.43 294.02 261.14 297.21C260.85 300.4 258.24 303.74 258.24 303.74C258.24 303.74 262.88 308.24 271.73 308.24C280.58 308.24 287.83 303.45 287.83 303.45C287.83 303.45 285.65 300.55 286.81 295.91C287.97 291.27 289.57 286.33 287.83 282.27C286.09 278.21 282.75 278.79 284.93 273.28C287.11 267.77 286.96 260.95 283.48 255.29C280 249.63 271.29 250.21 271.29 250.21L271.3 250.2Z" fill="black" stroke="black" stroke-linecap="round" stroke-linejoin="round"/>
<path d="M309.395 237.192C316.344 234.298 319.631 226.319 316.737 219.37C313.843 212.421 305.864 209.134 298.915 212.028C291.966 214.922 288.679 222.901 291.573 229.85C294.467 236.799 302.446 240.086 309.395 237.192Z" fill="white" stroke="black" stroke-linecap="round" stroke-linejoin="round"/>
<path d="M303.945 234.24V232.37C302.651 232.301 301.673 231.899 301.026 231.112C300.38 230.343 300.03 229.155 299.978 227.548L302.861 227.111C302.861 227.757 302.931 228.299 303.036 228.701C303.141 229.103 303.281 229.4 303.473 229.575C303.665 229.749 303.91 229.837 304.172 229.837C304.521 229.837 304.748 229.714 304.853 229.47C304.958 229.225 305.01 228.981 305.01 228.718C305.01 228.089 304.871 227.565 304.574 227.128C304.277 226.691 303.875 226.255 303.35 225.818L302.005 224.665C301.621 224.315 301.289 223.983 300.974 223.616C300.659 223.249 300.415 222.847 300.223 222.375C300.03 221.904 299.943 221.344 299.943 220.68C299.943 219.492 300.293 218.549 300.974 217.867C301.655 217.186 302.582 216.801 303.735 216.714V214.932H304.696V216.696C305.43 216.731 306.006 216.906 306.443 217.203C306.88 217.5 307.212 217.867 307.439 218.304C307.666 218.741 307.806 219.195 307.894 219.685C307.981 220.174 308.016 220.611 308.033 221.03L305.115 221.397C305.115 220.943 305.08 220.541 305.028 220.209C304.975 219.877 304.888 219.615 304.766 219.422C304.626 219.248 304.416 219.16 304.137 219.16C303.822 219.16 303.595 219.3 303.438 219.562C303.281 219.824 303.211 220.086 303.211 220.349C303.211 220.96 303.368 221.432 303.665 221.816C303.979 222.183 304.311 222.533 304.678 222.865L305.954 223.983C306.373 224.367 306.775 224.787 307.125 225.224C307.474 225.661 307.771 226.15 307.981 226.691C308.191 227.233 308.296 227.862 308.296 228.561C308.296 229.26 308.156 229.837 307.876 230.396C307.597 230.955 307.212 231.392 306.688 231.741C306.164 232.091 305.552 232.301 304.836 232.37V234.258H303.875L303.945 234.24Z" fill="black"/>
<path d="M284.656 207.827C290.668 201.815 290.668 192.068 284.656 186.056C278.645 180.044 268.897 180.044 262.885 186.056C256.874 192.068 256.874 201.815 262.885 207.827C268.897 213.839 278.645 213.839 284.656 207.827Z" fill="white" stroke="black" stroke-linecap="round" stroke-linejoin="round"/>
<path d="M273.523 207.82V205.705C272.055 205.635 270.972 205.164 270.238 204.29C269.504 203.416 269.119 202.071 269.049 200.253L272.3 199.764C272.3 200.498 272.387 201.092 272.492 201.546C272.597 202.001 272.771 202.333 272.999 202.525C273.226 202.717 273.488 202.822 273.802 202.822C274.204 202.822 274.466 202.682 274.571 202.42C274.693 202.158 274.746 201.861 274.746 201.564C274.746 200.848 274.571 200.253 274.239 199.764C273.907 199.275 273.453 198.786 272.859 198.279L271.356 196.986C270.937 196.601 270.552 196.2 270.203 195.798C269.853 195.396 269.574 194.924 269.364 194.4C269.154 193.876 269.049 193.229 269.049 192.495C269.049 191.15 269.434 190.084 270.203 189.315C270.972 188.546 272.02 188.109 273.331 188.022V185.995H274.414V188.004C275.235 188.039 275.899 188.232 276.388 188.564C276.878 188.896 277.262 189.315 277.507 189.804C277.751 190.293 277.926 190.818 278.013 191.359C278.101 191.901 278.153 192.408 278.171 192.88L274.868 193.281C274.868 192.775 274.816 192.32 274.781 191.936C274.728 191.552 274.641 191.254 274.484 191.045C274.344 190.835 274.099 190.748 273.767 190.765C273.418 190.765 273.156 190.922 272.981 191.22C272.806 191.517 272.719 191.814 272.719 192.111C272.719 192.792 272.894 193.334 273.243 193.753C273.593 194.173 273.977 194.557 274.379 194.941L275.829 196.2C276.319 196.636 276.755 197.108 277.157 197.597C277.559 198.104 277.891 198.646 278.118 199.257C278.363 199.869 278.485 200.568 278.485 201.372C278.485 202.123 278.328 202.805 278.013 203.434C277.699 204.063 277.262 204.569 276.668 204.954C276.091 205.338 275.392 205.583 274.589 205.67V207.802H273.505L273.523 207.82Z" fill="black"/>
<path d="M314.918 181.644C326.142 181.644 335.24 172.545 335.24 161.322C335.24 150.098 326.142 141 314.918 141C303.695 141 294.596 150.098 294.596 161.322C294.596 172.545 303.695 181.644 314.918 181.644Z" fill="white" stroke="black" stroke-linecap="round" stroke-linejoin="round"/>
<path d="M314.586 175.703V172.925C312.646 172.837 311.214 172.208 310.235 171.055C309.257 169.902 308.75 168.119 308.68 165.725L312.978 165.079C312.996 166.057 313.083 166.844 313.223 167.438C313.363 168.032 313.59 168.469 313.887 168.731C314.184 168.993 314.534 169.133 314.936 169.133C315.46 169.133 315.792 168.958 315.966 168.591C316.141 168.224 316.211 167.857 316.211 167.473C316.211 166.529 315.984 165.743 315.547 165.096C315.11 164.45 314.499 163.803 313.73 163.139L311.738 161.427C311.179 160.92 310.672 160.396 310.2 159.872C309.728 159.347 309.379 158.718 309.082 158.019C308.802 157.32 308.662 156.482 308.662 155.503C308.662 153.721 309.169 152.323 310.2 151.309C311.214 150.296 312.594 149.719 314.324 149.597V146.924H315.757V149.562C316.84 149.615 317.714 149.859 318.378 150.313C319.042 150.75 319.531 151.292 319.863 151.939C320.195 152.585 320.422 153.267 320.545 154C320.667 154.717 320.737 155.398 320.754 156.01L316.403 156.552C316.386 155.87 316.351 155.294 316.281 154.787C316.211 154.28 316.089 153.896 315.879 153.616C315.687 153.354 315.372 153.214 314.936 153.232C314.464 153.232 314.114 153.424 313.905 153.826C313.677 154.228 313.573 154.612 313.573 155.014C313.573 155.905 313.8 156.639 314.254 157.198C314.708 157.757 315.215 158.282 315.757 158.753L317.661 160.413C318.29 160.99 318.885 161.619 319.426 162.266C319.968 162.93 320.387 163.646 320.702 164.467C321.016 165.271 321.174 166.197 321.174 167.246C321.174 168.242 320.964 169.15 320.562 169.971C320.16 170.793 319.566 171.474 318.797 171.981C318.028 172.488 317.102 172.82 316.036 172.925V175.738H314.604L314.586 175.703Z" fill="black"/>
<path d="M89.05 194.83L117.33 232.56C117.33 232.56 117.62 241.71 115.12 244.84C112.62 247.97 107.17 247.63 100.08 243.32C98.66 242.46 86.68 228.78 86.68 228.78L87.3 205.17C87.3 205.17 89.83 197.18 89.05 194.84V194.83Z" fill="white" stroke="black" stroke-linecap="round" stroke-linejoin="round"/>
<path d="M98.23 238.42C98.23 238.42 99.09 233.58 101.52 231.33" stroke="black" stroke-linecap="round" stroke-linejoin="round"/>
<path d="M94.95 233.41C94.95 233.41 97.89 229.78 101.87 229.26" stroke="black" stroke-linecap="round" stroke-linejoin="round"/>
<path d="M52.27 188.28C52.27 188.28 25.32 199.72 25.32 201.28C25.32 202.84 11.6 242.77 12.07 244.65C12.54 246.53 19.43 245.83 22.87 245.83C26.31 245.83 35.17 221.3 35.17 221.3L41.23 259.39L86.32 259.28C86.32 259.28 94.43 205.07 92.08 198.65C89.73 192.24 72.59 187.34 72.59 187.34L52.26 188.28H52.27Z" fill="white" stroke="black" stroke-linecap="round" stroke-linejoin="round"/>
<path d="M21.19 234.35C23.34 234.76 25.88 235.78 27.43 238.23" stroke="black" stroke-linecap="round" stroke-linejoin="round"/>
<path d="M17.23 234.15C17.23 234.15 18.03 234.05 19.21 234.11" stroke="black" stroke-linecap="round" stroke-linejoin="round"/>
<path d="M21.16 231.15C21.16 231.15 24.85 231.84 27.39 235.53" stroke="black" stroke-linecap="round" stroke-linejoin="round"/>
<path d="M35.18 221.3L32.23 214.31" stroke="black" stroke-linecap="round" stroke-linejoin="round"/>
<path d="M75.41 244.51C76.1 243.9 76.71 243.29 77.23 242.69" stroke="black" stroke-linecap="round" stroke-linejoin="round"/>
<path d="M53.69 257.46C53.69 257.46 66.14 251.8 73.58 246.03" stroke="black" stroke-linecap="round" stroke-linejoin="round"/>
<path d="M50.46 255.61L59 247.3" stroke="black" stroke-linecap="round" stroke-linejoin="round"/>
<path d="M30.25 245.83C30.25 245.83 28.92 244.88 27.79 242.61C26.66 240.34 21.75 237.45 17.58 237.64C13.41 237.83 12.08 242.19 12.08 244.65C12.08 247.11 14.16 248.82 15.49 249.77C16.82 250.72 26.71 252.77 26.71 252.77L30.43 247.17L30.24 245.84L30.25 245.83Z" fill="white" stroke="black" stroke-linecap="round" stroke-linejoin="round"/>
<path d="M76.64 151.76C76.64 151.76 79.76 158.18 80.13 159.83C80.5 161.48 79.95 162.77 79.95 162.77C79.95 162.77 83.8 166.07 83.8 167.72C83.8 169.37 81.78 170.47 81.78 170.47C81.78 170.47 84.17 179.46 83.25 180.93C82.33 182.4 76.1 182.21 76.1 182.21L70.29 204.13L66.77 193.95L53.72 183.86L54.82 177.99C54.82 177.99 44.91 162.95 44.55 159.09C44.18 155.24 55.01 145.15 61.43 144.23C67.85 143.31 76.84 142.39 77.94 146.8C79.04 151.2 76.65 151.75 76.65 151.75L76.64 151.76Z" fill="white" stroke="black" stroke-linecap="round" stroke-linejoin="round"/>
<path d="M76.64 151.76C76.64 151.76 79.03 151.21 77.92 146.81C76.82 142.41 67.83 143.32 61.41 144.24C54.99 145.16 44.16 155.25 44.53 159.1C44.9 162.95 54.8 178 54.8 178L60.3 174.88C60.3 174.88 58.47 173.78 56.81 171.76C55.15 169.74 56.08 166.99 57.54 165.71C59.01 164.43 61.03 167.55 61.58 167.73C62.13 167.91 63.78 167.91 64.33 167.55C64.88 167.18 63.23 162.41 63.23 161.68C63.23 160.95 67.27 159.66 67.82 158.74C68.37 157.82 65.62 157.09 63.97 155.99C62.32 154.89 76.63 151.77 76.63 151.77L76.64 151.76Z" fill="black" stroke="black" stroke-linecap="round" stroke-linejoin="round"/>
<path d="M76.08 182.22L67.83 180.38L74.62 187.54L76.08 182.22Z" fill="black" stroke="black" stroke-linecap="round" stroke-linejoin="round"/>
<path d="M77.52 163.68C77.76 164.61 77.48 165.49 76.9 165.64C76.31 165.79 75.64 165.16 75.39 164.23C75.15 163.3 75.43 162.42 76.01 162.27C76.6 162.12 77.27 162.75 77.52 163.68Z" fill="black"/>
<path d="M73.7 161.49C73.7 161.49 75.9 159.47 78.47 160.76L73.7 161.49Z" fill="black"/>
<path d="M73.7 161.49C73.7 161.49 75.9 159.47 78.47 160.76" stroke="black" stroke-linecap="round" stroke-linejoin="round"/>
<path d="M80.67 173.41C80.67 173.41 77.92 173.04 76.45 171.57L80.67 173.41Z" fill="black"/>
<path d="M80.67 173.41C80.67 173.41 77.92 173.04 76.45 171.57" stroke="black" stroke-linecap="round" stroke-linejoin="round"/>
<path d="M53.7 183.87L50.21 190.84L62.18 204.66L66.75 193.96L53.7 183.87Z" fill="white" stroke="black" stroke-linecap="round" stroke-linejoin="round"/>
<path d="M70.27 204.14L78.84 192.13L74.62 187.54L70.27 204.14Z" fill="white" stroke="black" stroke-linecap="round" stroke-linejoin="round"/>
<path d="M78.84 192.13L81.04 199.83L75.36 197.09L78.84 192.13Z" fill="white" stroke="black" stroke-linecap="round" stroke-linejoin="round"/>
<path d="M41.24 259.39L39.46 268.64L31.18 332.42L4.7 385.03C4.7 385.03 1.55 387.97 1.55 388.6C1.55 389.23 0.5 392.59 0.5 392.59C0.5 392.59 5.54 399.11 7.23 400.58C8.92 402.05 13.74 404.36 16.06 404.36C18.38 404.36 22.37 403.94 22.78 402.05C23.2 400.16 19.63 397.85 19.63 397.85L19 389.23L20.89 385.45C20.89 385.45 20.68 383.35 20.89 382.72C21.1 382.09 53.67 332.63 54.94 329.69C56.21 326.75 63.77 301.74 63.77 301.74L72.39 332.42L77.43 389.02L75.75 392.38L76.59 395.74C76.59 395.74 75.75 400.99 77.43 401.62C79.11 402.25 87.31 402.25 88.36 402.04C89.41 401.83 102.44 402.04 104.12 401.62C105.8 401.2 107.27 400.36 106.85 398.89C106.43 397.42 101.39 397.42 100.34 396.79C99.29 396.16 92.14 388.8 92.14 388.8C92.14 388.8 91.93 386.91 91.72 386.07C91.51 385.23 89.62 382.08 89.62 382.08L91.72 321.91L85.91 263.9L86.34 259.28L41.24 259.39Z" stroke="black" stroke-linecap="round" stroke-linejoin="round"/>
<path d="M149.21 101.54C125.42 101.54 106.14 120.83 106.14 144.61C106.14 168.39 125.43 187.68 149.21 187.68C172.99 187.68 192.28 168.39 192.28 144.61C192.28 120.83 172.99 101.54 149.21 101.54ZM149.21 182.01C128.56 182.01 111.82 165.27 111.82 144.62C111.82 123.97 128.56 107.23 149.21 107.23C169.86 107.23 186.6 123.97 186.6 144.62C186.6 165.27 169.86 182.01 149.21 182.01Z" fill="black" stroke="black" stroke-linecap="round" stroke-linejoin="round"/>
<path d="M116.188 172.087L89.8037 196.829L94.3047 201.629L120.689 176.887L116.188 172.087Z" fill="white" stroke="black" stroke-linecap="round" stroke-linejoin="round"/>
<path d="M22.57 270.49C20.94 270.49 19.32 269.84 18.11 268.56C15.8 266.1 15.93 262.23 18.39 259.93L87.88 194.76C90.34 192.45 94.21 192.58 96.51 195.04C98.82 197.5 98.69 201.37 96.23 203.67L26.74 268.84C25.56 269.95 24.06 270.49 22.56 270.49H22.57Z" fill="white" stroke="black" stroke-linecap="round" stroke-linejoin="round"/>
<path d="M31.42 244.15C31.42 244.15 25.31 250.87 25.75 251.74C26.19 252.61 26.71 252.76 26.71 252.76L28.45 253.23C28.45 253.23 30.89 257.68 31.33 257.94C31.77 258.2 32.73 257.85 32.99 257.5C33.25 257.15 32.99 256.63 32.99 256.63L30.89 251.48L32.29 251.92L35.26 256.46C35.26 256.46 35.78 257.6 36.48 257.33C37.18 257.07 37.62 257.07 37.62 256.46C37.62 255.85 35.09 250.52 35.09 250.52L33.26 248.77L36.4 249.03L39.8 254.01C39.8 254.01 41.81 253.92 41.37 252.35L38.4 246.68L37 245.28L40.75 245.37L43.37 248.95C43.37 248.95 43.89 249.21 44.33 248.69C44.77 248.17 44.24 246.59 43.98 246.16C43.72 245.73 42.23 242.84 42.23 242.84L36.12 242.49L31.41 244.15H31.42Z" fill="white" stroke="black" stroke-linecap="round" stroke-linejoin="round"/>
<path d="M117.04 229.76C116.81 228.6 112.63 198.63 112.63 198.63C112.63 198.63 114.49 184.92 114.72 183.76C114.75 183.6 114.67 183.49 114.53 183.4L111.09 176.98C111.09 176.98 107.72 174.29 106.64 174.15C105.56 174.01 105.02 175.09 105.43 175.63C105.84 176.17 106.64 176.3 107.05 176.57C107.45 176.84 110.28 180.88 110.28 180.88L105.7 177.38C105.7 177.38 103.27 177.38 102.87 177.51C102.47 177.64 102.47 178.99 102.87 179.26C103.27 179.53 103.95 179.66 103.95 179.66C103.95 179.66 101.93 179.53 101.39 180.06C100.85 180.59 100.45 180.87 101.12 181.41L101.79 181.95C101.79 181.95 99.23 183.3 99.9 184.24C100.57 185.18 102.06 184.37 102.06 184.37L105.19 187.69C105.19 187.69 102.66 194.53 103.1 196.05C103.56 198.14 105.65 200 105.65 200C105.65 200 101.24 233.45 101.24 236.47C101.24 239.49 108.44 244.83 110.3 244.83C112.16 244.83 115.64 241.58 116.57 237.86C117.5 234.14 117.27 230.89 117.03 229.73L117.04 229.76Z" fill="white" stroke="black" stroke-linecap="round" stroke-linejoin="round"/>
<path d="M103.95 179.67L105.7 179.81L109.34 184.12" fill="white"/>
<path d="M103.95 179.67L105.7 179.81L109.34 184.12" stroke="black" stroke-linecap="round" stroke-linejoin="round"/>
<path d="M101.79 181.97H104.08L107.31 186.01" fill="white"/>
<path d="M101.79 181.97H104.08L107.31 186.01" stroke="black" stroke-linecap="round" stroke-linejoin="round"/>
<path d="M110.28 180.89L112.16 182.77" stroke="black" stroke-linecap="round" stroke-linejoin="round"/>
<path d="M144.492 75.21V30.41H163.436V36.81H151.276V49.93H160.876V56.33H151.276V75.21H144.492ZM168.679 75.21V30.41H175.463V75.21H168.679ZM182.867 75.21V30.41H190.355L198.995 60.49V30.41H205.651V75.21H198.483L189.523 46.538V75.21H182.867ZM227.903 75.21L226.431 65.29H219.134L217.662 75.21H210.878L218.302 30.41H227.39L234.815 75.21H227.903ZM220.03 58.762H225.535L222.782 40.01L220.03 58.762ZM240.054 75.21V30.41H247.542L256.182 60.49V30.41H262.839V75.21H255.67L246.71 46.538V75.21H240.054ZM280.29 75.85C273.954 75.85 269.666 71.498 269.666 65.226V40.394C269.666 34.122 273.954 29.77 280.29 29.77C286.626 29.77 290.914 34.122 290.914 40.394V45.642H284.258V40.394C284.258 37.77 282.658 36.17 280.354 36.17C278.05 36.17 276.45 37.77 276.45 40.394V65.226C276.45 67.85 278.05 69.45 280.354 69.45C282.658 69.45 284.258 67.85 284.258 65.226V58.826H290.914V65.226C290.914 71.498 286.626 75.85 280.29 75.85ZM297.117 75.21V30.41H316.381V36.81H303.901V49.29H313.821V55.69H303.901V68.81H316.381V75.21H297.117Z" fill="black"/>
</g>
<defs>
<clipPath id="clip0_1059_2986">
<rect width="454.19" height="424.88" fill="white"/>
</clipPath>
</defs>
</svg>
