<svg width="492" height="390" viewBox="0 0 492 390" fill="none" xmlns="http://www.w3.org/2000/svg">
<g clip-path="url(#clip0_1100_1970)">
<path d="M183.995 352.159L190.33 380.698C190.681 382.279 192.081 383.403 193.697 383.403H215.031C216.649 383.403 218.049 382.278 218.399 380.698L224.733 352.159H183.995Z" fill="white"/>
<path d="M226.136 344.712H182.591C181.995 344.712 181.512 345.196 181.512 345.793V352.201C181.512 352.798 181.995 353.282 182.591 353.282H226.136C226.732 353.282 227.215 352.798 227.215 352.201V345.793C227.215 345.196 226.732 344.712 226.136 344.712Z" fill="white"/>
<path d="M181.512 349.839V352.201C181.512 352.799 181.995 353.282 182.591 353.282H226.134C226.731 353.282 227.214 352.799 227.214 352.201V349.839H181.51H181.512Z" fill="#E1E5E2"/>
<path d="M232.638 21.9457C231.099 21.9457 229.846 23.1999 229.846 24.7409V30.7834C229.846 32.3245 231.099 33.5787 232.638 33.5787H409.018C410.557 33.5787 411.81 32.3245 411.81 30.7834V24.7409C411.81 23.1999 410.557 21.9457 409.018 21.9457H232.638ZM410.824 24.7409V30.7834C410.824 31.7813 410.013 32.593 409.017 32.593H232.637C231.64 32.593 230.83 31.7813 230.83 30.7834V24.7409C230.83 23.743 231.64 22.9314 232.637 22.9314H409.017C410.013 22.9314 410.824 23.743 410.824 24.7409Z" fill="black" stroke="black" stroke-width="0.2"/>
<path d="M418.347 24.2168H439.644C439.916 24.2168 440.137 23.9955 440.137 23.7239C440.137 23.4523 439.916 23.2311 439.644 23.2311H418.347C418.076 23.2311 417.855 23.4523 417.855 23.7239C417.855 23.9955 418.076 24.2168 418.347 24.2168Z" fill="black" stroke="black" stroke-width="0.2"/>
<path d="M418.347 28.2551H439.644C439.916 28.2551 440.137 28.0338 440.137 27.7622C440.137 27.4907 439.916 27.2694 439.644 27.2694H418.347C418.076 27.2694 417.855 27.4907 417.855 27.7622C417.855 28.0338 418.076 28.2551 418.347 28.2551Z" fill="black" stroke="black" stroke-width="0.2"/>
<path d="M418.347 32.2932H439.644C439.916 32.2932 440.137 32.0719 440.137 31.8003C440.137 31.5287 439.916 31.3075 439.644 31.3075H418.347C418.076 31.3075 417.855 31.5287 417.855 31.8003C417.855 32.0719 418.076 32.2932 418.347 32.2932Z" fill="black" stroke="black" stroke-width="0.2"/>
<path d="M109.84 28.2576L112.106 30.2023C112.106 30.2023 112.107 30.2023 112.107 30.2023C112.312 30.3784 112.338 30.6902 112.16 30.8967C111.985 31.1032 111.674 31.1274 111.467 30.9502L111.467 30.9502L108.191 28.1405C108.183 28.1342 108.177 28.1278 108.173 28.1225C108.171 28.1205 108.17 28.1184 108.168 28.1166C107.992 27.9441 107.946 27.6249 108.169 27.4107L108.173 27.4027L108.189 27.3896L111.466 24.5769C111.466 24.5769 111.466 24.5768 111.466 24.5768C111.672 24.3993 111.984 24.4224 112.16 24.6305C112.338 24.837 112.312 25.1486 112.107 25.3246L112.107 25.3245L112.041 25.2486L112.106 25.3246L109.84 28.2576ZM109.84 28.2576H118.854C119.125 28.2576 119.346 28.0364 119.346 27.7648C119.346 27.5275 119.177 27.3285 118.954 27.2821V27.2693H118.854H109.84L109.84 28.2576Z" fill="black" stroke="black" stroke-width="0.2"/>
<path d="M141.882 27.3807L141.734 27.2441V27.2535L138.613 24.5757C138.613 24.5757 138.613 24.5756 138.613 24.5756C138.407 24.398 138.095 24.4212 137.919 24.6296L137.995 24.6942M141.882 27.3807L138.548 24.6514C138.383 24.5098 138.135 24.5285 137.995 24.6942M141.882 27.3807L141.889 27.387M141.882 27.3807L140.356 27.368M137.995 24.6942C137.854 24.8585 137.874 25.1071 138.038 25.2474M137.995 24.6942L137.919 24.6289C137.742 24.8355 137.767 25.1473 137.973 25.3234L137.973 25.3233L138.038 25.2474M138.038 25.2474L137.973 25.3234L140.239 27.268M138.038 25.2474L140.393 27.268H140.239M140.239 27.268L140.356 27.368M140.239 27.268H131.226C130.954 27.268 130.733 27.4893 130.733 27.7609C130.733 28.0325 130.954 28.2537 131.226 28.2537H140.239M140.356 27.368H131.226C131.01 27.368 130.833 27.5444 130.833 27.7609C130.833 27.9774 131.01 28.1537 131.226 28.1537H140.356L140.239 28.2537M140.356 27.368L137.995 30.8276M140.239 28.2537L137.973 30.1984L138.038 30.2744M140.239 28.2537H140.393L138.038 30.2744M138.038 30.2744L137.973 30.1985L137.973 30.1984C137.767 30.3745 137.742 30.6861 137.919 30.8927M138.038 30.2744C137.874 30.4147 137.854 30.6632 137.995 30.8276M137.919 30.8927C138.095 31.0989 138.405 31.1239 138.613 30.9463L138.613 30.9463L141.891 28.1348L141.906 28.1216L141.91 28.1136M137.919 30.8927C137.919 30.8926 137.919 30.8925 137.919 30.8925L137.995 30.8276M137.919 30.8927C137.919 30.8927 137.919 30.8928 137.919 30.8928L137.995 30.8276M141.91 28.1136C142.137 27.8961 142.086 27.5705 141.903 27.4M141.91 28.1136L141.914 28.1048L141.914 28.1058L141.912 28.1085C141.912 28.1095 141.91 28.1119 141.908 28.1149C141.907 28.1161 141.904 28.1187 141.901 28.1218C141.898 28.1247 141.894 28.1281 141.889 28.1314L141.895 28.1271L141.901 28.1219C141.904 28.1192 141.907 28.1164 141.91 28.1136ZM141.903 27.4C141.899 27.3958 141.894 27.3913 141.889 27.387M141.903 27.4C141.91 27.4077 141.914 27.4142 141.915 27.4162L141.915 27.4166C141.918 27.4201 141.919 27.4232 141.92 27.4254L141.922 27.4283L141.923 27.4295L141.923 27.4299L141.923 27.4301L141.923 27.4302L141.923 27.4303L141.923 27.4303L141.839 27.4723L141.889 27.387M141.903 27.4C141.902 27.3995 141.902 27.3991 141.901 27.3987L141.89 27.3887L141.891 27.3884L141.889 27.387" fill="black" stroke="black" stroke-width="0.2"/>
<path d="M172.34 11.1952C172.532 11.388 172.844 11.388 173.036 11.1952L175.036 9.1935L177.035 11.1952C177.228 11.388 177.539 11.388 177.732 11.1952C177.924 11.0025 177.924 10.6907 177.732 10.498L175.732 8.49611L177.732 6.49424C177.924 6.30153 177.924 5.98974 177.732 5.79703C177.539 5.60425 177.228 5.60425 177.035 5.79703L175.036 7.79872L173.036 5.79703C172.844 5.60425 172.532 5.60425 172.34 5.79703C172.147 5.98974 172.147 6.30153 172.34 6.49424L174.339 8.49611L172.34 10.498C172.147 10.6907 172.147 11.0025 172.34 11.1952Z" fill="black" stroke="black" stroke-width="0.2"/>
<path d="M290.686 5.79825C290.494 5.60547 290.182 5.60547 289.989 5.79825L287.99 7.79994L285.991 5.79825C285.798 5.60547 285.487 5.60547 285.294 5.79825C285.102 5.99096 285.102 6.30275 285.294 6.49547C285.294 6.49547 285.294 6.49547 285.294 6.49547L287.294 8.49733L285.294 10.4992C285.102 10.6919 285.102 11.0037 285.294 11.1964C285.487 11.3892 285.798 11.3892 285.991 11.1964L287.99 9.19472L289.989 11.1964C290.182 11.3892 290.494 11.3892 290.686 11.1964C290.879 11.0037 290.879 10.6919 290.686 10.4992L288.687 8.49733L290.686 6.49547C290.879 6.30275 290.879 5.99096 290.686 5.79825Z" fill="black" stroke="black" stroke-width="0.2"/>
<path d="M176.259 29.0401L176.26 29.0402C176.468 29.2141 176.499 29.5243 176.325 29.7342C176.151 29.943 175.84 29.9742 175.631 29.7992C175.631 29.7991 175.631 29.7991 175.631 29.799L174.595 28.9399C175.116 30.8875 176.895 32.327 179.005 32.327C181.519 32.327 183.564 30.2793 183.564 27.7621C183.564 25.2449 181.519 23.1972 179.005 23.1972C178.733 23.1972 178.513 22.976 178.513 22.7044C178.513 22.4328 178.733 22.2115 179.005 22.2115C182.062 22.2115 184.549 24.7018 184.549 27.7621C184.549 30.8225 182.062 33.3127 179.005 33.3127C176.448 33.3127 174.297 31.5718 173.656 29.2166L173.042 30.2466L173.042 30.2468C172.905 30.4763 172.607 30.5585 172.368 30.4179L172.367 30.4176C172.134 30.2784 172.057 29.9753 172.197 29.742C172.197 29.742 172.197 29.742 172.197 29.742L173.526 27.5118L173.526 27.5116C173.532 27.5012 173.539 27.4936 173.544 27.4888C173.545 27.487 173.547 27.4853 173.549 27.4839C173.577 27.4413 173.611 27.4065 173.649 27.3769C173.663 27.365 173.681 27.3537 173.688 27.3493C173.69 27.3485 173.691 27.3479 173.691 27.3475L173.693 27.3459L173.693 27.346C173.733 27.321 173.775 27.3046 173.818 27.2934C173.824 27.2901 173.839 27.2823 173.858 27.2783C173.875 27.2743 173.889 27.2745 173.897 27.275C173.905 27.2728 173.923 27.2679 173.944 27.2679C173.969 27.2679 173.99 27.2731 174.003 27.2766C174.01 27.2785 174.014 27.2798 174.017 27.2806L176.259 29.0401ZM176.259 29.0401L174.261 27.3831L174.261 27.3831L174.26 27.3821C174.243 27.3682 174.225 27.3602 174.217 27.3565L174.216 27.3563C174.211 27.3537 174.208 27.3525 174.207 27.352C174.206 27.3517 174.206 27.3516 174.206 27.3516C174.177 27.3328 174.144 27.3137 174.105 27.2993L174.105 27.2993L174.103 27.2985C174.073 27.2887 174.044 27.285 174.024 27.2825L176.259 29.0401Z" fill="black" stroke="black" stroke-width="0.2"/>
<path d="M246.696 181.511C242.956 181.511 239.912 184.557 239.912 188.303C239.912 192.049 242.956 195.096 246.696 195.096C250.436 195.096 253.481 192.049 253.481 188.303C253.481 184.557 250.438 181.511 246.696 181.511ZM246.696 194.11C243.498 194.11 240.897 191.506 240.897 188.303C240.897 185.1 243.499 182.497 246.696 182.497C249.893 182.497 252.497 185.102 252.497 188.303C252.497 191.504 249.895 194.11 246.696 194.11Z" fill="black" stroke="black" stroke-width="0.2"/>
<path d="M246.696 205.911C242.956 205.911 239.912 208.957 239.912 212.703C239.912 216.449 242.956 219.496 246.696 219.496C250.436 219.496 253.481 216.449 253.481 212.703C253.481 208.957 250.438 205.911 246.696 205.911ZM246.696 218.509C243.498 218.509 240.897 215.904 240.897 212.701C240.897 209.499 243.499 206.895 246.696 206.895C249.893 206.895 252.497 209.5 252.497 212.701C252.497 215.903 249.895 218.509 246.696 218.509Z" fill="black" stroke="black" stroke-width="0.2"/>
<path d="M246.696 230.31C242.956 230.31 239.912 233.356 239.912 237.102C239.912 240.847 242.956 243.895 246.696 243.895C250.436 243.895 253.481 240.848 253.481 237.102C253.481 233.356 250.438 230.31 246.696 230.31ZM246.696 242.909C243.498 242.909 240.897 240.304 240.897 237.102C240.897 233.899 243.499 231.295 246.696 231.295C249.893 231.295 252.497 233.9 252.497 237.102C252.497 240.303 249.895 242.909 246.696 242.909Z" fill="black" stroke="black" stroke-width="0.2"/>
<path d="M433.864 183.772H266.844C265.35 183.772 264.135 184.983 264.135 186.472V190.136C264.135 191.626 265.35 192.837 266.844 192.837H433.864C435.351 192.837 436.561 191.625 436.561 190.136V186.472C436.561 184.983 435.351 183.772 433.864 183.772ZM266.844 191.851C265.892 191.851 265.119 191.081 265.119 190.136V186.472C265.119 185.527 265.892 184.758 266.844 184.758H378.696C379.647 184.758 380.42 185.527 380.42 186.472V190.136C380.42 191.081 379.647 191.851 378.696 191.851H266.844ZM435.576 190.136C435.576 191.082 434.808 191.851 433.864 191.851H380.784C381.171 191.385 381.405 190.788 381.405 190.136V186.472C381.405 185.821 381.171 185.224 380.784 184.758H433.864C434.808 184.758 435.576 185.526 435.576 186.472V190.136Z" fill="black" stroke="black" stroke-width="0.2"/>
<path d="M433.864 208.172H266.844C265.35 208.172 264.135 209.383 264.135 210.872V214.535C264.135 216.024 265.35 217.235 266.844 217.235H433.864C435.351 217.235 436.561 216.024 436.561 214.535V210.872C436.561 209.383 435.351 208.172 433.864 208.172ZM266.844 216.248C265.892 216.248 265.119 215.479 265.119 214.533V210.871C265.119 209.926 265.892 209.156 266.844 209.156H334.041C334.993 209.156 335.766 209.926 335.766 210.871V214.533C335.766 215.479 334.993 216.248 334.041 216.248H266.844ZM435.576 214.535C435.576 215.481 434.808 216.249 433.864 216.249H336.128C336.515 215.783 336.749 215.187 336.749 214.535V210.872C336.749 210.221 336.515 209.624 336.128 209.157H433.864C434.808 209.157 435.576 209.926 435.576 210.872V214.535Z" fill="black" stroke="black" stroke-width="0.2"/>
<path d="M433.864 232.569H266.844C265.35 232.569 264.135 233.78 264.135 235.27V238.934C264.135 240.423 265.35 241.634 266.844 241.634H433.864C435.351 241.634 436.561 240.422 436.561 238.934V235.27C436.561 233.781 435.351 232.569 433.864 232.569ZM266.844 240.648C265.892 240.648 265.119 239.879 265.119 238.934V235.27C265.119 234.324 265.892 233.555 266.844 233.555H403.454C404.405 233.555 405.178 234.324 405.178 235.27V238.934C405.178 239.879 404.405 240.648 403.454 240.648H266.844ZM435.576 238.934C435.576 239.879 434.808 240.648 433.864 240.648H405.542C405.929 240.182 406.163 239.586 406.163 238.934V235.27C406.163 234.619 405.929 234.021 405.542 233.555H433.864C434.808 233.555 435.576 234.324 435.576 235.27V238.934Z" fill="black" stroke="black" stroke-width="0.2"/>
<path d="M150.375 75.9667H143.19C141.808 75.9667 140.683 77.0926 140.683 78.4759V116.281C140.683 117.665 141.808 118.791 143.19 118.791H150.375C151.757 118.791 152.882 117.665 152.882 116.281V78.4759C152.882 77.0926 151.757 75.9667 150.375 75.9667ZM151.896 116.281C151.896 117.121 151.213 117.805 150.374 117.805H143.188C142.349 117.805 141.667 117.121 141.667 116.281V78.4759C141.667 77.6357 142.349 76.9524 143.188 76.9524H150.374C151.213 76.9524 151.896 77.6357 151.896 78.4759V116.281Z" fill="black" stroke="black" stroke-width="0.2"/>
<path d="M173.41 66.4791H166.224C164.842 66.4791 163.718 67.605 163.718 68.9884V116.283C163.718 117.666 164.842 118.792 166.224 118.792H173.41C174.792 118.792 175.917 117.666 175.917 116.283V68.9884C175.917 67.605 174.792 66.4791 173.41 66.4791ZM174.932 116.281C174.932 117.121 174.249 117.805 173.41 117.805H166.224C165.386 117.805 164.703 117.121 164.703 116.281V68.987C164.703 68.1469 165.386 67.4635 166.224 67.4635H173.41C174.249 67.4635 174.932 68.1469 174.932 68.987V116.281Z" fill="black" stroke="black" stroke-width="0.2"/>
<path d="M196.446 73.1336H189.261C187.879 73.1336 186.754 74.2596 186.754 75.6429V116.281C186.754 117.665 187.879 118.79 189.261 118.79H196.446C197.828 118.79 198.953 117.665 198.953 116.281V75.6429C198.953 74.2596 197.828 73.1336 196.446 73.1336ZM197.967 116.281C197.967 117.121 197.284 117.805 196.445 117.805H189.259C188.42 117.805 187.738 117.121 187.738 116.281V75.6429C187.738 74.8027 188.42 74.1194 189.259 74.1194H196.445C197.284 74.1194 197.967 74.8027 197.967 75.6429V116.281Z" fill="black" stroke="black" stroke-width="0.2"/>
<path d="M219.481 86.0326H212.294C210.912 86.0326 209.788 87.1585 209.788 88.5418V116.281C209.788 117.665 210.912 118.79 212.294 118.79H219.481C220.863 118.79 221.987 117.665 221.987 116.281V88.5418C221.987 87.1585 220.863 86.0326 219.481 86.0326ZM221.003 116.281C221.003 117.121 220.32 117.805 219.481 117.805H212.294C211.455 117.805 210.772 117.121 210.772 116.281V88.5418C210.772 87.7017 211.455 87.0183 212.294 87.0183H219.481C220.32 87.0183 221.003 87.7017 221.003 88.5418V116.281Z" fill="black" stroke="black" stroke-width="0.2"/>
<path d="M149.387 212.703C149.387 212.975 149.607 213.196 149.879 213.196H186.924C187.195 213.196 187.416 212.975 187.416 212.703C187.416 212.431 187.195 212.21 186.924 212.21H149.879C149.607 212.21 149.387 212.431 149.387 212.703Z" fill="black" stroke="black" stroke-width="0.2"/>
<path d="M125.567 213.196H144.776C145.048 213.196 145.269 212.975 145.269 212.703C145.269 212.431 145.048 212.21 144.776 212.21H125.567C125.295 212.21 125.074 212.431 125.074 212.703C125.074 212.975 125.295 213.196 125.567 213.196Z" fill="black" stroke="black" stroke-width="0.2"/>
<path d="M159.286 223.209C159.286 223.48 159.506 223.701 159.778 223.701H214.068C214.339 223.701 214.56 223.48 214.56 223.209C214.56 222.937 214.339 222.716 214.068 222.716H159.778C159.506 222.716 159.286 222.937 159.286 223.209Z" fill="black" stroke="black" stroke-width="0.2"/>
<path d="M125.567 223.701H151.414C151.685 223.701 151.906 223.48 151.906 223.209C151.906 222.937 151.685 222.716 151.414 222.716H125.567C125.295 222.716 125.074 222.937 125.074 223.209C125.074 223.48 125.295 223.701 125.567 223.701Z" fill="black" stroke="black" stroke-width="0.2"/>
<g clip-path="url(#clip1_1100_1970)">
<path d="M246.891 160.16L246.044 159.709L274.583 121.81L274.957 121.919L313.389 133.038L342.339 106.44L363.555 132.392L405.877 86.8152L406.663 87.3324L363.505 133.815L342.228 107.785L313.685 134.01L313.375 133.92L275.008 122.821L246.891 160.16Z" fill="black"/>
<path d="M246.835 160.219L246.1 159.651L289.754 119.659L290.748 146.16L338.569 91.1593L374.166 139.303L402.306 76.4194L403.241 76.715L374.388 141.193L338.5 92.6605L289.837 148.629L288.833 121.747L246.835 160.219Z" fill="black"/>
<path d="M246.937 160.075L245.998 159.795L268.477 106.615L275.327 142.251L361.062 91.6494L374.786 130.681L417.195 99.9994L417.848 100.633L374.268 132.163L360.498 93.0106L274.597 143.713L268.117 109.991L246.937 160.075Z" fill="black"/>
<path d="M270.859 106.988C270.859 108.128 269.763 109.049 268.408 109.049C267.053 109.049 265.956 108.124 265.956 106.988C265.956 105.852 267.053 104.927 268.408 104.927C269.763 104.927 270.859 105.852 270.859 106.988Z" fill="black"/>
<path d="M268.408 108.057C269.11 108.057 269.68 107.579 269.68 106.988C269.68 106.397 269.11 105.918 268.408 105.918C267.705 105.918 267.136 106.397 267.136 106.988C267.136 107.579 267.705 108.057 268.408 108.057Z" fill="#FFFDF3"/>
<path d="M277.191 143.278C277.191 144.417 276.095 145.339 274.74 145.339C273.385 145.339 272.289 144.413 272.289 143.278C272.289 142.142 273.385 141.216 274.74 141.216C276.095 141.216 277.191 142.142 277.191 143.278Z" fill="black"/>
<path d="M274.74 144.347C275.442 144.347 276.012 143.868 276.012 143.278C276.012 142.687 275.442 142.208 274.74 142.208C274.037 142.208 273.468 142.687 273.468 143.278C273.468 143.868 274.037 144.347 274.74 144.347Z" fill="#FFFDF3"/>
<path d="M277.256 122.366C277.256 123.505 276.16 124.427 274.805 124.427C273.449 124.427 272.353 123.501 272.353 122.366C272.353 121.23 273.454 120.304 274.805 120.304C276.155 120.304 277.256 121.23 277.256 122.366Z" fill="black"/>
<path d="M274.8 123.435C275.503 123.435 276.072 122.956 276.072 122.366C276.072 121.775 275.503 121.296 274.8 121.296C274.098 121.296 273.528 121.775 273.528 122.366C273.528 122.956 274.098 123.435 274.8 123.435Z" fill="#FFFDF3"/>
<path d="M292.002 120.266C292.002 121.405 290.905 122.327 289.55 122.327C288.195 122.327 287.099 121.401 287.099 120.266C287.099 119.13 288.195 118.204 289.55 118.204C290.905 118.204 292.002 119.13 292.002 120.266Z" fill="black"/>
<path d="M289.55 121.335C290.253 121.335 290.822 120.856 290.822 120.266C290.822 119.675 290.253 119.196 289.55 119.196C288.848 119.196 288.278 119.675 288.278 120.266C288.278 120.856 288.848 121.335 289.55 121.335Z" fill="#FFFDF3"/>
<path d="M292.668 147.657C292.668 148.796 291.571 149.718 290.216 149.718C288.861 149.718 287.765 148.792 287.765 147.657C287.765 146.521 288.861 145.595 290.216 145.595C291.571 145.595 292.668 146.521 292.668 147.657Z" fill="black"/>
<path d="M290.216 148.726C290.919 148.726 291.488 148.247 291.488 147.657C291.488 147.066 290.919 146.587 290.216 146.587C289.514 146.587 288.944 147.066 288.944 147.657C288.944 148.247 289.514 148.726 290.216 148.726Z" fill="#FFFDF3"/>
<path d="M340.993 91.8903C340.993 93.0299 339.897 93.9516 338.542 93.9516C337.186 93.9516 336.09 93.026 336.09 91.8903C336.09 90.7547 337.186 89.8291 338.542 89.8291C339.897 89.8291 340.993 90.7547 340.993 91.8903Z" fill="black"/>
<path d="M339.814 91.8903C339.814 92.4815 339.245 92.9598 338.542 92.9598C337.839 92.9598 337.27 92.4815 337.27 91.8903C337.27 91.2992 337.839 90.8208 338.542 90.8208C339.245 90.8208 339.814 91.2992 339.814 91.8903Z" fill="#FFFDF3"/>
<path d="M376.821 140.232C376.821 141.372 375.725 142.294 374.369 142.294C373.014 142.294 371.918 141.368 371.918 140.232C371.918 139.097 373.014 138.171 374.369 138.171C375.725 138.171 376.821 139.097 376.821 140.232Z" fill="black"/>
<path d="M375.641 140.232C375.641 140.824 375.072 141.302 374.369 141.302C373.666 141.302 373.097 140.824 373.097 140.232C373.097 139.641 373.666 139.163 374.369 139.163C375.072 139.163 375.641 139.641 375.641 140.232Z" fill="#FFFDF3"/>
<path d="M315.915 133.364C315.915 134.504 314.818 135.425 313.463 135.425C312.108 135.425 311.012 134.5 311.012 133.364C311.012 132.229 312.113 131.303 313.463 131.303C314.814 131.303 315.915 132.229 315.915 133.364Z" fill="black"/>
<path d="M314.735 133.364C314.735 133.955 314.166 134.434 313.463 134.434C312.76 134.434 312.191 133.955 312.191 133.364C312.191 132.773 312.76 132.295 313.463 132.295C314.166 132.295 314.735 132.773 314.735 133.364Z" fill="#FFFDF3"/>
<path d="M342.371 109.084C343.725 109.084 344.823 108.162 344.823 107.023C344.823 105.885 343.725 104.962 342.371 104.962C341.018 104.962 339.92 105.885 339.92 107.023C339.92 108.162 341.018 109.084 342.371 109.084Z" fill="black"/>
<path d="M342.371 108.093C343.074 108.093 343.643 107.614 343.643 107.023C343.643 106.432 343.074 105.954 342.371 105.954C341.669 105.954 341.099 106.432 341.099 107.023C341.099 107.614 341.669 108.093 342.371 108.093Z" fill="#FFFDF3"/>
<path d="M366.113 133.049C366.113 134.189 365.017 135.111 363.662 135.111C362.307 135.111 361.21 134.185 361.21 133.049C361.21 131.914 362.307 130.988 363.662 130.988C365.017 130.988 366.113 131.914 366.113 133.049Z" fill="black"/>
<path d="M363.662 134.119C364.364 134.119 364.934 133.64 364.934 133.049C364.934 132.459 364.364 131.98 363.662 131.98C362.959 131.98 362.39 132.459 362.39 133.049C362.39 133.64 362.959 134.119 363.662 134.119Z" fill="#FFFDF3"/>
<path d="M363.361 92.0654C363.361 93.2049 362.265 94.1266 360.91 94.1266C359.555 94.1266 358.458 93.201 358.458 92.0654C358.458 90.9298 359.555 90.0042 360.91 90.0042C362.265 90.0042 363.361 90.9298 363.361 92.0654Z" fill="black"/>
<path d="M362.186 92.0654C362.186 92.6565 361.617 93.1349 360.914 93.1349C360.211 93.1349 359.642 92.6565 359.642 92.0654C359.642 91.4742 360.211 90.9958 360.914 90.9958C361.617 90.9958 362.186 91.4742 362.186 92.0654Z" fill="#FFFDF3"/>
<path d="M376.923 131.684C376.923 132.824 375.826 133.745 374.471 133.745C373.116 133.745 372.02 132.824 372.02 131.684C372.02 130.545 373.116 129.623 374.471 129.623C375.826 129.623 376.923 130.545 376.923 131.684Z" fill="black"/>
<path d="M375.743 131.684C375.743 132.275 375.174 132.754 374.471 132.754C373.768 132.754 373.199 132.275 373.199 131.684C373.199 131.093 373.768 130.615 374.471 130.615C375.174 130.615 375.743 131.093 375.743 131.684Z" fill="#FFFDF3"/>
<path d="M426.104 160.355H246.47C246.192 160.355 245.97 160.168 245.97 159.935V68.579C245.97 68.3456 246.192 68.1589 246.47 68.1589C246.747 68.1589 246.969 68.3456 246.969 68.579V159.511H426.104C426.381 159.511 426.603 159.698 426.603 159.931C426.603 160.164 426.381 160.351 426.104 160.351V160.355Z" fill="black"/>
<path d="M246.475 59C246.206 64.5031 244 70.2668 244 70.2668H248.949C248.949 70.2668 246.724 64.507 246.475 59Z" fill="black"/>
<path d="M438 159.919C431.455 159.694 424.6 157.839 424.6 157.839V162C424.6 162 431.451 160.129 438 159.919Z" fill="black"/>
</g>
<path d="M125.567 234.207H166.948C167.219 234.207 167.44 233.986 167.44 233.714C167.44 233.443 167.219 233.221 166.948 233.221H125.567C125.295 233.221 125.074 233.443 125.074 233.714C125.074 233.986 125.295 234.207 125.567 234.207Z" fill="black" stroke="black" stroke-width="0.2"/>
<path d="M192.016 191.165L194.728 193.512H208.64C208.911 193.512 209.132 193.733 209.132 194.005C209.132 194.276 208.911 194.498 208.64 194.498H194.546C194.427 194.498 194.314 194.454 194.225 194.377L194.224 194.377L191.348 191.889C191.29 191.951 191.233 192.014 191.176 192.078C191.04 192.229 190.902 192.381 190.758 192.525L190.758 192.525C186.621 196.666 181.397 199.456 175.65 200.593M192.016 191.165L198.575 176.867C198.525 176.834 198.468 176.812 198.407 176.804L198.419 176.705L198.419 176.705C198.419 176.705 198.419 176.705 198.419 176.705L171.97 173.354C171.97 173.354 171.97 173.354 171.97 173.354C171.818 173.334 171.666 173.388 171.558 173.496L171.558 173.496L171.557 173.496C171.45 173.605 171.398 173.759 171.42 173.911C171.42 173.911 171.42 173.911 171.42 173.911L175.066 200.179L175.066 200.179C175.1 200.417 175.304 200.603 175.554 200.603C175.586 200.603 175.618 200.599 175.65 200.593M192.016 191.165C195.486 187.228 197.841 182.471 198.841 177.286L198.842 177.285C198.867 177.152 198.837 177.014 198.756 176.903L198.575 176.654V176.752L192.016 191.165ZM175.65 200.593C175.65 200.593 175.649 200.593 175.649 200.593L175.63 200.495L175.65 200.593C175.65 200.593 175.65 200.593 175.65 200.593ZM197.769 177.617C196.749 182.431 194.514 186.848 191.272 190.524L184.739 184.872L184.739 184.872C184.531 184.693 184.221 184.716 184.044 184.922C183.867 185.128 183.888 185.44 184.094 185.618L190.602 191.248C190.549 191.305 190.497 191.363 190.445 191.42C190.319 191.559 190.194 191.697 190.06 191.831C186.186 195.71 181.323 198.363 175.968 199.523L172.482 174.414L197.769 177.617Z" fill="black" stroke="black" stroke-width="0.2"/>
<path d="M197.825 162.18L201.638 160.532C201.638 160.532 201.638 160.532 201.638 160.532C201.7 160.505 201.767 160.491 201.833 160.491H208.638C208.91 160.491 209.131 160.713 209.131 160.984C209.131 161.256 208.91 161.477 208.638 161.477H201.935L198.121 163.125C199.126 166.475 199.539 170.019 199.301 173.627C199.292 173.763 199.227 173.888 199.124 173.975L199.124 173.975C199.034 174.049 198.923 174.087 198.81 174.087H198.808C198.794 174.087 198.77 174.087 198.746 174.084L173.622 170.896L173.622 170.896L173.634 170.796C173.486 170.778 173.361 170.676 173.313 170.535L197.825 162.18ZM197.825 162.18C196.588 158.512 194.625 155.098 191.99 152.119L191.815 151.921V151.995C191.76 151.972 191.701 151.958 191.64 151.956C191.479 151.941 191.362 152.01 191.273 152.1L173.335 170.059L173.335 170.059L173.335 170.059C173.204 170.193 173.156 170.388 173.218 170.567L197.825 162.18ZM197.213 163.522L192.263 165.661L197.213 163.522ZM197.213 163.522C198.112 166.565 198.505 169.772 198.349 173.041L174.741 170.045L191.595 153.17C193.987 155.975 195.776 159.162 196.916 162.575L191.873 164.756C191.623 164.863 191.508 165.153 191.617 165.403C191.697 165.589 191.878 165.701 192.069 165.701C192.134 165.701 192.201 165.688 192.263 165.661L197.213 163.522Z" fill="black" stroke="black" stroke-width="0.2"/>
<path d="M169.273 169.352L150.294 150.349L150.293 150.348L150.293 150.348C150.198 150.252 150.147 150.121 150.15 149.986C150.153 149.849 150.214 149.722 150.314 149.632L150.314 149.632C157.053 143.617 165.88 141.254 174.275 142.503L180.67 136.971C180.67 136.971 180.67 136.97 180.67 136.97C180.76 136.891 180.874 136.849 180.992 136.849H195.576C195.848 136.849 196.069 137.07 196.069 137.342C196.069 137.614 195.848 137.835 195.576 137.835H181.175L175.542 142.708C180.538 143.675 185.336 145.935 189.388 149.513L189.389 149.513C189.488 149.603 189.551 149.731 189.554 149.868M169.273 169.352H169.27L169.441 169.523C169.537 169.619 169.664 169.667 169.789 169.667C169.915 169.667 170.042 169.619 170.138 169.523L189.41 150.231C189.505 150.136 189.559 150.005 189.554 149.868M169.273 169.352L169.442 169.522L169.444 169.523L169.512 169.455M169.273 169.352L169.512 169.455M189.554 149.868L189.454 149.871M189.554 149.868C189.554 149.868 189.554 149.868 189.554 149.867L189.454 149.871M189.454 149.871C189.458 149.979 189.415 150.085 189.339 150.161L170.067 169.452C169.991 169.528 169.889 169.567 169.789 169.567C169.753 169.567 169.717 169.562 169.682 169.552H169.514H169.512V169.455M189.454 149.871L169.512 169.455M188.341 149.91C184.3 146.472 179.53 144.354 174.587 143.536L171.575 146.141L171.575 146.141C171.364 146.322 171.054 146.294 170.88 146.09C170.703 145.885 170.724 145.573 170.93 145.395L188.341 149.91ZM188.341 149.91L169.791 168.478L151.36 150.026C157.591 144.663 165.58 142.46 173.273 143.368M188.341 149.91L173.273 143.368M173.273 143.368L170.93 145.395L173.273 143.368Z" fill="black" stroke="black" stroke-width="0.2"/>
<path d="M131.658 194.006C131.658 194.207 131.779 194.38 131.952 194.457L131.908 194.5H132.149H144.305C144.424 194.5 144.538 194.459 144.627 194.379C144.628 194.379 144.628 194.379 144.628 194.379L148.064 191.407C154.307 198.335 163.096 201.717 172.005 201.064L172.006 201.064C172.297 201.042 172.496 200.781 172.458 200.504L172.458 200.504L168.562 172.517L168.562 172.517C168.547 172.412 168.498 172.313 168.423 172.237L148.444 152.235L148.444 152.235L148.444 152.234C148.353 152.145 148.213 152.075 148.075 152.091C147.94 152.096 147.813 152.158 147.726 152.258C138.104 163.263 138.13 179.668 147.406 190.673L144.123 193.513H132.151C131.879 193.513 131.658 193.734 131.658 194.006ZM154.111 184.872L148.148 190.031C139.301 179.525 139.17 163.935 148.121 153.308L167.609 172.819L171.409 200.115C163.26 200.57 154.899 197.51 148.808 190.764L154.756 185.618C154.962 185.44 154.983 185.128 154.806 184.922C154.629 184.716 154.317 184.693 154.111 184.872Z" fill="black" stroke="black" stroke-width="0.2"/>
<path d="M100.948 15.9345L100.948 15.9349L100.947 15.9369C100.947 15.9372 100.954 15.9508 100.967 15.967L100.943 15.967C100.925 36.2329 100.916 34.3993 100.912 34.3994C100.906 34.3994 100.913 39.0643 100.916 145.517V261.399C100.916 267.491 105.871 272.452 111.956 272.452H438.251C444.348 272.452 449.302 267.492 449.302 261.399V113.504V113.417L449.3 113.417V113.364V113.193V113.022V112.85V112.678V112.504V112.33V112.156V111.98V111.804V111.628V111.451V111.273V111.095V110.915V110.736V110.555V110.375V110.193V110.011V109.828V109.645V109.461V109.276V109.091V108.906V108.719V108.532V108.345V108.157V107.968V107.779V107.59V107.399V107.209V107.017V106.825V106.633V106.44V106.247V106.053V105.858V105.663V105.468V105.271V105.075V104.878V104.68V104.482V104.284V104.084V103.885V103.685V103.484V103.283V103.082V102.88V102.678V102.475V102.271V102.068V101.863V101.659V101.454V101.248V101.042V100.836V100.629V100.422V100.214V100.006V99.7974V99.5885V99.3792V99.1695V98.9593V98.7488V98.5379V98.3267V98.115V97.903V97.6906V97.4778V97.2646V97.0511V96.8373V96.623V96.4085V96.1935V95.9783V95.7626V95.5467V95.3304V95.1138V94.8969V94.6796V94.4621V94.2442V94.026V93.8075V93.5886V93.3695V93.1501V92.9304V92.7104V92.4902V92.2696V92.0488V91.8277V91.6063V91.3847V91.1628V90.9406V90.7182V90.4956V90.2727V90.0495V89.8261V89.6025V89.3786V89.1546V88.9302V88.7057V88.481V88.256V88.0308V87.8055V87.5799V87.3541V87.1281V86.902V86.6756V86.4491V86.2224V85.9955V85.7684V85.5412V85.3138V85.0862V84.8585V84.6306V84.4026V84.1745V83.9462V83.7177V83.4891V83.2604V83.0316V82.8026V82.5735V82.3444V82.115V81.8856V81.6561V81.4265V81.1968V80.9669V80.737V80.5071V80.277V80.0468V79.8166V79.5863V79.3559V79.1255V78.895V78.6645V78.4339V78.2032V77.9726V77.7418V77.5111V77.2803V77.0494V76.8186V76.5877V76.3568V76.1259V75.8949V75.664V75.4331V75.2021V74.9712V74.7403V74.5094V74.2785V74.0476V73.8167V73.5859V73.3551V73.1243V72.8936V72.6629V72.4322V72.2016V71.9711V71.7406V71.5102V71.2798V71.0495V70.8193V70.5891V70.359V70.1291V69.8991V69.6693V69.4396V69.21V68.9805V68.751V68.5217V68.2925V68.0634V67.8345V67.6056V67.3769V67.1483V66.9199V66.6916V66.4634V66.2354V66.0075V65.7798V65.5522V65.3248V65.0976V64.8705V64.6436V64.4169V64.1904V63.964V63.7378V63.5119V63.2861V63.0605V62.8351V62.6099V62.385V62.1602V61.9357V61.7113V61.4872V61.2634V61.0397V60.8163V60.5932V60.3703V60.1476V59.9252V59.703V59.4811V59.2595V59.0381V58.817V58.5961V58.3756V58.1553V57.9353V57.7156V57.4962V57.2771V57.0582V56.8397V56.6215V56.4036V56.186V55.9687V55.7518V55.5352V55.3189V55.1029V54.8873V54.672V54.4571V54.2425V54.0283V53.8144V53.6008V53.3877V53.1749V52.9625V52.7504V52.5387V52.3274V52.1165V51.906V51.6959V51.4862V51.2768V51.0679V50.8594V50.6513V50.4436V50.2363V50.0295V49.8231V49.6171V49.4115V49.2064V49.0017V48.7975V48.5937V48.3904V48.1875V47.9851V47.7832V47.5817V47.3807V47.1801V46.9801V46.7805V46.5814V46.3828V46.1847V45.9871V45.79V45.5934V45.3973V45.2017V45.0067V44.8121V44.6181V44.4246V44.2316V44.0392V43.8473V43.656V43.4652V43.2749V43.0852V42.8961V42.7075V42.5195V42.3321V42.1452V41.9589V41.7732V41.5881V41.4035V41.2196V41.0362V40.8535V40.6713V40.4897V40.3088V40.1285V39.9488V39.7697V39.5912V39.4134V39.2362V39.0596V38.8837V38.7084V38.5338V38.3598V38.1864V38.0138V37.8418V37.6704V37.4997V37.3297V37.1604V36.9918V36.8238V36.6565V36.49V36.3241V36.1589V35.9944V35.8306V35.6676V35.5052V35.3436V35.1827V35.0225V34.8631V34.7043V34.5464V34.3891V34.2326V34.0769V33.9219V33.7676V33.6142V33.4614V33.3095V33.1583V33.0079V32.8583V32.7094V32.5614V32.4141V32.2676V32.1219V31.9771V31.833V31.6897V31.5473V31.4056V31.2648V31.1248V30.9856V30.8473V30.7098V30.5731V30.4373V30.3023V30.1682V30.0349V29.9025V29.7709V29.6402V29.5104V29.3814V29.2533V29.1261V28.9998V28.8744V28.7498V28.6262V28.5034V28.3816V28.2606V28.1406V28.0215V27.9033V27.786V27.6696V27.5542V27.4397V27.3261V27.2135V27.1018V26.9911V26.8813V26.7725V26.6646V26.5577V26.4517V26.3467V26.2427V26.1397V26.0376V25.9366V25.8365V25.7374V25.6393V25.5422V25.4461V25.351V25.257V25.1639V25.0719V24.9808V24.8908V24.8019V24.7139V24.627V24.5412V24.4564V24.3726V24.2899V24.2082V24.1276V24.0481V23.9696V23.8922V23.8159V23.7406V23.6664V23.5934V23.5214V23.4504V23.3806V23.3119V23.2443C449.3 19.0415 445.886 15.6225 441.688 15.6225H301.287L297.336 6.54796C295.579 2.50942 291.6 -0.0985352 287.201 -0.0985352H211.462C207.064 -0.0985352 203.085 2.51077 201.328 6.54796L197.376 15.6225H189.729L185.778 6.54796C184.02 2.50942 180.042 -0.0985352 175.643 -0.0985352H114.285C109.886 -0.0985352 105.908 2.51093 104.138 6.57872L104.138 6.57859L104.135 6.58636L102.512 11.3468L101.424 14.5391L101.072 15.5711L100.977 15.8502L100.953 15.9186L100.948 15.9336L100.948 15.9345ZM100.948 15.9345L101.048 15.9513C101.05 15.9443 101.053 15.9352 101.057 15.9241C101.029 15.913 100.993 15.911 100.95 15.9304L100.948 15.9345ZM448.316 119.182V119.308V261.397C448.316 266.953 443.798 271.465 438.249 271.465H111.955C106.406 271.465 101.899 266.953 101.899 261.397V39.9019H448.316V113.126V113.367V119.182ZM202.293 6.80056H202.291C203.923 3.20197 207.505 0.885848 211.462 0.885848H287.201C291.21 0.885848 294.833 3.26212 296.435 6.94048L300.215 15.6225H198.451L202.232 6.94048L202.293 6.80056ZM105.057 6.93282L105.065 6.90914C106.674 3.24863 110.288 0.885848 114.285 0.885848H175.643C179.651 0.885848 183.275 3.26212 184.877 6.94048L188.657 15.6225H102.095L105.057 6.93282ZM101.897 16.6109C129.384 16.6109 183.293 16.6104 242.378 16.6098L260.834 16.6096C327.026 16.6089 396.855 16.6082 441.688 16.6082C445.342 16.6082 448.316 19.586 448.316 23.2443V38.9122H101.897V16.6109Z" fill="black" stroke="black" stroke-width="0.2"/>
<path d="M405.365 370.478C407.835 370.478 409.844 368.467 409.844 365.994C409.844 363.522 407.835 361.51 405.365 361.51C402.895 361.51 400.886 363.522 400.886 365.994C400.886 368.467 402.895 370.478 405.365 370.478ZM405.365 362.496C407.292 362.496 408.859 364.065 408.859 365.994C408.859 367.923 407.292 369.493 405.365 369.493C403.438 369.493 401.871 367.923 401.871 365.994C401.871 364.065 403.438 362.496 405.365 362.496Z" fill="black" stroke="black" stroke-width="0.2"/>
<path d="M390.231 370.478C392.701 370.478 394.71 368.467 394.71 365.994C394.71 363.522 392.701 361.51 390.231 361.51C387.762 361.51 385.752 363.522 385.752 365.994C385.752 368.467 387.762 370.478 390.231 370.478ZM390.231 362.496C392.158 362.496 393.726 364.065 393.726 365.994C393.726 367.923 392.158 369.493 390.231 369.493C388.305 369.493 386.737 367.923 386.737 365.994C386.737 364.065 388.305 362.496 390.231 362.496Z" fill="black" stroke="black" stroke-width="0.2"/>
<path d="M335.338 370.479H364.358C365.087 370.479 365.68 369.885 365.68 369.155V362.831C365.68 362.101 365.087 361.507 364.358 361.507H335.338C334.609 361.507 334.016 362.101 334.016 362.831V369.155C334.016 369.885 334.609 370.479 335.338 370.479ZM335.001 362.833C335.001 362.646 335.152 362.494 335.338 362.494H364.358C364.544 362.494 364.695 362.646 364.695 362.833V369.156C364.695 369.343 364.544 369.494 364.358 369.494H335.338C335.152 369.494 335.001 369.343 335.001 369.156V362.833Z" fill="black" stroke="black" stroke-width="0.2"/>
<path d="M409.844 335.632C409.844 333.159 407.835 331.148 405.365 331.148C402.895 331.148 400.886 333.159 400.886 335.632C400.886 338.104 402.895 340.116 405.365 340.116C407.835 340.116 409.844 338.104 409.844 335.632ZM401.871 335.632C401.871 333.703 403.438 332.133 405.365 332.133C407.292 332.133 408.859 333.703 408.859 335.632C408.859 337.561 407.292 339.13 405.365 339.13C403.438 339.13 401.871 337.561 401.871 335.632Z" fill="black" stroke="black" stroke-width="0.2"/>
<path d="M390.231 331.148C387.762 331.148 385.752 333.159 385.752 335.632C385.752 338.104 387.762 340.116 390.231 340.116C392.701 340.116 394.71 338.104 394.71 335.632C394.71 333.159 392.701 331.148 390.231 331.148ZM390.231 339.13C388.305 339.13 386.737 337.561 386.737 335.632C386.737 333.703 388.305 332.133 390.231 332.133C392.158 332.133 393.726 333.703 393.726 335.632C393.726 337.561 392.158 339.13 390.231 339.13Z" fill="black" stroke="black" stroke-width="0.2"/>
<path d="M364.358 331.146H335.338C334.609 331.146 334.016 331.74 334.016 332.47V338.793C334.016 339.523 334.609 340.117 335.338 340.117H364.358C365.087 340.117 365.68 339.523 365.68 338.793V332.47C365.68 331.74 365.087 331.146 364.358 331.146ZM364.695 338.792C364.695 338.979 364.544 339.13 364.358 339.13H335.338C335.152 339.13 335.001 338.979 335.001 338.792V332.469C335.001 332.282 335.152 332.13 335.338 332.13H364.358C364.544 332.13 364.695 332.282 364.695 332.469V338.792Z" fill="black" stroke="black" stroke-width="0.2"/>
<path d="M405.365 309.754C407.835 309.754 409.844 307.742 409.844 305.269C409.844 302.797 407.835 300.785 405.365 300.785C402.895 300.785 400.886 302.797 400.886 305.269C400.886 307.742 402.895 309.754 405.365 309.754ZM405.365 301.771C407.292 301.771 408.859 303.34 408.859 305.269C408.859 307.199 407.292 308.768 405.365 308.768C403.438 308.768 401.871 307.199 401.871 305.269C401.871 303.34 403.438 301.771 405.365 301.771Z" fill="black" stroke="black" stroke-width="0.2"/>
<path d="M394.71 305.269C394.71 302.797 392.701 300.785 390.231 300.785C387.762 300.785 385.752 302.797 385.752 305.269C385.752 307.742 387.762 309.754 390.231 309.754C392.701 309.754 394.71 307.742 394.71 305.269ZM390.231 308.768C388.305 308.768 386.737 307.199 386.737 305.269C386.737 303.34 388.305 301.771 390.231 301.771C392.158 301.771 393.726 303.34 393.726 305.269C393.726 307.199 392.158 308.768 390.231 308.768Z" fill="black" stroke="black" stroke-width="0.2"/>
<path d="M364.358 300.784H335.338C334.609 300.784 334.016 301.378 334.016 302.108V308.431C334.016 309.161 334.609 309.754 335.338 309.754H364.358C365.087 309.754 365.68 309.161 365.68 308.431V302.108C365.68 301.378 365.087 300.784 364.358 300.784ZM364.695 308.431C364.695 308.616 364.544 308.768 364.358 308.768H335.338C335.152 308.768 335.001 308.616 335.001 308.431V302.108C335.001 301.921 335.152 301.77 335.338 301.77H364.358C364.544 301.77 364.695 301.921 364.695 302.108V308.431Z" fill="black" stroke="black" stroke-width="0.2"/>
<path d="M469.913 380.896H453.694C454.22 380.396 454.554 379.696 454.554 378.913V353.073C454.554 352.132 454.076 351.308 453.356 350.812C454.076 350.315 454.554 349.491 454.554 348.551V322.71C454.554 321.769 454.076 320.944 453.356 320.449C454.076 319.953 454.554 319.128 454.554 318.188V292.348C454.554 290.829 453.32 289.594 451.803 289.594H329.14C327.623 289.594 326.39 290.829 326.39 292.348V318.188C326.39 319.129 326.867 319.953 327.588 320.449C326.869 320.945 326.39 321.77 326.39 322.71V348.551C326.39 349.491 326.867 350.316 327.588 350.812C326.869 351.308 326.39 352.132 326.39 353.073V378.913C326.39 379.696 326.723 380.396 327.249 380.896H310.549C310.277 380.896 310.056 381.118 310.056 381.389C310.056 381.661 310.277 381.882 310.549 381.882H469.913C470.184 381.882 470.405 381.661 470.405 381.389C470.405 381.118 470.184 380.896 469.913 380.896ZM453.569 353.074V378.914C453.569 379.89 452.777 380.683 451.803 380.683H419.591C419.993 380.204 420.236 379.587 420.236 378.914V353.074C420.236 352.401 419.993 351.784 419.591 351.306H451.803C452.777 351.306 453.569 352.099 453.569 353.074ZM453.569 322.711V348.552C453.569 349.527 452.777 350.32 451.803 350.32H419.591C419.993 349.842 420.236 349.225 420.236 348.552V322.711C420.236 322.039 419.993 321.422 419.591 320.943H451.803C452.777 320.943 453.569 321.736 453.569 322.711ZM453.569 292.349V318.19C453.569 319.165 452.777 319.958 451.803 319.958H419.591C419.993 319.479 420.236 318.862 420.236 318.19V292.349C420.236 291.676 419.993 291.059 419.591 290.581H451.803C452.777 290.581 453.569 291.374 453.569 292.349ZM327.374 318.19V292.349C327.374 291.374 328.167 290.581 329.14 290.581H417.485C418.459 290.581 419.251 291.374 419.251 292.349V318.19C419.251 319.165 418.459 319.958 417.485 319.958H329.14C328.167 319.958 327.374 319.165 327.374 318.19ZM327.374 348.552V322.711C327.374 321.736 328.167 320.943 329.14 320.943H417.485C418.459 320.943 419.251 321.736 419.251 322.711V348.552C419.251 349.527 418.459 350.32 417.485 350.32H329.14C328.167 350.32 327.374 349.527 327.374 348.552ZM327.374 353.074C327.374 352.099 328.167 351.306 329.14 351.306H417.485C418.459 351.306 419.251 352.099 419.251 353.074V378.914C419.251 379.89 418.459 380.683 417.485 380.683H329.14C328.167 380.683 327.374 379.89 327.374 378.914V353.074Z" fill="black" stroke="black" stroke-width="0.2"/>
<path d="M237.315 320.483C225.323 315.425 213.966 321.015 208.482 328.363C205.065 332.939 205.832 336.963 208.642 339.391C208.178 340.903 207.868 342.544 207.77 344.32H202.991C203.181 337.572 205.266 330.135 207.445 323.866C207.786 323.917 208.122 323.952 208.45 323.952C215.919 323.952 220.385 311.21 220.584 310.63C220.61 310.546 223.305 302.128 219.9 290.342C218.787 286.491 217.188 283.521 215.146 281.517C212.071 278.502 207.051 278.373 203.955 281.232C201.898 283.13 201.288 285.708 202.144 288.895C204.367 297.181 205.522 297.646 204.225 303.261C202.877 309.094 200.947 321.955 206.676 323.691C204.486 330.002 202.396 337.491 202.207 344.323H200.281C200.338 328.117 200.301 326.458 199.751 323.671C200.267 323.408 200.612 323.127 200.764 322.979C202.535 321.318 203.667 313.934 200.843 308.962C198.388 304.663 193.019 303.17 184.433 304.405C177.718 305.382 174.087 308.781 173.011 311.43C173.011 311.44 173 311.452 173 311.463C172.822 311.833 169.784 318.522 173.953 321.776C177.654 324.692 182.025 323.398 184.232 320.25C184.848 319.398 185.712 318.319 186.574 317.288C190.733 322.72 194.275 324.077 196.516 324.256C196.717 324.279 196.908 324.279 197.099 324.279C197.849 324.279 198.48 324.152 199.006 323.978C199.496 326.549 199.555 328.081 199.497 344.32H182.593C181.78 344.32 181.119 344.982 181.119 345.795V352.203C181.119 353.017 181.78 353.678 182.593 353.678H183.93L188.393 373.789C188.393 373.789 188.393 373.789 188.393 373.79L189.947 380.787C190.34 382.56 191.882 383.8 193.697 383.8H215.031C216.846 383.8 218.388 382.561 218.783 380.787L224.798 353.678H226.136C226.948 353.678 227.609 353.017 227.609 352.203V345.795C227.609 344.982 226.948 344.32 226.136 344.32H208.562C208.656 342.727 208.924 341.245 209.327 339.873C218.457 344.841 224.35 339.287 228.333 329.675C228.455 329.377 228.587 329.112 228.716 328.834C230.372 328.455 234.264 329.683 235.589 330.503C236.889 331.309 238.743 331.771 240.276 331.333C241.535 330.974 242.528 330.076 243.226 328.665C244.876 325.333 240.637 322.184 237.316 320.484L237.315 320.483ZM204.989 303.435C206.341 297.587 205.115 296.935 202.902 288.688C202.129 285.807 202.662 283.491 204.488 281.806C207.277 279.231 211.812 279.343 214.598 282.076C220.514 287.882 222.17 303.277 219.841 310.378C219.793 310.517 215.062 324.018 207.709 323.11C208.732 320.222 209.757 317.606 210.6 315.458C216.598 300.188 210.648 287.595 210.588 287.469L209.882 287.813C209.941 287.934 215.744 300.217 209.87 315.171C209.013 317.352 207.971 320.011 206.933 322.948C201.81 321.457 203.79 308.621 204.989 303.433V303.435ZM189.493 308.736C189.034 308.49 188.667 309.183 189.123 309.428C189.211 309.475 196.668 313.616 198.841 323.203C198.263 323.406 197.519 323.547 196.584 323.468C192.5 323.139 189.099 319.283 186.586 316.05C182.428 310.955 177.65 309.829 174.144 310.911C176.491 307.382 180.512 305.765 184.547 305.176C192.785 303.987 197.885 305.355 200.161 309.35C202.773 313.94 201.809 320.921 200.227 322.402C200.118 322.507 199.895 322.692 199.569 322.879C197.271 313.04 189.586 308.784 189.495 308.734L189.493 308.736ZM219.637 373.309H189.091L184.733 353.675H223.994L219.637 373.309ZM226.136 345.105C226.515 345.105 226.823 345.413 226.823 345.793V352.2C226.823 352.58 226.515 352.888 226.136 352.888H182.593C182.214 352.888 181.905 352.58 181.905 352.2V345.793C181.905 345.413 182.214 345.105 182.593 345.105H226.136ZM228.055 328.361C227.903 328.686 227.752 329.02 227.606 329.371C223.76 338.654 218.265 343.958 209.558 339.114C212.656 329.937 221.609 325.881 221.733 325.826C221.932 325.74 222.022 325.508 221.936 325.309C221.849 325.112 221.618 325.019 221.419 325.106C221.291 325.162 212.21 329.274 208.912 338.57C206.6 336.332 206.04 332.946 209.111 328.832C214.883 321.097 225.527 317.01 235.792 320.726C232.284 321.741 229.346 325.066 228.055 328.361Z" fill="black"/>
<path d="M215.963 128.127H124.543C118.545 128.127 113.682 132.996 113.682 139.002V247.121C113.682 253.127 118.545 257.995 124.543 257.995H215.963C221.962 257.995 226.824 253.127 226.824 247.121V139.002C226.824 132.996 221.962 128.127 215.963 128.127Z" stroke="black" stroke-miterlimit="10"/>
<path d="M60.692 355.8C58.9849 359.22 55.3776 366.82 53.4808 374.611C52.7221 377.652 53.4808 379.551 54.2395 382.021C55.1879 385.631 56.3277 387.342 55.9466 388.481C54.8086 390.572 42.8521 390.19 38.8671 383.542C37.5394 381.451 37.3497 378.413 39.4362 367.392C41.5243 355.992 40.7639 354.281 42.4727 352.952C47.7871 348.582 59.1728 355.043 60.6903 355.992V355.802L60.692 355.8Z" fill="white"/>
<path d="M38.2982 383.922C36.9704 381.641 36.5911 378.411 38.6775 367.201C39.6259 362.642 40.0052 359.602 40.1949 357.511C40.5743 354.471 40.7639 353.332 41.902 352.19C47.4061 347.631 58.7918 353.9 61.0696 355.041C61.449 355.231 61.6387 355.61 61.449 355.99C59.1712 360.74 56.1346 367.769 54.4275 374.609C53.8585 377.08 54.4275 378.599 54.8069 380.5C54.8069 380.88 54.9966 381.26 55.1862 381.639C55.5656 382.969 55.9449 384.11 56.3243 384.869C56.8933 386.579 57.2727 387.53 56.8933 388.479C56.3243 389.619 54.4258 389.999 52.9084 389.999H52.1497C47.9751 389.999 41.333 388.289 38.2964 383.538V383.918L38.2982 383.922ZM43.0435 353.332C42.2848 353.901 42.2848 354.661 41.9055 357.511C41.7158 359.602 41.3364 362.64 40.388 367.201C38.2999 377.841 38.4896 380.881 39.6293 382.782C42.2865 387.152 49.1183 388.673 52.7239 388.483C54.431 388.483 55.3811 387.913 55.3811 387.723C55.3811 387.343 55.3811 386.394 54.8121 385.253C54.4327 384.303 54.0534 383.162 53.674 381.833C53.674 381.453 53.4843 381.073 53.2946 380.883C52.7256 378.793 52.1566 376.893 52.7256 374.043C54.4327 367.203 57.2796 360.363 59.5574 355.804C56.7105 354.285 47.2216 349.534 42.8573 353.143L43.047 353.333L43.0435 353.332Z" fill="black"/>
<path d="M53.6705 388.101C54.0499 388.101 54.4292 387.721 54.4292 387.342C54.4292 386.962 54.2396 386.582 53.6705 386.392C49.1166 386.012 45.8904 384.301 44.1815 381.643C40.7656 376.322 43.4228 368.533 43.4228 368.533C43.4228 368.153 43.4228 367.583 42.8538 367.583C42.4745 367.583 41.9054 367.583 41.9054 368.153C41.9054 368.533 39.0586 376.893 42.8538 382.782C44.942 386.012 48.5475 387.911 53.4809 388.293L53.6705 388.103V388.101Z" fill="black"/>
<path d="M115.536 366.822C115.536 366.822 116.105 371.761 114.208 382.972C113.829 384.492 115.536 385.823 117.245 386.012C123.887 386.582 139.449 387.722 152.352 387.152C153.49 387.152 154.44 386.202 154.63 385.443C157.098 378.413 137.93 376.132 137.171 371.383C135.843 362.832 115.538 366.824 115.538 366.824L115.536 366.822Z" fill="white"/>
<path d="M117.054 386.77C115.726 386.77 114.586 386.011 113.827 385.061C113.258 384.302 113.069 383.542 113.258 382.781C115.346 371.951 114.586 367.01 114.586 367.01C114.586 366.63 114.776 366.25 115.155 366.061C115.724 366.061 129.388 363.4 135.271 367.39C136.599 368.339 137.549 369.67 137.739 371.38C137.928 372.899 141.723 374.61 145.139 376.129C150.643 378.409 156.904 381.068 155.197 385.819C154.818 386.959 153.68 388.1 152.161 388.1H145.898C132.424 388.1 118.571 386.96 116.862 386.77H117.052H117.054ZM116.295 367.581C116.295 369.291 116.295 374.232 114.777 383.162C114.777 383.542 114.777 383.922 115.157 384.302C115.536 384.871 116.484 385.251 117.245 385.441C119.333 385.441 137.171 387.15 152.352 386.581C153.301 386.581 153.87 385.821 154.059 385.441C155.197 382.021 149.885 379.93 144.95 377.652C140.585 375.751 136.98 374.232 136.601 371.761C136.411 370.622 135.842 369.67 134.702 368.911C132.424 367.392 128.819 367.01 125.403 367.01C121.987 367.01 118.002 367.58 116.483 367.77L116.293 367.58L116.295 367.581Z" fill="black"/>
<path d="M143.622 385.251C146.09 385.251 148.366 385.251 150.833 385.061C151.213 385.061 151.592 384.682 151.592 384.302C151.592 383.922 151.213 383.542 150.833 383.542C136.98 384.492 119.9 382.023 118.192 381.072C117.812 380.882 117.243 381.072 117.054 381.261C116.864 381.641 117.054 382.211 117.243 382.401C119.142 383.54 131.666 385.441 143.622 385.441V385.251Z" fill="black"/>
<path d="M147.038 192.21C147.038 192.21 145.331 309.439 151.023 362.26C151.971 370.811 144.95 378.221 136.221 377.841C133.564 377.841 130.338 377.082 126.732 375.94C118.573 373.28 112.12 372.71 107.565 372.9C103.2 373.09 99.405 369.48 99.405 365.111C99.405 342.31 99.974 284.931 104.149 260.8C104.149 260.8 86.6898 311.53 72.2675 356.37C70.5604 361.691 65.4357 365.111 59.9317 364.921C53.6689 364.541 44.9403 363.02 35.2617 357.511C28.8092 353.901 25.7727 346.112 27.8608 338.892C35.641 312.291 59.3626 243.322 110.411 185.751L146.848 192.212H147.038V192.21Z" fill="white"/>
<path d="M136.221 378.601C133.185 378.601 129.958 377.841 126.542 376.51C119.711 374.23 113.448 373.28 107.754 373.66C105.476 373.66 103.2 372.9 101.491 371.379C99.7843 369.67 98.8342 367.39 98.8342 365.109C98.8342 344.019 99.4032 295.76 102.44 268.779C96.9357 284.74 84.2222 322.55 73.2141 356.56C71.507 362.261 66.003 365.871 60.1196 365.681C54.2361 365.301 45.1282 363.78 35.0702 358.271C28.2384 354.471 25.0122 346.3 27.29 338.7C35.0702 311.72 58.9815 242.94 110.03 185.18C110.03 184.99 110.41 184.8 110.789 184.99L147.226 191.45C147.605 191.45 147.795 191.83 147.795 192.21C147.795 193.35 146.277 310.009 151.78 362.261C152.159 366.63 150.831 370.811 147.795 374.04C144.948 377.08 141.153 378.599 136.978 378.599C132.803 378.599 136.409 378.599 136.219 378.599L136.221 378.601ZM110.982 186.511C60.3127 243.892 36.5911 312.292 28.8109 339.08C26.7227 345.92 29.7593 353.33 35.8324 356.75C45.511 362.261 54.4293 363.78 60.123 363.97C65.2477 364.16 69.9913 360.93 71.6984 355.99C85.931 311.72 103.39 260.8 103.58 260.42C103.58 260.04 104.149 259.85 104.528 259.85C104.907 259.85 105.097 260.42 105.097 260.8C100.922 284.74 100.353 341.741 100.353 364.921C100.353 366.822 101.112 368.721 102.631 370.05C103.959 371.379 105.857 372.141 107.756 371.951C113.639 371.571 120.092 372.711 127.113 374.991C130.529 376.131 133.566 376.7 136.413 376.892C140.208 377.082 144.003 375.563 146.66 372.712C149.317 369.862 150.645 366.062 150.266 362.072C144.951 311.912 146.281 202.092 146.281 192.592L110.984 186.321V186.511H110.982Z" fill="black"/>
<path d="M101.114 273.15C101.493 273.15 101.683 272.961 101.873 272.581C103.961 265.551 109.273 251.681 113.638 240.851C115.915 234.961 121.038 230.781 127.112 229.262C127.491 229.262 127.87 228.692 127.681 228.312C127.681 227.933 127.112 227.553 126.732 227.743C120.09 229.262 114.777 234.013 112.31 240.283C107.946 251.113 102.631 265.173 100.545 272.203C100.545 272.582 100.545 273.152 101.114 273.152V273.15Z" fill="black"/>
<path d="M226.933 116.4C227.502 115.641 227.312 114.499 226.364 113.93C225.795 113.55 224.846 113.93 224.465 114.31L216.116 122.479H215.168C213.461 121.909 211.752 123.239 211.562 124.949C211.562 124.949 211.562 130.079 210.045 132.169C202.075 142.619 183.476 161.048 180.63 161.048C177.783 161.048 172.47 158.198 172.47 158.198L149.507 162.758C149.507 162.758 161.272 181.568 181.388 177.007C198.278 173.207 213.84 145.468 218.204 136.727C218.773 135.777 219.532 134.826 220.672 134.256C221.051 134.067 221.431 133.687 221.81 133.497L225.226 130.267C226.554 129.127 226.933 127.227 226.364 125.517L225.605 123.427C224.846 121.336 225.036 119.057 226.364 117.346L226.933 116.397V116.4Z" fill="white"/>
<path d="M148.747 163.141V162.381C148.747 162.191 149.126 162.001 149.316 162.001L172.279 157.442H172.848C172.848 157.442 177.781 160.102 180.628 160.102C183.095 160.102 200.934 142.623 209.283 131.603C210.421 130.084 210.61 126.282 210.61 124.953C210.61 123.813 211.369 122.862 212.128 122.292C213.076 121.723 214.026 121.343 215.164 121.533H215.733L223.893 113.743C224.652 112.984 225.791 112.794 226.74 113.363C227.309 113.743 227.878 114.313 228.068 115.074C228.068 115.834 228.068 116.594 227.688 117.165L227.119 118.115C225.981 119.634 225.791 121.724 226.55 123.435L227.309 125.526C228.068 127.427 227.499 129.706 225.981 131.037L222.565 134.267C222.186 134.647 221.617 135.026 221.237 135.216C220.289 135.596 219.53 136.356 219.149 137.307C214.785 145.858 199.223 174.167 181.764 177.967C179.486 178.537 177.4 178.727 175.501 178.727C158.801 178.727 149.123 163.528 148.933 163.336L148.743 163.146L148.747 163.141ZM226.364 115.261C226.364 115.071 226.174 114.881 225.985 114.691C225.605 114.691 225.226 114.691 224.847 114.881L216.497 123.05C216.497 123.05 216.118 123.24 215.739 123.24H214.79C214.221 122.86 213.463 123.24 213.083 123.43C212.514 123.81 212.324 124.38 212.135 124.949C212.135 125.709 212.135 130.46 210.428 132.549C202.837 142.429 183.859 161.62 180.443 161.62C177.027 161.62 173.232 159.339 172.094 158.77L150.65 162.949C153.308 166.749 164.314 179.669 181.014 175.87C197.714 172.07 212.895 144.52 217.261 135.969C217.83 134.83 218.779 133.878 220.108 133.309C220.487 133.119 220.867 132.929 221.246 132.549L224.662 129.319C225.8 128.369 225.99 126.848 225.61 125.519L224.852 123.428C223.903 121.148 224.283 118.489 225.61 116.588L226.179 115.639C226.179 115.449 226.369 115.259 226.179 114.879L226.369 115.259L226.364 115.261Z" fill="black"/>
<path d="M157.475 137.68C153.49 132.169 147.038 128.939 140.206 129.129L101.114 129.699C97.6979 129.699 94.851 132.549 94.851 135.969V159.339C94.6613 159.339 90.6764 196.01 90.6764 196.01C108.325 182.9 126.734 194.109 136.982 197.529C147.229 200.949 150.455 196.39 150.455 196.39L149.507 165.61C149.507 165.61 152.923 173.399 162.222 179.29C163.36 180.049 165.069 179.48 165.638 178.15C168.485 172.07 173.608 167.89 174.179 158.96C174.179 157.059 173.42 155.16 171.901 153.83C166.397 149.271 161.274 143.001 157.479 137.87V137.68H157.475Z" fill="black"/>
<path d="M55.3208 204.93L95.858 164.907C96.6685 164.106 98.01 164.116 98.8101 164.928L129.324 195.908C130.124 196.719 130.114 198.062 129.303 198.863L88.7659 238.887C87.9554 239.688 86.6139 239.677 85.8138 238.866L55.3001 207.886C54.5 207.074 54.5103 205.731 55.3208 204.93Z" fill="white"/>
<path d="M84.9826 238.761L54.4292 207.791C53.2912 206.651 53.2912 204.94 54.4292 203.801L94.851 163.711C95.42 163.141 95.989 162.951 96.7494 162.951C97.5099 162.951 98.2668 163.331 98.6479 163.711L129.201 194.68C130.339 195.82 130.339 197.531 129.201 198.67L88.7796 238.761C88.2106 239.33 87.4519 239.52 86.8811 239.52C86.3104 239.52 85.3637 239.33 84.9826 238.761ZM97.6978 164.85C97.5081 164.66 97.1288 164.47 96.7494 164.47C96.3701 164.47 96.1804 164.47 95.8011 164.85L55.3793 204.94C54.8103 205.32 54.8103 206.27 55.3793 206.651L85.9327 237.621C86.3121 238.191 87.2605 238.191 87.6398 237.621L128.062 197.531C128.631 197.151 128.631 196.201 128.062 195.82L97.5081 164.85H97.6978Z" fill="black"/>
<path d="M122.178 184.99L108.325 171.12C107.376 170.171 105.857 170.171 104.909 171.12L101.683 174.35L118.952 191.83L122.178 188.6C123.126 187.651 123.126 186.13 122.178 185.18V184.99Z" fill="white"/>
<path d="M118.952 192.4C118.762 192.4 118.573 192.4 118.383 192.21L101.114 174.73C100.734 174.35 100.734 173.971 101.114 173.591L104.34 170.361C104.909 169.791 105.668 169.411 106.618 169.411C107.566 169.411 108.325 169.791 108.896 170.361L122.749 184.231C124.077 185.56 124.077 187.651 122.749 188.79L119.523 192.02C119.523 192.02 119.143 192.21 118.954 192.21V192.4H118.952ZM105.478 171.69L102.821 174.35L118.952 190.691L121.609 188.03C122.178 187.461 122.178 186.32 121.609 185.75L107.756 171.88C107.377 171.5 106.997 171.31 106.618 171.31C106.238 171.31 105.859 171.31 105.48 171.88V171.69H105.478Z" fill="black"/>
<path d="M121.04 172.261C118.952 170.171 115.726 170.171 113.639 172.261L109.844 176.061L117.245 183.471L121.04 179.671C123.128 177.58 123.128 174.35 121.04 172.261ZM117.814 175.491C117.434 175.112 117.434 174.352 117.814 173.972C118.193 173.592 118.952 173.592 119.331 173.972C119.711 174.352 119.711 175.112 119.331 175.491C118.952 175.871 118.193 175.871 117.814 175.491Z" fill="white"/>
<path d="M117.245 184.23C117.055 184.23 116.865 184.23 116.676 184.041L109.275 176.631C108.896 176.251 108.896 175.871 109.275 175.491L113.07 171.692C114.208 170.552 115.727 169.981 117.434 169.981C119.142 169.981 120.661 170.55 121.609 171.692C123.887 174.162 123.887 177.962 121.609 180.242L117.814 184.042C117.814 184.042 117.434 184.232 117.245 184.232V184.23ZM114.208 172.831L110.982 176.061L117.245 182.521L120.471 179.291C122.178 177.58 122.178 174.732 120.471 173.021C119.712 172.261 118.573 171.692 117.245 171.692C116.107 171.692 114.967 172.071 114.019 173.021L114.208 172.831ZM117.245 176.061C116.486 175.301 116.486 174.16 117.245 173.401C117.624 173.021 118.003 172.831 118.573 172.831C119.142 172.831 119.521 173.021 119.9 173.401C120.659 174.16 120.659 175.301 119.9 176.061C119.521 176.441 119.142 176.631 118.573 176.631C118.003 176.631 117.624 176.631 117.245 176.061Z" fill="black"/>
<path d="M113.638 198.48L95.0407 179.479C94.6613 179.1 94.6613 178.34 95.0407 177.768C95.42 177.389 96.3684 177.389 96.7478 177.768L115.345 196.769C115.724 197.149 115.724 197.909 115.345 198.48C114.965 198.86 114.017 198.86 113.638 198.48Z" fill="black"/>
<path d="M110.032 201.9L91.4351 182.9C91.0557 182.52 91.0557 181.76 91.4351 181.189C91.8144 180.809 92.7628 180.809 93.1422 181.189L111.739 200.189C112.118 200.569 112.118 201.329 111.739 201.9C111.36 202.28 110.411 202.28 110.032 201.9Z" fill="black"/>
<path d="M106.616 205.51L88.0193 186.509C87.6399 186.129 87.6399 185.37 88.0193 184.798C88.3986 184.418 89.347 184.418 89.7263 184.798L108.323 203.799C108.703 204.179 108.703 204.938 108.323 205.51C107.944 205.89 106.996 205.89 106.616 205.51Z" fill="black"/>
<path d="M105.668 220.142L96.5581 215.202C96.5581 215.202 104.907 216.342 103.959 213.491C103.39 211.972 102.821 212.162 100.922 212.162C99.5946 212.162 97.1271 212.162 95.0389 211.782C91.623 211.592 88.5865 209.882 86.4983 207.223C80.6149 199.433 77.768 188.412 78.9078 184.043C79.6665 180.812 82.8927 176.253 85.3603 172.643C79.2872 167.894 76.4403 167.894 70.3689 163.712C64.2959 173.783 63.7268 183.853 64.1062 187.083C66.384 201.332 80.8063 213.303 85.3603 216.723C86.3086 217.293 87.0673 218.053 87.8278 218.814C90.8643 221.854 96.9374 226.793 101.112 225.844C106.995 224.325 105.666 220.143 105.666 220.143L105.668 220.142Z" fill="white"/>
<path d="M87.2605 219.57C86.5018 218.811 85.7431 218.241 84.793 217.48C80.4287 214.06 65.6254 201.899 63.3493 187.269C62.7802 183.09 63.9183 173.02 69.612 163.329C69.612 163.329 69.9914 162.949 70.181 162.949H70.7501C73.4073 164.85 75.4937 165.8 77.5819 166.749C80.0494 168.079 82.5152 169.22 85.9311 171.878C86.3104 172.068 86.3104 172.638 85.9311 173.018C85.5517 173.588 85.1724 174.157 84.793 174.919C82.7049 178.149 80.4287 181.569 79.6683 184.229C78.5303 188.788 81.3754 199.238 87.0691 206.84C88.9676 209.31 91.8128 210.829 95.039 211.019C97.6962 211.019 99.7826 211.209 100.922 211.399H101.302C103.009 211.399 104.149 211.399 104.907 213.3C105.097 214.06 104.907 214.629 104.528 215.011C103.769 215.96 102.06 216.15 100.164 216.15L106.047 219.19C106.047 219.19 106.426 219.38 106.426 219.57C106.426 219.57 106.995 221.471 106.047 223.18C105.288 224.699 103.58 225.651 101.303 226.22H99.9757C95.8011 226.22 91.0558 222.421 87.4502 218.811L87.2605 219.57ZM96.1788 215.96C95.7994 215.96 95.6097 215.391 95.7994 215.011C95.7994 214.631 96.3684 214.441 96.7478 214.441C99.405 214.821 102.821 214.821 103.39 214.061V213.871C103.2 213.112 103.011 213.112 101.302 212.922H100.922C99.7843 212.922 97.6962 212.922 95.039 212.542C91.4334 212.352 88.2072 210.451 85.9294 207.603C80.0459 199.813 77.0094 188.412 78.3389 183.663C79.0976 180.813 81.5651 177.013 83.6532 173.783C83.8429 173.403 84.2223 173.023 84.4119 172.643C81.3754 170.363 79.2872 169.223 77.0111 168.084C75.1126 167.134 73.2159 166.183 70.7484 164.664C64.8649 174.924 64.6753 184.234 65.0546 186.895C67.3325 200.954 81.5651 212.735 85.9294 216.155C86.8777 216.915 87.6364 217.485 88.3969 218.246C93.5216 223.185 98.0755 225.656 100.922 225.086C102.821 224.706 103.959 223.757 104.528 222.806C105.097 221.856 104.907 221.096 104.907 220.715L96.177 215.966L96.1788 215.96Z" fill="black"/>
<path d="M100.734 129.701C94.6613 129.701 88.7796 132.551 84.9826 137.3C80.239 143.191 73.4072 151.93 67.7135 161.05C67.1445 162 66.9548 163.331 67.7135 164.28C71.6984 171.69 78.9096 170.741 84.4136 173.971C85.1723 174.54 86.3121 174.161 86.8811 173.401C91.8144 166.561 97.3185 161.812 97.3185 161.812L102.633 129.512H100.734V129.702V129.701Z" fill="black"/>
<path d="M121.988 127.04C133.308 127.04 142.484 117.853 142.484 106.52C142.484 95.1871 133.308 86 121.988 86C110.669 86 101.493 95.1871 101.493 106.52C101.493 117.853 110.669 127.04 121.988 127.04Z" fill="black"/>
<path d="M101.304 126.28C105.496 126.28 108.894 122.878 108.894 118.681C108.894 114.484 105.496 111.081 101.304 111.081C97.1114 111.081 93.713 114.484 93.713 118.681C93.713 122.878 97.1114 126.28 101.304 126.28Z" fill="black"/>
<path d="M93.1423 132.55C96.3916 132.55 99.0257 129.913 99.0257 126.66C99.0257 123.407 96.3916 120.77 93.1423 120.77C89.8929 120.77 87.2589 123.407 87.2589 126.66C87.2589 129.913 89.8929 132.55 93.1423 132.55Z" fill="black"/>
<path d="M81.9461 137.11C81.9461 137.11 76.8214 135.019 71.6984 137.49C67.9032 139.391 68.0929 144.14 65.4357 147.37C64.8666 147.94 65.246 149.081 66.0047 149.271C68.4722 149.841 72.8365 150.22 76.8214 147.752C82.7048 144.142 84.2222 138.821 84.2222 138.821L82.1341 136.92L81.9444 137.11H81.9461Z" fill="black"/>
<path d="M85.9311 139.77C88.8661 139.77 91.2455 137.388 91.2455 134.45C91.2455 131.511 88.8661 129.129 85.9311 129.129C82.996 129.129 80.6167 131.511 80.6167 134.45C80.6167 137.388 82.996 139.77 85.9311 139.77Z" fill="black"/>
<path d="M129.01 94.5508C130.148 95.5003 130.717 95.6902 131.667 96.6415C133.374 98.3523 135.083 103.481 137.93 104.621C138.309 106.332 136.982 106.522 136.413 107.471C136.792 108.231 137.361 112.031 138.12 114.501C138.309 115.261 138.12 116.212 137.171 116.592C135.843 117.161 134.324 117.541 132.617 117.541C132.617 117.541 124.077 127.232 132.617 134.072C132.617 134.072 124.458 140.722 115.158 131.031C113.451 129.321 121.042 114.121 121.042 114.121C120.852 114.121 117.436 112.792 117.057 109.942C117.057 108.992 117.057 107.281 118.005 106.901C118.954 106.522 120.473 107.471 121.421 109.372C121.611 108.992 121.801 108.422 121.99 107.661C122.18 106.712 122.37 105.76 121.99 105.191C130.339 102.91 122.749 94.7407 128.632 94.9306L129.012 94.5508H129.01Z" fill="white"/>
<path d="M114.777 131.221C113.07 129.511 117.245 120.012 120.092 114.121C118.954 113.552 116.676 112.031 116.486 109.752C116.486 108.423 116.486 106.522 118.004 105.952C119.142 105.572 120.281 106.142 121.419 107.281C121.799 105.762 121.609 105.381 121.609 105.381V104.621C121.609 104.431 121.989 104.241 122.178 104.241C126.163 103.102 125.973 100.821 125.784 98.3507C125.784 97.0214 125.784 95.6903 126.542 94.7408C127.111 94.1711 127.87 93.9812 129.01 93.9812H129.579C129.958 94.361 130.338 94.5509 130.717 94.9307C131.286 95.3105 131.665 95.5005 132.234 96.0702C132.993 96.8298 133.562 97.9709 134.323 99.1104C135.461 101.011 136.6 103.1 138.308 103.86C138.497 103.86 138.687 104.239 138.877 104.429C139.256 105.949 138.308 106.71 137.739 107.28L137.359 107.659C137.359 108.229 137.739 109.179 137.928 110.51C138.118 111.839 138.497 113.17 138.877 114.31C139.256 115.449 138.687 116.78 137.359 117.35C136.031 117.92 134.512 118.299 132.995 118.299C132.236 119.249 129.2 123.239 129.579 127.42C129.769 129.7 130.907 131.599 133.185 133.31C133.374 133.31 133.564 133.69 133.564 133.88C133.564 134.07 133.564 134.26 133.185 134.45C133.185 134.45 130.148 136.92 125.784 136.92C122.558 136.92 118.762 135.591 114.588 131.41L114.777 131.22V131.221ZM128.062 127.42C127.493 121.909 131.857 116.97 132.047 116.78C132.047 116.78 132.426 116.59 132.616 116.59C134.133 116.59 135.652 116.21 136.79 115.641C137.169 115.641 137.359 115.071 137.359 114.501C136.98 113.362 136.79 111.841 136.411 110.511C136.221 109.372 135.842 107.851 135.652 107.471V106.712C135.842 106.332 136.221 105.952 136.6 105.762C136.98 105.382 137.17 105.192 137.17 104.813C135.271 103.863 133.943 101.583 132.805 99.6835C132.236 98.5441 131.477 97.5929 130.907 97.0231C130.527 96.6433 130.148 96.2635 129.579 96.0736C129.2 95.8837 129.01 95.6938 128.631 95.314C128.062 95.314 127.682 95.314 127.493 95.6938C127.113 96.0736 127.113 97.0231 127.303 98.1643C127.303 100.445 127.682 103.865 123.128 105.384C123.128 105.954 123.128 106.713 122.749 107.475C122.749 108.044 122.37 108.804 122.18 109.376C122.18 109.565 121.801 109.755 121.421 109.755C121.042 109.755 120.852 109.755 120.662 109.376C119.904 107.665 118.764 107.095 118.385 107.285C118.005 107.285 117.816 108.424 117.816 109.376C118.195 111.656 121.042 112.796 121.232 112.796C121.421 112.796 121.611 112.985 121.611 113.175V113.745C118.195 120.585 114.969 128.564 115.538 129.706C122.559 137.305 128.822 134.645 131.1 133.316C129.201 131.605 128.063 129.326 127.684 127.045L128.063 127.425L128.062 127.42Z" fill="black"/>
<path d="M125.784 116.21C125.784 116.21 128.631 117.921 132.426 117.35L125.784 116.21Z" fill="white"/>
<path d="M130.527 118.301H132.426C132.805 118.301 133.185 117.731 132.995 117.351C132.995 116.972 132.426 116.592 132.047 116.782C128.631 117.351 125.973 115.832 125.973 115.832C125.594 115.642 125.025 115.832 124.835 116.022C124.646 116.402 124.835 116.971 125.025 117.161C125.025 117.161 127.303 118.491 130.15 118.491L130.529 118.301H130.527Z" fill="black"/>
<ellipse cx="130.272" cy="103.689" rx="0.847798" ry="1.5" transform="rotate(-18.0914 130.272 103.689)" fill="black"/>
</g>
<defs>
<clipPath id="clip0_1100_1970">
<rect width="492" height="390" fill="white"/>
</clipPath>
<clipPath id="clip1_1100_1970">
<rect width="194" height="103" fill="white" transform="translate(244 59)"/>
</clipPath>
</defs>
</svg>
