<svg width="647" height="421" viewBox="0 0 647 421" fill="none" xmlns="http://www.w3.org/2000/svg">
<path d="M360.508 305.857H394.224" stroke="black" stroke-miterlimit="10"/>
<path d="M360.508 311.45H394.224" stroke="black" stroke-miterlimit="10"/>
<path d="M360.508 317.034H394.224" stroke="black" stroke-miterlimit="10"/>
<path d="M360.508 322.618H394.224" stroke="black" stroke-miterlimit="10"/>
<path d="M363.002 266.495V247.003H374.238V266.495" fill="white"/>
<path d="M363.002 266.495V247.003H374.238V266.495" stroke="black" stroke-miterlimit="10"/>
<path d="M365.504 247.003V231.405H380.477" fill="white"/>
<path d="M365.504 247.003V231.405H380.477" stroke="black" stroke-miterlimit="10"/>
<path d="M394.224 416.519V266.495H380.486V305.857H374.238V266.495H360.508V416.519H394.224Z" fill="white" stroke="black" stroke-miterlimit="10"/>
<path d="M391.722 266.495V247.003H380.486V266.495" fill="white"/>
<path d="M391.722 266.495V247.003H380.486V266.495" stroke="black" stroke-miterlimit="10"/>
<path d="M389.228 247.003V231.405H374.246" fill="white"/>
<path d="M389.228 247.003V231.405H374.246" stroke="black" stroke-miterlimit="10"/>
<path d="M366.747 231.414V227.51H387.968V231.414" fill="white"/>
<path d="M366.747 231.414V227.51H387.968V231.414" stroke="black" stroke-miterlimit="10"/>
<path d="M369.25 227.51V223.615H385.474V227.51" fill="white"/>
<path d="M369.25 227.51V223.615H385.474V227.51" stroke="black" stroke-miterlimit="10"/>
<path d="M371.744 223.615V219.711H382.971V223.615" fill="white"/>
<path d="M371.744 223.615V219.711H382.971V223.615" stroke="black" stroke-miterlimit="10"/>
<path d="M372.995 219.72L375.489 201.523H379.234L381.728 219.711" fill="white"/>
<path d="M372.995 219.72L375.489 201.523H379.234L381.728 219.711" stroke="black" stroke-miterlimit="10"/>
<path d="M377.362 201.523V177.208" stroke="black" stroke-miterlimit="10"/>
<path d="M61.8878 377H1.43756V416.221H61.8878V377Z" fill="white" stroke="black" stroke-linejoin="round"/>
<path d="M122 342H62V416H122V342Z" fill="white" stroke="black" stroke-linejoin="round"/>
<path d="M183 302H122V416H183V302Z" fill="white" stroke="black" stroke-linejoin="round"/>
<path d="M243 260H183V416H243V260Z" fill="white" stroke="black" stroke-linejoin="round"/>
<path d="M304 216H243V417H304V216Z" fill="white" stroke="black" stroke-linejoin="round"/>
<path d="M364 177H304V417H364V177Z" fill="white" stroke="black" stroke-linejoin="round"/>
<path d="M48.7266 267.099C48.7266 267.099 50.433 269.06 50.188 269.699C49.9342 270.399 49.9342 271.73 49.9342 271.73C49.9342 271.73 52.0869 272.937 52.0869 273.506C52.0869 274.075 51.5794 275.091 51.5794 275.091C51.5794 275.091 52.0869 278.452 51.7719 279.274C51.4569 280.097 47.8428 280.736 47.8428 280.736L46.5127 284.859L38.7858 282.513L40.0546 278.39C40.0546 278.39 38.0945 273.506 37.7707 271.922C37.4469 270.338 39.8621 267.231 42.8986 266.469C45.9439 265.708 48.7879 267.169 48.7879 267.169L48.7266 267.108V267.099Z" fill="white" stroke="black" stroke-linejoin="round"/>
<path d="M46.1277 274.767C46.1277 274.767 47.4578 274.828 47.3353 274.198C47.1428 273.498 46.6352 273.182 46.889 272.867C47.1428 272.552 48.7267 271.537 48.2191 270.837C47.7116 270.136 46.1889 269.629 46.889 268.876C47.5891 268.114 51.4481 266.469 51.4481 266.469C51.4481 266.469 47.519 264.631 46.889 264.631C46.2589 264.631 49.2342 263.677 48.2191 262.924C47.204 262.163 40.746 262.163 38.147 265.585C35.548 269.007 35.863 271.038 36.8781 273.891C37.8932 276.745 39.7921 280.106 40.8072 280.36C41.8223 280.614 45.1826 280.806 45.3664 279.598C45.5501 278.39 46.1277 274.714 46.1277 274.714V274.775V274.767Z" fill="black" stroke="black" stroke-linejoin="round"/>
<path d="M47.204 275.528C47.204 275.528 44.7975 272.613 44.6663 273.69C44.5438 274.828 45.3663 278.889 46.8802 277.874" fill="white"/>
<path d="M47.204 275.528C47.204 275.528 44.7975 272.613 44.6663 273.69C44.5438 274.828 45.3663 278.889 46.8802 277.874" stroke="black" stroke-linejoin="round"/>
<path d="M34.0254 284.08C34.0254 284.08 35.863 284.649 40.2997 285.603C44.7363 286.557 48.5342 287.441 48.5342 287.441C48.5342 287.441 47.3266 283.896 46.1277 283.257C44.8588 282.557 38.147 281.226 37.3244 281.296C36.5019 281.358 34.0254 284.089 34.0254 284.089V284.08Z" fill="white" stroke="black" stroke-linejoin="round"/>
<path d="M62.4741 307.537C62.4741 307.537 70.1398 300.631 70.5248 300.246C70.9711 299.8 70.0173 296.57 70.0173 296.062C70.0173 295.555 71.7937 294.732 71.7937 294.732C71.7937 294.732 72.0475 293.401 72.87 293.401C73.6926 293.401 75.154 294.478 75.154 294.478L75.3465 295.432C75.3465 295.432 76.5541 298.032 76.5541 298.478C76.5541 298.924 76.2391 300.001 75.3465 300.824C74.5239 301.647 72.555 303.423 72.555 303.423C72.555 303.423 65.8344 312.483 64.3205 313.752C62.8067 315.021 60.7765 316.351 60.0152 314.828C59.2538 313.305 62.4216 307.607 62.4216 307.607L62.4829 307.546L62.4741 307.537Z" fill="white" stroke="black" stroke-linejoin="round"/>
<path d="M71.7937 294.67L72.0474 295.362L71.4086 295.87" stroke="black" stroke-linejoin="round"/>
<path d="M14.1961 297.708C14.1961 297.708 11.2821 300.754 11.4046 302.014C11.5972 303.283 18.3702 317.288 18.3702 317.288C18.3702 317.288 18.8778 319.38 19.1928 319.572C19.5078 319.765 20.2692 321.034 20.2692 321.034C20.2692 321.034 20.2692 322.111 21.538 320.973C22.8069 319.765 24.5833 318.434 24.452 317.358C24.3208 316.281 23.4982 315.397 23.4982 315.397C23.4982 315.397 23.0519 314.382 22.6756 314.321C22.2293 314.259 20.3304 314.259 20.3304 314.259L18.1777 302.854L14.1261 297.787L14.1874 297.725L14.1961 297.708Z" fill="white" stroke="black" stroke-linejoin="round"/>
<path d="M21.0392 316.211L22.1156 316.78C22.1156 316.78 20.7855 318.811 21.293 319.187C21.8006 319.634 23.3232 316.588 23.4457 316.141C23.6382 315.695 23.1919 315.318 23.1919 315.318" fill="white"/>
<path d="M21.0392 316.211L22.1156 316.78C22.1156 316.78 20.7855 318.811 21.293 319.187C21.8006 319.634 23.3232 316.588 23.4457 316.141C23.6382 315.695 23.1919 315.318 23.1919 315.318" stroke="black" stroke-linejoin="round"/>
<path d="M21.7393 316.973L19.5866 318.881" stroke="black" stroke-linejoin="round"/>
<path d="M25.3446 359.372L19.8929 364.124C19.8929 364.124 20.2692 365.078 20.9692 365.455C21.6693 365.831 24.8371 368.877 25.7821 369.446C26.736 370.076 29.0812 371.284 31.6102 371.284C34.1391 371.284 34.6554 370.33 34.6554 369.954C34.6554 369.577 29.7112 366.339 29.7112 366.339L28.6349 361.962L25.3359 359.424V359.363L25.3446 359.372Z" fill="white" stroke="black" stroke-linejoin="round"/>
<path d="M20.978 363.118L19.9016 364.072C19.9016 364.072 20.2779 365.026 20.978 365.402C21.678 365.779 24.8458 368.825 25.7909 369.393C26.736 369.962 29.0899 371.232 31.6189 371.232C34.1479 371.232 33.9028 370.916 34.2791 370.531C32.7565 370.216 31.4876 369.962 30.9188 369.962C29.2737 369.962 27.436 368.439 27.436 368.439L20.9692 363.056V363.118H20.978Z" fill="white" stroke="black" stroke-linejoin="round"/>
<path d="M23.577 312.159C23.577 312.159 22.3693 318.303 23.4544 320.273C24.5308 322.233 26.3072 324.518 26.3072 324.518L41.3848 343.914L25.0383 359.757L28.8362 363.625C28.8362 363.625 49.4267 346.645 50.6343 345.883C51.9032 345.183 50.6343 339.1 50.258 338.592C49.8818 338.085 42.7849 322.557 42.7849 322.557L43.4149 315.651L23.5157 312.229L23.577 312.167V312.159Z" fill="white" stroke="black" stroke-linejoin="round"/>
<path d="M34.5329 367.739C34.5329 367.739 38.2082 371.862 38.777 372.238C39.3458 372.684 43.5287 375.091 43.5287 375.091C43.5287 375.091 43.4674 375.66 43.0824 375.792C42.7674 375.853 34.4629 375.984 33.8941 375.853C33.3253 375.792 28.4424 373.192 27.8736 372.938C27.3048 372.684 25.4671 371.415 25.4671 371.415L29.1424 365.525L34.4629 367.809L34.5241 367.748L34.5329 367.739Z" fill="white" stroke="black" stroke-linejoin="round"/>
<path d="M28.3286 323.31L31.8114 325.778L36.8169 342.19L28.3286 366.207L35.7405 368.299L36.2481 365.638L37.7094 362.785C37.7094 362.785 46.7665 342.951 46.8977 341.297C47.029 339.643 42.9074 322.54 42.9074 322.54L42.1461 315.248L29.1599 313.979" fill="white"/>
<path d="M28.3286 323.31L31.8114 325.778L36.8169 342.19L28.3286 366.207L35.7405 368.299L36.2481 365.638L37.7094 362.785C37.7094 362.785 46.7665 342.951 46.8977 341.297C47.029 339.643 42.9074 322.54 42.9074 322.54L42.1461 315.248L29.1599 313.979" stroke="black" stroke-linejoin="round"/>
<path d="M43.1524 375.792C43.4674 375.73 43.5987 375.092 43.5987 375.092C43.5987 375.092 43.2837 374.899 42.8374 374.645C39.6696 374.391 34.3491 374.015 33.9641 374.015C33.5791 374.015 28.4511 370.969 26.5522 369.831L25.5371 371.415C25.5371 371.415 27.3748 372.684 27.9436 372.938C28.5124 373.192 33.3953 375.792 33.9641 375.853C34.5329 375.914 42.8374 375.853 43.1524 375.792Z" fill="white" stroke="black" stroke-linejoin="round"/>
<path d="M35.1017 283.834C35.1017 283.834 26.7973 284.657 26.6747 285.042C26.5522 285.427 15.5875 297.34 15.5875 297.34L18.5015 302.977L25.5371 299.931L23.507 312.229C23.507 312.229 22.1769 312.736 24.5833 314.005C26.9898 315.275 32.634 316.859 36.4931 316.859C40.3522 316.859 42.5136 316.859 43.3975 315.651C44.22 314.443 44.1588 313.813 44.22 313.113C44.2813 312.412 48.2716 302.215 48.2716 302.215C48.2716 302.215 57.0749 313.559 57.4599 313.813C57.845 314.067 59.4201 314.321 60.759 312.736C62.0891 311.152 61.8353 307.415 61.8353 307.415C61.8353 307.415 56.8911 298.417 56.6374 297.148C56.3836 295.878 55.6223 292.018 55.1147 291.003C54.6072 289.988 53.9071 289.926 52.577 289.226C51.2469 288.526 47.5103 287.266 47.5103 287.266L34.9617 283.843H35.0842L35.1017 283.834Z" fill="white" stroke="black" stroke-linejoin="round"/>
<path d="M27.5673 287.572L25.5984 299.931L26.4297 288.202" stroke="black" stroke-linejoin="round"/>
<path d="M25.3446 299.546L23.192 294.163" stroke="black" stroke-linejoin="round"/>
<path d="M19.9017 296.509L18.6328 295.686" stroke="black" stroke-linejoin="round"/>
<path d="M25.5984 299.931L21.0392 297.139" stroke="black" stroke-linejoin="round"/>
<path d="M52.2795 296.062L54.4322 292.762" stroke="black" stroke-linejoin="round"/>
<path d="M48.3504 302.145L51.6407 297.077" stroke="black" stroke-linejoin="round"/>
<path d="M54.7472 298.154L55.701 297.585" stroke="black" stroke-linejoin="round"/>
<path d="M48.8579 301.638L53.6096 298.854" stroke="black" stroke-linejoin="round"/>
<path d="M48.4729 301.577L56.7161 300.185" stroke="black" stroke-linejoin="round"/>
<path d="M24.6533 312.544L32.8878 310.513" stroke="black" stroke-linejoin="round"/>
<path d="M38.5233 307.721C39.0921 307.467 39.5996 307.213 40.0459 307.021" stroke="black" stroke-linejoin="round"/>
<path d="M28.1361 310.513C28.1361 310.513 33.3953 309.559 37.2632 308.167" stroke="black" stroke-linejoin="round"/>
<path d="M61.844 306.776C61.844 306.776 61.7828 308.614 60.0676 310.391C58.3525 312.167 56.4536 312.421 56.4536 312.421C56.4536 312.421 57.2149 315.275 58.16 315.275C59.105 315.275 60.6977 315.782 62.089 313.813C63.5504 311.852 63.8655 308.614 63.4192 307.791C62.9729 306.968 62.7191 306.522 61.8353 306.776H61.844Z" fill="white" stroke="black" stroke-linejoin="round"/>
<path d="M16.8564 295.362C16.8564 295.362 20.908 302.907 20.5317 303.091C20.2166 303.283 18.7553 304.553 18.2477 304.614C17.7402 304.675 15.4562 302.461 14.6337 300.491C13.8111 298.522 13.5573 297.83 13.8111 297.445C14.0649 297.13 16.3488 295.353 16.8564 295.353V295.362Z" fill="white" stroke="black" stroke-linejoin="round"/>
<path d="M308.397 117.181C309.009 113.592 309.972 104.752 304.547 100.463C297.721 94.9485 292.908 104.839 286.958 97.1367C281.007 89.4342 279.257 72.7163 261.668 72.9789C244.079 73.2415 242.766 83.1322 242.766 86.3707C242.766 89.6093 237.516 92.0601 236.378 92.0601C235.24 92.0601 229.115 89.1716 226.927 95.5612C224.74 101.951 226.227 105.627 222.727 105.802C219.227 105.977 214.851 101.163 210.126 103.526C205.4 105.89 205.4 110.966 203.388 112.717C201.375 114.467 198.137 111.404 193.674 113.154C191.049 114.205 190.174 115.955 189.999 117.093H308.397V117.181Z" stroke="black" stroke-miterlimit="10"/>
<path d="M155.652 205.251C156.011 203.107 156.58 197.759 153.298 195.116C149.159 191.763 146.236 197.759 142.666 193.12C139.096 188.481 138.028 178.345 127.396 178.485C116.764 178.625 115.976 184.621 115.976 186.625C115.976 188.63 112.765 190.048 112.126 190.048C111.487 190.048 107.777 188.332 106.42 192.192C105.064 196.052 105.992 198.258 103.848 198.328C101.704 198.398 99.1398 195.545 96.2171 196.971C93.2943 198.398 93.3643 201.47 92.148 202.538C90.9316 203.606 88.9364 201.75 86.2937 202.827C84.6486 203.466 84.2285 204.542 84.0798 205.251H155.644H155.652Z" stroke="black" stroke-miterlimit="10"/>
<path d="M54.9835 183.912C55.246 182.337 55.6836 178.398 53.3208 176.472C50.2581 174.021 48.1579 178.398 45.5327 174.984C42.9074 171.571 42.1199 164.131 34.3317 164.218C26.5435 164.306 25.931 168.682 25.931 170.17C25.931 171.658 23.5682 172.709 23.1307 172.709C22.6932 172.709 19.8929 171.396 18.9303 174.284C17.9678 177.085 18.5803 178.748 17.0927 178.836C15.5175 178.836 13.5924 176.735 11.4922 177.873C9.392 179.011 9.392 181.199 8.51693 181.987C7.64185 182.774 6.15422 181.374 4.22905 182.162C3.00394 182.599 2.65391 183.387 2.56641 183.912H55.1585H54.9835Z" stroke="black" stroke-miterlimit="10"/>
<path d="M173.793 95.5174C174.055 93.9419 174.493 90.0031 172.042 88.0775C168.98 85.6267 166.879 90.0031 164.254 86.5895C161.629 83.1759 160.841 75.736 152.966 75.8235C145.178 75.911 144.565 80.2875 144.565 81.7754C144.565 83.2634 142.202 84.3138 141.765 84.3138C141.327 84.3138 138.527 83.0008 137.564 85.8893C136.602 88.6902 137.214 90.3532 135.727 90.4408C134.152 90.4408 132.226 88.3401 130.126 89.4779C128.026 90.5283 128.026 92.804 127.151 93.5918C126.276 94.3795 124.788 92.9791 122.863 93.7668C121.638 94.2045 121.288 94.9922 121.201 95.5174H173.793Z" stroke="black" stroke-miterlimit="10"/>
<path d="M192.651 163.824C192.826 162.686 193.176 159.886 191.425 158.573C189.238 156.822 187.75 159.973 185.825 157.522C183.987 155.072 183.375 149.82 177.774 149.82C172.174 149.82 171.824 153.058 171.824 154.109C171.824 155.159 170.161 155.947 169.811 155.947C169.461 155.947 167.536 155.072 166.836 157.085C166.136 159.098 166.573 160.236 165.523 160.323C164.386 160.323 163.073 158.835 161.498 159.623C159.923 160.411 160.01 161.986 159.398 162.511C158.785 163.037 157.735 162.074 156.335 162.686C155.46 163.037 155.197 163.562 155.197 163.912H192.651V163.824Z" stroke="black" stroke-miterlimit="10"/>
<path d="M425.508 363.704C424.318 367.284 423.023 370.75 421.606 374.041C404.41 414.085 408.707 414.085 408.707 414.085H430.199C430.199 414.085 430.199 394.059 447.394 394.059" stroke="black" stroke-linecap="round" stroke-linejoin="round"/>
<path d="M433.708 328.973C432.343 337.332 430.61 345.857 428.405 354.023" stroke="black" stroke-linecap="round" stroke-linejoin="round"/>
<path d="M447.394 268.928H438.801C438.801 268.928 438.801 291.913 435.195 318.968" stroke="black" stroke-linecap="round" stroke-linejoin="round"/>
<path d="M447.394 268.929H438.801C438.801 268.929 434.504 268.929 434.504 263.922C434.504 258.915 438.801 258.915 438.801 258.915H447.394" stroke="black" stroke-miterlimit="10"/>
<path d="M447.394 258.907H438.801C438.801 258.907 434.504 258.907 434.504 253.9C434.504 248.893 438.801 248.893 438.801 248.893H447.394" stroke="black" stroke-miterlimit="10"/>
<path d="M438.801 248.902C438.801 243.37 442.651 238.889 447.394 238.889" stroke="black" stroke-miterlimit="10"/>
<path d="M410.037 404.072H432.351" stroke="black" stroke-miterlimit="10"/>
<path d="M447.394 364.037H425.902C425.902 364.037 419.453 359.03 419.453 354.023H447.394" stroke="black" stroke-linejoin="round"/>
<path d="M447.394 328.973H430.199C430.199 328.973 425.902 323.966 425.902 318.959H447.394" stroke="black" stroke-linejoin="round"/>
<path d="M469.289 363.704C470.479 367.284 471.774 370.75 473.191 374.041C490.387 414.085 486.09 414.085 486.09 414.085H464.598C464.598 414.085 464.598 394.059 447.403 394.059" stroke="black" stroke-linecap="round" stroke-linejoin="round"/>
<path d="M461.08 328.973C462.445 337.332 464.178 345.857 466.383 354.023" stroke="black" stroke-linecap="round" stroke-linejoin="round"/>
<path d="M447.394 268.928H455.987C455.987 268.928 455.987 291.913 459.593 318.968" stroke="black" stroke-linecap="round" stroke-linejoin="round"/>
<path d="M447.394 268.929H455.987C455.987 268.929 460.284 268.929 460.284 263.922C460.284 258.915 455.987 258.915 455.987 258.915H447.394" stroke="black" stroke-miterlimit="10"/>
<path d="M447.394 258.907H455.987C455.987 258.907 460.284 258.907 460.284 253.9C460.284 248.893 455.987 248.893 455.987 248.893H447.394" stroke="black" stroke-miterlimit="10"/>
<path d="M455.996 248.902C455.996 243.37 452.146 238.889 447.403 238.889" stroke="black" stroke-miterlimit="10"/>
<path d="M484.751 404.072H462.437" stroke="black" stroke-miterlimit="10"/>
<path d="M447.394 364.037H468.886C468.886 364.037 475.335 359.03 475.335 354.023H447.394" stroke="black" stroke-linejoin="round"/>
<path d="M447.394 328.973H464.589C464.589 328.973 468.886 323.966 468.886 318.96H447.394V294.697" stroke="black" stroke-linecap="round" stroke-linejoin="round"/>
<path d="M447.394 216.368V238.889" stroke="black" stroke-miterlimit="10"/>
<path d="M466.296 404.072C466.296 391.923 457.834 382.067 447.403 382.067C436.972 382.067 428.51 391.923 428.51 404.072" stroke="black" stroke-linecap="round" stroke-linejoin="round"/>
<path d="M447.394 329.402L436.823 354.023H457.965L447.394 329.402Z" stroke="black" stroke-linecap="round" stroke-linejoin="round"/>
<path d="M431.861 214.836V259.904" stroke="black" stroke-miterlimit="10"/>
<path d="M430.356 270.591V264.78" stroke="black" stroke-miterlimit="10"/>
<path d="M422.682 178.092C422.682 177.251 421.999 176.56 421.15 176.56H390.567C389.726 176.56 389.035 177.243 389.035 178.092C389.035 178.932 389.718 179.623 390.567 179.623H421.15C421.999 179.623 422.682 178.941 422.682 178.092Z" fill="white" stroke="black" stroke-miterlimit="10"/>
<path d="M389.035 214.827V208.709C389.035 208.709 389.035 205.646 392.098 205.646C395.161 205.646 395.161 208.709 395.161 208.709V214.827" fill="white"/>
<path d="M389.035 214.827V208.709C389.035 208.709 389.035 205.646 392.098 205.646C395.161 205.646 395.161 208.709 395.161 208.709V214.827" stroke="black" stroke-miterlimit="10"/>
<path d="M398.223 214.827V208.709C398.223 208.709 398.223 205.646 401.286 205.646C404.349 205.646 404.349 208.709 404.349 208.709V214.827" fill="white"/>
<path d="M398.223 214.827V208.709C398.223 208.709 398.223 205.646 401.286 205.646C404.349 205.646 404.349 208.709 404.349 208.709V214.827" stroke="black" stroke-miterlimit="10"/>
<path d="M407.403 214.827V208.709C407.403 208.709 407.403 205.646 410.466 205.646C413.529 205.646 413.529 208.709 413.529 208.709V214.827" fill="white"/>
<path d="M407.403 214.827V208.709C407.403 208.709 407.403 205.646 410.466 205.646C413.529 205.646 413.529 208.709 413.529 208.709V214.827" stroke="black" stroke-miterlimit="10"/>
<path d="M393.629 191.868V185.75C393.629 185.75 393.629 182.687 396.692 182.687C399.755 182.687 399.755 185.75 399.755 185.75V191.868" fill="white"/>
<path d="M393.629 191.868V185.75C393.629 185.75 393.629 182.687 396.692 182.687C399.755 182.687 399.755 185.75 399.755 185.75V191.868" stroke="black" stroke-miterlimit="10"/>
<path d="M402.809 191.868V185.75C402.809 185.75 402.809 182.687 405.872 182.687C408.934 182.687 408.934 185.75 408.934 185.75V191.868" fill="white"/>
<path d="M402.809 191.868V185.75C402.809 185.75 402.809 182.687 405.872 182.687C408.934 182.687 408.934 185.75 408.934 185.75V191.868" stroke="black" stroke-miterlimit="10"/>
<path d="M411.988 191.868V185.75C411.988 185.75 411.988 182.687 415.051 182.687C418.114 182.687 418.114 185.75 418.114 185.75V191.868" fill="white"/>
<path d="M411.988 191.868V185.75C411.988 185.75 411.988 182.687 415.051 182.687C418.114 182.687 418.114 185.75 418.114 185.75V191.868" stroke="black" stroke-miterlimit="10"/>
<path d="M416.583 214.827V208.709C416.583 208.709 416.583 205.646 419.645 205.646C422.708 205.646 422.708 208.709 422.708 208.709V214.827" fill="white"/>
<path d="M416.583 214.827V208.709C416.583 208.709 416.583 205.646 419.645 205.646C422.708 205.646 422.708 208.709 422.708 208.709V214.827" stroke="black" stroke-miterlimit="10"/>
<path d="M385.981 214.827V202.591H425.745V214.827" fill="white"/>
<path d="M385.981 214.827V202.591H425.745V214.827" stroke="black" stroke-miterlimit="10"/>
<path d="M385.981 232.377V220.14H425.745V232.377" fill="white"/>
<path d="M385.981 232.377V220.14H425.745V232.377" stroke="black" stroke-miterlimit="10"/>
<path d="M379.856 259.904V216.368" stroke="black" stroke-miterlimit="10"/>
<path d="M379.864 216.359V208.709L384.45 214.827" fill="white"/>
<path d="M379.864 216.359V208.709L384.45 214.827" stroke="black" stroke-miterlimit="10"/>
<path d="M431.861 216.359V208.709L427.267 214.827" fill="white"/>
<path d="M431.861 216.359V208.709L427.267 214.827" stroke="black" stroke-miterlimit="10"/>
<path d="M385.981 202.591L390.567 191.886H421.15L425.745 202.591" fill="white"/>
<path d="M385.981 202.591L390.567 191.886H421.15L425.745 202.591" stroke="black" stroke-miterlimit="10"/>
<path d="M390.567 179.623V191.886" stroke="black" stroke-miterlimit="10"/>
<path d="M421.177 179.623V191.886" stroke="black" stroke-miterlimit="10"/>
<path d="M390.567 176.586L405.863 149.05L421.15 176.56" fill="white"/>
<path d="M390.567 176.586L405.863 149.05L421.15 176.56" stroke="black" stroke-miterlimit="10"/>
<path d="M405.863 149.05V136.813" stroke="black" stroke-miterlimit="10"/>
<path d="M405.863 144.463C406.709 144.463 407.394 143.777 407.394 142.931C407.394 142.085 406.709 141.4 405.863 141.4C405.017 141.4 404.331 142.085 404.331 142.931C404.331 143.777 405.017 144.463 405.863 144.463Z" fill="white" stroke="black" stroke-miterlimit="10"/>
<path d="M425.745 220.131H385.981V259.904H425.745V220.131Z" fill="white" stroke="black" stroke-miterlimit="10"/>
<path d="M381.387 270.591L381.396 264.78" stroke="black" stroke-miterlimit="10"/>
<path d="M430.356 270.592H381.387V284.395H430.356V270.592Z" fill="white" stroke="black" stroke-miterlimit="10"/>
<path d="M430.356 284.368H381.387V416.519H430.356V284.368Z" fill="white" stroke="black" stroke-miterlimit="10"/>
<path d="M430.356 298.172H381.387V304.316H430.356V298.172Z" fill="white" stroke="black" stroke-miterlimit="10"/>
<path d="M430.356 316.868H381.387V323.012H430.356V316.868Z" fill="white" stroke="black" stroke-miterlimit="10"/>
<path d="M430.356 335.573H381.387V341.717H430.356V335.573Z" fill="white" stroke="black" stroke-miterlimit="10"/>
<path d="M430.356 354.269H381.387V360.413H430.356V354.269Z" fill="white" stroke="black" stroke-miterlimit="10"/>
<path d="M430.356 372.965H381.387V379.109H430.356V372.965Z" fill="white" stroke="black" stroke-miterlimit="10"/>
<path d="M430.356 391.669H381.387V397.814H430.356V391.669Z" fill="white" stroke="black" stroke-miterlimit="10"/>
<path d="M405.872 270.591V264.78" stroke="black" stroke-miterlimit="10"/>
<path d="M393.629 270.591V264.78" stroke="black" stroke-miterlimit="10"/>
<path d="M419.645 270.591V264.78" stroke="black" stroke-miterlimit="10"/>
<path d="M405.872 416.519V284.368" stroke="black" stroke-miterlimit="10"/>
<path d="M393.629 416.519V284.368" stroke="black" stroke-miterlimit="10"/>
<path d="M419.645 416.519V284.368" stroke="black" stroke-miterlimit="10"/>
<path d="M419.565 240.558C419.863 232.96 413.947 226.558 406.351 226.26C398.755 225.961 392.355 231.879 392.056 239.477C391.758 247.075 397.674 253.476 405.27 253.775C412.866 254.073 419.266 248.156 419.565 240.558Z" fill="white" stroke="black" stroke-miterlimit="10"/>
<path d="M405.863 246.136C409.241 246.136 411.98 243.397 411.98 240.018C411.98 236.639 409.241 233.9 405.863 233.9C402.485 233.9 399.746 236.639 399.746 240.018C399.746 243.397 402.485 246.136 405.863 246.136Z" fill="white" stroke="black" stroke-miterlimit="10"/>
<path d="M405.863 241.55C406.709 241.55 407.394 240.864 407.394 240.018C407.394 239.172 406.709 238.486 405.863 238.486C405.017 238.486 404.331 239.172 404.331 240.018C404.331 240.864 405.017 241.55 405.863 241.55Z" fill="white" stroke="black" stroke-miterlimit="10"/>
<path d="M396.683 230.845L405.863 240.018" stroke="black" stroke-miterlimit="10"/>
<path d="M415.034 240.018H405.863" stroke="black" stroke-miterlimit="10"/>
<path d="M390.567 226.258C391.412 226.258 392.098 225.573 392.098 224.727C392.098 223.881 391.412 223.195 390.567 223.195C389.721 223.195 389.035 223.881 389.035 224.727C389.035 225.573 389.721 226.258 390.567 226.258Z" fill="white" stroke="black" stroke-miterlimit="10"/>
<path d="M421.168 226.258C422.014 226.258 422.699 225.573 422.699 224.727C422.699 223.881 422.014 223.195 421.168 223.195C420.322 223.195 419.637 223.881 419.637 224.727C419.637 225.573 420.322 226.258 421.168 226.258Z" fill="white" stroke="black" stroke-miterlimit="10"/>
<path d="M390.567 256.867C391.412 256.867 392.098 256.181 392.098 255.335C392.098 254.489 391.412 253.803 390.567 253.803C389.721 253.803 389.035 254.489 389.035 255.335C389.035 256.181 389.721 256.867 390.567 256.867Z" fill="white" stroke="black" stroke-miterlimit="10"/>
<path d="M421.168 256.867C422.014 256.867 422.699 256.181 422.699 255.335C422.699 254.489 422.014 253.803 421.168 253.803C420.322 253.803 419.637 254.489 419.637 255.335C419.637 256.181 420.322 256.867 421.168 256.867Z" fill="white" stroke="black" stroke-miterlimit="10"/>
<path d="M431.861 214.836H379.864V220.131H431.861V214.836Z" fill="white" stroke="black" stroke-miterlimit="10"/>
<path d="M431.861 260.237H379.856V264.78H431.861V260.237Z" fill="white" stroke="black" stroke-miterlimit="10"/>
<path d="M367 133H511" stroke="black" stroke-miterlimit="10"/>
<path d="M431.813 38.512L431.532 42.9019C431.532 42.9019 434.077 45.6632 434.367 46.7302C434.648 47.7879 435.78 51.6911 436.07 50.7645C436.351 49.8472 435.93 47.2918 436.145 46.5898C436.361 45.8878 437.137 41.9846 437.137 41.9846C437.137 41.9846 435.369 41.4885 434.377 40.852C433.385 40.2155 431.831 38.512 431.831 38.512H431.813Z" fill="white" stroke="black" stroke-linecap="round" stroke-linejoin="round"/>
<path d="M430.68 35.8913C430.68 35.8913 431.036 35.3952 430.68 33.6261C430.325 31.857 429.052 31.4264 430.109 29.3765C431.167 27.3267 433.937 26.3345 433.937 26.3345C433.937 26.3345 433.3 24.9866 433.796 24.6309C434.292 24.2752 435.425 25.2019 435.565 25.4827C435.705 25.7635 435.425 22.7214 436.201 22.7214C436.978 22.7214 439.102 25.127 439.102 25.9039C439.102 26.6808 439.879 24.0599 440.731 24.7713C441.582 25.4827 441.938 27.3173 441.582 27.8134C441.227 28.3095 442.499 27.4577 442.715 28.4499C442.93 29.4421 442.64 30.6495 441.863 31.6324C441.086 32.6245 440.515 32.6901 440.515 32.6901C440.515 32.6901 439.028 30.2845 437.474 30.35C435.921 30.4249 434.292 30.6308 434.292 31.3422C434.292 32.0536 434.218 32.4748 433.581 33.1862C432.945 33.8975 432.87 34.8148 432.524 35.6666C432.168 36.5184 432.599 37.1549 431.747 36.8741C430.895 36.5933 430.68 35.8819 430.68 35.8819V35.8913Z" fill="black" stroke="black" stroke-linecap="round" stroke-linejoin="round"/>
<path d="M431.597 35.8261C431.597 35.8261 430.325 33.4205 429.754 35.1147C429.183 36.8183 429.829 37.3799 430.109 37.7356C430.39 38.0912 431.026 38.2316 431.026 38.2316C431.026 38.2316 431.738 40.2815 432.299 40.7776C432.861 41.2737 433.853 42.9773 436.473 42.762C437.708 42.659 439.093 41.9102 439.729 40.0007C440.366 38.0912 440.366 37.0242 440.581 34.6935C440.796 32.3534 440.721 30.6592 439.093 29.667C437.465 28.6749 434.423 28.8153 433.787 29.7419C433.151 30.6686 433.647 31.0149 433.431 31.511C433.216 32.0071 432.084 32.8589 432.018 33.355C431.953 33.8511 432.159 34.628 432.018 35.0585C431.878 35.4797 431.597 35.8354 431.597 35.8354V35.8261Z" fill="white" stroke="black" stroke-linecap="round" stroke-linejoin="round"/>
<path d="M438.185 32.6343C438.185 32.6343 437.614 32.8496 437.689 33.8417C437.764 34.8339 438.045 35.4704 437.905 35.8916C437.764 36.3128 436.492 36.1069 436.492 36.1069" stroke="black" stroke-linecap="round" stroke-linejoin="round"/>
<path d="M434.498 36.6685C434.498 36.6685 436.548 38.4375 438.812 37.0897" stroke="black" stroke-linecap="round" stroke-linejoin="round"/>
<path d="M435.846 33.308C435.846 33.645 435.687 33.9071 435.49 33.9071C435.294 33.9071 435.135 33.6356 435.135 33.308C435.135 32.9804 435.294 32.709 435.49 32.709C435.687 32.709 435.846 32.9804 435.846 33.308Z" fill="black"/>
<path d="M439.524 33.7663C439.524 34.1033 439.364 34.3653 439.168 34.3653C438.971 34.3653 438.812 34.0939 438.812 33.7663C438.812 33.4387 438.971 33.1672 439.168 33.1672C439.364 33.1672 439.524 33.4387 439.524 33.7663Z" fill="black"/>
<path d="M434.433 32.1377C434.433 32.1377 435.49 31.5013 436.482 32.0629" stroke="black" stroke-linecap="round" stroke-linejoin="round"/>
<path d="M438.681 32.3532C438.681 32.3532 440.31 31.5015 440.525 32.7089" stroke="black" stroke-linecap="round" stroke-linejoin="round"/>
<path d="M441.975 51.6817C441.975 51.6817 442.733 52.9173 443.351 54.2277C443.969 55.5381 448.788 60.836 448.788 60.836C448.788 60.836 449.546 58.0186 450.023 56.2308C450.5 54.443 451.053 50.9984 451.053 50.9984C451.053 50.9984 450.641 49.2762 450.781 48.7239C450.922 48.1717 450.922 46.7957 451.333 46.6647C451.745 46.5243 455.254 48.0406 455.395 48.518C455.535 48.9954 455.601 49.9595 455.329 50.4462C455.058 50.9236 453.748 52.7862 453.748 52.7862C453.748 52.7862 453.813 63.0357 453.476 64.6176C453.139 66.1994 452.166 67.5754 451.549 67.7158C450.931 67.8562 441.648 65.3102 440.815 65.0294C439.991 64.758 441.985 51.6817 441.985 51.6817H441.975Z" fill="white" stroke="black" stroke-linecap="round" stroke-linejoin="round"/>
<path d="M451.539 67.716C452.157 67.5756 453.121 66.1997 453.467 64.6178C453.579 64.0936 453.645 62.6428 453.692 60.9205C451.221 60.7427 449.873 60.0687 449.153 59.4884C448.947 60.2653 448.797 60.8269 448.797 60.8269C448.797 60.8269 443.987 55.529 443.36 54.2186C442.743 52.9082 441.985 51.6726 441.985 51.6726C441.985 51.6726 439.991 64.7395 440.815 65.0203C441.638 65.2917 450.922 67.8377 451.539 67.7067V67.716Z" fill="white" stroke="black" stroke-linecap="round" stroke-linejoin="round"/>
<path d="M443.417 119.852C443.417 119.852 444.212 122.314 444.792 123.119C445.372 123.924 447.618 125.515 447.478 126.161C447.338 126.816 446.973 127.172 445.307 127.322C443.641 127.462 442.771 127.032 441.61 126.311C440.45 125.59 439.439 124.429 438.204 123.915C436.969 123.409 435.883 123.409 436.099 121.809C436.314 120.208 437.474 118.617 437.474 118.617L443.417 119.852Z" fill="white" stroke="black" stroke-linecap="round" stroke-linejoin="round"/>
<path d="M438.204 123.906C439.439 124.411 440.45 125.572 441.61 126.302C442.771 127.023 443.641 127.463 445.307 127.313C446.973 127.163 447.338 126.807 447.478 126.152C447.571 125.75 446.748 124.982 445.962 124.271C444.558 124.402 443.342 125.928 443.342 125.928C442.181 125.347 440.515 124.402 439.355 123.241C438.195 122.08 436.089 121.79 436.089 121.79C435.874 123.382 436.959 123.382 438.195 123.896L438.204 123.906Z" fill="white" stroke="black" stroke-linecap="round" stroke-linejoin="round"/>
<path d="M441.245 119.628C441.245 119.628 442.771 121.509 443.126 122.314C443.482 123.119 444.792 123.11 444.792 123.11L443.416 119.843L441.245 119.628Z" fill="white" stroke="black" stroke-linecap="round" stroke-linejoin="round"/>
<path d="M423.053 119.918V126.517C423.053 128.763 424.214 130.72 425.664 130.869C427.115 131.019 428.64 131.234 428.781 128.183C428.93 125.141 428.06 121.734 428.06 121.369C428.06 121.004 423.063 119.918 423.063 119.918H423.053Z" fill="white" stroke="black" stroke-linecap="round" stroke-linejoin="round"/>
<path d="M428.781 128.192C428.827 127.284 428.781 126.348 428.687 125.459C428.575 126.414 428.416 127.677 428.416 127.677C428.416 127.677 427.62 127.022 426.31 127.172C425.009 127.312 423.849 128.117 423.849 128.117L423.053 123.709V126.526C423.053 128.773 424.214 130.729 425.664 130.879C427.115 131.019 428.64 131.244 428.781 128.192Z" fill="white" stroke="black" stroke-linecap="round" stroke-linejoin="round"/>
<path d="M425.15 121.228C425.15 121.228 425.15 124.785 425.515 125.141C425.88 125.497 426.89 125.721 426.965 124.635C427.04 123.55 426.75 121.444 426.75 121.444L425.159 121.228H425.15Z" fill="white" stroke="black" stroke-linecap="round" stroke-linejoin="round"/>
<path d="M422.838 69.8596C422.838 69.8596 421.528 78.0873 422.043 81.7845C422.557 85.4818 424.654 103.613 424.654 103.613C424.654 103.613 422.988 113.694 422.838 114.92C422.688 116.146 423.203 116.801 423.203 117.091C423.203 117.381 422.483 118.037 422.483 118.757C422.483 119.478 422.698 120.714 422.698 120.714C422.698 120.714 424.073 122.09 425.814 122.09C427.555 122.09 428.21 121.874 428.5 121.369C428.79 120.863 429.66 119.703 429.735 118.907C429.81 118.112 429.445 117.746 429.585 117.091C429.735 116.436 429.875 116.146 430.016 115.06C430.156 113.974 430.306 111.728 430.306 111.728C430.306 111.728 433.057 102.087 433.132 101.001C433.207 99.9153 432.842 84.9015 432.842 84.9015L441.826 96.9387C441.826 96.9387 440.16 99.9808 440.085 102.452C440.01 104.914 439.29 110.792 439.14 111.662C438.99 112.533 438.635 114.199 438.635 114.199C438.635 114.199 437.689 114.564 437.839 115.435C437.989 116.305 438.054 117.026 438.054 117.026L437.259 119.132C437.259 119.132 439.58 119.422 441.245 119.637C442.911 119.853 443.416 119.853 443.416 119.853C443.416 119.853 444.212 118.112 444.362 117.531C444.511 116.951 443.781 116.23 444.072 115.65C444.362 115.069 444.792 114.704 444.792 114.199C444.792 113.694 444.867 111.513 444.867 111.513C444.867 111.513 447.403 103.173 448.638 100.271C449.874 97.3693 450.164 95.2726 449.649 93.2414C449.144 91.2103 439.86 76.7862 439.86 76.5615C439.86 76.3369 440.001 74.0998 440.001 74.0998C440.001 74.0998 430.287 73.014 427.171 72.5086C424.055 72.0031 422.829 69.8596 422.829 69.8596H422.838Z" fill="white" stroke="black" stroke-linecap="round" stroke-linejoin="round"/>
<path d="M432.833 84.9011L436.099 81.7842" stroke="black" stroke-linecap="round" stroke-linejoin="round"/>
<path d="M422.707 68.0342C422.707 68.0342 422.707 71.0575 422.913 71.2822C423.119 71.5068 425.711 73.6222 432.056 74.1558C438.401 74.6893 439.767 74.8391 440.038 74.0809C440.31 73.3227 440.31 71.4413 440.31 71.4413C440.31 71.4413 432.533 70.2338 428.575 69.251C424.616 68.2682 422.707 68.0435 422.707 68.0435V68.0342Z" fill="black" stroke="black" stroke-linecap="round" stroke-linejoin="round"/>
<path d="M431.532 42.9021C431.532 42.9021 429.688 40.7774 429.482 40.637C429.267 40.4966 425.589 31.2206 425.589 31.2206L423.325 21.9446C423.325 21.9446 421.341 13.3051 421.275 12.3878C421.21 11.4705 420.639 8.1383 420.639 8.1383C420.639 8.1383 421.94 4.01045 421.874 3.30843C421.809 2.60642 418.206 3.51436 417.57 3.79516C416.933 4.07597 418.094 8.56887 418.094 8.56887C418.094 8.56887 417.813 20.5312 418.019 23.0866C418.225 25.6419 419.928 33.1394 419.928 33.1394C419.928 33.1394 422.614 45.5324 422.688 45.7477C422.763 45.9629 423.259 50.7086 423.259 50.7086L423.184 62.8862C423.184 62.8862 422.267 68.7644 422.904 69.5413C423.54 70.3182 428.996 71.5912 433.525 72.2277C438.054 72.8642 439.823 73.2854 440.459 72.7238C441.096 72.1622 441.376 70.8798 441.376 69.2512C441.376 67.6225 443.22 56.9986 442.434 53.2452C441.648 49.4917 440.45 47.7975 438.822 46.5901C437.193 45.3826 435.518 44.6993 435.518 44.6993L431.522 42.9115L431.532 42.9021Z" fill="white" stroke="black" stroke-linecap="round" stroke-linejoin="round"/>
<path d="M419.947 1.82007C419.947 1.82007 416.999 2.95265 416.933 3.55171C416.868 4.15076 416.999 5.16167 417.298 5.16167C417.598 5.16167 420.096 4.02908 420.386 3.72955C420.686 3.43003 420.433 2.00727 419.947 1.82007Z" fill="white" stroke="black" stroke-linecap="round" stroke-linejoin="round"/>
<path d="M419.095 2.15723C419.095 2.15723 419.525 3.90759 419.759 4.21647L419.095 2.15723Z" fill="white"/>
<path d="M419.095 2.15723C419.095 2.15723 419.525 3.90759 419.759 4.21647" stroke="black" stroke-linecap="round" stroke-linejoin="round"/>
<path d="M418.253 2.55005C418.253 2.55005 418.449 3.99152 418.861 4.50633L418.253 2.55005Z" fill="white"/>
<path d="M418.253 2.55005C418.253 2.55005 418.449 3.99152 418.861 4.50633" stroke="black" stroke-linecap="round" stroke-linejoin="round"/>
<path d="M417.485 3.02759C417.485 3.02759 417.345 3.95425 417.963 5.04939L417.485 3.02759Z" fill="white"/>
<path d="M417.485 3.02759C417.485 3.02759 417.345 3.95425 417.963 5.04939" stroke="black" stroke-linecap="round" stroke-linejoin="round"/>
<path d="M420.864 7.25835C420.864 7.25835 421.949 4.76853 421.996 4.16948C422.043 3.57042 421.762 2.60632 421.987 1.98855C422.211 1.37077 421.949 0.696836 421.397 1.14613C420.845 1.59542 420.611 3.04625 420.602 3.18665C420.592 3.32706 419.516 4.07587 419.338 5.23654C419.161 6.39721 419.535 6.87458 419.535 6.87458" fill="white"/>
<path d="M420.864 7.25835C420.864 7.25835 421.949 4.76853 421.996 4.16948C422.043 3.57042 421.762 2.60632 421.987 1.98855C422.211 1.37077 421.949 0.696836 421.397 1.14613C420.845 1.59542 420.611 3.04625 420.602 3.18665C420.592 3.32706 419.516 4.07587 419.338 5.23654C419.161 6.39721 419.535 6.87458 419.535 6.87458" stroke="black" stroke-linecap="round" stroke-linejoin="round"/>
<path d="M452.559 45.9067C452.559 45.9067 455.507 47.0393 455.573 47.6384C455.638 48.2374 455.507 49.2483 455.208 49.2483C454.908 49.2483 452.41 48.1157 452.119 47.8162C451.82 47.5167 452.073 46.0939 452.559 45.9067Z" fill="white" stroke="black" stroke-linecap="round" stroke-linejoin="round"/>
<path d="M453.411 46.2344C453.411 46.2344 452.98 47.9847 452.746 48.2936L453.411 46.2344Z" fill="white"/>
<path d="M453.411 46.2344C453.411 46.2344 452.98 47.9847 452.746 48.2936" stroke="black" stroke-linecap="round" stroke-linejoin="round"/>
<path d="M454.253 46.6367C454.253 46.6367 454.057 48.0782 453.645 48.593L454.253 46.6367Z" fill="white"/>
<path d="M454.253 46.6367C454.253 46.6367 454.057 48.0782 453.645 48.593" stroke="black" stroke-linecap="round" stroke-linejoin="round"/>
<path d="M455.02 47.114C455.02 47.114 455.161 48.0407 454.543 49.1358L455.02 47.114Z" fill="white"/>
<path d="M455.02 47.114C455.02 47.114 455.161 48.0407 454.543 49.1358" stroke="black" stroke-linecap="round" stroke-linejoin="round"/>
<path d="M451.633 51.345C451.633 51.345 450.547 48.8552 450.501 48.2561C450.454 47.6571 450.734 46.693 450.51 46.0752C450.285 45.4574 450.547 44.7835 451.099 45.2328C451.652 45.6821 451.886 47.1329 451.895 47.2733C451.904 47.4137 452.98 48.1625 453.158 49.3232C453.336 50.4839 452.962 50.9612 452.962 50.9612" fill="white"/>
<path d="M451.633 51.345C451.633 51.345 450.547 48.8552 450.501 48.2561C450.454 47.6571 450.734 46.693 450.51 46.0752C450.285 45.4574 450.547 44.7835 451.099 45.2328C451.652 45.6821 451.886 47.1329 451.895 47.2733C451.904 47.4137 452.98 48.1625 453.158 49.3232C453.336 50.4839 452.962 50.9612 452.962 50.9612" stroke="black" stroke-linecap="round" stroke-linejoin="round"/>
<path d="M426.778 52.7865C428.977 50.5869 430.905 44.6712 430.212 42.3312C430.072 41.8631 429.95 41.4232 429.838 41.002C429.66 40.8054 429.52 40.665 429.473 40.637C429.258 40.4965 425.58 31.2206 425.58 31.2206L423.315 21.9446C423.315 21.9446 423.1 21.0273 422.82 19.7637C420.939 20.6716 419.114 20.6342 417.935 20.447C417.935 21.6076 417.963 22.553 418.009 23.0865C418.225 25.6325 419.919 33.1394 419.919 33.1394C419.919 33.1394 422.604 45.5323 422.679 45.7476C422.754 45.9629 423.25 50.7085 423.25 50.7085L423.231 54.0314C424.027 54.2186 425.374 54.2186 426.787 52.8052L426.778 52.7865Z" stroke="black" stroke-linecap="round" stroke-linejoin="round"/>
<path d="M564.442 343.901C568.562 343.709 571.656 344.94 573.115 348.436" stroke="black" stroke-miterlimit="10" stroke-linecap="round" stroke-linejoin="round"/>
<path d="M567.604 355.034L560.842 331.231C559.773 327.782 559.05 327.884 556.109 329.203C542.423 335.938 532.716 346.548 525.908 359.979" stroke="black" stroke-miterlimit="10" stroke-linecap="round" stroke-linejoin="round"/>
<path d="M639.825 394.255H471.175V404.398H639.825V394.255Z" stroke="black" stroke-miterlimit="10" stroke-linecap="round" stroke-linejoin="round"/>
<path d="M646.395 404.398H464.605V414.542H646.395V404.398Z" stroke="black" stroke-miterlimit="10" stroke-linecap="round" stroke-linejoin="round"/>
<path d="M639.825 394.255V385.092L633.063 378.702H613.317L597.088 382.624H537.174L517.834 394.255" stroke="black" stroke-miterlimit="10" stroke-linecap="round" stroke-linejoin="round"/>
<path d="M534.293 384.357H493.22L471.175 394.255" stroke="black" stroke-miterlimit="10" stroke-linecap="round" stroke-linejoin="round"/>
<path d="M517.834 384.357L503.82 394.255" stroke="black" stroke-miterlimit="10" stroke-linecap="round" stroke-linejoin="round"/>
<path d="M481.409 389.66H510.326" stroke="black" stroke-miterlimit="10" stroke-linecap="round" stroke-linejoin="round"/>
<path d="M541.299 388.406H545.424" stroke="black" stroke-miterlimit="10" stroke-linecap="round" stroke-linejoin="round"/>
<path d="M574.671 388.44H596.428" stroke="black" stroke-miterlimit="10" stroke-linecap="round" stroke-linejoin="round"/>
<path d="M549.583 388.44H571.34" stroke="black" stroke-miterlimit="10" stroke-linecap="round" stroke-linejoin="round"/>
<path d="M603.478 388.44H606.217" stroke="black" stroke-miterlimit="10" stroke-linecap="round" stroke-linejoin="round"/>
<path d="M611.238 388.44H613.976" stroke="black" stroke-miterlimit="10" stroke-linecap="round" stroke-linejoin="round"/>
<path d="M639.825 385.092L621.432 394.255" stroke="black" stroke-miterlimit="10" stroke-linecap="round" stroke-linejoin="round"/>
<path d="M493.22 384.357L493.22 360.647C493.22 353.546 497.024 352.456 505.392 352.735C514.575 353.155 524.045 357.95 533.692 365.414V384.719" stroke="black" stroke-miterlimit="10" stroke-linecap="round" stroke-linejoin="round"/>
<path d="M561.586 364.4C572.265 347.033 583.828 335.204 596.986 333.361V382.624" stroke="black" stroke-miterlimit="10" stroke-linecap="round" stroke-linejoin="round"/>
<path d="M585.55 382.624C570.593 366.909 553.499 357.457 532.475 359.531L546.756 382.624" stroke="black" stroke-miterlimit="10" stroke-linecap="round" stroke-linejoin="round"/>
<path d="M537.293 367.322L537.174 382.624" stroke="black" stroke-miterlimit="10" stroke-linecap="round" stroke-linejoin="round"/>
<path d="M541.153 373.564V382.624" stroke="black" stroke-miterlimit="10" stroke-linecap="round" stroke-linejoin="round"/>
<path d="M496.803 353.618C507.627 364.058 517.764 374.458 519.187 384.357" stroke="black" stroke-miterlimit="10" stroke-linecap="round" stroke-linejoin="round"/>
<path d="M498.603 355.362V384.357" stroke="black" stroke-miterlimit="10" stroke-linecap="round" stroke-linejoin="round"/>
<path d="M504.885 384.357V361.765" stroke="black" stroke-miterlimit="10" stroke-linecap="round" stroke-linejoin="round"/>
<path d="M511.643 369.347V384.357" stroke="black" stroke-miterlimit="10" stroke-linecap="round" stroke-linejoin="round"/>
<path d="M610.949 346.846L596.986 373.564" stroke="black" stroke-miterlimit="10" stroke-linecap="round" stroke-linejoin="round"/>
<path d="M601.332 365.247L613.317 378.702V359.247C613.317 359.247 613.621 350.858 611.39 347.308C609.158 343.758 596.986 351.923 596.986 351.923" stroke="black" stroke-miterlimit="10" stroke-linecap="round" stroke-linejoin="round"/>
<path d="M629.039 356.995L613.317 376.403" stroke="black" stroke-miterlimit="10" stroke-linecap="round" stroke-linejoin="round"/>
<path d="M619.214 369.124L629.039 378.702V356.995C620.954 356.88 615.718 357.874 613.331 359.979" stroke="black" stroke-miterlimit="10" stroke-linecap="round" stroke-linejoin="round"/>
<path d="M532.475 359.531C530.002 359.795 527.965 361.296 527.965 361.296" stroke="black" stroke-miterlimit="10" stroke-linecap="round" stroke-linejoin="round"/>
<path d="M461 369.86H468.21" stroke="black" stroke-miterlimit="10" stroke-linecap="round" stroke-linejoin="round"/>
<path d="M464.605 366.255V373.464" stroke="black" stroke-miterlimit="10" stroke-linecap="round" stroke-linejoin="round"/>
<g clip-path="url(#clip0_1115_2616)">
<path d="M456.449 415H546.378C546.723 415 547.006 414.723 547.006 414.372V409.346C547.006 409.002 546.729 408.719 546.378 408.719H539.901V400.764C539.901 400.42 539.624 400.137 539.272 400.137H534.965L532.272 370.177H536.45C536.795 370.177 537.078 369.9 537.078 369.549V361.829C537.078 361.484 536.801 361.201 536.45 361.201H525.265L519.633 327.187C520.027 326.805 520.428 326.43 520.81 326.043C520.939 325.913 521.007 325.729 520.982 325.544L519.787 313.585L520.237 313.37C523.49 311.838 527.175 310.097 527.175 304.578C527.175 303.077 526.806 301.65 526.153 300.395C527.564 296.79 528.149 294.649 527.878 294.046C527.81 293.886 527.607 293.702 527.447 293.646C527.151 293.542 526.707 293.517 526.171 293.794L531.304 286.325C531.489 286.196 531.693 285.95 531.754 285.513C531.914 284.332 530.904 281.902 529.949 281.189C529.653 280.967 529.394 280.918 529.178 280.924C524.372 278.636 520.834 277.067 515.929 275.049L514.999 265.741C514.98 265.538 514.863 265.36 514.684 265.261C514.105 264.935 513.538 264.683 513.002 264.461C513.088 263.902 513.181 263.336 513.242 262.77C513.267 262.536 513.162 262.308 512.965 262.179C512.114 261.619 511.215 261.164 510.29 260.764L509.896 256.907L512.651 256.126C512.811 256.082 512.946 255.972 513.027 255.824C513.107 255.676 513.125 255.504 513.076 255.344L510.025 245.255L516.847 246.362C516.884 246.362 516.915 246.368 516.946 246.368C517.223 246.368 517.47 246.19 517.55 245.913C517.636 245.612 517.482 245.286 517.192 245.163L508.485 241.496L516.977 238.543C517.272 238.439 517.445 238.137 517.383 237.836C517.322 237.528 517.051 237.301 516.736 237.331L508.121 237.731C507.998 237.577 507.869 237.424 507.696 237.288L511.381 229.955C511.517 229.684 511.437 229.352 511.19 229.174C510.944 228.995 510.605 229.02 510.383 229.229L503.543 235.842C503.019 235.763 502.489 235.707 501.946 235.67L500.511 225.796C500.468 225.489 500.203 225.261 499.888 225.261C499.574 225.261 499.315 225.489 499.266 225.796L497.83 235.67C497.232 235.713 496.634 235.775 496.061 235.867L489.196 229.229C488.981 229.014 488.636 228.989 488.389 229.174C488.143 229.352 488.063 229.684 488.198 229.955L491.939 237.393C491.822 237.497 491.742 237.614 491.649 237.731L482.843 237.325C482.541 237.294 482.258 237.528 482.196 237.83C482.134 238.137 482.313 238.439 482.609 238.537L491.014 241.459L482.233 245.157C481.943 245.28 481.789 245.599 481.875 245.907C481.956 246.178 482.202 246.362 482.479 246.362C482.51 246.362 482.547 246.362 482.578 246.356L491.797 244.861L489.443 253.093C489.357 253.382 489.498 253.695 489.77 253.825L492.943 255.369L492.167 258.642L490.577 258.679L489.973 256.839C489.683 255.966 489.079 255.246 488.266 254.815L483.385 252.225C481.808 249.106 479.793 245.403 478.307 242.708C475.436 237.516 473.569 234.292 472.33 232.287C473.23 231.794 473.938 230.441 473.735 228.589C473.71 228.343 473.599 227.482 473.291 226.701C472.952 225.833 472.527 225.464 472.12 225.323L472.798 217.657L475.473 213.332H477.482C477.827 213.332 478.11 213.056 478.11 212.705V208.442C478.11 208.097 477.833 207.814 477.482 207.814H474.499V203.932C474.499 203.797 474.444 203.668 474.357 203.563C476.995 200.543 478.93 196.568 479.83 192.225C479.879 191.973 479.774 191.714 479.558 191.573C479.343 191.431 479.065 191.438 478.856 191.585L477.907 192.25C476.822 193.006 475.713 193.782 474.665 194.624C474.672 194.403 474.672 194.181 474.672 193.96C474.672 192.803 474.591 191.585 474.437 190.349C474.407 190.121 474.259 189.924 474.043 189.844C473.827 189.764 473.587 189.801 473.408 189.949C471.991 191.148 470.783 192.348 469.742 193.603C469.507 192.563 469.261 191.604 468.996 190.681C468.934 190.478 468.78 190.318 468.577 190.256C468.374 190.195 468.152 190.238 467.992 190.379C465.625 192.379 461.663 196.353 461.663 200.543C461.663 202.167 462.125 203.723 462.932 205.052C462.76 205.163 462.649 205.353 462.649 205.569V207.808H459.666C459.321 207.808 459.037 208.085 459.037 208.435V212.699C459.037 213.043 459.315 213.326 459.666 213.326H461.675L464.35 217.657L464.923 224.141C463.487 224.228 463.314 225.107 463.314 225.501C463.314 226.43 463.93 227.181 464.664 227.753C464.288 227.783 463.93 227.857 463.635 228.011C462.223 228.755 462.519 229.678 462.71 230.041C462.914 230.429 463.228 230.712 463.585 230.927C462.236 231.665 462.519 232.57 462.71 232.926C463.29 234.028 464.682 234.341 465.835 234.403L466.291 239.528C466.321 239.854 466.593 240.1 466.913 240.1H469.785C470.272 242.493 470.709 244.689 471.097 246.688C472.028 251.438 472.737 255.024 473.544 257.663L471.972 260.284C471.486 261.096 471.344 262.087 471.584 262.997L472.053 264.794C472.225 265.446 472.583 266.03 473.076 266.485L472.749 267.181C472.435 267.845 472.342 268.583 472.472 269.303L472.965 272.028C473.193 273.289 474.086 274.329 475.3 274.747L475.923 274.963L476.385 277.411C476.607 278.58 477.395 279.558 478.498 280.02L478.726 280.118L479.146 282.019C479.33 282.862 479.823 283.6 480.501 284.098L478.788 288.682C478.745 288.792 478.739 288.909 478.763 289.026L480.871 299.14C480.507 299.558 480.15 299.983 479.786 300.395C479.682 300.512 479.626 300.666 479.632 300.826L480.082 318.217C479.743 318.562 479.41 318.912 479.059 319.251C478.936 319.368 478.868 319.528 478.868 319.7L478.745 339.848C478.745 339.903 478.751 339.964 478.77 340.02L479.503 342.641L476.163 361.189H466.328C465.983 361.189 465.699 361.466 465.699 361.816V369.537C465.699 369.881 465.976 370.164 466.328 370.164H470.518L467.825 400.124H463.505C463.16 400.124 462.877 400.401 462.877 400.752V408.706H456.449C456.104 408.706 455.821 408.983 455.821 409.334V414.36C455.821 414.705 456.098 414.981 456.443 414.981L456.449 415Z" fill="white"/>
<path d="M465.213 203.608C465.274 203.608 465.342 203.602 465.404 203.577C465.73 203.473 465.915 203.122 465.811 202.79C465.681 202.384 465.613 201.959 465.613 201.498C465.613 200.046 466.291 198.508 466.926 197.185C467.074 196.872 466.944 196.503 466.63 196.355C466.322 196.207 465.946 196.336 465.798 196.65C465.108 198.096 464.362 199.788 464.362 201.504C464.362 202.082 464.449 202.648 464.615 203.171C464.701 203.436 464.948 203.608 465.213 203.608Z" fill="black"/>
<path d="M467.622 201.873C467.665 201.886 467.715 201.892 467.758 201.892C468.048 201.892 468.3 201.695 468.368 201.406C468.411 201.215 468.442 201.024 468.479 200.827C468.565 200.323 468.639 199.886 468.916 199.511C469.126 199.234 469.064 198.84 468.793 198.637C468.516 198.434 468.128 198.49 467.918 198.76C467.456 199.376 467.345 200.034 467.246 200.618C467.216 200.79 467.191 200.957 467.154 201.129C467.08 201.467 467.29 201.799 467.628 201.873H467.622Z" fill="black"/>
<path d="M456.622 415.168H546.551C546.896 415.168 547.179 414.891 547.179 414.54V409.514C547.179 409.17 546.902 408.887 546.551 408.887H540.074V400.932C540.074 400.588 539.797 400.305 539.445 400.305H535.138L532.445 370.345H536.623C536.968 370.345 537.252 370.068 537.252 369.717V361.997C537.252 361.652 536.974 361.369 536.623 361.369H525.438L519.806 327.355C520.2 326.973 520.601 326.598 520.983 326.211C521.112 326.081 521.18 325.897 521.155 325.712L519.96 313.753L520.41 313.538C523.663 312.006 527.349 310.265 527.349 304.746C527.349 303.245 526.979 301.818 526.326 300.563C527.737 296.958 528.322 294.817 528.051 294.214C527.983 294.054 527.78 293.87 527.62 293.814C527.324 293.71 526.88 293.685 526.344 293.962L531.477 286.493C531.662 286.364 531.866 286.118 531.927 285.681C532.088 284.5 531.077 282.07 530.122 281.357C529.826 281.135 529.567 281.086 529.351 281.092C524.545 278.804 521.007 277.235 516.102 275.217L515.172 265.909C515.153 265.706 515.036 265.528 514.857 265.429C514.278 265.103 513.711 264.851 513.175 264.629C513.261 264.07 513.354 263.504 513.415 262.938C513.44 262.704 513.335 262.476 513.138 262.347C512.288 261.787 511.388 261.332 510.464 260.932L510.069 257.075L512.824 256.294C512.984 256.25 513.12 256.14 513.2 255.992C513.28 255.844 513.298 255.672 513.249 255.512L510.199 245.423L517.02 246.53C517.057 246.53 517.088 246.537 517.119 246.537C517.396 246.537 517.643 246.358 517.723 246.081C517.809 245.78 517.655 245.454 517.365 245.331L508.658 241.664L517.15 238.711C517.446 238.607 517.618 238.305 517.557 238.004C517.495 237.696 517.224 237.469 516.909 237.499L508.294 237.899C508.171 237.745 508.042 237.592 507.869 237.456L511.554 230.123C511.69 229.852 511.61 229.52 511.363 229.336C511.117 229.157 510.778 229.182 510.556 229.391L503.716 236.004C503.192 235.924 502.662 235.869 502.12 235.832L500.684 225.958C500.641 225.651 500.376 225.423 500.061 225.423C499.747 225.423 499.488 225.651 499.439 225.958L498.003 235.832C497.405 235.875 496.808 235.937 496.234 236.029L489.37 229.391C489.154 229.176 488.809 229.151 488.562 229.336C488.316 229.514 488.236 229.846 488.371 230.117L492.112 237.555C491.995 237.659 491.915 237.776 491.822 237.893L483.016 237.487C482.714 237.456 482.431 237.69 482.369 237.991C482.307 238.299 482.486 238.6 482.782 238.699L491.187 241.621L482.406 245.318C482.116 245.441 481.962 245.761 482.049 246.069C482.129 246.34 482.375 246.524 482.653 246.524C482.683 246.524 482.72 246.524 482.751 246.518L491.97 245.023L489.616 253.254C489.53 253.544 489.672 253.857 489.943 253.987L493.116 255.531L492.34 258.804L490.75 258.84L490.146 257.001C489.856 256.127 489.252 255.408 488.439 254.977L483.558 252.387C481.981 249.268 479.966 245.564 478.481 242.87C475.609 237.678 473.742 234.454 472.503 232.449C473.403 231.956 474.111 230.603 473.908 228.751C473.883 228.505 473.772 227.644 473.464 226.863C473.132 225.995 472.7 225.626 472.293 225.484L472.971 217.819L475.646 213.488H477.655C478 213.488 478.283 213.211 478.283 212.861V208.604C478.283 208.259 478.006 207.976 477.655 207.976H474.672V204.094C474.672 203.959 474.617 203.83 474.53 203.725C477.168 200.704 479.103 196.73 480.003 192.387C480.052 192.135 479.947 191.876 479.732 191.735C479.516 191.593 479.239 191.599 479.029 191.747L478.08 192.412C476.995 193.168 475.886 193.943 474.839 194.786C474.839 194.565 474.845 194.343 474.845 194.122C474.845 192.965 474.765 191.747 474.611 190.511C474.58 190.283 474.432 190.092 474.216 190.006C474 189.926 473.76 189.963 473.581 190.111C472.164 191.31 470.956 192.51 469.915 193.765C469.681 192.725 469.44 191.766 469.169 190.843C469.107 190.64 468.953 190.48 468.75 190.418C468.547 190.357 468.325 190.4 468.165 190.541C465.798 192.541 461.836 196.515 461.836 200.704C461.836 202.329 462.298 203.885 463.105 205.214C462.933 205.325 462.822 205.515 462.822 205.731V207.976H459.839C459.494 207.976 459.211 208.253 459.211 208.604V212.867C459.211 213.211 459.488 213.494 459.839 213.494H461.848L464.523 217.819L465.096 224.303C463.66 224.389 463.487 225.269 463.487 225.663C463.487 226.592 464.104 227.342 464.837 227.915C464.461 227.945 464.104 228.019 463.808 228.173C462.397 228.917 462.692 229.84 462.883 230.203C463.087 230.591 463.401 230.874 463.758 231.089C462.409 231.827 462.692 232.732 462.883 233.088C463.463 234.19 464.855 234.503 466.008 234.565L466.464 239.689C466.495 240.015 466.766 240.262 467.086 240.262H469.958C470.445 242.655 470.882 244.851 471.27 246.85C472.201 251.6 472.91 255.192 473.717 257.825L472.146 260.446C471.659 261.258 471.517 262.249 471.757 263.159L472.226 264.955C472.398 265.608 472.756 266.192 473.249 266.647L472.922 267.342C472.608 268.007 472.515 268.745 472.645 269.465L473.138 272.19C473.366 273.451 474.259 274.491 475.473 274.909L476.096 275.125L476.558 277.573C476.78 278.742 477.569 279.72 478.672 280.182L478.9 280.274L479.319 282.175C479.504 283.018 479.996 283.756 480.674 284.254L478.961 288.837C478.918 288.948 478.912 289.065 478.937 289.182L481.044 299.296C480.681 299.714 480.323 300.139 479.96 300.551C479.855 300.668 479.799 300.821 479.805 300.981L480.255 318.373C479.916 318.717 479.584 319.068 479.232 319.406C479.109 319.523 479.041 319.683 479.041 319.856L478.918 340.003C478.918 340.059 478.924 340.12 478.943 340.176L479.676 342.796L476.336 361.344H466.501C466.156 361.344 465.872 361.621 465.872 361.972V369.693C465.872 370.037 466.15 370.32 466.501 370.32H470.691L467.998 400.28H463.678C463.333 400.28 463.05 400.557 463.05 400.908V408.862H456.629C456.283 408.887 456 409.17 456 409.514V414.54C456 414.885 456.277 415.168 456.622 415.168ZM508.701 239.142L512.682 238.957L508.701 240.341V239.142ZM533.887 400.311H520.564V398.847H533.758L533.887 400.311ZM528.587 376.897V382.267H520.564V376.897H528.587ZM520.564 375.648V370.345H523.805V375.648H520.564ZM525.056 375.648V370.345H531.194L531.668 375.648H525.056ZM531.786 376.897L532.266 382.267H529.838V376.897H531.786ZM524.169 383.522V390.302H520.564V383.522H524.169ZM529.24 391.544V397.598H520.564V391.544H529.24ZM533.647 397.598H530.491V391.544H533.104L533.647 397.598ZM532.987 390.296H525.42V383.516H532.377L532.987 390.296ZM524.181 361.375H520.712L516.466 330.425C517.23 329.766 517.988 329.102 518.721 328.419L524.181 361.375ZM511.776 360.336C511.832 360.662 511.875 361.012 511.899 361.375H499.938C500.018 361.006 500.098 360.662 500.185 360.336H511.782H511.776ZM500.561 359.087C501.183 357.419 502.126 356.546 504.264 356.546H504.554C505.158 356.546 506.55 356.54 507.992 356.546C509.706 356.558 510.858 357.419 511.462 359.087H500.567H500.561ZM509.336 355.475L508.997 336.029C509.816 335.488 510.63 334.934 511.431 334.368L514.241 361.387H513.144C512.922 358.096 511.597 356.048 509.33 355.482L509.336 355.475ZM512.602 333.513C513.532 332.824 514.438 332.11 515.332 331.378L519.448 361.381H515.504L512.602 333.513ZM519.88 312.418L519.837 312.442L519.584 309.92C522.037 309.317 524.083 307.312 524.804 304.716C525.235 304.094 525.574 303.393 525.808 302.704C525.981 303.362 526.098 304.045 526.098 304.759C526.098 309.49 523.078 310.911 519.88 312.418ZM521.821 299.29C520.989 298.484 519.997 297.745 518.715 296.946C518.672 296.386 518.629 295.832 518.598 295.309C519.781 296.017 520.823 296.835 521.698 297.752C521.821 297.881 521.987 297.948 522.154 297.948C522.308 297.948 522.462 297.893 522.585 297.776C522.838 297.536 522.844 297.143 522.61 296.89C521.488 295.709 520.108 294.688 518.53 293.833C518.506 293.279 518.493 292.775 518.499 292.369C519.362 292.75 521.279 294.171 522.086 294.916C524.039 296.706 525.025 298.471 525.025 300.169C525.025 300.508 524.995 300.846 524.933 301.191C524.693 302.482 523.978 304.26 522.751 305.042C522.357 305.294 521.981 305.362 521.624 305.245L521.279 305.134C520.447 304.876 520.003 304.716 519.726 304.137C519.448 303.565 519.116 301.129 518.869 298.527C519.695 299.08 520.379 299.622 520.964 300.188C521.088 300.305 521.242 300.366 521.402 300.366C521.562 300.366 521.728 300.305 521.852 300.175C522.092 299.929 522.086 299.53 521.833 299.29H521.821ZM520.897 306.327L521.229 306.432C521.47 306.512 521.716 306.549 521.963 306.549C522.172 306.549 522.382 306.506 522.591 306.45C521.802 307.527 520.699 308.315 519.461 308.665L519.14 305.442C519.658 305.94 520.305 306.143 520.903 306.327H520.897ZM526.757 295.162C526.757 295.162 526.806 295.125 526.843 295.106C526.72 295.697 526.4 296.755 525.9 298.158C525.765 297.77 525.592 297.376 525.377 296.989C525.759 296.238 526.258 295.518 526.757 295.162ZM529.512 282.464C530.054 283.024 530.824 284.937 530.695 285.509C530.633 285.552 530.572 285.608 530.528 285.675L524.027 295.131C523.688 294.749 523.331 294.374 522.918 293.999C522.905 293.987 522.523 293.642 521.963 293.187L529.512 282.47V282.464ZM524.489 280.206L523.614 281.56C523.429 281.849 523.509 282.236 523.799 282.421C523.904 282.489 524.021 282.519 524.138 282.519C524.341 282.519 524.545 282.421 524.662 282.236L525.635 280.735C525.913 280.864 526.202 281 526.492 281.135L523.38 285.405C523.177 285.681 523.238 286.075 523.516 286.278C523.626 286.358 523.756 286.395 523.885 286.395C524.076 286.395 524.267 286.303 524.391 286.137L527.644 281.67C527.866 281.775 528.088 281.88 528.316 281.99L520.964 292.424C519.824 291.6 518.475 290.818 517.778 291.101C517.748 291.114 517.729 291.144 517.704 291.163L516.25 276.632C519.27 277.881 521.809 278.976 524.489 280.2V280.206ZM511.887 255.272L509.958 255.82L508.898 245.398L511.887 255.272ZM495.07 253.384C494.324 252.861 493.88 251.999 493.88 251.083V242.888C494.022 242.636 494.41 242.384 494.984 242.162C497.824 241.393 502.36 241.4 505.201 242.162C505.768 242.384 506.15 242.63 506.292 242.882V251.077C506.292 251.987 505.848 252.848 505.096 253.377L502.181 255.438C500.924 256.324 499.242 256.324 497.985 255.438L495.07 253.377V253.384ZM496.278 255.771V258.724L493.659 258.785L494.645 254.614L496.278 255.771ZM497.529 256.626C498.311 257.106 499.192 257.364 500.08 257.364C501.072 257.364 502.058 257.063 502.902 256.466L503.247 256.22V260.095C503.247 260.36 503.414 260.594 503.66 260.686L504.714 261.061C504.085 262.612 503.42 264.162 502.724 265.7L497.627 258.945C497.596 258.902 497.559 258.883 497.522 258.853V256.62L497.529 256.626ZM504.504 259.659V255.334L505.823 254.405C506.902 253.642 507.543 252.399 507.543 251.083V244.992L507.604 245.005L509.169 260.397C508.831 260.262 508.485 260.132 508.146 259.997C507.481 259.745 506.815 259.486 506.162 259.21C506.008 259.142 505.829 259.142 505.675 259.21C505.521 259.277 505.398 259.4 505.336 259.56C505.293 259.677 505.244 259.788 505.195 259.905L504.511 259.659H504.504ZM512.072 244.463L507.536 243.731V242.759C507.536 242.759 507.524 242.716 507.524 242.692C507.58 242.673 507.629 242.642 507.684 242.618L512.066 244.463H512.072ZM508.8 232.867L506.803 236.841C506.335 236.632 505.817 236.453 505.238 236.312L508.8 232.867ZM500.086 230.406L500.869 235.783C500.604 235.777 500.339 235.764 500.08 235.764H500.031C499.79 235.764 499.544 235.777 499.303 235.783L500.086 230.406ZM500.031 237.013H500.08C503.74 237.013 506.834 237.752 507.432 238.779C507.432 238.779 507.45 238.816 507.45 238.914V241.129C507.45 241.258 507.382 241.375 507.271 241.449C507.216 241.486 507.099 241.541 506.957 241.473C505.349 240.723 502.711 240.354 500.074 240.354C497.436 240.354 494.805 240.729 493.196 241.473C493.061 241.535 492.944 241.486 492.882 241.449C492.771 241.381 492.703 241.258 492.703 241.129V238.914C492.703 238.81 492.716 238.779 492.716 238.779C493.314 237.764 496.382 237.019 500.018 237.013H500.031ZM491.169 232.867L494.774 236.355C494.195 236.509 493.665 236.693 493.203 236.915L491.169 232.867ZM487.28 238.957L491.465 239.154V240.415L487.28 238.957ZM487.73 244.463L492.303 242.538C492.414 242.599 492.525 242.648 492.642 242.679C492.642 242.704 492.629 242.728 492.629 242.753V243.67L487.737 244.463H487.73ZM490.99 253.113L492.629 247.379V251.083C492.629 252.049 492.981 252.965 493.585 253.685L493.443 254.3L490.996 253.113H490.99ZM472.324 227.342C472.521 227.847 472.645 228.487 472.688 228.917C472.873 230.578 472.121 231.409 471.911 231.464C471.856 231.427 471.733 231.243 471.69 231.009C471.603 230.541 471.517 230.062 471.468 229.582C471.301 228.05 471.665 226.813 471.893 226.69C471.942 226.69 472.127 226.838 472.324 227.342ZM463.13 200.741C463.13 197.45 466.082 194.171 468.276 192.184C468.534 193.174 468.781 194.226 469.015 195.371C469.064 195.611 469.249 195.801 469.496 195.857C469.73 195.906 469.989 195.814 470.137 195.617C471.086 194.331 472.201 193.107 473.538 191.895C473.606 192.67 473.637 193.433 473.637 194.165C473.637 194.854 473.606 195.543 473.551 196.207C473.526 196.466 473.668 196.706 473.902 196.823C474.13 196.939 474.413 196.896 474.604 196.718C475.769 195.641 477.112 194.682 478.444 193.753C477.384 197.622 475.473 201.086 472.965 203.67L464.48 204.98C463.629 203.774 463.142 202.285 463.142 200.735L463.13 200.741ZM473.452 204.857V208.007H464.116V206.297L473.452 204.851V204.857ZM460.505 212.27V209.262H477.057V212.27H460.505ZM463.358 213.519H474.204L472.041 217.019H465.521L463.358 213.519ZM464.775 225.663C464.775 225.663 464.892 225.564 465.342 225.564C466.556 225.564 468.085 227.355 468.14 227.804C468.14 227.89 467.961 228.025 467.665 228.031H467.647C466.223 227.515 464.781 226.549 464.775 225.663ZM464.436 229.311C464.652 229.194 464.929 229.151 465.225 229.151C466.279 229.151 467.622 229.748 467.82 230.031C467.863 230.117 467.758 230.301 467.548 230.418H467.536C466.094 230.603 464.436 230.406 464.017 229.631C464.017 229.631 464.067 229.508 464.436 229.311ZM467.659 231.366C467.659 231.366 467.659 231.366 467.653 231.366L467.61 231.04L467.659 231.372V231.366ZM464.017 232.522C464.017 232.522 464.067 232.399 464.436 232.202C464.652 232.086 464.929 232.042 465.225 232.042C466.279 232.042 467.622 232.639 467.82 232.922C467.863 233.008 467.758 233.193 467.555 233.304C467.555 233.304 467.542 233.304 467.536 233.304C466.1 233.494 464.436 233.291 464.023 232.516L464.017 232.522ZM470.223 229.717C470.278 230.228 470.365 230.732 470.457 231.23C470.469 231.31 470.506 231.39 470.531 231.47L469.859 239.05H467.696L467.302 234.583C467.468 234.571 467.604 234.552 467.69 234.54H467.715C467.826 234.522 467.967 234.503 468.202 234.38C468.978 233.907 469.286 233.027 468.916 232.338C468.775 232.067 468.454 231.803 468.041 231.563C468.091 231.544 468.134 231.532 468.202 231.495C468.978 231.021 469.286 230.142 468.916 229.453C468.843 229.317 468.725 229.182 468.578 229.053C469.064 228.788 469.391 228.351 469.391 227.816C469.391 226.881 467.937 225.195 466.415 224.574L465.854 218.274H471.708L471.042 225.792C470.771 226.044 470.519 226.463 470.352 227.158C470.174 227.908 470.13 228.843 470.223 229.723V229.717ZM472.546 246.653C472.115 244.463 471.64 242.052 471.092 239.388L471.634 233.31C475.868 240.268 484.717 256.755 484.797 258.188C484.797 260.612 482.018 262.562 479.719 262.562C475.831 262.562 475.023 259.265 472.546 246.653ZM473.008 262.882C472.854 262.292 472.947 261.652 473.261 261.129L474.296 259.406C475.492 262.489 477.008 263.811 479.713 263.811C482.64 263.811 486.042 261.357 486.042 258.182C486.042 257.665 485.432 256.207 484.526 254.325L487.872 256.103C488.396 256.38 488.79 256.847 488.975 257.407L489.912 260.268C490.171 261.043 489.986 261.904 489.437 262.513L485.019 267.404C484.606 267.859 484.014 268.136 483.398 268.161L478.542 268.339C478.037 268.351 477.544 268.21 477.137 267.921L474.358 265.964C473.914 265.651 473.6 265.195 473.464 264.672L472.996 262.876L473.008 262.882ZM475.923 273.765C475.141 273.494 474.561 272.824 474.413 272.006L473.92 269.28C473.834 268.813 473.896 268.339 474.099 267.908L474.309 267.453L476.428 268.948C477.026 269.366 477.747 269.594 478.474 269.594C478.518 269.594 478.561 269.594 478.604 269.594L483.46 269.416C484.415 269.379 485.321 268.954 485.962 268.247L489.037 264.839L489.154 265.811C489.265 266.776 489.006 267.724 488.414 268.493C486.079 271.52 484.951 272.793 484.717 272.947L480.754 274.756C480.218 275.002 479.614 275.026 479.06 274.836L475.929 273.765H475.923ZM480.237 289.139L481.839 284.863L482.831 285.269C483.256 285.442 483.712 285.528 484.162 285.528C484.908 285.528 485.654 285.294 486.27 284.845L492.549 280.231C492.827 280.028 492.888 279.634 492.685 279.357C492.482 279.08 492.087 279.019 491.81 279.222L485.53 283.836C484.896 284.303 484.039 284.408 483.306 284.113L481.956 283.565C481.26 283.282 480.748 282.673 480.582 281.941L480.354 280.901L482.332 281.726C482.77 281.91 483.238 282.003 483.7 282.003C484.359 282.003 485.013 281.818 485.586 281.461L490.547 278.348C490.996 278.065 491.385 277.678 491.668 277.229C491.699 277.179 491.717 277.13 491.736 277.081L493.843 270.123C493.942 269.791 493.757 269.446 493.424 269.342C493.098 269.243 492.747 269.428 492.642 269.76L490.559 276.632C490.38 276.896 490.152 277.124 489.875 277.29L484.908 280.403C484.279 280.803 483.491 280.864 482.807 280.575L479.189 279.062C478.474 278.767 477.969 278.133 477.821 277.376L477.488 275.623L478.635 276.017C479.011 276.146 479.399 276.207 479.787 276.207C480.292 276.207 480.791 276.103 481.26 275.888L485.222 274.079C485.444 273.974 485.912 273.765 489.388 269.256C490.183 268.234 490.534 266.955 490.38 265.663L490.134 263.602L490.362 263.35C491.157 262.464 491.434 261.24 491.138 260.095L496.814 259.954L502.12 266.986C501.503 268.302 500.869 269.613 500.203 270.917L497.091 263.934C496.949 263.621 496.573 263.479 496.265 263.614C495.951 263.756 495.809 264.125 495.945 264.439L499.47 272.344C494.743 281.375 488.877 290.105 482.098 298.127L480.218 289.133L480.237 289.139ZM480.335 320.157C480.662 319.843 480.97 319.511 481.284 319.191C481.346 319.148 481.395 319.099 481.439 319.031C494.528 305.78 502.231 287.902 507.493 273.648C507.617 273.322 507.444 272.965 507.124 272.848C506.803 272.732 506.439 272.892 506.322 273.218C501.232 286.998 493.862 304.199 481.519 317.173L481.106 301.227C481.451 300.834 481.771 300.428 482.116 300.034C482.203 299.972 482.27 299.886 482.32 299.794C489.493 291.434 495.68 282.304 500.628 272.836C500.721 272.75 500.77 272.639 500.801 272.516C501.694 270.794 502.545 269.059 503.358 267.312C503.426 267.226 503.482 267.127 503.5 267.016C504.431 264.992 505.324 262.962 506.138 260.926C506.138 260.92 506.15 260.914 506.156 260.907C506.156 260.901 506.156 260.889 506.156 260.883C506.193 260.791 506.236 260.698 506.273 260.606C506.748 260.797 507.228 260.981 507.709 261.166C509.287 261.775 510.79 262.347 512.152 263.19C511.986 264.58 511.739 265.964 511.419 267.299C511.339 267.638 511.548 267.97 511.881 268.056C512.22 268.136 512.553 267.927 512.633 267.595C512.768 267.041 512.873 266.469 512.984 265.897C513.311 266.038 513.643 266.192 513.982 266.37L518.308 309.52L518.697 313.408L519.911 325.546C513.748 331.772 506.267 336.915 498.206 340.52C500.339 332.953 502.181 325.294 503.74 317.573C503.753 317.53 503.765 317.487 503.765 317.438C505.959 306.549 507.604 295.549 508.627 284.519C508.658 284.174 508.405 283.873 508.06 283.836C507.721 283.805 507.413 284.057 507.376 284.402C506.353 295.371 504.72 306.315 502.539 317.143C497.535 324.1 491.403 331.169 484.612 337.869C491.015 327.964 495.489 316.349 497.257 308.222C497.331 307.884 497.116 307.552 496.777 307.478C496.438 307.404 496.105 307.619 496.031 307.958C494.028 317.155 488.513 330.886 480.631 341.4L480.225 339.948L480.342 320.145L480.335 320.157ZM504.745 346.014C502.569 344.728 500.369 343.393 498.41 341.812C500.511 340.883 502.576 339.849 504.585 338.724L504.745 346.014ZM480.939 343.116C488.87 335.801 496.08 327.878 501.953 320.034C500.431 327.244 498.656 334.405 496.629 341.474C496.629 341.486 496.629 341.504 496.629 341.517C496.629 341.529 496.617 341.535 496.617 341.547C496.617 341.566 496.623 341.59 496.623 341.609C496.623 341.677 496.623 341.744 496.641 341.806C496.647 341.837 496.654 341.861 496.666 341.886C496.697 341.96 496.74 342.027 496.801 342.083C496.808 342.089 496.814 342.101 496.82 342.113C496.82 342.113 496.832 342.12 496.832 342.126H496.845C499.106 344.094 501.701 345.669 504.252 347.176C496.943 352.283 488.1 356.478 477.963 359.677L480.946 343.116H480.939ZM477.71 361.074C488.605 357.696 498.046 353.181 505.768 347.638C505.78 347.626 505.786 347.613 505.799 347.601C505.854 347.558 505.897 347.503 505.934 347.441C505.946 347.423 505.965 347.404 505.971 347.379C506.008 347.299 506.033 347.207 506.033 347.109L505.829 337.992C506.476 337.61 507.13 337.235 507.771 336.829L508.091 355.297C508.091 355.297 508.036 355.291 508.005 355.291C506.563 355.285 505.164 355.291 504.554 355.291H504.27C500.117 355.291 499.322 358.182 498.656 361.375H477.661L477.716 361.074H477.71ZM467.172 369.096V362.624H536.007V369.096H467.172ZM508.615 397.598V376.952C508.615 374.485 511.012 372.479 513.964 372.479C516.916 372.479 519.313 374.485 519.313 376.952V397.598H508.615ZM519.313 398.847V400.311H508.615V398.847H519.313ZM513.964 371.231C511.758 371.231 509.816 372.184 508.615 373.624V370.345H519.313V373.624C518.111 372.178 516.17 371.231 513.964 371.231ZM495.809 397.598V376.952C495.809 374.485 498.398 372.479 501.583 372.479C504.769 372.479 507.364 374.485 507.364 376.952V397.598H495.809ZM507.364 398.847V400.311H495.809V398.847H507.364ZM501.59 371.231C499.199 371.231 497.085 372.209 495.815 373.704V370.351H507.37V373.704C506.101 372.215 503.987 371.231 501.596 371.231H501.59ZM483.867 397.598V376.952C483.867 374.485 486.264 372.479 489.215 372.479C492.167 372.479 494.564 374.485 494.564 376.952V397.598H483.873H483.867ZM494.558 398.847V400.311H483.86V398.847H494.558ZM489.209 371.231C487.003 371.231 485.062 372.184 483.86 373.624V370.345H494.558V373.624C493.357 372.178 491.415 371.231 489.209 371.231ZM479.152 390.296V383.516H482.616V390.296H479.152ZM482.616 391.544V397.598H474.235V391.544H482.616ZM474.863 382.273V376.903H482.616V382.273H474.863ZM471.517 375.648L471.992 370.345H478.253V375.648H471.517ZM473.612 376.897V382.267H470.919L471.4 376.897H473.606H473.612ZM479.504 375.648V370.345H482.616V375.648H479.504ZM470.808 383.522H477.901V390.302H470.198L470.808 383.522ZM470.087 391.544H472.977V397.598H469.539L470.081 391.544H470.087ZM469.428 398.847H482.616V400.311H469.299L469.428 398.847ZM464.35 401.56H538.823V403.651H533.795C533.449 403.651 533.166 403.928 533.166 404.279C533.166 404.63 533.443 404.906 533.795 404.906H538.823V406.297H536.648C536.303 406.297 536.019 406.574 536.019 406.924C536.019 407.275 536.296 407.552 536.648 407.552H538.823V408.899H464.35V401.572V401.56ZM457.251 410.142H545.928V413.919H457.251V410.142Z" fill="black"/>
<path d="M498.613 247.084C498.675 247.084 498.73 247.078 498.792 247.059C499.125 246.961 499.31 246.61 499.211 246.284L498.872 245.158C498.798 244.906 498.57 244.728 498.305 244.715L495.711 244.586C495.384 244.556 495.07 244.839 495.057 245.177C495.039 245.521 495.304 245.817 495.649 245.829L497.806 245.934L498.015 246.635C498.096 246.906 498.348 247.078 498.613 247.078V247.084Z" fill="black"/>
<path d="M501.583 247.06C501.645 247.078 501.707 247.084 501.762 247.084C502.033 247.084 502.28 246.912 502.36 246.641L502.576 245.94L504.732 245.835C505.078 245.817 505.343 245.528 505.324 245.183C505.306 244.839 504.997 244.556 504.671 244.593L502.076 244.722C501.811 244.734 501.583 244.913 501.51 245.165L501.171 246.291C501.072 246.623 501.257 246.967 501.59 247.066L501.583 247.06Z" fill="black"/>
<path d="M501.651 251.458L500.129 251.323L498.73 251.458C498.385 251.489 498.133 251.796 498.169 252.141C498.206 252.485 498.515 252.744 498.854 252.701L499.143 252.67C499.063 252.775 499.008 252.904 499.008 253.045C499.008 253.39 499.285 253.673 499.636 253.673H500.764C501.109 253.673 501.392 253.396 501.392 253.045C501.392 252.904 501.337 252.781 501.257 252.676L501.546 252.701C501.546 252.701 501.59 252.701 501.608 252.701C501.929 252.701 502.2 252.461 502.231 252.135C502.261 251.79 502.009 251.483 501.664 251.452L501.651 251.458Z" fill="black"/>
<path d="M499.001 250.068C499.001 250.412 499.279 250.695 499.63 250.695H500.758C501.103 250.695 501.386 250.418 501.386 250.068C501.386 249.717 501.109 249.44 500.758 249.44H499.63C499.285 249.44 499.001 249.717 499.001 250.068Z" fill="black"/>
<path d="M480.717 351.551C480.379 351.495 480.052 351.729 480.003 352.067L479.14 357.432C479.084 357.77 479.319 358.096 479.658 358.152C479.688 358.152 479.725 358.158 479.756 358.158C480.058 358.158 480.323 357.936 480.372 357.635L481.235 352.27C481.291 351.926 481.056 351.606 480.717 351.551Z" fill="black"/>
<path d="M481.093 348.518C480.785 348.505 480.453 348.757 480.428 349.102L480.366 350.025C480.342 350.369 480.607 350.665 480.952 350.689C480.964 350.689 480.982 350.689 480.995 350.689C481.321 350.689 481.599 350.437 481.617 350.105L481.679 349.182C481.703 348.837 481.439 348.542 481.093 348.518Z" fill="black"/>
</g>
<defs>
<clipPath id="clip0_1115_2616">
<rect width="95" height="231" fill="white" transform="translate(456 190)"/>
</clipPath>
</defs>
</svg>
