<svg width="475" height="407" viewBox="0 0 475 407" fill="none" xmlns="http://www.w3.org/2000/svg">
<path d="M305.22 71.8799V56.1799L293.46 55.1699C292.76 52.6899 291.79 50.3299 290.55 48.1199L298.14 39.0999L287.04 27.9999L278.02 35.5899C275.82 34.3499 273.45 33.3799 270.97 32.6799L269.96 20.9199H254.26L253.25 32.6799C250.77 33.3799 248.41 34.3499 246.2 35.5899L237.18 27.9999L226.08 39.0999L233.67 48.1199C232.43 50.3199 231.46 52.6899 230.76 55.1699L219 56.1799V71.8799L230.76 72.8899C231.46 75.3699 232.43 77.7299 233.67 79.9399L226.08 88.9599L237.18 100.06L246.2 92.4699C248.4 93.7099 250.77 94.6799 253.25 95.3799L254.26 107.14H269.96L270.97 95.3799C273.45 94.6799 275.81 93.7099 278.02 92.4699L287.04 100.06L298.14 88.9599L290.55 79.9399C291.78 77.7399 292.76 75.3699 293.46 72.8899L305.22 71.8799ZM262.11 82.2699C252.04 82.2699 243.87 74.0999 243.87 64.0299C243.87 53.9599 252.04 45.7899 262.11 45.7899C272.18 45.7899 280.35 53.9599 280.35 64.0299C280.35 74.0999 272.18 82.2699 262.11 82.2699Z" fill="#310075" stroke="white" stroke-linecap="round" stroke-linejoin="round"/>
<path d="M473.94 225.33V217.8L468.3 217.31C467.96 216.12 467.5 214.99 466.91 213.93L470.55 209.6L465.23 204.28L460.9 207.92C459.84 207.33 458.71 206.86 457.52 206.53L457.03 200.89H449.5L449.01 206.53C447.82 206.87 446.69 207.33 445.63 207.92L441.3 204.28L435.98 209.6L439.62 213.93C439.03 214.99 438.56 216.12 438.23 217.31L432.59 217.8V225.33L438.23 225.82C438.57 227.01 439.03 228.14 439.62 229.2L435.98 233.53L441.3 238.85L445.63 235.21C446.69 235.8 447.82 236.27 449.01 236.6L449.5 242.24H457.03L457.52 236.6C458.71 236.26 459.84 235.8 460.9 235.21L465.23 238.85L470.55 233.53L466.91 229.2C467.5 228.14 467.97 227.01 468.3 225.82L473.94 225.33ZM453.27 230.32C448.44 230.32 444.52 226.4 444.52 221.57C444.52 216.74 448.44 212.82 453.27 212.82C458.1 212.82 462.02 216.74 462.02 221.57C462.02 226.4 458.1 230.32 453.27 230.32Z" fill="#310075" stroke="white" stroke-linecap="round" stroke-linejoin="round"/>
<path d="M468.28 88.2799C468.62 86.7899 468.81 85.2499 468.81 83.6599C468.81 72.3199 459.62 63.1299 448.28 63.1299C446.42 63.1299 444.63 63.3799 442.92 63.8399C439.54 57.8599 433.12 53.8099 425.76 53.8099C415.3 53.8099 406.74 61.9699 406.1 72.2699C405.13 72.0899 404.14 71.9799 403.12 71.9799C394.84 71.9799 388.03 78.2299 387.13 86.2599C382.27 86.3699 378.36 90.3299 378.36 95.2099C378.36 100.09 382.37 104.17 387.32 104.17H462.61C467.56 104.17 471.57 100.16 471.57 95.2099C471.57 92.4099 470.28 89.9099 468.27 88.2599L468.28 88.2799Z" fill="#310075" stroke="white" stroke-linecap="round" stroke-linejoin="round"/>
<path d="M426.89 97.3199V118.07" stroke="white" stroke-linecap="round" stroke-linejoin="round"/>
<path d="M426.89 84.8699V93.1699" stroke="white" stroke-linecap="round" stroke-linejoin="round"/>
<path d="M426.89 77.1199V81.5599" stroke="white" stroke-linecap="round" stroke-linejoin="round"/>
<path d="M422.97 115.64L426.89 120.49L430.81 115.64" fill="#310075"/>
<path d="M422.97 115.64L426.89 120.49L430.81 115.64" stroke="white" stroke-linecap="round" stroke-linejoin="round"/>
<path d="M238.89 331.64C239.23 330.15 239.42 328.61 239.42 327.02C239.42 315.68 230.23 306.49 218.89 306.49C217.04 306.49 215.24 306.74 213.53 307.2C210.15 301.22 203.73 297.18 196.37 297.18C185.91 297.18 177.35 305.34 176.71 315.64C175.74 315.46 174.75 315.35 173.73 315.35C165.45 315.35 158.64 321.6 157.74 329.63C152.88 329.74 148.97 333.7 148.97 338.58C148.97 343.46 152.98 347.54 157.93 347.54H233.22C238.17 347.54 242.18 343.53 242.18 338.58C242.18 335.78 240.89 333.28 238.88 331.63L238.89 331.64Z" fill="#310075" stroke="white" stroke-linecap="round" stroke-linejoin="round"/>
<path d="M197.49 343.64V322.89" stroke="white" stroke-linecap="round" stroke-linejoin="round"/>
<path d="M197.49 356.09V347.79" stroke="white" stroke-linecap="round" stroke-linejoin="round"/>
<path d="M197.49 363.84V359.4" stroke="white" stroke-linecap="round" stroke-linejoin="round"/>
<path d="M201.41 325.32L197.49 320.47L193.58 325.32" fill="#310075"/>
<path d="M201.41 325.32L197.49 320.47L193.58 325.32" stroke="white" stroke-linecap="round" stroke-linejoin="round"/>
<path d="M335.42 84.47H75.5V72.62C75.5 70.28 77.4 68.38 79.74 68.38H331.19C333.53 68.38 335.43 70.28 335.43 72.62V84.47H335.42Z" fill="#310075" stroke="white" stroke-linecap="round" stroke-linejoin="round"/>
<path d="M349.58 87.45H86.87V272.32H349.58V87.45Z" fill="#310075" stroke="white" stroke-linecap="round" stroke-linejoin="round"/>
<path d="M353.61 76.43C353.61 78.65 351.81 80.45 349.59 80.45C347.37 80.45 345.57 78.65 345.57 76.43C345.57 74.21 347.37 72.41 349.59 72.41C351.81 72.41 353.61 74.21 353.61 76.43Z" fill="white" stroke="black" stroke-linecap="round" stroke-linejoin="round"/>
<path d="M339.45 76.43C339.45 78.65 337.65 80.45 335.43 80.45C333.21 80.45 331.41 78.65 331.41 76.43C331.41 74.21 333.21 72.41 335.43 72.41C337.65 72.41 339.45 74.21 339.45 76.43Z" fill="white" stroke="black" stroke-linecap="round" stroke-linejoin="round"/>
<path d="M325.29 76.43C325.29 78.65 323.49 80.45 321.27 80.45C319.05 80.45 317.25 78.65 317.25 76.43C317.25 74.21 319.05 72.41 321.27 72.41C323.49 72.41 325.29 74.21 325.29 76.43Z" fill="white" stroke="black" stroke-linecap="round" stroke-linejoin="round"/>
<path d="M341.63 95.38H331.22" stroke="white" stroke-width="2" stroke-linecap="round" stroke-linejoin="round"/>
<path d="M341.63 99.6H331.22" stroke="white" stroke-width="2" stroke-linecap="round" stroke-linejoin="round"/>
<path d="M341.63 103.82H331.22" stroke="white" stroke-width="2" stroke-linecap="round" stroke-linejoin="round"/>
<path d="M272.01 89.54V90.04" stroke="white" stroke-linecap="round" stroke-linejoin="round"/>
<path d="M272.01 93.03V267.26" stroke="white" stroke-linecap="round" stroke-linejoin="round" stroke-dasharray="1 3"/>
<path d="M272.01 268.76V269.26" stroke="white" stroke-linecap="round" stroke-linejoin="round"/>
<path d="M90.04 230.86H90.54" stroke="white" stroke-linecap="round" stroke-linejoin="round"/>
<path d="M93.53 230.86H343.56" stroke="white" stroke-linecap="round" stroke-linejoin="round" stroke-dasharray="1 2.99"/>
<path d="M345.06 230.86H345.56" stroke="white" stroke-linecap="round" stroke-linejoin="round"/>
<path d="M273.74 229.14H270.29V232.59H273.74V229.14Z" fill="white" stroke="white" stroke-linecap="round" stroke-linejoin="round"/>
<path d="M193.23 16.5H143.93C142.73 16.5 141.75 17.47 141.75 18.68V41.62C141.75 42.82 142.72 43.8 143.93 43.8H166.06L168.59 52.84L171.12 43.8H193.25C194.45 43.8 195.43 42.83 195.43 41.62V18.68C195.43 17.48 194.46 16.5 193.25 16.5H193.23Z" fill="#F4550C" stroke="white" stroke-linecap="round" stroke-linejoin="round"/>
<path d="M149.95 23.07H187.2" stroke="white" stroke-linecap="round" stroke-linejoin="round"/>
<path d="M149.95 27.79H187.2" stroke="white" stroke-linecap="round" stroke-linejoin="round"/>
<path d="M149.95 32.51H187.2" stroke="white" stroke-linecap="round" stroke-linejoin="round"/>
<path d="M149.95 37.23H178.03" stroke="white" stroke-linecap="round" stroke-linejoin="round"/>
<path d="M173.11 260.08H119.46V293.71H173.11V260.08Z" fill="#F4550C" stroke="white" stroke-linecap="round" stroke-linejoin="round"/>
<path d="M173.11 260.08H119.46V265.19H173.11V260.08Z" fill="#F4550C" stroke="white" stroke-linecap="round" stroke-linejoin="round"/>
<path d="M124.93 269.5H138.65" stroke="white" stroke-linecap="round" stroke-linejoin="round"/>
<path d="M131.79 273.33H155.53" stroke="white" stroke-linecap="round" stroke-linejoin="round"/>
<path d="M128.76 276.89H135.75" stroke="white" stroke-linecap="round" stroke-linejoin="round"/>
<path d="M131.79 281.11H147.78" stroke="white" stroke-linecap="round" stroke-linejoin="round"/>
<path d="M124.93 284.93H138.65" stroke="white" stroke-linecap="round" stroke-linejoin="round"/>
<path d="M395.1 125.09H341.45V158.72H395.1V125.09Z" fill="#F4550C" stroke="white" stroke-linecap="round" stroke-linejoin="round"/>
<path d="M395.1 125.09H341.45V130.2H395.1V125.09Z" fill="#F4550C" stroke="white" stroke-linecap="round" stroke-linejoin="round"/>
<path d="M346.93 134.51H360.64" stroke="white" stroke-linecap="round" stroke-linejoin="round"/>
<path d="M353.79 138.34H377.52" stroke="white" stroke-linecap="round" stroke-linejoin="round"/>
<path d="M350.75 141.91H357.74" stroke="white" stroke-linecap="round" stroke-linejoin="round"/>
<path d="M353.79 146.12H369.77" stroke="white" stroke-linecap="round" stroke-linejoin="round"/>
<path d="M346.93 149.94H360.64" stroke="white" stroke-linecap="round" stroke-linejoin="round"/>
<path d="M281.9 242.62H320.63" stroke="white" stroke-width="2" stroke-linecap="round" stroke-linejoin="round"/>
<path d="M281.9 248.83H320.63" stroke="white" stroke-width="2" stroke-linecap="round" stroke-linejoin="round"/>
<path d="M281.9 255.16H303.97" stroke="white" stroke-width="2" stroke-linecap="round" stroke-linejoin="round"/>
<path d="M230.87 257.73H210.48C207.71 257.73 205.46 255.48 205.46 252.71C205.46 249.94 207.71 247.69 210.48 247.69H230.87C233.64 247.69 235.89 249.94 235.89 252.71C235.89 255.48 233.64 257.73 230.87 257.73Z" fill="#F4550C" stroke="white" stroke-linecap="round" stroke-linejoin="round"/>
<path d="M268.86 257.73H248.47C245.7 257.73 243.45 255.48 243.45 252.71C243.45 249.94 245.7 247.69 248.47 247.69H268.86C271.63 247.69 273.88 249.94 273.88 252.71C273.88 255.48 271.63 257.73 268.86 257.73Z" fill="#F4550C" stroke="white" stroke-linecap="round" stroke-linejoin="round"/>
<path d="M327.97 150.45H284.73V193.69H327.97V150.45Z" fill="#310075" stroke="white" stroke-linecap="round" stroke-linejoin="round"/>
<path d="M284.73 150.45L327.97 193.69" stroke="white" stroke-linecap="round" stroke-linejoin="round"/>
<path d="M327.97 150.45L284.73 193.69" stroke="white" stroke-linecap="round" stroke-linejoin="round"/>
<path d="M301.69 101.37V111.46L297.24 115.91H287.15V101.37H301.69Z" fill="#310075" stroke="white" stroke-linecap="round" stroke-linejoin="round"/>
<path d="M301.69 111.46L297.24 115.91V111.46H301.69Z" fill="#310075" stroke="white" stroke-linecap="round" stroke-linejoin="round"/>
<path d="M92.11 241.56V251.65L87.66 256.1H77.57V241.56H92.11Z" fill="#310075" stroke="white" stroke-linecap="round" stroke-linejoin="round"/>
<path d="M92.11 251.65L87.66 256.1V251.65H92.11Z" fill="#310075" stroke="white" stroke-linecap="round" stroke-linejoin="round"/>
<path d="M274.12 180.06C268.83 180.51 262.11 174.19 262.11 174.19C262.11 174.19 261.08 175.18 260.22 173.95C259.36 172.72 255.63 169.85 255.42 167.36C255.21 164.88 259.62 160.86 259.62 160.86C256.22 161.79 255.86 159.8 255.86 159.8C255.86 159.8 261.57 155.08 263.57 154.96C264.35 154.91 267.76 156.87 271.05 159.51C274.49 162.28 280.95 172.03 280.95 172.03C280.95 172.03 302.8 187.9 308.33 191.96C315.62 197.32 324.25 206.83 324.25 206.83C324.25 206.83 353.27 219.91 361.23 227.1L350.42 252.72C350.42 252.72 324.05 235.05 321.41 230.57C318.77 226.09 316.14 228.78 313.5 225.85C310.86 222.92 308.33 219.57 308.33 219.57C308.33 219.57 301.95 216.77 295.78 210.45C289.61 204.12 284.18 194.44 280.77 188.64C277.36 182.84 274.13 180.07 274.13 180.07L274.12 180.06Z" fill="#310075" stroke="white" stroke-linecap="round" stroke-linejoin="round"/>
<path d="M275.74 176.32C275.74 176.32 267.87 174.42 267.19 169.22C266.97 167.53 265.5 165.59 265.5 165.59C265.5 165.59 258.15 165.23 258.62 162.24L268.41 161.37C268.41 161.37 273.78 163.13 276.95 168.55" fill="#310075"/>
<path d="M275.74 176.32C275.74 176.32 267.87 174.42 267.19 169.22C266.97 167.53 265.5 165.59 265.5 165.59C265.5 165.59 258.15 165.23 258.62 162.24L268.41 161.37C268.41 161.37 273.78 163.13 276.95 168.55" stroke="white" stroke-linecap="round" stroke-linejoin="round"/>
<path d="M262.11 174.19C262.11 174.19 262.6 173.5 262.44 172.07C262.44 172.07 264.6 171.68 264.36 169.77C264.36 169.77 267.56 169.38 265.5 165.6" fill="#310075"/>
<path d="M262.11 174.19C262.11 174.19 262.6 173.5 262.44 172.07C262.44 172.07 264.6 171.68 264.36 169.77C264.36 169.77 267.56 169.38 265.5 165.6" stroke="white" stroke-linecap="round" stroke-linejoin="round"/>
<path d="M264.36 169.77C264.36 169.77 260.06 166.57 259.57 165.12L264.36 169.77Z" fill="#310075"/>
<path d="M264.36 169.77C264.36 169.77 260.06 166.57 259.57 165.12" stroke="white" stroke-linecap="round" stroke-linejoin="round"/>
<path d="M262.44 172.07C262.44 172.07 257.85 169.28 257.77 167.64L262.44 172.07Z" fill="#310075"/>
<path d="M262.44 172.07C262.44 172.07 257.85 169.28 257.77 167.64" stroke="white" stroke-linecap="round" stroke-linejoin="round"/>
<path d="M263.49 157.69C263.49 157.69 262.03 160.31 259.62 160.86L263.49 157.69Z" fill="#310075"/>
<path d="M263.49 157.69C263.49 157.69 262.03 160.31 259.62 160.86" stroke="white" stroke-linecap="round" stroke-linejoin="round"/>
<path d="M262.77 158.72C262.77 158.72 263.94 159.31 264.93 160.15L262.77 158.72Z" fill="#310075"/>
<path d="M262.77 158.72C262.77 158.72 263.94 159.31 264.93 160.15" stroke="white" stroke-linecap="round" stroke-linejoin="round"/>
<path d="M430.37 247.29C430.37 247.29 413.04 239.74 395.47 235.63C377.9 231.52 349.51 227.85 349.51 227.85C349.51 227.85 357.33 307.65 355.27 312.45C353.21 317.25 340.85 333.37 340.85 333.37C340.85 333.37 407.74 359.45 419.4 361.67C431.06 363.89 424.98 323.42 424.98 323.42C424.98 323.42 437.23 271.98 430.37 247.29Z" fill="#310075" stroke="white" stroke-linecap="round" stroke-linejoin="round"/>
<path d="M406.37 238.72C406.37 238.72 407.96 241.75 403.78 243.29C392.95 247.29 381.41 243.76 382.64 239.52C383.11 237.9 385.79 239.52 385.62 233.47C385.6 232.69 385.32 231.78 384.89 230.81C384.23 229.31 383.19 227.67 382.14 226.2C380.31 223.64 378.43 221.57 378.43 221.57C378.43 221.57 395.62 210.6 408.37 221.57C408.37 221.57 403.63 223.97 406.37 238.72Z" fill="#310075" stroke="white" stroke-linecap="round" stroke-linejoin="round"/>
<path d="M427.67 380.85C420.9 391.88 386.55 397.06 367.8 396.57C349.06 396.09 295.1 370.54 291.44 365.13C288.05 360.12 279.72 343.56 292.56 333.55C293.58 332.76 294.72 332.01 296.02 331.31C304.81 326.55 363.27 341.56 363.27 341.56C363.27 341.56 366.89 339.27 368.22 339.44C372.3 339.96 375.19 343.26 383.46 345.61C389.23 347.26 404.98 340.92 415.04 346.37C416.14 346.96 417.16 347.69 418.1 348.59C427.5 357.57 434.43 369.82 427.67 380.85Z" fill="#310075" stroke="white" stroke-linecap="round" stroke-linejoin="round"/>
<path d="M427.67 380.85C420.9 391.88 386.55 397.06 367.8 396.57C349.06 396.09 295.1 370.54 291.44 365.13C288.05 360.12 279.72 343.56 292.56 333.55C293.58 332.76 294.72 332.01 296.02 331.31C304.81 326.55 363.27 341.56 363.27 341.56C363.27 341.56 366.89 339.27 368.22 339.44C372.3 339.96 375.19 343.26 383.46 345.61C389.23 347.26 404.98 340.92 415.04 346.37C416.14 346.96 417.16 347.69 418.1 348.59C427.5 357.57 434.43 369.82 427.67 380.85Z" fill="#310075"/>
<mask id="mask0_966_2279" style="mask-type:luminance" maskUnits="userSpaceOnUse" x="285" y="330" width="146" height="67">
<path d="M427.67 380.85C420.9 391.88 386.55 397.06 367.8 396.57C349.06 396.09 295.1 370.54 291.44 365.13C288.05 360.12 279.72 343.56 292.56 333.55C293.58 332.76 294.72 332.01 296.02 331.31C304.81 326.55 363.27 341.56 363.27 341.56C363.27 341.56 366.89 339.27 368.22 339.44C372.3 339.96 375.19 343.26 383.46 345.61C389.23 347.26 404.98 340.92 415.04 346.37C416.14 346.96 417.16 347.69 418.1 348.59C427.5 357.57 434.43 369.82 427.67 380.85Z" fill="white"/>
</mask>
<g mask="url(#mask0_966_2279)">
<path opacity="0.3" d="M415.04 346.37C404.73 345.68 395.54 347.84 389.12 351.63C381.51 356.13 345.57 373.44 345.57 373.44C345.65 371.58 347.65 367.83 347.65 367.83C344.27 364.82 335.43 362.48 335.43 362.48C328.58 356.63 301.4 339.18 292.56 333.55C293.58 332.76 294.72 332.01 296.02 331.31C304.81 326.55 363.27 341.56 363.27 341.56C363.27 341.56 366.89 339.27 368.22 339.44C372.3 339.96 375.19 343.26 383.46 345.61C389.23 347.26 404.98 340.92 415.04 346.37Z" fill="black" stroke="white" stroke-linecap="round" stroke-linejoin="round"/>
</g>
<path d="M427.67 380.85C420.9 391.88 386.55 397.06 367.8 396.57C349.06 396.09 295.1 370.54 291.44 365.13C288.05 360.12 279.72 343.56 292.56 333.55C293.58 332.76 294.72 332.01 296.02 331.31C304.81 326.55 363.27 341.56 363.27 341.56C363.27 341.56 366.89 339.27 368.22 339.44C372.3 339.96 375.19 343.26 383.46 345.61C389.23 347.26 404.98 340.92 415.04 346.37C416.14 346.96 417.16 347.69 418.1 348.59C427.5 357.57 434.43 369.82 427.67 380.85Z" stroke="white" stroke-linecap="round" stroke-linejoin="round"/>
<path d="M427.67 380.85C420.9 391.88 386.55 397.06 367.8 396.57C349.06 396.09 295.1 370.54 291.44 365.13C288.05 360.12 279.72 343.56 292.56 333.55C293.58 332.76 294.72 332.01 296.02 331.31C304.81 326.55 363.27 341.56 363.27 341.56C363.27 341.56 366.89 339.27 368.22 339.44C372.3 339.96 375.19 343.26 383.46 345.61C389.23 347.26 404.98 340.92 415.04 346.37C416.14 346.96 417.16 347.69 418.1 348.59C427.5 357.57 434.43 369.82 427.67 380.85Z" fill="#310075" stroke="white" stroke-linecap="round" stroke-linejoin="round"/>
<path d="M417.12 390.8L417.98 394.57C417.98 394.57 415.68 401.1 405.57 402.16C395.46 403.22 389.47 405.47 384.61 405.76C379.75 406.05 376.92 405.64 376.92 405.64L375.93 404.16L417.12 390.81V390.8Z" fill="#310075" stroke="white" stroke-linecap="round" stroke-linejoin="round"/>
<path d="M358.42 390.4L375.94 404.15C375.94 404.15 389.52 403.07 401.06 400.4C409.36 398.47 416.61 395.71 417.01 391.94C417.62 386.2 411.48 384.63 404.19 384.85C402.83 384.88 401.43 384.99 400.02 385.13C388.35 386.38 373.51 379.93 373.51 379.93L358.43 390.4H358.42Z" fill="#310075" stroke="white" stroke-linecap="round" stroke-linejoin="round"/>
<path d="M358.42 390.4L375.94 404.15C375.94 404.15 389.52 403.07 401.06 400.4C409.36 398.47 416.61 395.71 417.01 391.94C417.62 386.2 411.48 384.63 404.19 384.85C402.83 384.88 401.43 384.99 400.02 385.13C388.35 386.38 373.51 379.93 373.51 379.93L358.43 390.4H358.42Z" fill="#310075"/>
<mask id="mask1_966_2279" style="mask-type:luminance" maskUnits="userSpaceOnUse" x="358" y="379" width="60" height="26">
<path d="M358.42 390.4L375.94 404.15C375.94 404.15 389.52 403.07 401.06 400.4C409.36 398.47 416.61 395.71 417.01 391.94C417.62 386.2 411.48 384.63 404.19 384.85C402.83 384.88 401.43 384.99 400.02 385.13C388.35 386.38 373.51 379.93 373.51 379.93L358.43 390.4H358.42Z" fill="white"/>
</mask>
<g mask="url(#mask1_966_2279)">
<path opacity="0.3" d="M417.01 391.81C413.86 393.05 409.95 394.77 407.27 396.6C407.27 396.6 391 404.97 366 396.35L358.42 390.4L373.5 379.93C373.5 379.93 388.33 386.38 400.01 385.12C401.42 384.97 402.82 384.87 404.18 384.84C411.42 384.61 417.51 386.16 417.01 391.8V391.81Z" fill="black" stroke="white" stroke-linecap="round" stroke-linejoin="round"/>
</g>
<path d="M358.42 390.4L375.94 404.15C375.94 404.15 389.52 403.07 401.06 400.4C409.36 398.47 416.61 395.71 417.01 391.94C417.62 386.2 411.48 384.63 404.19 384.85C402.83 384.88 401.43 384.99 400.02 385.13C388.35 386.38 373.51 379.93 373.51 379.93L358.43 390.4H358.42Z" stroke="white" stroke-linecap="round" stroke-linejoin="round"/>
<path d="M358.42 390.4L375.94 404.15C375.94 404.15 389.52 403.07 401.06 400.4C409.36 398.47 416.61 395.71 417.01 391.94C417.62 386.2 411.48 384.63 404.19 384.85C402.83 384.88 401.43 384.99 400.02 385.13C388.35 386.38 373.51 379.93 373.51 379.93L358.43 390.4H358.42Z" fill="#310075" stroke="white" stroke-linecap="round" stroke-linejoin="round"/>
<path d="M374.75 395.82C371.59 396.34 375.06 402.79 379.34 400.83C383.62 398.87 377.91 395.3 374.75 395.82Z" fill="#310075" stroke="white" stroke-linecap="round" stroke-linejoin="round"/>
<path d="M374.75 395.82C371.59 396.34 375.06 402.79 379.34 400.83C383.62 398.87 377.91 395.3 374.75 395.82Z" fill="#310075"/>
<mask id="mask2_966_2279" style="mask-type:luminance" maskUnits="userSpaceOnUse" x="373" y="395" width="8" height="7">
<path d="M374.75 395.82C371.59 396.34 375.06 402.79 379.34 400.83C383.62 398.87 377.91 395.3 374.75 395.82Z" fill="white"/>
</mask>
<g mask="url(#mask2_966_2279)">
<path opacity="0.2" d="M380.68 399.79C378.52 399.53 376.25 399.14 373.88 398.6C373.27 397.33 373.41 396.03 374.76 395.82C377.41 395.39 381.87 397.83 380.69 399.79H380.68Z" fill="black" stroke="white" stroke-linecap="round" stroke-linejoin="round"/>
</g>
<path d="M374.75 395.82C371.59 396.34 375.06 402.79 379.34 400.83C383.62 398.87 377.91 395.3 374.75 395.82Z" stroke="white" stroke-linecap="round" stroke-linejoin="round"/>
<path d="M374.75 395.82C371.59 396.34 375.06 402.79 379.34 400.83C383.62 398.87 377.91 395.3 374.75 395.82Z" fill="#310075" stroke="white" stroke-linecap="round" stroke-linejoin="round"/>
<path d="M401.05 400.39C409.35 398.47 416.6 395.71 417 391.94C417.61 386.2 411.47 384.63 404.18 384.85C403.86 385.16 396.79 391.99 401.06 400.39H401.05Z" fill="#310075" stroke="white" stroke-linecap="round" stroke-linejoin="round"/>
<path d="M401.05 400.39C409.35 398.47 416.6 395.71 417 391.94C417.61 386.2 411.47 384.63 404.18 384.85C403.86 385.16 396.79 391.99 401.06 400.39H401.05Z" fill="#310075"/>
<mask id="mask3_966_2279" style="mask-type:luminance" maskUnits="userSpaceOnUse" x="399" y="384" width="19" height="17">
<path d="M401.05 400.39C409.35 398.47 416.6 395.71 417 391.94C417.61 386.2 411.47 384.63 404.18 384.85C403.86 385.16 396.79 391.99 401.06 400.39H401.05Z" fill="white"/>
</mask>
<g mask="url(#mask3_966_2279)">
<path opacity="0.3" d="M417.01 391.81C413.86 393.05 409.95 394.77 407.27 396.6C407.27 396.6 404.84 397.85 400.42 398.89C397.62 391.19 403.88 385.13 404.18 384.85C411.42 384.62 417.51 386.17 417.01 391.81Z" fill="black" stroke="white" stroke-linecap="round" stroke-linejoin="round"/>
</g>
<path d="M401.05 400.39C409.35 398.47 416.6 395.71 417 391.94C417.61 386.2 411.47 384.63 404.18 384.85C403.86 385.16 396.79 391.99 401.06 400.39H401.05Z" stroke="white" stroke-linecap="round" stroke-linejoin="round"/>
<path d="M401.05 400.39C409.35 398.47 416.6 395.71 417 391.94C417.61 386.2 411.47 384.63 404.18 384.85C403.86 385.16 396.79 391.99 401.06 400.39H401.05Z" fill="#310075" stroke="white" stroke-linecap="round" stroke-linejoin="round"/>
<path d="M395.13 393.26C395.13 393.26 395.16 393.26 395.18 393.26C395.66 393.28 396.07 392.91 396.09 392.44C396.26 388.82 399.05 385.88 399.08 385.85C399.41 385.5 399.4 384.96 399.05 384.62C398.7 384.29 398.16 384.3 397.83 384.64C397.7 384.78 394.57 388.07 394.36 392.35C394.34 392.81 394.68 393.21 395.13 393.25V393.26Z" fill="#310075" stroke="white" stroke-linecap="round" stroke-linejoin="round"/>
<path d="M391.66 393.47C391.66 393.47 391.71 393.47 391.73 393.47C392.21 393.48 392.61 393.1 392.61 392.62C392.68 388.97 395.24 385.8 395.26 385.77C395.56 385.4 395.51 384.85 395.14 384.55C394.77 384.25 394.23 384.3 393.92 384.67C393.8 384.82 390.96 388.32 390.87 392.59C390.87 393.04 391.2 393.42 391.64 393.47H391.66Z" fill="#310075" stroke="white" stroke-linecap="round" stroke-linejoin="round"/>
<path d="M387.51 393.03C387.51 393.03 387.52 393.03 387.53 393.03C388.01 393.07 388.43 392.72 388.47 392.24C388.74 389.2 391.32 385.32 391.35 385.28C391.62 384.88 391.51 384.34 391.11 384.08C390.71 383.81 390.17 383.92 389.91 384.32C389.79 384.49 387.05 388.61 386.74 392.1C386.7 392.57 387.04 392.99 387.51 393.04V393.03Z" fill="#310075" stroke="white" stroke-linecap="round" stroke-linejoin="round"/>
<path d="M383.59 392.61C383.67 392.61 383.74 392.61 383.82 392.61C384.29 392.53 384.61 392.08 384.53 391.61C383.91 387.93 387.33 384.77 387.37 384.74C387.72 384.42 387.75 383.87 387.43 383.52C387.11 383.17 386.56 383.14 386.21 383.46C386.04 383.61 382.05 387.27 382.82 391.9C382.89 392.29 383.21 392.58 383.58 392.62L383.59 392.61Z" fill="#310075" stroke="white" stroke-linecap="round" stroke-linejoin="round"/>
<path d="M379.33 391.59C379.42 391.6 379.52 391.59 379.62 391.57C380.09 391.46 380.38 391 380.27 390.53C379.52 387.25 382.75 383.54 382.79 383.5C383.11 383.14 383.07 382.59 382.71 382.28C382.35 381.96 381.81 381.99 381.49 382.35C381.33 382.53 377.63 386.76 378.58 390.92C378.66 391.29 378.98 391.55 379.33 391.59Z" fill="#310075" stroke="white" stroke-linecap="round" stroke-linejoin="round"/>
<path d="M289.23 385.16L287.97 388.82C287.97 388.82 289.57 395.55 299.52 397.67C309.47 399.79 315.18 402.65 319.98 403.45C324.78 404.25 327.64 404.14 327.64 404.14L328.78 402.77L289.23 385.17V385.16Z" fill="#310075" stroke="white" stroke-linecap="round" stroke-linejoin="round"/>
<path d="M347.65 390.93L328.79 402.76C328.79 402.76 315.4 400.26 304.21 396.39C296.16 393.6 289.24 390.1 289.24 386.3C289.24 380.53 295.51 379.61 302.74 380.6C304.09 380.77 305.47 381.02 306.86 381.32C318.34 383.79 333.77 378.94 333.77 378.94L347.67 390.94L347.65 390.93Z" fill="#310075" stroke="white" stroke-linecap="round" stroke-linejoin="round"/>
<path d="M347.65 390.93L328.79 402.76C328.79 402.76 315.4 400.26 304.21 396.39C296.16 393.6 289.24 390.1 289.24 386.3C289.24 380.53 295.51 379.61 302.74 380.6C304.09 380.77 305.47 381.02 306.86 381.32C318.34 383.79 333.77 378.94 333.77 378.94L347.67 390.94L347.65 390.93Z" fill="#310075"/>
<mask id="mask4_966_2279" style="mask-type:luminance" maskUnits="userSpaceOnUse" x="289" y="378" width="59" height="25">
<path d="M347.65 390.93L328.79 402.76C328.79 402.76 315.4 400.26 304.21 396.39C296.16 393.6 289.24 390.1 289.24 386.3C289.24 380.53 295.51 379.61 302.74 380.6C304.09 380.77 305.47 381.02 306.86 381.32C318.34 383.79 333.77 378.94 333.77 378.94L347.67 390.94L347.65 390.93Z" fill="white"/>
</mask>
<g mask="url(#mask4_966_2279)">
<path opacity="0.3" d="M347.65 390.93L336.55 397.89C325.41 394.53 318.16 387.44 314.02 382.02C323.86 382.05 333.75 378.93 333.75 378.93L347.65 390.93Z" fill="black" stroke="white" stroke-linecap="round" stroke-linejoin="round"/>
</g>
<path d="M347.65 390.93L328.79 402.76C328.79 402.76 315.4 400.26 304.21 396.39C296.16 393.6 289.24 390.1 289.24 386.3C289.24 380.53 295.51 379.61 302.74 380.6C304.09 380.77 305.47 381.02 306.86 381.32C318.34 383.79 333.77 378.94 333.77 378.94L347.67 390.94L347.65 390.93Z" stroke="white" stroke-linecap="round" stroke-linejoin="round"/>
<path d="M347.65 390.93L328.79 402.76C328.79 402.76 315.4 400.26 304.21 396.39C296.16 393.6 289.24 390.1 289.24 386.3C289.24 380.53 295.51 379.61 302.74 380.6C304.09 380.77 305.47 381.02 306.86 381.32C318.34 383.79 333.77 378.94 333.77 378.94L347.67 390.94L347.65 390.93Z" fill="#310075" stroke="white" stroke-linecap="round" stroke-linejoin="round"/>
<path d="M304.2 396.39C296.15 393.61 289.23 390.1 289.23 386.31C289.23 380.54 295.5 379.62 302.73 380.61C303.02 380.95 309.33 388.49 304.2 396.4V396.39Z" fill="#310075" stroke="white" stroke-linecap="round" stroke-linejoin="round"/>
<path d="M310.84 389.92C310.84 389.92 310.81 389.92 310.79 389.92C310.31 389.89 309.95 389.48 309.97 389.01C310.18 385.4 307.72 382.17 307.69 382.14C307.4 381.76 307.47 381.22 307.84 380.92C308.21 380.62 308.76 380.7 309.05 381.07C309.17 381.22 311.93 384.83 311.69 389.1C311.66 389.56 311.28 389.92 310.83 389.92H310.84Z" fill="#310075" stroke="white" stroke-linecap="round" stroke-linejoin="round"/>
<path d="M314.27 390.49C314.27 390.49 314.22 390.49 314.2 390.49C313.72 390.45 313.37 390.03 313.41 389.55C313.72 385.91 311.51 382.49 311.49 382.45C311.23 382.05 311.34 381.51 311.74 381.25C312.14 380.99 312.67 381.1 312.94 381.5C313.05 381.66 315.5 385.44 315.14 389.7C315.1 390.15 314.72 390.49 314.28 390.49H314.27Z" fill="#310075" stroke="white" stroke-linecap="round" stroke-linejoin="round"/>
<path d="M318.44 390.49H318.42C317.94 390.49 317.56 390.09 317.57 389.61C317.62 386.56 315.46 382.43 315.44 382.38C315.22 381.96 315.38 381.43 315.8 381.21C316.22 380.98 316.75 381.15 316.97 381.57C317.07 381.75 319.36 386.14 319.3 389.64C319.3 390.11 318.91 390.49 318.43 390.49H318.44Z" fill="#310075" stroke="white" stroke-linecap="round" stroke-linejoin="round"/>
<path d="M322.38 390.49C322.3 390.49 322.23 390.48 322.15 390.46C321.69 390.33 321.42 389.85 321.55 389.39C322.55 385.79 319.48 382.3 319.45 382.26C319.13 381.9 319.16 381.36 319.52 381.04C319.88 380.72 320.42 380.75 320.74 381.11C320.89 381.28 324.48 385.34 323.22 389.86C323.11 390.24 322.77 390.5 322.39 390.5L322.38 390.49Z" fill="#310075" stroke="white" stroke-linecap="round" stroke-linejoin="round"/>
<path d="M326.72 389.92C326.63 389.92 326.53 389.9 326.44 389.87C325.99 389.71 325.75 389.22 325.9 388.77C327 385.59 324.17 381.56 324.14 381.52C323.86 381.13 323.95 380.59 324.34 380.31C324.73 380.03 325.27 380.12 325.55 380.51C325.69 380.7 328.93 385.3 327.54 389.34C327.42 389.7 327.08 389.92 326.72 389.92Z" fill="#310075" stroke="white" stroke-linecap="round" stroke-linejoin="round"/>
<path d="M330.84 394.61C333.93 395.45 329.8 401.51 325.75 399.11C321.7 396.71 327.76 393.76 330.84 394.61Z" fill="#310075" stroke="white" stroke-linecap="round" stroke-linejoin="round"/>
<path d="M295.17 362.47C299.81 368.96 313.53 376.13 327.21 382.05C328.68 384.48 331.67 389.03 335.79 393.26C344.21 401.92 347.64 397.07 347.64 397.07C347.64 397.07 352.96 396.47 360.81 395.4C361.33 396.41 362.52 397.99 364.78 397.63C365.8 397.47 367.77 396.01 369.99 394.08C389.82 391.1 416.73 386.12 424 380.26" fill="#310075"/>
<path d="M295.17 362.47C299.81 368.96 313.53 376.13 327.21 382.05C328.68 384.48 331.67 389.03 335.79 393.26C344.21 401.92 347.64 397.07 347.64 397.07C347.64 397.07 352.96 396.47 360.81 395.4C361.33 396.41 362.52 397.99 364.78 397.63C365.8 397.47 367.77 396.01 369.99 394.08C389.82 391.1 416.73 386.12 424 380.26" stroke="white" stroke-linecap="round" stroke-linejoin="round"/>
<path d="M416.23 350.13C412.8 346.36 409.37 346.19 402.17 346.7C402.17 346.7 383.38 352.66 370.28 360.59C357.18 368.52 338.04 376.85 338.04 376.85C338.04 376.85 332.21 375.16 328.15 376.85C328.15 376.85 325.3 377.07 327.21 382.05" fill="#310075"/>
<path d="M416.23 350.13C412.8 346.36 409.37 346.19 402.17 346.7C402.17 346.7 383.38 352.66 370.28 360.59C357.18 368.52 338.04 376.85 338.04 376.85C338.04 376.85 332.21 375.16 328.15 376.85C328.15 376.85 325.3 377.07 327.21 382.05" stroke="white" stroke-linecap="round" stroke-linejoin="round"/>
<path d="M424.98 372.65C424.98 372.65 425.08 378.46 416.84 382.48L424.98 372.65Z" fill="#310075"/>
<path d="M424.98 372.65C424.98 372.65 425.08 378.46 416.84 382.48" stroke="white" stroke-linecap="round" stroke-linejoin="round"/>
<path d="M334.1 348.41C334.1 348.41 347.11 357.81 349.7 364.01C349.7 364.01 354.7 366.14 357.09 367.82" fill="#310075"/>
<path d="M334.1 348.41C334.1 348.41 347.11 357.81 349.7 364.01C349.7 364.01 354.7 366.14 357.09 367.82" stroke="white" stroke-linecap="round" stroke-linejoin="round"/>
<path d="M350.65 356.23C351.52 358.93 351.85 361.87 351.11 364.64L350.65 356.23Z" fill="#310075"/>
<path d="M350.65 356.23C351.52 358.93 351.85 361.87 351.11 364.64" stroke="white" stroke-linecap="round" stroke-linejoin="round"/>
<path d="M347.65 350.13C348.36 351.16 348.98 352.25 349.51 353.38L347.65 350.13Z" fill="#310075"/>
<path d="M347.65 350.13C348.36 351.16 348.98 352.25 349.51 353.38" stroke="white" stroke-linecap="round" stroke-linejoin="round"/>
<path d="M366.16 349.27C366.16 349.27 370.51 355.08 371.59 359.81L366.16 349.27Z" fill="#310075"/>
<path d="M366.16 349.27C366.16 349.27 370.51 355.08 371.59 359.81" stroke="white" stroke-linecap="round" stroke-linejoin="round"/>
<path d="M390.39 384.42C392.01 384.32 393.62 384.14 395.22 383.83L390.39 384.42Z" fill="#310075"/>
<path d="M390.39 384.42C392.01 384.32 393.62 384.14 395.22 383.83" stroke="white" stroke-linecap="round" stroke-linejoin="round"/>
<path d="M349.58 380.26C361.45 382.53 374.46 384.26 386.98 384.55L349.58 380.26Z" fill="#310075"/>
<path d="M349.58 380.26C361.45 382.53 374.46 384.26 386.98 384.55" stroke="white" stroke-linecap="round" stroke-linejoin="round"/>
<path d="M437.58 292.07C437.58 292.07 435.23 333.02 432.46 335.42C429.69 337.82 425.32 338.51 417.04 339.19C408.77 339.88 372.19 342.12 372.19 342.12L368.28 330.37C368.28 330.37 387.73 328.4 396.36 325.22C404.99 322.04 416.23 319.96 416.23 319.96C416.23 319.96 414.6 309.65 414.6 305.21V284.33" fill="#310075"/>
<path d="M437.58 292.07C437.58 292.07 435.23 333.02 432.46 335.42C429.69 337.82 425.32 338.51 417.04 339.19C408.77 339.88 372.19 342.12 372.19 342.12L368.28 330.37C368.28 330.37 387.73 328.4 396.36 325.22C404.99 322.04 416.23 319.96 416.23 319.96C416.23 319.96 414.6 309.65 414.6 305.21V284.33" stroke="white" stroke-linecap="round" stroke-linejoin="round"/>
<path d="M430.37 247.29C439.29 252.78 441.92 265.47 438.83 292.56C438.83 292.56 441.46 295.76 437.57 297.36C437.57 297.36 423 291.91 416.23 295.66C409.45 299.41 411.21 290.47 411.21 290.47C411.21 290.47 408.42 265.55 414.6 261.05" fill="#310075"/>
<path d="M430.37 247.29C439.29 252.78 441.92 265.47 438.83 292.56C438.83 292.56 441.46 295.76 437.57 297.36C437.57 297.36 423 291.91 416.23 295.66C409.45 299.41 411.21 290.47 411.21 290.47C411.21 290.47 408.42 265.55 414.6 261.05" stroke="white" stroke-linecap="round" stroke-linejoin="round"/>
<path d="M413.8 257.23C413.8 257.23 405.23 266.15 412.77 288.67C412.77 288.67 411.72 292.77 411.73 294.27C411.74 295.78 413.8 296.56 413.8 296.56" fill="#310075"/>
<path d="M413.8 257.23C413.8 257.23 405.23 266.15 412.77 288.67C412.77 288.67 411.72 292.77 411.73 294.27C411.74 295.78 413.8 296.56 413.8 296.56" stroke="white" stroke-linecap="round" stroke-linejoin="round"/>
<path d="M403.77 272.32C403.77 272.32 404.39 283.29 411.21 288.09L403.77 272.32Z" fill="#310075"/>
<path d="M403.77 272.32C403.77 272.32 404.39 283.29 411.21 288.09" stroke="white" stroke-linecap="round" stroke-linejoin="round"/>
<path d="M405.98 246.78C405.98 246.78 392.69 251.87 382.12 246.23C375.85 242.89 378.44 237.52 378.44 237.52" fill="#310075"/>
<path d="M405.98 246.78C405.98 246.78 392.69 251.87 382.12 246.23C375.85 242.89 378.44 237.52 378.44 237.52" stroke="white" stroke-linecap="round" stroke-linejoin="round"/>
<path d="M310.41 350.14H382.75C384.38 350.14 386.01 349.93 387.59 349.52L401.86 345.78C402.27 345.67 402.55 345.31 402.55 344.89C402.55 344.38 402.14 343.97 401.63 343.97H307.43C306.92 343.97 306.51 344.38 306.51 344.89V346.24C306.51 348.4 308.26 350.15 310.42 350.15L310.41 350.14Z" fill="#310075" stroke="white" stroke-linecap="round" stroke-linejoin="round"/>
<path d="M303.24 346.55H375.78C377.05 346.55 377.8 345.51 377.47 344.22L364.01 291.89C363.68 290.6 362.39 289.56 361.12 289.56H288.58C287.31 289.56 286.56 290.6 286.89 291.89L300.35 344.22C300.68 345.51 301.97 346.55 303.24 346.55Z" fill="#310075" stroke="white" stroke-linecap="round" stroke-linejoin="round"/>
<path d="M291.14 291.43H289.77" stroke="white" stroke-linecap="round" stroke-linejoin="round"/>
<path d="M301.77 291.43H294.68" stroke="white" stroke-linecap="round" stroke-linejoin="round"/>
<path d="M374.03 339.93L362.15 293.75C361.82 292.46 360.53 291.42 359.26 291.42H303.37" fill="#310075"/>
<path d="M374.03 339.93L362.15 293.75C361.82 292.46 360.53 291.42 359.26 291.42H303.37" stroke="white" stroke-linecap="round" stroke-linejoin="round"/>
<path d="M375.07 343.96L374.77 342.81" stroke="white" stroke-linecap="round" stroke-linejoin="round"/>
<path d="M325.07 319.38C325.12 319.79 325.2 320.21 325.32 320.63C326.25 323.78 329.2 325.69 331.91 324.9C334.62 324.11 336.07 320.9 335.14 317.75C334.21 314.59 331.25 312.69 328.54 313.48C328.22 313.58 327.91 313.71 327.62 313.87C327.85 316.2 326.85 318.38 325.06 319.38H325.07Z" fill="#310075" stroke="white" stroke-linecap="round" stroke-linejoin="round"/>
<path d="M357.09 221.31C350.81 220.62 347.38 214.66 343.61 213.73C339.84 212.8 337.43 211.74 337.43 211.74C337.43 211.74 336.13 207.2 334.18 208.78C332.24 210.37 329.67 244.27 332.18 243.21C334.69 242.15 334.69 246.15 334.69 246.15L358 266.7L377.54 232.1C377.54 232.1 363.36 222.01 357.08 221.32L357.09 221.31Z" fill="#310075" stroke="white" stroke-linecap="round" stroke-linejoin="round"/>
<path d="M361.22 230.48C361.22 230.48 355.27 241.65 354.52 258.74L361.22 230.48Z" fill="#310075"/>
<path d="M361.22 230.48C361.22 230.48 355.27 241.65 354.52 258.74" stroke="white" stroke-linecap="round" stroke-linejoin="round"/>
<path d="M343.62 238.22C343.62 238.22 345.41 247.72 350.65 254.6L343.62 238.22Z" fill="#310075"/>
<path d="M343.62 238.22C343.62 238.22 345.41 247.72 350.65 254.6" stroke="white" stroke-linecap="round" stroke-linejoin="round"/>
<path d="M368.28 277.41C368.28 277.41 377.26 306.97 396.84 315.67L368.28 277.41Z" fill="#310075"/>
<path d="M368.28 277.41C368.28 277.41 377.26 306.97 396.84 315.67" stroke="white" stroke-linecap="round" stroke-linejoin="round"/>
<path d="M391.94 223.91C391.94 223.91 391.09 230.36 384.89 230.81C384.23 229.31 383.19 227.67 382.14 226.2C386.25 224.88 391.94 223.91 391.94 223.91Z" fill="#310075" stroke="white" stroke-linecap="round" stroke-linejoin="round"/>
<path d="M405.15 224.36C405.15 224.36 415.52 225.63 419.86 211.71C424.2 197.79 420.79 187.3 403.62 182.25C394.1 179.45 384.59 181.7 381.16 188.9C378.22 195.08 379.61 200.21 378.93 202.28C378.17 204.6 371.16 206.57 371.16 208.16C371.16 209.48 375.05 211.71 375.05 211.71L373.91 215.17L374.99 215.74C374.99 215.74 373 223.53 373.91 226.28C374.58 228.29 392.14 229.12 393.52 224.15" fill="#310075"/>
<path d="M405.15 224.36C405.15 224.36 415.52 225.63 419.86 211.71C424.2 197.79 420.79 187.3 403.62 182.25C394.1 179.45 384.59 181.7 381.16 188.9C378.22 195.08 379.61 200.21 378.93 202.28C378.17 204.6 371.16 206.57 371.16 208.16C371.16 209.48 375.05 211.71 375.05 211.71L373.91 215.17L374.99 215.74C374.99 215.74 373 223.53 373.91 226.28C374.58 228.29 392.14 229.12 393.52 224.15" stroke="white" stroke-linecap="round" stroke-linejoin="round"/>
<path d="M381.25 193.96C381.25 193.96 384.68 194.82 385.62 196.62L381.25 193.96Z" fill="#310075"/>
<path d="M381.25 193.96C381.25 193.96 384.68 194.82 385.62 196.62" stroke="white" stroke-linecap="round" stroke-linejoin="round"/>
<path d="M381.85 201.86C381.7 202.87 381.93 203.74 382.37 203.8C382.8 203.86 383.27 203.1 383.42 202.09C383.57 201.08 383.34 200.21 382.9 200.15C382.47 200.09 382 200.85 381.85 201.86Z" fill="#310075" stroke="white" stroke-linecap="round" stroke-linejoin="round"/>
<path d="M374.98 215.74C374.98 215.74 380.56 217.88 382.64 216.59L374.98 215.74Z" fill="#310075"/>
<path d="M374.98 215.74C374.98 215.74 380.56 217.88 382.64 216.59" stroke="white" stroke-linecap="round" stroke-linejoin="round"/>
<path d="M376.94 201.07C376.52 203.31 377.02 205.27 378.06 205.46C379.1 205.65 380.26 204 380.68 201.76C381.1 199.52 380.6 197.56 379.56 197.37C378.53 197.18 377.36 198.83 376.94 201.07Z" fill="#310075" stroke="white" stroke-linecap="round" stroke-linejoin="round"/>
<path d="M420.31 189.67C420.31 189.67 419.51 183.84 413.79 179.61C408.07 175.38 401.21 174.47 401.21 174.47C401.21 174.47 404.53 175.92 405.78 177.82C405.78 177.82 397.21 171.38 387.03 175.61C376.86 179.84 378.11 190.83 378.11 190.83L379.6 187.95C379.6 187.95 379.43 191.38 381.23 192.64C381.23 192.64 382.32 189.32 383.42 187.84C383.42 187.84 386.12 195.96 393.55 198.7C393.55 198.7 392.75 197.1 393.44 194.7C393.44 194.7 397.55 203.62 396.35 207.96L397.67 210.25C397.67 210.25 402.4 205.46 406.24 209.45C408.45 211.74 402.01 220.42 401.1 220.42L404.99 226.14C404.99 226.14 414.71 227.53 420.31 217C425.91 206.48 424.54 201.98 424.54 201.98C424.54 201.98 426.37 204.54 426.6 206.02C426.6 206.02 428.2 194.7 420.31 189.67Z" fill="#310075" stroke="white" stroke-linecap="round" stroke-linejoin="round"/>
<path d="M397.45 211.28C397.45 211.28 400.43 201.19 406.83 204.75C413.23 208.31 408.65 213.68 406.37 215.74C404.08 217.8 402.37 221.57 400.88 221.57C399.39 221.57 399.05 219.74 399.05 219.74" fill="#310075"/>
<path d="M397.45 211.28C397.45 211.28 400.43 201.19 406.83 204.75C413.23 208.31 408.65 213.68 406.37 215.74C404.08 217.8 402.37 221.57 400.88 221.57C399.39 221.57 399.05 219.74 399.05 219.74" stroke="white" stroke-linecap="round" stroke-linejoin="round"/>
<path d="M380.68 201.76L398.48 205.46" stroke="white" stroke-linecap="round" stroke-linejoin="round"/>
<path d="M109.39 102.1H124.98" stroke="white" stroke-linecap="round" stroke-linejoin="round"/>
<path d="M109.39 108.69H167.98" stroke="white" stroke-linecap="round" stroke-linejoin="round"/>
<path d="M200.02 108.69H258.62" stroke="white" stroke-linecap="round" stroke-linejoin="round"/>
<path d="M171.78 108.69H194.96" stroke="white" stroke-linecap="round" stroke-linejoin="round"/>
<path d="M109.39 115.28H143.11" stroke="white" stroke-linecap="round" stroke-linejoin="round"/>
<path d="M147.33 115.28H181.05" stroke="white" stroke-linecap="round" stroke-linejoin="round"/>
<path d="M185.27 115.28H218.99" stroke="white" stroke-linecap="round" stroke-linejoin="round"/>
<path d="M223.21 115.28H237.54" stroke="white" stroke-linecap="round" stroke-linejoin="round"/>
<path d="M129.2 102.1H144.8" stroke="white" stroke-linecap="round" stroke-linejoin="round"/>
<path d="M221.94 102.1H237.54" stroke="white" stroke-linecap="round" stroke-linejoin="round"/>
<path d="M201.29 102.1H216.88" stroke="white" stroke-linecap="round" stroke-linejoin="round"/>
<path d="M149.01 102.1H194.54" stroke="white" stroke-linecap="round" stroke-linejoin="round"/>
<path d="M109.39 142.35H124.98" stroke="white" stroke-linecap="round" stroke-linejoin="round"/>
<path d="M109.39 148.95H167.98" stroke="white" stroke-linecap="round" stroke-linejoin="round"/>
<path d="M200.02 148.95H258.62" stroke="white" stroke-linecap="round" stroke-linejoin="round"/>
<path d="M171.78 148.95H194.96" stroke="white" stroke-linecap="round" stroke-linejoin="round"/>
<path d="M109.39 155.54H143.11" stroke="white" stroke-linecap="round" stroke-linejoin="round"/>
<path d="M147.33 155.54H181.05" stroke="white" stroke-linecap="round" stroke-linejoin="round"/>
<path d="M185.27 155.54H218.99" stroke="white" stroke-linecap="round" stroke-linejoin="round"/>
<path d="M223.21 155.54H237.54" stroke="white" stroke-linecap="round" stroke-linejoin="round"/>
<path d="M129.2 142.35H144.8" stroke="white" stroke-linecap="round" stroke-linejoin="round"/>
<path d="M221.94 142.35H237.54" stroke="white" stroke-linecap="round" stroke-linejoin="round"/>
<path d="M201.29 142.35H216.88" stroke="white" stroke-linecap="round" stroke-linejoin="round"/>
<path d="M149.01 142.35H194.54" stroke="white" stroke-linecap="round" stroke-linejoin="round"/>
<path d="M109.39 201.7H124.98" stroke="white" stroke-linecap="round" stroke-linejoin="round"/>
<path d="M109.39 208.29H167.98" stroke="white" stroke-linecap="round" stroke-linejoin="round"/>
<path d="M200.02 208.29H258.62" stroke="white" stroke-linecap="round" stroke-linejoin="round"/>
<path d="M171.78 208.29H194.96" stroke="white" stroke-linecap="round" stroke-linejoin="round"/>
<path d="M109.39 214.89H143.11" stroke="white" stroke-linecap="round" stroke-linejoin="round"/>
<path d="M147.33 214.89H181.05" stroke="white" stroke-linecap="round" stroke-linejoin="round"/>
<path d="M185.27 214.89H218.99" stroke="white" stroke-linecap="round" stroke-linejoin="round"/>
<path d="M223.21 214.89H237.54" stroke="white" stroke-linecap="round" stroke-linejoin="round"/>
<path d="M129.2 201.7H144.8" stroke="white" stroke-linecap="round" stroke-linejoin="round"/>
<path d="M221.94 201.7H237.54" stroke="white" stroke-linecap="round" stroke-linejoin="round"/>
<path d="M201.29 201.7H216.88" stroke="white" stroke-linecap="round" stroke-linejoin="round"/>
<path d="M149.01 201.7H194.54" stroke="white" stroke-linecap="round" stroke-linejoin="round"/>
<path d="M197.07 122.23H212.67" stroke="white" stroke-linecap="round" stroke-linejoin="round"/>
<path d="M176.42 122.23H192.01" stroke="white" stroke-linecap="round" stroke-linejoin="round"/>
<path d="M124.14 122.23H169.67" stroke="white" stroke-linecap="round" stroke-linejoin="round"/>
<path d="M197.07 134.02H212.67" stroke="white" stroke-linecap="round" stroke-linejoin="round"/>
<path d="M176.42 134.02H192.01" stroke="white" stroke-linecap="round" stroke-linejoin="round"/>
<path d="M124.14 134.02H169.67" stroke="white" stroke-linecap="round" stroke-linejoin="round"/>
<path d="M139.74 128.12H124.14" stroke="white" stroke-linecap="round" stroke-linejoin="round"/>
<path d="M160.4 128.12H144.8" stroke="white" stroke-linecap="round" stroke-linejoin="round"/>
<path d="M212.67 128.12H167.14" stroke="white" stroke-linecap="round" stroke-linejoin="round"/>
<path d="M197.07 163.52H212.67" stroke="white" stroke-linecap="round" stroke-linejoin="round"/>
<path d="M176.42 163.52H192.01" stroke="white" stroke-linecap="round" stroke-linejoin="round"/>
<path d="M124.14 163.52H169.67" stroke="white" stroke-linecap="round" stroke-linejoin="round"/>
<path d="M197.07 175.32H212.67" stroke="white" stroke-linecap="round" stroke-linejoin="round"/>
<path d="M176.42 175.32H192.01" stroke="white" stroke-linecap="round" stroke-linejoin="round"/>
<path d="M124.14 175.32H169.67" stroke="white" stroke-linecap="round" stroke-linejoin="round"/>
<path d="M139.74 169.42H124.14" stroke="white" stroke-linecap="round" stroke-linejoin="round"/>
<path d="M160.4 169.42H144.8" stroke="white" stroke-linecap="round" stroke-linejoin="round"/>
<path d="M212.67 169.42H167.14" stroke="white" stroke-linecap="round" stroke-linejoin="round"/>
<path d="M139.74 182.26H124.14" stroke="white" stroke-linecap="round" stroke-linejoin="round"/>
<path d="M160.4 182.26H144.8" stroke="white" stroke-linecap="round" stroke-linejoin="round"/>
<path d="M212.67 182.26H167.14" stroke="white" stroke-linecap="round" stroke-linejoin="round"/>
<path d="M139.74 194.06H124.14" stroke="white" stroke-linecap="round" stroke-linejoin="round"/>
<path d="M160.4 194.06H144.8" stroke="white" stroke-linecap="round" stroke-linejoin="round"/>
<path d="M212.67 194.06H167.14" stroke="white" stroke-linecap="round" stroke-linejoin="round"/>
<path d="M197.07 188.16H212.67" stroke="white" stroke-linecap="round" stroke-linejoin="round"/>
<path d="M176.42 188.16H192.01" stroke="white" stroke-linecap="round" stroke-linejoin="round"/>
<path d="M124.14 188.16H169.67" stroke="white" stroke-linecap="round" stroke-linejoin="round"/>
<path d="M103.6 99.8101H98.62V103.86H103.6V99.8101Z" fill="#310075" stroke="white" stroke-linecap="round" stroke-linejoin="round"/>
<path d="M103.6 106.46H98.62V110.51H103.6V106.46Z" fill="#310075" stroke="white" stroke-linecap="round" stroke-linejoin="round"/>
<path d="M103.6 113.11H98.62V117.16H103.6V113.11Z" fill="#310075" stroke="white" stroke-linecap="round" stroke-linejoin="round"/>
<path d="M103.6 119.76H98.62V123.81H103.6V119.76Z" fill="#310075" stroke="white" stroke-linecap="round" stroke-linejoin="round"/>
<path d="M103.6 126.42H98.62V130.47H103.6V126.42Z" fill="#310075" stroke="white" stroke-linecap="round" stroke-linejoin="round"/>
<path d="M103.6 133.07H98.62V137.12H103.6V133.07Z" fill="#310075" stroke="white" stroke-linecap="round" stroke-linejoin="round"/>
<path d="M103.6 139.72H98.62V143.77H103.6V139.72Z" fill="#310075" stroke="white" stroke-linecap="round" stroke-linejoin="round"/>
<path d="M103.6 146.37H98.62V150.42H103.6V146.37Z" fill="#310075" stroke="white" stroke-linecap="round" stroke-linejoin="round"/>
<path d="M103.6 153.03H98.62V157.08H103.6V153.03Z" fill="#310075" stroke="white" stroke-linecap="round" stroke-linejoin="round"/>
<path d="M103.6 159.68H98.62V163.73H103.6V159.68Z" fill="#310075" stroke="white" stroke-linecap="round" stroke-linejoin="round"/>
<path d="M103.6 166.33H98.62V170.38H103.6V166.33Z" fill="#310075" stroke="white" stroke-linecap="round" stroke-linejoin="round"/>
<path d="M103.6 172.98H98.62V177.03H103.6V172.98Z" fill="#310075" stroke="white" stroke-linecap="round" stroke-linejoin="round"/>
<path d="M103.6 179.63H98.62V183.68H103.6V179.63Z" fill="#310075" stroke="white" stroke-linecap="round" stroke-linejoin="round"/>
<path d="M103.6 186.29H98.62V190.34H103.6V186.29Z" fill="#310075" stroke="white" stroke-linecap="round" stroke-linejoin="round"/>
<path d="M103.6 192.94H98.62V196.99H103.6V192.94Z" fill="#310075" stroke="white" stroke-linecap="round" stroke-linejoin="round"/>
<path d="M103.6 199.59H98.62V203.64H103.6V199.59Z" fill="#310075" stroke="white" stroke-linecap="round" stroke-linejoin="round"/>
<path d="M103.6 206.24H98.62V210.29H103.6V206.24Z" fill="#310075" stroke="white" stroke-linecap="round" stroke-linejoin="round"/>
<path d="M103.6 212.9H98.62V216.95H103.6V212.9Z" fill="#310075" stroke="white" stroke-linecap="round" stroke-linejoin="round"/>
<path d="M325.129 2.9375H328.105L332.488 15.4648L336.871 2.9375H339.848L333.684 20H331.293L325.129 2.9375ZM323.523 2.9375H326.488L327.027 15.1484V20H323.523V2.9375ZM338.488 2.9375H341.465V20H337.949V15.1484L338.488 2.9375ZM355.976 17.2578V20H347.386V17.2578H355.976ZM348.522 2.9375V20H345.007V2.9375H348.522ZM365.529 2.9375L359.272 21.4648H356.764L363.022 2.9375H365.529ZM378.786 17.2578V20H370.196V17.2578H378.786ZM371.333 2.9375V20H367.818V2.9375H371.333ZM392.231 17.2578V20H383.641V17.2578H392.231ZM384.778 2.9375V20H381.262V2.9375H384.778ZM396.312 2.9375H399.288L403.671 15.4648L408.054 2.9375H411.03L404.866 20H402.476L396.312 2.9375ZM394.706 2.9375H397.671L398.21 15.1484V20H394.706V2.9375ZM409.671 2.9375H412.648V20H409.132V15.1484L409.671 2.9375Z" fill="white"/>
<path d="M8.46094 316.855L3.82031 331H0.0820312L6.42188 313.938H8.80078L8.46094 316.855ZM12.3164 331L7.66406 316.855L7.28906 313.938H9.69141L16.0664 331H12.3164ZM12.1055 324.648V327.402H3.09375V324.648H12.1055ZM31.9952 313.938V331H28.4795L21.6241 319.562V331H18.1084V313.938H21.6241L28.4912 325.387V313.938H31.9952ZM42.6622 316.855L38.0216 331H34.2833L40.6231 313.938H43.002L42.6622 316.855ZM46.5177 331L41.8653 316.855L41.4903 313.938H43.8927L50.2677 331H46.5177ZM46.3067 324.648V327.402H37.295V324.648H46.3067ZM63.2784 328.258V331H54.6886V328.258H63.2784ZM55.8253 313.938V331H52.3097V313.938H55.8253ZM64.9572 313.938L68.5197 321.719L72.0822 313.938H75.9142L70.3009 324.789V331H66.7384V324.789L61.1134 313.938H64.9572ZM85.7727 313.938V331H82.2688V313.938H85.7727ZM91.0227 313.938V316.691H77.1008V313.938H91.0227ZM97.2248 313.938V331H93.7209V313.938H97.2248ZM110.868 325.34H114.372C114.302 326.488 113.986 327.508 113.423 328.398C112.868 329.289 112.091 329.984 111.091 330.484C110.099 330.984 108.904 331.234 107.505 331.234C106.411 331.234 105.431 331.047 104.564 330.672C103.697 330.289 102.954 329.742 102.337 329.031C101.728 328.32 101.263 327.461 100.943 326.453C100.622 325.445 100.462 324.316 100.462 323.066V321.883C100.462 320.633 100.626 319.504 100.954 318.496C101.29 317.48 101.767 316.617 102.384 315.906C103.009 315.195 103.755 314.648 104.622 314.266C105.49 313.883 106.458 313.691 107.529 313.691C108.95 313.691 110.15 313.949 111.126 314.465C112.111 314.98 112.872 315.691 113.411 316.598C113.958 317.504 114.286 318.535 114.396 319.691H110.88C110.841 319.004 110.704 318.422 110.47 317.945C110.236 317.461 109.88 317.098 109.404 316.855C108.935 316.605 108.31 316.48 107.529 316.48C106.943 316.48 106.431 316.59 105.993 316.809C105.556 317.027 105.189 317.359 104.892 317.805C104.595 318.25 104.372 318.812 104.224 319.492C104.083 320.164 104.013 320.953 104.013 321.859V323.066C104.013 323.949 104.079 324.727 104.212 325.398C104.345 326.062 104.548 326.625 104.822 327.086C105.103 327.539 105.462 327.883 105.9 328.117C106.345 328.344 106.88 328.457 107.505 328.457C108.24 328.457 108.845 328.34 109.322 328.105C109.798 327.871 110.161 327.523 110.411 327.062C110.669 326.602 110.822 326.027 110.868 325.34ZM126.024 326.535C126.024 326.23 125.977 325.957 125.883 325.715C125.797 325.465 125.633 325.238 125.391 325.035C125.149 324.824 124.809 324.617 124.371 324.414C123.934 324.211 123.368 324 122.672 323.781C121.899 323.531 121.164 323.25 120.469 322.938C119.782 322.625 119.172 322.262 118.641 321.848C118.118 321.426 117.703 320.938 117.399 320.383C117.102 319.828 116.953 319.184 116.953 318.449C116.953 317.738 117.11 317.094 117.422 316.516C117.735 315.93 118.172 315.43 118.735 315.016C119.297 314.594 119.961 314.27 120.727 314.043C121.5 313.816 122.348 313.703 123.27 313.703C124.528 313.703 125.625 313.93 126.563 314.383C127.5 314.836 128.227 315.457 128.743 316.246C129.266 317.035 129.528 317.938 129.528 318.953H126.035C126.035 318.453 125.93 318.016 125.719 317.641C125.516 317.258 125.203 316.957 124.782 316.738C124.368 316.52 123.844 316.41 123.211 316.41C122.602 316.41 122.094 316.504 121.688 316.691C121.282 316.871 120.977 317.117 120.774 317.43C120.571 317.734 120.469 318.078 120.469 318.461C120.469 318.75 120.539 319.012 120.68 319.246C120.828 319.48 121.047 319.699 121.336 319.902C121.625 320.105 121.981 320.297 122.403 320.477C122.825 320.656 123.313 320.832 123.868 321.004C124.797 321.285 125.614 321.602 126.317 321.953C127.028 322.305 127.621 322.699 128.098 323.137C128.575 323.574 128.934 324.07 129.176 324.625C129.418 325.18 129.539 325.809 129.539 326.512C129.539 327.254 129.395 327.918 129.106 328.504C128.817 329.09 128.399 329.586 127.852 329.992C127.305 330.398 126.653 330.707 125.895 330.918C125.137 331.129 124.289 331.234 123.352 331.234C122.508 331.234 121.676 331.125 120.856 330.906C120.035 330.68 119.289 330.34 118.618 329.887C117.953 329.434 117.422 328.855 117.024 328.152C116.625 327.449 116.426 326.617 116.426 325.656H119.953C119.953 326.188 120.035 326.637 120.2 327.004C120.364 327.371 120.594 327.668 120.891 327.895C121.196 328.121 121.555 328.285 121.969 328.387C122.391 328.488 122.852 328.539 123.352 328.539C123.961 328.539 124.461 328.453 124.852 328.281C125.25 328.109 125.543 327.871 125.731 327.566C125.926 327.262 126.024 326.918 126.024 326.535Z" fill="white"/>
<path d="M126.973 397.258V400H117.891V397.258H126.973ZM119.039 382.938V400H115.523V382.938H119.039ZM125.789 389.887V392.559H117.891V389.887H125.789ZM126.961 382.938V385.691H117.891V382.938H126.961ZM143.37 382.938V400H139.855L132.999 388.562V400H129.483V382.938H132.999L139.866 394.387V382.938H143.37ZM156.779 394.34H160.283C160.213 395.488 159.897 396.508 159.334 397.398C158.779 398.289 158.002 398.984 157.002 399.484C156.01 399.984 154.815 400.234 153.416 400.234C152.322 400.234 151.342 400.047 150.475 399.672C149.608 399.289 148.865 398.742 148.248 398.031C147.639 397.32 147.174 396.461 146.854 395.453C146.533 394.445 146.373 393.316 146.373 392.066V390.883C146.373 389.633 146.537 388.504 146.865 387.496C147.201 386.48 147.678 385.617 148.295 384.906C148.92 384.195 149.666 383.648 150.533 383.266C151.4 382.883 152.369 382.691 153.44 382.691C154.861 382.691 156.061 382.949 157.037 383.465C158.022 383.98 158.783 384.691 159.322 385.598C159.869 386.504 160.197 387.535 160.307 388.691H156.791C156.752 388.004 156.615 387.422 156.381 386.945C156.147 386.461 155.791 386.098 155.315 385.855C154.846 385.605 154.221 385.48 153.44 385.48C152.854 385.48 152.342 385.59 151.904 385.809C151.467 386.027 151.1 386.359 150.803 386.805C150.506 387.25 150.283 387.812 150.135 388.492C149.994 389.164 149.924 389.953 149.924 390.859V392.066C149.924 392.949 149.99 393.727 150.123 394.398C150.256 395.062 150.459 395.625 150.733 396.086C151.014 396.539 151.373 396.883 151.811 397.117C152.256 397.344 152.791 397.457 153.416 397.457C154.15 397.457 154.756 397.34 155.233 397.105C155.709 396.871 156.072 396.523 156.322 396.062C156.58 395.602 156.733 395.027 156.779 394.34ZM163.052 382.938H169.415C170.72 382.938 171.841 383.133 172.778 383.523C173.724 383.914 174.45 384.492 174.958 385.258C175.466 386.023 175.72 386.965 175.72 388.082C175.72 388.996 175.564 389.781 175.251 390.438C174.946 391.086 174.513 391.629 173.95 392.066C173.396 392.496 172.743 392.84 171.993 393.098L170.88 393.684H165.349L165.325 390.941H169.439C170.056 390.941 170.568 390.832 170.974 390.613C171.38 390.395 171.685 390.09 171.888 389.699C172.099 389.309 172.204 388.855 172.204 388.34C172.204 387.793 172.103 387.32 171.9 386.922C171.696 386.523 171.388 386.219 170.974 386.008C170.56 385.797 170.04 385.691 169.415 385.691H166.568V400H163.052V382.938ZM172.591 400L168.7 392.395L172.415 392.371L176.353 399.836V400H172.591ZM180.668 382.938L184.231 390.719L187.793 382.938H191.625L186.012 393.789V400H182.449V393.789L176.824 382.938H180.668ZM200.288 393.918H195.941V391.176H200.288C200.96 391.176 201.507 391.066 201.929 390.848C202.351 390.621 202.659 390.309 202.855 389.91C203.05 389.512 203.148 389.062 203.148 388.562C203.148 388.055 203.05 387.582 202.855 387.145C202.659 386.707 202.351 386.355 201.929 386.09C201.507 385.824 200.96 385.691 200.288 385.691H197.159V400H193.644V382.938H200.288C201.624 382.938 202.769 383.18 203.722 383.664C204.683 384.141 205.417 384.801 205.925 385.645C206.433 386.488 206.687 387.453 206.687 388.539C206.687 389.641 206.433 390.594 205.925 391.398C205.417 392.203 204.683 392.824 203.722 393.262C202.769 393.699 201.624 393.918 200.288 393.918ZM217.201 382.938V400H213.698V382.938H217.201ZM222.451 382.938V385.691H208.53V382.938H222.451ZM228.654 382.938V400H225.15V382.938H228.654ZM246.422 391.07V391.879C246.422 393.176 246.246 394.34 245.895 395.371C245.543 396.402 245.047 397.281 244.407 398.008C243.766 398.727 243 399.277 242.11 399.66C241.227 400.043 240.246 400.234 239.168 400.234C238.098 400.234 237.118 400.043 236.227 399.66C235.344 399.277 234.578 398.727 233.93 398.008C233.282 397.281 232.778 396.402 232.418 395.371C232.067 394.34 231.891 393.176 231.891 391.879V391.07C231.891 389.766 232.067 388.602 232.418 387.578C232.77 386.547 233.266 385.668 233.907 384.941C234.555 384.215 235.321 383.66 236.203 383.277C237.094 382.895 238.075 382.703 239.145 382.703C240.223 382.703 241.203 382.895 242.086 383.277C242.977 383.66 243.743 384.215 244.383 384.941C245.032 385.668 245.532 386.547 245.883 387.578C246.243 388.602 246.422 389.766 246.422 391.07ZM242.871 391.879V391.047C242.871 390.141 242.789 389.344 242.625 388.656C242.461 387.969 242.219 387.391 241.899 386.922C241.578 386.453 241.188 386.102 240.727 385.867C240.266 385.625 239.739 385.504 239.145 385.504C238.551 385.504 238.024 385.625 237.563 385.867C237.11 386.102 236.723 386.453 236.403 386.922C236.09 387.391 235.852 387.969 235.688 388.656C235.524 389.344 235.442 390.141 235.442 391.047V391.879C235.442 392.777 235.524 393.574 235.688 394.27C235.852 394.957 236.094 395.539 236.414 396.016C236.735 396.484 237.125 396.84 237.586 397.082C238.047 397.324 238.575 397.445 239.168 397.445C239.762 397.445 240.289 397.324 240.75 397.082C241.211 396.84 241.598 396.484 241.91 396.016C242.223 395.539 242.461 394.957 242.625 394.27C242.789 393.574 242.871 392.777 242.871 391.879ZM263.3 382.938V400H259.785L252.929 388.562V400H249.413V382.938H252.929L259.796 394.387V382.938H263.3Z" fill="white"/>
<path d="M439.461 141.855L434.82 156H431.082L437.422 138.938H439.801L439.461 141.855ZM443.316 156L438.664 141.855L438.289 138.938H440.691L447.066 156H443.316ZM443.105 149.648V152.402H434.094V149.648H443.105ZM455.753 149.918H451.405V147.176H455.753C456.425 147.176 456.972 147.066 457.394 146.848C457.815 146.621 458.124 146.309 458.319 145.91C458.515 145.512 458.612 145.062 458.612 144.562C458.612 144.055 458.515 143.582 458.319 143.145C458.124 142.707 457.815 142.355 457.394 142.09C456.972 141.824 456.425 141.691 455.753 141.691H452.624V156H449.108V138.938H455.753C457.089 138.938 458.233 139.18 459.187 139.664C460.147 140.141 460.882 140.801 461.39 141.645C461.897 142.488 462.151 143.453 462.151 144.539C462.151 145.641 461.897 146.594 461.39 147.398C460.882 148.203 460.147 148.824 459.187 149.262C458.233 149.699 457.089 149.918 455.753 149.918ZM468.775 138.938V156H465.272V138.938H468.775Z" fill="white"/>
<path d="M36.4609 33.8555L31.8203 48H28.082L34.4219 30.9375H36.8008L36.4609 33.8555ZM40.3164 48L35.6641 33.8555L35.2891 30.9375H37.6914L44.0664 48H40.3164ZM40.1055 41.6484V44.4023H31.0938V41.6484H40.1055ZM49.6358 45.293L53.0342 30.9375H54.9327L55.3663 33.3281L51.7452 48H49.7061L49.6358 45.293ZM47.8897 30.9375L50.7022 45.293L50.4678 48H48.1944L44.4092 30.9375H47.8897ZM58.3545 45.2344L61.1319 30.9375H64.6123L60.8389 48H58.5655L58.3545 45.2344ZM55.9991 30.9375L59.4209 45.3516L59.3272 48H57.2881L53.6436 33.3164L54.1123 30.9375H55.9991ZM75.8653 43.5352C75.8653 43.2305 75.8184 42.957 75.7247 42.7148C75.6387 42.4648 75.4747 42.2383 75.2325 42.0352C74.9903 41.8242 74.6505 41.6172 74.213 41.4141C73.7755 41.2109 73.2091 41 72.5137 40.7812C71.7403 40.5312 71.0059 40.25 70.3106 39.9375C69.6231 39.625 69.0137 39.2617 68.4825 38.8477C67.9591 38.4258 67.545 37.9375 67.2403 37.3828C66.9434 36.8281 66.795 36.1836 66.795 35.4492C66.795 34.7383 66.9512 34.0938 67.2637 33.5156C67.5762 32.9297 68.0137 32.4297 68.5762 32.0156C69.1387 31.5938 69.8028 31.2695 70.5684 31.043C71.3419 30.8164 72.1895 30.7031 73.1114 30.7031C74.3692 30.7031 75.4669 30.9297 76.4044 31.3828C77.3419 31.8359 78.0684 32.457 78.5841 33.2461C79.1075 34.0352 79.3692 34.9375 79.3692 35.9531H75.877C75.877 35.4531 75.7716 35.0156 75.5606 34.6406C75.3575 34.2578 75.045 33.957 74.6231 33.7383C74.2091 33.5195 73.6856 33.4102 73.0528 33.4102C72.4434 33.4102 71.9356 33.5039 71.5294 33.6914C71.1231 33.8711 70.8184 34.1172 70.6153 34.4297C70.4122 34.7344 70.3106 35.0781 70.3106 35.4609C70.3106 35.75 70.3809 36.0117 70.5216 36.2461C70.67 36.4805 70.8887 36.6992 71.1778 36.9023C71.4669 37.1055 71.8223 37.2969 72.2442 37.4766C72.6661 37.6562 73.1544 37.832 73.7091 38.0039C74.6387 38.2852 75.4552 38.6016 76.1583 38.9531C76.8692 39.3047 77.463 39.6992 77.9395 40.1367C78.4161 40.5742 78.7755 41.0703 79.0177 41.625C79.2598 42.1797 79.3809 42.8086 79.3809 43.5117C79.3809 44.2539 79.2364 44.918 78.9473 45.5039C78.6583 46.0898 78.2403 46.5859 77.6934 46.9922C77.1466 47.3984 76.4942 47.707 75.7364 47.918C74.9786 48.1289 74.1309 48.2344 73.1934 48.2344C72.3497 48.2344 71.5177 48.125 70.6973 47.9062C69.877 47.6797 69.1309 47.3398 68.4591 46.8867C67.795 46.4336 67.2637 45.8555 66.8653 45.1523C66.4669 44.4492 66.2677 43.6172 66.2677 42.6562H69.795C69.795 43.1875 69.877 43.6367 70.0411 44.0039C70.2052 44.3711 70.4356 44.668 70.7325 44.8945C71.0372 45.1211 71.3966 45.2852 71.8106 45.3867C72.2325 45.4883 72.6934 45.5391 73.1934 45.5391C73.8028 45.5391 74.3028 45.4531 74.6934 45.2812C75.0919 45.1094 75.3848 44.8711 75.5723 44.5664C75.7677 44.2617 75.8653 43.918 75.8653 43.5352Z" fill="white"/>
</svg>
