<svg width="447" height="391" viewBox="0 0 447 391" fill="none" xmlns="http://www.w3.org/2000/svg">
<path d="M277.22 55.8799V40.1799L265.46 39.1699C264.76 36.6899 263.79 34.3299 262.55 32.1199L270.14 23.0999L259.04 11.9999L250.02 19.5899C247.82 18.3499 245.45 17.3799 242.97 16.6799L241.96 4.91992H226.26L225.25 16.6799C222.77 17.3799 220.41 18.3499 218.2 19.5899L209.18 11.9999L198.08 23.0999L205.67 32.1199C204.43 34.3199 203.46 36.6899 202.76 39.1699L191 40.1799V55.8799L202.76 56.8899C203.46 59.3699 204.43 61.7299 205.67 63.9399L198.08 72.9599L209.18 84.0599L218.2 76.4699C220.4 77.7099 222.77 78.6799 225.25 79.3799L226.26 91.1399H241.96L242.97 79.3799C245.45 78.6799 247.81 77.7099 250.02 76.4699L259.04 84.0599L270.14 72.9599L262.55 63.9399C263.78 61.7399 264.76 59.3699 265.46 56.8899L277.22 55.8799ZM234.11 66.2699C224.04 66.2699 215.87 58.0999 215.87 48.0299C215.87 37.9599 224.04 29.7899 234.11 29.7899C244.18 29.7899 252.35 37.9599 252.35 48.0299C252.35 58.0999 244.18 66.2699 234.11 66.2699Z" fill="#310075" stroke="white" stroke-linecap="round" stroke-linejoin="round"/>
<path d="M445.94 209.33V201.8L440.3 201.31C439.96 200.12 439.5 198.99 438.91 197.93L442.55 193.6L437.23 188.28L432.9 191.92C431.84 191.33 430.71 190.86 429.52 190.53L429.03 184.89H421.5L421.01 190.53C419.82 190.87 418.69 191.33 417.63 191.92L413.3 188.28L407.98 193.6L411.62 197.93C411.03 198.99 410.56 200.12 410.23 201.31L404.59 201.8V209.33L410.23 209.82C410.57 211.01 411.03 212.14 411.62 213.2L407.98 217.53L413.3 222.85L417.63 219.21C418.69 219.8 419.82 220.27 421.01 220.6L421.5 226.24H429.03L429.52 220.6C430.71 220.26 431.84 219.8 432.9 219.21L437.23 222.85L442.55 217.53L438.91 213.2C439.5 212.14 439.97 211.01 440.3 209.82L445.94 209.33ZM425.27 214.32C420.44 214.32 416.52 210.4 416.52 205.57C416.52 200.74 420.44 196.82 425.27 196.82C430.1 196.82 434.02 200.74 434.02 205.57C434.02 210.4 430.1 214.32 425.27 214.32Z" fill="#310075" stroke="white" stroke-linecap="round" stroke-linejoin="round"/>
<path d="M440.28 72.2799C440.62 70.7899 440.81 69.2499 440.81 67.6599C440.81 56.3199 431.62 47.1299 420.28 47.1299C418.42 47.1299 416.63 47.3799 414.92 47.8399C411.54 41.8599 405.12 37.8099 397.76 37.8099C387.3 37.8099 378.74 45.9699 378.1 56.2699C377.13 56.0899 376.14 55.9799 375.12 55.9799C366.84 55.9799 360.03 62.2299 359.13 70.2599C354.27 70.3699 350.36 74.3299 350.36 79.2099C350.36 84.0899 354.37 88.1699 359.32 88.1699H434.61C439.56 88.1699 443.57 84.1599 443.57 79.2099C443.57 76.4099 442.28 73.9099 440.27 72.2599L440.28 72.2799Z" fill="#310075" stroke="white" stroke-linecap="round" stroke-linejoin="round"/>
<path d="M398.89 81.3199V102.07" stroke="white" stroke-linecap="round" stroke-linejoin="round"/>
<path d="M398.89 68.8699V77.1699" stroke="white" stroke-linecap="round" stroke-linejoin="round"/>
<path d="M398.89 61.1199V65.5599" stroke="white" stroke-linecap="round" stroke-linejoin="round"/>
<path d="M394.97 99.6399L398.89 104.49L402.81 99.6399" fill="#310075"/>
<path d="M394.97 99.6399L398.89 104.49L402.81 99.6399" stroke="white" stroke-linecap="round" stroke-linejoin="round"/>
<path d="M210.89 315.64C211.23 314.15 211.42 312.61 211.42 311.02C211.42 299.68 202.23 290.49 190.89 290.49C189.04 290.49 187.24 290.74 185.53 291.2C182.15 285.22 175.73 281.18 168.37 281.18C157.91 281.18 149.35 289.34 148.71 299.64C147.74 299.46 146.75 299.35 145.73 299.35C137.45 299.35 130.64 305.6 129.74 313.63C124.88 313.74 120.97 317.7 120.97 322.58C120.97 327.46 124.98 331.54 129.93 331.54H205.22C210.17 331.54 214.18 327.53 214.18 322.58C214.18 319.78 212.89 317.28 210.88 315.63L210.89 315.64Z" fill="#310075" stroke="white" stroke-linecap="round" stroke-linejoin="round"/>
<path d="M169.49 327.64V306.89" stroke="white" stroke-linecap="round" stroke-linejoin="round"/>
<path d="M169.49 340.09V331.79" stroke="white" stroke-linecap="round" stroke-linejoin="round"/>
<path d="M169.49 347.84V343.4" stroke="white" stroke-linecap="round" stroke-linejoin="round"/>
<path d="M173.41 309.32L169.49 304.47L165.58 309.32" fill="#310075"/>
<path d="M173.41 309.32L169.49 304.47L165.58 309.32" stroke="white" stroke-linecap="round" stroke-linejoin="round"/>
<path d="M307.42 68.47H47.5V56.62C47.5 54.28 49.4 52.38 51.74 52.38H303.19C305.53 52.38 307.43 54.28 307.43 56.62V68.47H307.42Z" fill="#310075" stroke="white" stroke-linecap="round" stroke-linejoin="round"/>
<path d="M321.58 71.45H58.87V256.32H321.58V71.45Z" fill="#310075" stroke="white" stroke-linecap="round" stroke-linejoin="round"/>
<path d="M325.61 60.43C325.61 62.65 323.81 64.45 321.59 64.45C319.37 64.45 317.57 62.65 317.57 60.43C317.57 58.21 319.37 56.41 321.59 56.41C323.81 56.41 325.61 58.21 325.61 60.43Z" fill="white" stroke="#263238" stroke-linecap="round" stroke-linejoin="round"/>
<path d="M311.45 60.43C311.45 62.65 309.65 64.45 307.43 64.45C305.21 64.45 303.41 62.65 303.41 60.43C303.41 58.21 305.21 56.41 307.43 56.41C309.65 56.41 311.45 58.21 311.45 60.43Z" fill="white" stroke="#263238" stroke-linecap="round" stroke-linejoin="round"/>
<path d="M297.29 60.43C297.29 62.65 295.49 64.45 293.27 64.45C291.05 64.45 289.25 62.65 289.25 60.43C289.25 58.21 291.05 56.41 293.27 56.41C295.49 56.41 297.29 58.21 297.29 60.43Z" fill="white" stroke="#263238" stroke-linecap="round" stroke-linejoin="round"/>
<path d="M313.63 79.38H303.22" stroke="white" stroke-width="2" stroke-linecap="round" stroke-linejoin="round"/>
<path d="M313.63 83.6H303.22" stroke="white" stroke-width="2" stroke-linecap="round" stroke-linejoin="round"/>
<path d="M313.63 87.82H303.22" stroke="white" stroke-width="2" stroke-linecap="round" stroke-linejoin="round"/>
<path d="M244.01 73.54V74.04" stroke="white" stroke-linecap="round" stroke-linejoin="round"/>
<path d="M244.01 77.03V251.26" stroke="white" stroke-linecap="round" stroke-linejoin="round" stroke-dasharray="1 3"/>
<path d="M244.01 252.76V253.26" stroke="white" stroke-linecap="round" stroke-linejoin="round"/>
<path d="M62.04 214.86H62.54" stroke="white" stroke-linecap="round" stroke-linejoin="round"/>
<path d="M65.53 214.86H315.56" stroke="white" stroke-linecap="round" stroke-linejoin="round" stroke-dasharray="1 2.99"/>
<path d="M317.06 214.86H317.56" stroke="white" stroke-linecap="round" stroke-linejoin="round"/>
<path d="M245.74 213.14H242.29V216.59H245.74V213.14Z" fill="white" stroke="white" stroke-linecap="round" stroke-linejoin="round"/>
<path d="M165.23 0.5H115.93C114.73 0.5 113.75 1.47 113.75 2.68V25.62C113.75 26.82 114.72 27.8 115.93 27.8H138.06L140.59 36.84L143.12 27.8H165.25C166.45 27.8 167.43 26.83 167.43 25.62V2.68C167.43 1.48 166.46 0.5 165.25 0.5H165.23Z" fill="#F4550C" stroke="white" stroke-linecap="round" stroke-linejoin="round"/>
<path d="M121.95 7.07001H159.2" stroke="white" stroke-linecap="round" stroke-linejoin="round"/>
<path d="M121.95 11.79H159.2" stroke="white" stroke-linecap="round" stroke-linejoin="round"/>
<path d="M121.95 16.51H159.2" stroke="white" stroke-linecap="round" stroke-linejoin="round"/>
<path d="M121.95 21.23H150.03" stroke="white" stroke-linecap="round" stroke-linejoin="round"/>
<path d="M145.11 244.08H91.46V277.71H145.11V244.08Z" fill="#F4550C" stroke="white" stroke-linecap="round" stroke-linejoin="round"/>
<path d="M145.11 244.08H91.46V249.19H145.11V244.08Z" fill="#F4550C" stroke="white" stroke-linecap="round" stroke-linejoin="round"/>
<path d="M96.93 253.5H110.65" stroke="white" stroke-linecap="round" stroke-linejoin="round"/>
<path d="M103.79 257.33H127.53" stroke="white" stroke-linecap="round" stroke-linejoin="round"/>
<path d="M100.76 260.89H107.75" stroke="white" stroke-linecap="round" stroke-linejoin="round"/>
<path d="M103.79 265.11H119.78" stroke="white" stroke-linecap="round" stroke-linejoin="round"/>
<path d="M96.93 268.93H110.65" stroke="white" stroke-linecap="round" stroke-linejoin="round"/>
<path d="M367.1 109.09H313.45V142.72H367.1V109.09Z" fill="#F4550C" stroke="white" stroke-linecap="round" stroke-linejoin="round"/>
<path d="M367.1 109.09H313.45V114.2H367.1V109.09Z" fill="#F4550C" stroke="white" stroke-linecap="round" stroke-linejoin="round"/>
<path d="M318.93 118.51H332.64" stroke="white" stroke-linecap="round" stroke-linejoin="round"/>
<path d="M325.79 122.34H349.52" stroke="white" stroke-linecap="round" stroke-linejoin="round"/>
<path d="M322.75 125.91H329.74" stroke="white" stroke-linecap="round" stroke-linejoin="round"/>
<path d="M325.79 130.12H341.77" stroke="white" stroke-linecap="round" stroke-linejoin="round"/>
<path d="M318.93 133.94H332.64" stroke="white" stroke-linecap="round" stroke-linejoin="round"/>
<path d="M253.9 226.62H292.63" stroke="white" stroke-width="2" stroke-linecap="round" stroke-linejoin="round"/>
<path d="M253.9 232.83H292.63" stroke="white" stroke-width="2" stroke-linecap="round" stroke-linejoin="round"/>
<path d="M253.9 239.16H275.97" stroke="white" stroke-width="2" stroke-linecap="round" stroke-linejoin="round"/>
<path d="M202.87 241.73H182.48C179.71 241.73 177.46 239.48 177.46 236.71C177.46 233.94 179.71 231.69 182.48 231.69H202.87C205.64 231.69 207.89 233.94 207.89 236.71C207.89 239.48 205.64 241.73 202.87 241.73Z" fill="#F4550C" stroke="white" stroke-linecap="round" stroke-linejoin="round"/>
<path d="M240.86 241.73H220.47C217.7 241.73 215.45 239.48 215.45 236.71C215.45 233.94 217.7 231.69 220.47 231.69H240.86C243.63 231.69 245.88 233.94 245.88 236.71C245.88 239.48 243.63 241.73 240.86 241.73Z" fill="#F4550C" stroke="white" stroke-linecap="round" stroke-linejoin="round"/>
<path d="M299.97 134.45H256.73V177.69H299.97V134.45Z" fill="#310075" stroke="white" stroke-linecap="round" stroke-linejoin="round"/>
<path d="M256.73 134.45L299.97 177.69" stroke="white" stroke-linecap="round" stroke-linejoin="round"/>
<path d="M299.97 134.45L256.73 177.69" stroke="white" stroke-linecap="round" stroke-linejoin="round"/>
<path d="M273.69 85.37V95.46L269.24 99.91H259.15V85.37H273.69Z" fill="#310075" stroke="white" stroke-linecap="round" stroke-linejoin="round"/>
<path d="M273.69 95.46L269.24 99.91V95.46H273.69Z" fill="#310075" stroke="white" stroke-linecap="round" stroke-linejoin="round"/>
<path d="M64.11 225.56V235.65L59.66 240.1H49.57V225.56H64.11Z" fill="#310075" stroke="white" stroke-linecap="round" stroke-linejoin="round"/>
<path d="M64.11 235.65L59.66 240.1V235.65H64.11Z" fill="#310075" stroke="white" stroke-linecap="round" stroke-linejoin="round"/>
<path d="M246.12 164.06C240.83 164.51 234.11 158.19 234.11 158.19C234.11 158.19 233.08 159.18 232.22 157.95C231.36 156.72 227.63 153.85 227.42 151.36C227.21 148.88 231.62 144.86 231.62 144.86C228.22 145.79 227.86 143.8 227.86 143.8C227.86 143.8 233.57 139.08 235.57 138.96C236.35 138.91 239.76 140.87 243.05 143.51C246.49 146.28 252.95 156.03 252.95 156.03C252.95 156.03 274.8 171.9 280.33 175.96C287.62 181.32 296.25 190.83 296.25 190.83C296.25 190.83 325.27 203.91 333.23 211.1L322.42 236.72C322.42 236.72 296.05 219.05 293.41 214.57C290.77 210.09 288.14 212.78 285.5 209.85C282.86 206.92 280.33 203.57 280.33 203.57C280.33 203.57 273.95 200.77 267.78 194.45C261.61 188.12 256.18 178.44 252.77 172.64C249.36 166.84 246.13 164.07 246.13 164.07L246.12 164.06Z" fill="#310075" stroke="white" stroke-linecap="round" stroke-linejoin="round"/>
<path d="M247.74 160.32C247.74 160.32 239.87 158.42 239.19 153.22C238.97 151.53 237.5 149.59 237.5 149.59C237.5 149.59 230.15 149.23 230.62 146.24L240.41 145.37C240.41 145.37 245.78 147.13 248.95 152.55" fill="#310075"/>
<path d="M247.74 160.32C247.74 160.32 239.87 158.42 239.19 153.22C238.97 151.53 237.5 149.59 237.5 149.59C237.5 149.59 230.15 149.23 230.62 146.24L240.41 145.37C240.41 145.37 245.78 147.13 248.95 152.55" stroke="white" stroke-linecap="round" stroke-linejoin="round"/>
<path d="M234.11 158.19C234.11 158.19 234.6 157.5 234.44 156.07C234.44 156.07 236.6 155.68 236.36 153.77C236.36 153.77 239.56 153.38 237.5 149.6" fill="#310075"/>
<path d="M234.11 158.19C234.11 158.19 234.6 157.5 234.44 156.07C234.44 156.07 236.6 155.68 236.36 153.77C236.36 153.77 239.56 153.38 237.5 149.6" stroke="white" stroke-linecap="round" stroke-linejoin="round"/>
<path d="M236.36 153.77C236.36 153.77 232.06 150.57 231.57 149.12L236.36 153.77Z" fill="#310075"/>
<path d="M236.36 153.77C236.36 153.77 232.06 150.57 231.57 149.12" stroke="white" stroke-linecap="round" stroke-linejoin="round"/>
<path d="M234.44 156.07C234.44 156.07 229.85 153.28 229.77 151.64L234.44 156.07Z" fill="#310075"/>
<path d="M234.44 156.07C234.44 156.07 229.85 153.28 229.77 151.64" stroke="white" stroke-linecap="round" stroke-linejoin="round"/>
<path d="M235.49 141.69C235.49 141.69 234.03 144.31 231.62 144.86L235.49 141.69Z" fill="#310075"/>
<path d="M235.49 141.69C235.49 141.69 234.03 144.31 231.62 144.86" stroke="white" stroke-linecap="round" stroke-linejoin="round"/>
<path d="M234.77 142.72C234.77 142.72 235.94 143.31 236.93 144.15L234.77 142.72Z" fill="#310075"/>
<path d="M234.77 142.72C234.77 142.72 235.94 143.31 236.93 144.15" stroke="white" stroke-linecap="round" stroke-linejoin="round"/>
<path d="M402.37 231.29C402.37 231.29 385.04 223.74 367.47 219.63C349.9 215.52 321.51 211.85 321.51 211.85C321.51 211.85 329.33 291.65 327.27 296.45C325.21 301.25 312.85 317.37 312.85 317.37C312.85 317.37 379.74 343.45 391.4 345.67C403.06 347.89 396.98 307.42 396.98 307.42C396.98 307.42 409.23 255.98 402.37 231.29Z" fill="#310075" stroke="white" stroke-linecap="round" stroke-linejoin="round"/>
<path d="M378.37 222.72C378.37 222.72 379.96 225.75 375.78 227.29C364.95 231.29 353.41 227.76 354.64 223.52C355.11 221.9 357.79 223.52 357.62 217.47C357.6 216.69 357.32 215.78 356.89 214.81C356.23 213.31 355.19 211.67 354.14 210.2C352.31 207.64 350.43 205.57 350.43 205.57C350.43 205.57 367.62 194.6 380.37 205.57C380.37 205.57 375.63 207.97 378.37 222.72Z" fill="#310075" stroke="white" stroke-linecap="round" stroke-linejoin="round"/>
<path d="M399.67 364.85C392.9 375.88 358.55 381.06 339.8 380.57C321.06 380.09 267.1 354.54 263.44 349.13C260.05 344.12 251.72 327.56 264.56 317.55C265.58 316.76 266.72 316.01 268.02 315.31C276.81 310.55 335.27 325.56 335.27 325.56C335.27 325.56 338.89 323.27 340.22 323.44C344.3 323.96 347.19 327.26 355.46 329.61C361.23 331.26 376.98 324.92 387.04 330.37C388.14 330.96 389.16 331.69 390.1 332.59C399.5 341.57 406.43 353.82 399.67 364.85Z" fill="#310075" stroke="white" stroke-linecap="round" stroke-linejoin="round"/>
<path d="M399.67 364.85C392.9 375.88 358.55 381.06 339.8 380.57C321.06 380.09 267.1 354.54 263.44 349.13C260.05 344.12 251.72 327.56 264.56 317.55C265.58 316.76 266.72 316.01 268.02 315.31C276.81 310.55 335.27 325.56 335.27 325.56C335.27 325.56 338.89 323.27 340.22 323.44C344.3 323.96 347.19 327.26 355.46 329.61C361.23 331.26 376.98 324.92 387.04 330.37C388.14 330.96 389.16 331.69 390.1 332.59C399.5 341.57 406.43 353.82 399.67 364.85Z" fill="#310075"/>
<mask id="mask0_966_2279" style="mask-type:luminance" maskUnits="userSpaceOnUse" x="257" y="314" width="146" height="67">
<path d="M399.67 364.85C392.9 375.88 358.55 381.06 339.8 380.57C321.06 380.09 267.1 354.54 263.44 349.13C260.05 344.12 251.72 327.56 264.56 317.55C265.58 316.76 266.72 316.01 268.02 315.31C276.81 310.55 335.27 325.56 335.27 325.56C335.27 325.56 338.89 323.27 340.22 323.44C344.3 323.96 347.19 327.26 355.46 329.61C361.23 331.26 376.98 324.92 387.04 330.37C388.14 330.96 389.16 331.69 390.1 332.59C399.5 341.57 406.43 353.82 399.67 364.85Z" fill="white"/>
</mask>
<g mask="url(#mask0_966_2279)">
<path opacity="0.3" d="M387.04 330.37C376.73 329.68 367.54 331.84 361.12 335.63C353.51 340.13 317.57 357.44 317.57 357.44C317.65 355.58 319.65 351.83 319.65 351.83C316.27 348.82 307.43 346.48 307.43 346.48C300.58 340.63 273.4 323.18 264.56 317.55C265.58 316.76 266.72 316.01 268.02 315.31C276.81 310.55 335.27 325.56 335.27 325.56C335.27 325.56 338.89 323.27 340.22 323.44C344.3 323.96 347.19 327.26 355.46 329.61C361.23 331.26 376.98 324.92 387.04 330.37Z" fill="black" stroke="white" stroke-linecap="round" stroke-linejoin="round"/>
</g>
<path d="M399.67 364.85C392.9 375.88 358.55 381.06 339.8 380.57C321.06 380.09 267.1 354.54 263.44 349.13C260.05 344.12 251.72 327.56 264.56 317.55C265.58 316.76 266.72 316.01 268.02 315.31C276.81 310.55 335.27 325.56 335.27 325.56C335.27 325.56 338.89 323.27 340.22 323.44C344.3 323.96 347.19 327.26 355.46 329.61C361.23 331.26 376.98 324.92 387.04 330.37C388.14 330.96 389.16 331.69 390.1 332.59C399.5 341.57 406.43 353.82 399.67 364.85Z" stroke="white" stroke-linecap="round" stroke-linejoin="round"/>
<path d="M399.67 364.85C392.9 375.88 358.55 381.06 339.8 380.57C321.06 380.09 267.1 354.54 263.44 349.13C260.05 344.12 251.72 327.56 264.56 317.55C265.58 316.76 266.72 316.01 268.02 315.31C276.81 310.55 335.27 325.56 335.27 325.56C335.27 325.56 338.89 323.27 340.22 323.44C344.3 323.96 347.19 327.26 355.46 329.61C361.23 331.26 376.98 324.92 387.04 330.37C388.14 330.96 389.16 331.69 390.1 332.59C399.5 341.57 406.43 353.82 399.67 364.85Z" fill="#310075" stroke="white" stroke-linecap="round" stroke-linejoin="round"/>
<path d="M389.12 374.8L389.98 378.57C389.98 378.57 387.68 385.1 377.57 386.16C367.46 387.22 361.47 389.47 356.61 389.76C351.75 390.05 348.92 389.64 348.92 389.64L347.93 388.16L389.12 374.81V374.8Z" fill="#310075" stroke="white" stroke-linecap="round" stroke-linejoin="round"/>
<path d="M330.42 374.4L347.94 388.15C347.94 388.15 361.52 387.07 373.06 384.4C381.36 382.47 388.61 379.71 389.01 375.94C389.62 370.2 383.48 368.63 376.19 368.85C374.83 368.88 373.43 368.99 372.02 369.13C360.35 370.38 345.51 363.93 345.51 363.93L330.43 374.4H330.42Z" fill="#310075" stroke="white" stroke-linecap="round" stroke-linejoin="round"/>
<path d="M330.42 374.4L347.94 388.15C347.94 388.15 361.52 387.07 373.06 384.4C381.36 382.47 388.61 379.71 389.01 375.94C389.62 370.2 383.48 368.63 376.19 368.85C374.83 368.88 373.43 368.99 372.02 369.13C360.35 370.38 345.51 363.93 345.51 363.93L330.43 374.4H330.42Z" fill="#310075"/>
<mask id="mask1_966_2279" style="mask-type:luminance" maskUnits="userSpaceOnUse" x="330" y="363" width="60" height="26">
<path d="M330.42 374.4L347.94 388.15C347.94 388.15 361.52 387.07 373.06 384.4C381.36 382.47 388.61 379.71 389.01 375.94C389.62 370.2 383.48 368.63 376.19 368.85C374.83 368.88 373.43 368.99 372.02 369.13C360.35 370.38 345.51 363.93 345.51 363.93L330.43 374.4H330.42Z" fill="white"/>
</mask>
<g mask="url(#mask1_966_2279)">
<path opacity="0.3" d="M389.01 375.81C385.86 377.05 381.95 378.77 379.27 380.6C379.27 380.6 363 388.97 338 380.35L330.42 374.4L345.5 363.93C345.5 363.93 360.33 370.38 372.01 369.12C373.42 368.97 374.82 368.87 376.18 368.84C383.42 368.61 389.51 370.16 389.01 375.8V375.81Z" fill="black" stroke="white" stroke-linecap="round" stroke-linejoin="round"/>
</g>
<path d="M330.42 374.4L347.94 388.15C347.94 388.15 361.52 387.07 373.06 384.4C381.36 382.47 388.61 379.71 389.01 375.94C389.62 370.2 383.48 368.63 376.19 368.85C374.83 368.88 373.43 368.99 372.02 369.13C360.35 370.38 345.51 363.93 345.51 363.93L330.43 374.4H330.42Z" stroke="white" stroke-linecap="round" stroke-linejoin="round"/>
<path d="M330.42 374.4L347.94 388.15C347.94 388.15 361.52 387.07 373.06 384.4C381.36 382.47 388.61 379.71 389.01 375.94C389.62 370.2 383.48 368.63 376.19 368.85C374.83 368.88 373.43 368.99 372.02 369.13C360.35 370.38 345.51 363.93 345.51 363.93L330.43 374.4H330.42Z" fill="#310075" stroke="white" stroke-linecap="round" stroke-linejoin="round"/>
<path d="M346.75 379.82C343.59 380.34 347.06 386.79 351.34 384.83C355.62 382.87 349.91 379.3 346.75 379.82Z" fill="#310075" stroke="white" stroke-linecap="round" stroke-linejoin="round"/>
<path d="M346.75 379.82C343.59 380.34 347.06 386.79 351.34 384.83C355.62 382.87 349.91 379.3 346.75 379.82Z" fill="#310075"/>
<mask id="mask2_966_2279" style="mask-type:luminance" maskUnits="userSpaceOnUse" x="345" y="379" width="8" height="7">
<path d="M346.75 379.82C343.59 380.34 347.06 386.79 351.34 384.83C355.62 382.87 349.91 379.3 346.75 379.82Z" fill="white"/>
</mask>
<g mask="url(#mask2_966_2279)">
<path opacity="0.2" d="M352.68 383.79C350.52 383.53 348.25 383.14 345.88 382.6C345.27 381.33 345.41 380.03 346.76 379.82C349.41 379.39 353.87 381.83 352.69 383.79H352.68Z" fill="black" stroke="white" stroke-linecap="round" stroke-linejoin="round"/>
</g>
<path d="M346.75 379.82C343.59 380.34 347.06 386.79 351.34 384.83C355.62 382.87 349.91 379.3 346.75 379.82Z" stroke="white" stroke-linecap="round" stroke-linejoin="round"/>
<path d="M346.75 379.82C343.59 380.34 347.06 386.79 351.34 384.83C355.62 382.87 349.91 379.3 346.75 379.82Z" fill="#310075" stroke="white" stroke-linecap="round" stroke-linejoin="round"/>
<path d="M373.05 384.39C381.35 382.47 388.6 379.71 389 375.94C389.61 370.2 383.47 368.63 376.18 368.85C375.86 369.16 368.79 375.99 373.06 384.39H373.05Z" fill="#310075" stroke="white" stroke-linecap="round" stroke-linejoin="round"/>
<path d="M373.05 384.39C381.35 382.47 388.6 379.71 389 375.94C389.61 370.2 383.47 368.63 376.18 368.85C375.86 369.16 368.79 375.99 373.06 384.39H373.05Z" fill="#310075"/>
<mask id="mask3_966_2279" style="mask-type:luminance" maskUnits="userSpaceOnUse" x="371" y="368" width="19" height="17">
<path d="M373.05 384.39C381.35 382.47 388.6 379.71 389 375.94C389.61 370.2 383.47 368.63 376.18 368.85C375.86 369.16 368.79 375.99 373.06 384.39H373.05Z" fill="white"/>
</mask>
<g mask="url(#mask3_966_2279)">
<path opacity="0.3" d="M389.01 375.81C385.86 377.05 381.95 378.77 379.27 380.6C379.27 380.6 376.84 381.85 372.42 382.89C369.62 375.19 375.88 369.13 376.18 368.85C383.42 368.62 389.51 370.17 389.01 375.81Z" fill="black" stroke="white" stroke-linecap="round" stroke-linejoin="round"/>
</g>
<path d="M373.05 384.39C381.35 382.47 388.6 379.71 389 375.94C389.61 370.2 383.47 368.63 376.18 368.85C375.86 369.16 368.79 375.99 373.06 384.39H373.05Z" stroke="white" stroke-linecap="round" stroke-linejoin="round"/>
<path d="M373.05 384.39C381.35 382.47 388.6 379.71 389 375.94C389.61 370.2 383.47 368.63 376.18 368.85C375.86 369.16 368.79 375.99 373.06 384.39H373.05Z" fill="#310075" stroke="white" stroke-linecap="round" stroke-linejoin="round"/>
<path d="M367.13 377.26C367.13 377.26 367.16 377.26 367.18 377.26C367.66 377.28 368.07 376.91 368.09 376.44C368.26 372.82 371.05 369.88 371.08 369.85C371.41 369.5 371.4 368.96 371.05 368.62C370.7 368.29 370.16 368.3 369.83 368.64C369.7 368.78 366.57 372.07 366.36 376.35C366.34 376.81 366.68 377.21 367.13 377.25V377.26Z" fill="#310075" stroke="white" stroke-linecap="round" stroke-linejoin="round"/>
<path d="M363.66 377.47C363.66 377.47 363.71 377.47 363.73 377.47C364.21 377.48 364.61 377.1 364.61 376.62C364.68 372.97 367.24 369.8 367.26 369.77C367.56 369.4 367.51 368.85 367.14 368.55C366.77 368.25 366.23 368.3 365.92 368.67C365.8 368.82 362.96 372.32 362.87 376.59C362.87 377.04 363.2 377.42 363.64 377.47H363.66Z" fill="#310075" stroke="white" stroke-linecap="round" stroke-linejoin="round"/>
<path d="M359.51 377.03C359.51 377.03 359.52 377.03 359.53 377.03C360.01 377.07 360.43 376.72 360.47 376.24C360.74 373.2 363.32 369.32 363.35 369.28C363.62 368.88 363.51 368.34 363.11 368.08C362.71 367.81 362.17 367.92 361.91 368.32C361.79 368.49 359.05 372.61 358.74 376.1C358.7 376.57 359.04 376.99 359.51 377.04V377.03Z" fill="#310075" stroke="white" stroke-linecap="round" stroke-linejoin="round"/>
<path d="M355.59 376.61C355.67 376.61 355.74 376.61 355.82 376.61C356.29 376.53 356.61 376.08 356.53 375.61C355.91 371.93 359.33 368.77 359.37 368.74C359.72 368.42 359.75 367.87 359.43 367.52C359.11 367.17 358.56 367.14 358.21 367.46C358.04 367.61 354.05 371.27 354.82 375.9C354.89 376.29 355.21 376.58 355.58 376.62L355.59 376.61Z" fill="#310075" stroke="white" stroke-linecap="round" stroke-linejoin="round"/>
<path d="M351.33 375.59C351.42 375.6 351.52 375.59 351.62 375.57C352.09 375.46 352.38 375 352.27 374.53C351.52 371.25 354.75 367.54 354.79 367.5C355.11 367.14 355.07 366.59 354.71 366.28C354.35 365.96 353.81 365.99 353.49 366.35C353.33 366.53 349.63 370.76 350.58 374.92C350.66 375.29 350.98 375.55 351.33 375.59Z" fill="#310075" stroke="white" stroke-linecap="round" stroke-linejoin="round"/>
<path d="M261.23 369.16L259.97 372.82C259.97 372.82 261.57 379.55 271.52 381.67C281.47 383.79 287.18 386.65 291.98 387.45C296.78 388.25 299.64 388.14 299.64 388.14L300.78 386.77L261.23 369.17V369.16Z" fill="#310075" stroke="white" stroke-linecap="round" stroke-linejoin="round"/>
<path d="M319.65 374.93L300.79 386.76C300.79 386.76 287.4 384.26 276.21 380.39C268.16 377.6 261.24 374.1 261.24 370.3C261.24 364.53 267.51 363.61 274.74 364.6C276.09 364.77 277.47 365.02 278.86 365.32C290.34 367.79 305.77 362.94 305.77 362.94L319.67 374.94L319.65 374.93Z" fill="#310075" stroke="white" stroke-linecap="round" stroke-linejoin="round"/>
<path d="M319.65 374.93L300.79 386.76C300.79 386.76 287.4 384.26 276.21 380.39C268.16 377.6 261.24 374.1 261.24 370.3C261.24 364.53 267.51 363.61 274.74 364.6C276.09 364.77 277.47 365.02 278.86 365.32C290.34 367.79 305.77 362.94 305.77 362.94L319.67 374.94L319.65 374.93Z" fill="#310075"/>
<mask id="mask4_966_2279" style="mask-type:luminance" maskUnits="userSpaceOnUse" x="261" y="362" width="59" height="25">
<path d="M319.65 374.93L300.79 386.76C300.79 386.76 287.4 384.26 276.21 380.39C268.16 377.6 261.24 374.1 261.24 370.3C261.24 364.53 267.51 363.61 274.74 364.6C276.09 364.77 277.47 365.02 278.86 365.32C290.34 367.79 305.77 362.94 305.77 362.94L319.67 374.94L319.65 374.93Z" fill="white"/>
</mask>
<g mask="url(#mask4_966_2279)">
<path opacity="0.3" d="M319.65 374.93L308.55 381.89C297.41 378.53 290.16 371.44 286.02 366.02C295.86 366.05 305.75 362.93 305.75 362.93L319.65 374.93Z" fill="black" stroke="white" stroke-linecap="round" stroke-linejoin="round"/>
</g>
<path d="M319.65 374.93L300.79 386.76C300.79 386.76 287.4 384.26 276.21 380.39C268.16 377.6 261.24 374.1 261.24 370.3C261.24 364.53 267.51 363.61 274.74 364.6C276.09 364.77 277.47 365.02 278.86 365.32C290.34 367.79 305.77 362.94 305.77 362.94L319.67 374.94L319.65 374.93Z" stroke="white" stroke-linecap="round" stroke-linejoin="round"/>
<path d="M319.65 374.93L300.79 386.76C300.79 386.76 287.4 384.26 276.21 380.39C268.16 377.6 261.24 374.1 261.24 370.3C261.24 364.53 267.51 363.61 274.74 364.6C276.09 364.77 277.47 365.02 278.86 365.32C290.34 367.79 305.77 362.94 305.77 362.94L319.67 374.94L319.65 374.93Z" fill="#310075" stroke="white" stroke-linecap="round" stroke-linejoin="round"/>
<path d="M276.2 380.39C268.15 377.61 261.23 374.1 261.23 370.31C261.23 364.54 267.5 363.62 274.73 364.61C275.02 364.95 281.33 372.49 276.2 380.4V380.39Z" fill="#310075" stroke="white" stroke-linecap="round" stroke-linejoin="round"/>
<path d="M282.84 373.92C282.84 373.92 282.81 373.92 282.79 373.92C282.31 373.89 281.95 373.48 281.97 373.01C282.18 369.4 279.72 366.17 279.69 366.14C279.4 365.76 279.47 365.22 279.84 364.92C280.21 364.62 280.76 364.7 281.05 365.07C281.17 365.22 283.93 368.83 283.69 373.1C283.66 373.56 283.28 373.92 282.83 373.92H282.84Z" fill="#310075" stroke="white" stroke-linecap="round" stroke-linejoin="round"/>
<path d="M286.27 374.49C286.27 374.49 286.22 374.49 286.2 374.49C285.72 374.45 285.37 374.03 285.41 373.55C285.72 369.91 283.51 366.49 283.49 366.45C283.23 366.05 283.34 365.51 283.74 365.25C284.14 364.99 284.67 365.1 284.94 365.5C285.05 365.66 287.5 369.44 287.14 373.7C287.1 374.15 286.72 374.49 286.28 374.49H286.27Z" fill="#310075" stroke="white" stroke-linecap="round" stroke-linejoin="round"/>
<path d="M290.44 374.49H290.42C289.94 374.49 289.56 374.09 289.57 373.61C289.62 370.56 287.46 366.43 287.44 366.38C287.22 365.96 287.38 365.43 287.8 365.21C288.22 364.98 288.75 365.15 288.97 365.57C289.07 365.75 291.36 370.14 291.3 373.64C291.3 374.11 290.91 374.49 290.43 374.49H290.44Z" fill="#310075" stroke="white" stroke-linecap="round" stroke-linejoin="round"/>
<path d="M294.38 374.49C294.3 374.49 294.23 374.48 294.15 374.46C293.69 374.33 293.42 373.85 293.55 373.39C294.55 369.79 291.48 366.3 291.45 366.26C291.13 365.9 291.16 365.36 291.52 365.04C291.88 364.72 292.42 364.75 292.74 365.11C292.89 365.28 296.48 369.34 295.22 373.86C295.11 374.24 294.77 374.5 294.39 374.5L294.38 374.49Z" fill="#310075" stroke="white" stroke-linecap="round" stroke-linejoin="round"/>
<path d="M298.72 373.92C298.63 373.92 298.53 373.9 298.44 373.87C297.99 373.71 297.75 373.22 297.9 372.77C299 369.59 296.17 365.56 296.14 365.52C295.86 365.13 295.95 364.59 296.34 364.31C296.73 364.03 297.27 364.12 297.55 364.51C297.69 364.7 300.93 369.3 299.54 373.34C299.42 373.7 299.08 373.92 298.72 373.92Z" fill="#310075" stroke="white" stroke-linecap="round" stroke-linejoin="round"/>
<path d="M302.84 378.61C305.93 379.45 301.8 385.51 297.75 383.11C293.7 380.71 299.76 377.76 302.84 378.61Z" fill="#310075" stroke="white" stroke-linecap="round" stroke-linejoin="round"/>
<path d="M267.17 346.47C271.81 352.96 285.53 360.13 299.21 366.05C300.68 368.48 303.67 373.03 307.79 377.26C316.21 385.92 319.64 381.07 319.64 381.07C319.64 381.07 324.96 380.47 332.81 379.4C333.33 380.41 334.52 381.99 336.78 381.63C337.8 381.47 339.77 380.01 341.99 378.08C361.82 375.1 388.73 370.12 396 364.26" fill="#310075"/>
<path d="M267.17 346.47C271.81 352.96 285.53 360.13 299.21 366.05C300.68 368.48 303.67 373.03 307.79 377.26C316.21 385.92 319.64 381.07 319.64 381.07C319.64 381.07 324.96 380.47 332.81 379.4C333.33 380.41 334.52 381.99 336.78 381.63C337.8 381.47 339.77 380.01 341.99 378.08C361.82 375.1 388.73 370.12 396 364.26" stroke="white" stroke-linecap="round" stroke-linejoin="round"/>
<path d="M388.23 334.13C384.8 330.36 381.37 330.19 374.17 330.7C374.17 330.7 355.38 336.66 342.28 344.59C329.18 352.52 310.04 360.85 310.04 360.85C310.04 360.85 304.21 359.16 300.15 360.85C300.15 360.85 297.3 361.07 299.21 366.05" fill="#310075"/>
<path d="M388.23 334.13C384.8 330.36 381.37 330.19 374.17 330.7C374.17 330.7 355.38 336.66 342.28 344.59C329.18 352.52 310.04 360.85 310.04 360.85C310.04 360.85 304.21 359.16 300.15 360.85C300.15 360.85 297.3 361.07 299.21 366.05" stroke="white" stroke-linecap="round" stroke-linejoin="round"/>
<path d="M396.98 356.65C396.98 356.65 397.08 362.46 388.84 366.48L396.98 356.65Z" fill="#310075"/>
<path d="M396.98 356.65C396.98 356.65 397.08 362.46 388.84 366.48" stroke="white" stroke-linecap="round" stroke-linejoin="round"/>
<path d="M306.1 332.41C306.1 332.41 319.11 341.81 321.7 348.01C321.7 348.01 326.7 350.14 329.09 351.82" fill="#310075"/>
<path d="M306.1 332.41C306.1 332.41 319.11 341.81 321.7 348.01C321.7 348.01 326.7 350.14 329.09 351.82" stroke="white" stroke-linecap="round" stroke-linejoin="round"/>
<path d="M322.65 340.23C323.52 342.93 323.85 345.87 323.11 348.64L322.65 340.23Z" fill="#310075"/>
<path d="M322.65 340.23C323.52 342.93 323.85 345.87 323.11 348.64" stroke="white" stroke-linecap="round" stroke-linejoin="round"/>
<path d="M319.65 334.13C320.36 335.16 320.98 336.25 321.51 337.38L319.65 334.13Z" fill="#310075"/>
<path d="M319.65 334.13C320.36 335.16 320.98 336.25 321.51 337.38" stroke="white" stroke-linecap="round" stroke-linejoin="round"/>
<path d="M338.16 333.27C338.16 333.27 342.51 339.08 343.59 343.81L338.16 333.27Z" fill="#310075"/>
<path d="M338.16 333.27C338.16 333.27 342.51 339.08 343.59 343.81" stroke="white" stroke-linecap="round" stroke-linejoin="round"/>
<path d="M362.39 368.42C364.01 368.32 365.62 368.14 367.22 367.83L362.39 368.42Z" fill="#310075"/>
<path d="M362.39 368.42C364.01 368.32 365.62 368.14 367.22 367.83" stroke="white" stroke-linecap="round" stroke-linejoin="round"/>
<path d="M321.58 364.26C333.45 366.53 346.46 368.26 358.98 368.55L321.58 364.26Z" fill="#310075"/>
<path d="M321.58 364.26C333.45 366.53 346.46 368.26 358.98 368.55" stroke="white" stroke-linecap="round" stroke-linejoin="round"/>
<path d="M409.58 276.07C409.58 276.07 407.23 317.02 404.46 319.42C401.69 321.82 397.32 322.51 389.04 323.19C380.77 323.88 344.19 326.12 344.19 326.12L340.28 314.37C340.28 314.37 359.73 312.4 368.36 309.22C376.99 306.04 388.23 303.96 388.23 303.96C388.23 303.96 386.6 293.65 386.6 289.21V268.33" fill="#310075"/>
<path d="M409.58 276.07C409.58 276.07 407.23 317.02 404.46 319.42C401.69 321.82 397.32 322.51 389.04 323.19C380.77 323.88 344.19 326.12 344.19 326.12L340.28 314.37C340.28 314.37 359.73 312.4 368.36 309.22C376.99 306.04 388.23 303.96 388.23 303.96C388.23 303.96 386.6 293.65 386.6 289.21V268.33" stroke="white" stroke-linecap="round" stroke-linejoin="round"/>
<path d="M402.37 231.29C411.29 236.78 413.92 249.47 410.83 276.56C410.83 276.56 413.46 279.76 409.57 281.36C409.57 281.36 395 275.91 388.23 279.66C381.45 283.41 383.21 274.47 383.21 274.47C383.21 274.47 380.42 249.55 386.6 245.05" fill="#310075"/>
<path d="M402.37 231.29C411.29 236.78 413.92 249.47 410.83 276.56C410.83 276.56 413.46 279.76 409.57 281.36C409.57 281.36 395 275.91 388.23 279.66C381.45 283.41 383.21 274.47 383.21 274.47C383.21 274.47 380.42 249.55 386.6 245.05" stroke="white" stroke-linecap="round" stroke-linejoin="round"/>
<path d="M385.8 241.23C385.8 241.23 377.23 250.15 384.77 272.67C384.77 272.67 383.72 276.77 383.73 278.27C383.74 279.78 385.8 280.56 385.8 280.56" fill="#310075"/>
<path d="M385.8 241.23C385.8 241.23 377.23 250.15 384.77 272.67C384.77 272.67 383.72 276.77 383.73 278.27C383.74 279.78 385.8 280.56 385.8 280.56" stroke="white" stroke-linecap="round" stroke-linejoin="round"/>
<path d="M375.77 256.32C375.77 256.32 376.39 267.29 383.21 272.09L375.77 256.32Z" fill="#310075"/>
<path d="M375.77 256.32C375.77 256.32 376.39 267.29 383.21 272.09" stroke="white" stroke-linecap="round" stroke-linejoin="round"/>
<path d="M377.98 230.78C377.98 230.78 364.69 235.87 354.12 230.23C347.85 226.89 350.44 221.52 350.44 221.52" fill="#310075"/>
<path d="M377.98 230.78C377.98 230.78 364.69 235.87 354.12 230.23C347.85 226.89 350.44 221.52 350.44 221.52" stroke="white" stroke-linecap="round" stroke-linejoin="round"/>
<path d="M282.41 334.14H354.75C356.38 334.14 358.01 333.93 359.59 333.52L373.86 329.78C374.27 329.67 374.55 329.31 374.55 328.89C374.55 328.38 374.14 327.97 373.63 327.97H279.43C278.92 327.97 278.51 328.38 278.51 328.89V330.24C278.51 332.4 280.26 334.15 282.42 334.15L282.41 334.14Z" fill="#310075" stroke="white" stroke-linecap="round" stroke-linejoin="round"/>
<path d="M275.24 330.55H347.78C349.05 330.55 349.8 329.51 349.47 328.22L336.01 275.89C335.68 274.6 334.39 273.56 333.12 273.56H260.58C259.31 273.56 258.56 274.6 258.89 275.89L272.35 328.22C272.68 329.51 273.97 330.55 275.24 330.55Z" fill="#310075" stroke="white" stroke-linecap="round" stroke-linejoin="round"/>
<path d="M263.14 275.43H261.77" stroke="white" stroke-linecap="round" stroke-linejoin="round"/>
<path d="M273.77 275.43H266.68" stroke="white" stroke-linecap="round" stroke-linejoin="round"/>
<path d="M346.03 323.93L334.15 277.75C333.82 276.46 332.53 275.42 331.26 275.42H275.37" fill="#310075"/>
<path d="M346.03 323.93L334.15 277.75C333.82 276.46 332.53 275.42 331.26 275.42H275.37" stroke="white" stroke-linecap="round" stroke-linejoin="round"/>
<path d="M347.07 327.96L346.77 326.81" stroke="white" stroke-linecap="round" stroke-linejoin="round"/>
<path d="M297.07 303.38C297.12 303.79 297.2 304.21 297.32 304.63C298.25 307.78 301.2 309.69 303.91 308.9C306.62 308.11 308.07 304.9 307.14 301.75C306.21 298.59 303.25 296.69 300.54 297.48C300.22 297.58 299.91 297.71 299.62 297.87C299.85 300.2 298.85 302.38 297.06 303.38H297.07Z" fill="#310075" stroke="white" stroke-linecap="round" stroke-linejoin="round"/>
<path d="M329.09 205.31C322.81 204.62 319.38 198.66 315.61 197.73C311.84 196.8 309.43 195.74 309.43 195.74C309.43 195.74 308.13 191.2 306.18 192.78C304.24 194.37 301.67 228.27 304.18 227.21C306.69 226.15 306.69 230.15 306.69 230.15L330 250.7L349.54 216.1C349.54 216.1 335.36 206.01 329.08 205.32L329.09 205.31Z" fill="#310075" stroke="white" stroke-linecap="round" stroke-linejoin="round"/>
<path d="M333.22 214.48C333.22 214.48 327.27 225.65 326.52 242.74L333.22 214.48Z" fill="#310075"/>
<path d="M333.22 214.48C333.22 214.48 327.27 225.65 326.52 242.74" stroke="white" stroke-linecap="round" stroke-linejoin="round"/>
<path d="M315.62 222.22C315.62 222.22 317.41 231.72 322.65 238.6L315.62 222.22Z" fill="#310075"/>
<path d="M315.62 222.22C315.62 222.22 317.41 231.72 322.65 238.6" stroke="white" stroke-linecap="round" stroke-linejoin="round"/>
<path d="M340.28 261.41C340.28 261.41 349.26 290.97 368.84 299.67L340.28 261.41Z" fill="#310075"/>
<path d="M340.28 261.41C340.28 261.41 349.26 290.97 368.84 299.67" stroke="white" stroke-linecap="round" stroke-linejoin="round"/>
<path d="M363.94 207.91C363.94 207.91 363.09 214.36 356.89 214.81C356.23 213.31 355.19 211.67 354.14 210.2C358.25 208.88 363.94 207.91 363.94 207.91Z" fill="#310075" stroke="white" stroke-linecap="round" stroke-linejoin="round"/>
<path d="M377.15 208.36C377.15 208.36 387.52 209.63 391.86 195.71C396.2 181.79 392.79 171.3 375.62 166.25C366.1 163.45 356.59 165.7 353.16 172.9C350.22 179.08 351.61 184.21 350.93 186.28C350.17 188.6 343.16 190.57 343.16 192.16C343.16 193.48 347.05 195.71 347.05 195.71L345.91 199.17L346.99 199.74C346.99 199.74 345 207.53 345.91 210.28C346.58 212.29 364.14 213.12 365.52 208.15" fill="#310075"/>
<path d="M377.15 208.36C377.15 208.36 387.52 209.63 391.86 195.71C396.2 181.79 392.79 171.3 375.62 166.25C366.1 163.45 356.59 165.7 353.16 172.9C350.22 179.08 351.61 184.21 350.93 186.28C350.17 188.6 343.16 190.57 343.16 192.16C343.16 193.48 347.05 195.71 347.05 195.71L345.91 199.17L346.99 199.74C346.99 199.74 345 207.53 345.91 210.28C346.58 212.29 364.14 213.12 365.52 208.15" stroke="white" stroke-linecap="round" stroke-linejoin="round"/>
<path d="M353.25 177.96C353.25 177.96 356.68 178.82 357.62 180.62L353.25 177.96Z" fill="#310075"/>
<path d="M353.25 177.96C353.25 177.96 356.68 178.82 357.62 180.62" stroke="white" stroke-linecap="round" stroke-linejoin="round"/>
<path d="M353.85 185.86C353.7 186.87 353.93 187.74 354.37 187.8C354.8 187.86 355.27 187.1 355.42 186.09C355.57 185.08 355.34 184.21 354.9 184.15C354.47 184.09 354 184.85 353.85 185.86Z" fill="#310075" stroke="white" stroke-linecap="round" stroke-linejoin="round"/>
<path d="M346.98 199.74C346.98 199.74 352.56 201.88 354.64 200.59L346.98 199.74Z" fill="#310075"/>
<path d="M346.98 199.74C346.98 199.74 352.56 201.88 354.64 200.59" stroke="white" stroke-linecap="round" stroke-linejoin="round"/>
<path d="M348.94 185.07C348.52 187.31 349.02 189.27 350.06 189.46C351.1 189.65 352.26 188 352.68 185.76C353.1 183.52 352.6 181.56 351.56 181.37C350.53 181.18 349.36 182.83 348.94 185.07Z" fill="#310075" stroke="white" stroke-linecap="round" stroke-linejoin="round"/>
<path d="M392.31 173.67C392.31 173.67 391.51 167.84 385.79 163.61C380.07 159.38 373.21 158.47 373.21 158.47C373.21 158.47 376.53 159.92 377.78 161.82C377.78 161.82 369.21 155.38 359.03 159.61C348.86 163.84 350.11 174.83 350.11 174.83L351.6 171.95C351.6 171.95 351.43 175.38 353.23 176.64C353.23 176.64 354.32 173.32 355.42 171.84C355.42 171.84 358.12 179.96 365.55 182.7C365.55 182.7 364.75 181.1 365.44 178.7C365.44 178.7 369.55 187.62 368.35 191.96L369.67 194.25C369.67 194.25 374.4 189.46 378.24 193.45C380.45 195.74 374.01 204.42 373.1 204.42L376.99 210.14C376.99 210.14 386.71 211.53 392.31 201C397.91 190.48 396.54 185.98 396.54 185.98C396.54 185.98 398.37 188.54 398.6 190.02C398.6 190.02 400.2 178.7 392.31 173.67Z" fill="#310075" stroke="white" stroke-linecap="round" stroke-linejoin="round"/>
<path d="M369.45 195.28C369.45 195.28 372.43 185.19 378.83 188.75C385.23 192.31 380.65 197.68 378.37 199.74C376.08 201.8 374.37 205.57 372.88 205.57C371.39 205.57 371.05 203.74 371.05 203.74" fill="#310075"/>
<path d="M369.45 195.28C369.45 195.28 372.43 185.19 378.83 188.75C385.23 192.31 380.65 197.68 378.37 199.74C376.08 201.8 374.37 205.57 372.88 205.57C371.39 205.57 371.05 203.74 371.05 203.74" stroke="white" stroke-linecap="round" stroke-linejoin="round"/>
<path d="M352.68 185.76L370.48 189.46" stroke="white" stroke-linecap="round" stroke-linejoin="round"/>
<path d="M81.39 86.1001H96.98" stroke="white" stroke-linecap="round" stroke-linejoin="round"/>
<path d="M81.39 92.6901H139.98" stroke="white" stroke-linecap="round" stroke-linejoin="round"/>
<path d="M172.02 92.6901H230.62" stroke="white" stroke-linecap="round" stroke-linejoin="round"/>
<path d="M143.78 92.6901H166.96" stroke="white" stroke-linecap="round" stroke-linejoin="round"/>
<path d="M81.39 99.2801H115.11" stroke="white" stroke-linecap="round" stroke-linejoin="round"/>
<path d="M119.33 99.2801H153.05" stroke="white" stroke-linecap="round" stroke-linejoin="round"/>
<path d="M157.27 99.2801H190.99" stroke="white" stroke-linecap="round" stroke-linejoin="round"/>
<path d="M195.21 99.2801H209.54" stroke="white" stroke-linecap="round" stroke-linejoin="round"/>
<path d="M101.2 86.1001H116.8" stroke="white" stroke-linecap="round" stroke-linejoin="round"/>
<path d="M193.94 86.1001H209.54" stroke="white" stroke-linecap="round" stroke-linejoin="round"/>
<path d="M173.29 86.1001H188.88" stroke="white" stroke-linecap="round" stroke-linejoin="round"/>
<path d="M121.01 86.1001H166.54" stroke="white" stroke-linecap="round" stroke-linejoin="round"/>
<path d="M81.39 126.35H96.98" stroke="white" stroke-linecap="round" stroke-linejoin="round"/>
<path d="M81.39 132.95H139.98" stroke="white" stroke-linecap="round" stroke-linejoin="round"/>
<path d="M172.02 132.95H230.62" stroke="white" stroke-linecap="round" stroke-linejoin="round"/>
<path d="M143.78 132.95H166.96" stroke="white" stroke-linecap="round" stroke-linejoin="round"/>
<path d="M81.39 139.54H115.11" stroke="white" stroke-linecap="round" stroke-linejoin="round"/>
<path d="M119.33 139.54H153.05" stroke="white" stroke-linecap="round" stroke-linejoin="round"/>
<path d="M157.27 139.54H190.99" stroke="white" stroke-linecap="round" stroke-linejoin="round"/>
<path d="M195.21 139.54H209.54" stroke="white" stroke-linecap="round" stroke-linejoin="round"/>
<path d="M101.2 126.35H116.8" stroke="white" stroke-linecap="round" stroke-linejoin="round"/>
<path d="M193.94 126.35H209.54" stroke="white" stroke-linecap="round" stroke-linejoin="round"/>
<path d="M173.29 126.35H188.88" stroke="white" stroke-linecap="round" stroke-linejoin="round"/>
<path d="M121.01 126.35H166.54" stroke="white" stroke-linecap="round" stroke-linejoin="round"/>
<path d="M81.39 185.7H96.98" stroke="white" stroke-linecap="round" stroke-linejoin="round"/>
<path d="M81.39 192.29H139.98" stroke="white" stroke-linecap="round" stroke-linejoin="round"/>
<path d="M172.02 192.29H230.62" stroke="white" stroke-linecap="round" stroke-linejoin="round"/>
<path d="M143.78 192.29H166.96" stroke="white" stroke-linecap="round" stroke-linejoin="round"/>
<path d="M81.39 198.89H115.11" stroke="white" stroke-linecap="round" stroke-linejoin="round"/>
<path d="M119.33 198.89H153.05" stroke="white" stroke-linecap="round" stroke-linejoin="round"/>
<path d="M157.27 198.89H190.99" stroke="white" stroke-linecap="round" stroke-linejoin="round"/>
<path d="M195.21 198.89H209.54" stroke="white" stroke-linecap="round" stroke-linejoin="round"/>
<path d="M101.2 185.7H116.8" stroke="white" stroke-linecap="round" stroke-linejoin="round"/>
<path d="M193.94 185.7H209.54" stroke="white" stroke-linecap="round" stroke-linejoin="round"/>
<path d="M173.29 185.7H188.88" stroke="white" stroke-linecap="round" stroke-linejoin="round"/>
<path d="M121.01 185.7H166.54" stroke="white" stroke-linecap="round" stroke-linejoin="round"/>
<path d="M169.07 106.23H184.67" stroke="white" stroke-linecap="round" stroke-linejoin="round"/>
<path d="M148.42 106.23H164.01" stroke="white" stroke-linecap="round" stroke-linejoin="round"/>
<path d="M96.14 106.23H141.67" stroke="white" stroke-linecap="round" stroke-linejoin="round"/>
<path d="M169.07 118.02H184.67" stroke="white" stroke-linecap="round" stroke-linejoin="round"/>
<path d="M148.42 118.02H164.01" stroke="white" stroke-linecap="round" stroke-linejoin="round"/>
<path d="M96.14 118.02H141.67" stroke="white" stroke-linecap="round" stroke-linejoin="round"/>
<path d="M111.74 112.12H96.14" stroke="white" stroke-linecap="round" stroke-linejoin="round"/>
<path d="M132.4 112.12H116.8" stroke="white" stroke-linecap="round" stroke-linejoin="round"/>
<path d="M184.67 112.12H139.14" stroke="white" stroke-linecap="round" stroke-linejoin="round"/>
<path d="M169.07 147.52H184.67" stroke="white" stroke-linecap="round" stroke-linejoin="round"/>
<path d="M148.42 147.52H164.01" stroke="white" stroke-linecap="round" stroke-linejoin="round"/>
<path d="M96.14 147.52H141.67" stroke="white" stroke-linecap="round" stroke-linejoin="round"/>
<path d="M169.07 159.32H184.67" stroke="white" stroke-linecap="round" stroke-linejoin="round"/>
<path d="M148.42 159.32H164.01" stroke="white" stroke-linecap="round" stroke-linejoin="round"/>
<path d="M96.14 159.32H141.67" stroke="white" stroke-linecap="round" stroke-linejoin="round"/>
<path d="M111.74 153.42H96.14" stroke="white" stroke-linecap="round" stroke-linejoin="round"/>
<path d="M132.4 153.42H116.8" stroke="white" stroke-linecap="round" stroke-linejoin="round"/>
<path d="M184.67 153.42H139.14" stroke="white" stroke-linecap="round" stroke-linejoin="round"/>
<path d="M111.74 166.26H96.14" stroke="white" stroke-linecap="round" stroke-linejoin="round"/>
<path d="M132.4 166.26H116.8" stroke="white" stroke-linecap="round" stroke-linejoin="round"/>
<path d="M184.67 166.26H139.14" stroke="white" stroke-linecap="round" stroke-linejoin="round"/>
<path d="M111.74 178.06H96.14" stroke="white" stroke-linecap="round" stroke-linejoin="round"/>
<path d="M132.4 178.06H116.8" stroke="white" stroke-linecap="round" stroke-linejoin="round"/>
<path d="M184.67 178.06H139.14" stroke="white" stroke-linecap="round" stroke-linejoin="round"/>
<path d="M169.07 172.16H184.67" stroke="white" stroke-linecap="round" stroke-linejoin="round"/>
<path d="M148.42 172.16H164.01" stroke="white" stroke-linecap="round" stroke-linejoin="round"/>
<path d="M96.14 172.16H141.67" stroke="white" stroke-linecap="round" stroke-linejoin="round"/>
<path d="M75.6 83.8101H70.62V87.8601H75.6V83.8101Z" fill="#310075" stroke="white" stroke-linecap="round" stroke-linejoin="round"/>
<path d="M75.6 90.4601H70.62V94.5101H75.6V90.4601Z" fill="#310075" stroke="white" stroke-linecap="round" stroke-linejoin="round"/>
<path d="M75.6 97.11H70.62V101.16H75.6V97.11Z" fill="#310075" stroke="white" stroke-linecap="round" stroke-linejoin="round"/>
<path d="M75.6 103.76H70.62V107.81H75.6V103.76Z" fill="#310075" stroke="white" stroke-linecap="round" stroke-linejoin="round"/>
<path d="M75.6 110.42H70.62V114.47H75.6V110.42Z" fill="#310075" stroke="white" stroke-linecap="round" stroke-linejoin="round"/>
<path d="M75.6 117.07H70.62V121.12H75.6V117.07Z" fill="#310075" stroke="white" stroke-linecap="round" stroke-linejoin="round"/>
<path d="M75.6 123.72H70.62V127.77H75.6V123.72Z" fill="#310075" stroke="white" stroke-linecap="round" stroke-linejoin="round"/>
<path d="M75.6 130.37H70.62V134.42H75.6V130.37Z" fill="#310075" stroke="white" stroke-linecap="round" stroke-linejoin="round"/>
<path d="M75.6 137.03H70.62V141.08H75.6V137.03Z" fill="#310075" stroke="white" stroke-linecap="round" stroke-linejoin="round"/>
<path d="M75.6 143.68H70.62V147.73H75.6V143.68Z" fill="#310075" stroke="white" stroke-linecap="round" stroke-linejoin="round"/>
<path d="M75.6 150.33H70.62V154.38H75.6V150.33Z" fill="#310075" stroke="white" stroke-linecap="round" stroke-linejoin="round"/>
<path d="M75.6 156.98H70.62V161.03H75.6V156.98Z" fill="#310075" stroke="white" stroke-linecap="round" stroke-linejoin="round"/>
<path d="M75.6 163.63H70.62V167.68H75.6V163.63Z" fill="#310075" stroke="white" stroke-linecap="round" stroke-linejoin="round"/>
<path d="M75.6 170.29H70.62V174.34H75.6V170.29Z" fill="#310075" stroke="white" stroke-linecap="round" stroke-linejoin="round"/>
<path d="M75.6 176.94H70.62V180.99H75.6V176.94Z" fill="#310075" stroke="white" stroke-linecap="round" stroke-linejoin="round"/>
<path d="M75.6 183.59H70.62V187.64H75.6V183.59Z" fill="#310075" stroke="white" stroke-linecap="round" stroke-linejoin="round"/>
<path d="M75.6 190.24H70.62V194.29H75.6V190.24Z" fill="#310075" stroke="white" stroke-linecap="round" stroke-linejoin="round"/>
<path d="M75.6 196.9H70.62V200.95H75.6V196.9Z" fill="#310075" stroke="white" stroke-linecap="round" stroke-linejoin="round"/>
<path d="M308.414 23.3398H311.918C311.848 24.4883 311.531 25.5078 310.969 26.3984C310.414 27.2891 309.637 27.9844 308.637 28.4844C307.645 28.9844 306.449 29.2344 305.051 29.2344C303.957 29.2344 302.977 29.0469 302.109 28.6719C301.242 28.2891 300.5 27.7422 299.883 27.0312C299.273 26.3203 298.809 25.4609 298.488 24.4531C298.168 23.4453 298.008 22.3164 298.008 21.0664V19.8828C298.008 18.6328 298.172 17.5039 298.5 16.4961C298.836 15.4805 299.312 14.6172 299.93 13.9062C300.555 13.1953 301.301 12.6484 302.168 12.2656C303.035 11.8828 304.004 11.6914 305.074 11.6914C306.496 11.6914 307.695 11.9492 308.672 12.4648C309.656 12.9805 310.418 13.6914 310.957 14.5977C311.504 15.5039 311.832 16.5352 311.941 17.6914H308.426C308.387 17.0039 308.25 16.4219 308.016 15.9453C307.781 15.4609 307.426 15.0977 306.949 14.8555C306.48 14.6055 305.855 14.4805 305.074 14.4805C304.488 14.4805 303.977 14.5898 303.539 14.8086C303.102 15.0273 302.734 15.3594 302.438 15.8047C302.141 16.25 301.918 16.8125 301.77 17.4922C301.629 18.1641 301.559 18.9531 301.559 19.8594V21.0664C301.559 21.9492 301.625 22.7266 301.758 23.3984C301.891 24.0625 302.094 24.625 302.367 25.0859C302.648 25.5391 303.008 25.8828 303.445 26.1172C303.891 26.3438 304.426 26.457 305.051 26.457C305.785 26.457 306.391 26.3398 306.867 26.1055C307.344 25.8711 307.707 25.5234 307.957 25.0625C308.215 24.6016 308.367 24.0273 308.414 23.3398ZM323.569 24.5352C323.569 24.2305 323.522 23.957 323.429 23.7148C323.343 23.4648 323.179 23.2383 322.937 23.0352C322.694 22.8242 322.355 22.6172 321.917 22.4141C321.48 22.2109 320.913 22 320.218 21.7812C319.444 21.5312 318.71 21.25 318.015 20.9375C317.327 20.625 316.718 20.2617 316.187 19.8477C315.663 19.4258 315.249 18.9375 314.944 18.3828C314.647 17.8281 314.499 17.1836 314.499 16.4492C314.499 15.7383 314.655 15.0938 314.968 14.5156C315.28 13.9297 315.718 13.4297 316.28 13.0156C316.843 12.5938 317.507 12.2695 318.272 12.043C319.046 11.8164 319.894 11.7031 320.815 11.7031C322.073 11.7031 323.171 11.9297 324.108 12.3828C325.046 12.8359 325.772 13.457 326.288 14.2461C326.812 15.0352 327.073 15.9375 327.073 16.9531H323.581C323.581 16.4531 323.476 16.0156 323.265 15.6406C323.062 15.2578 322.749 14.957 322.327 14.7383C321.913 14.5195 321.39 14.4102 320.757 14.4102C320.147 14.4102 319.64 14.5039 319.233 14.6914C318.827 14.8711 318.522 15.1172 318.319 15.4297C318.116 15.7344 318.015 16.0781 318.015 16.4609C318.015 16.75 318.085 17.0117 318.226 17.2461C318.374 17.4805 318.593 17.6992 318.882 17.9023C319.171 18.1055 319.526 18.2969 319.948 18.4766C320.37 18.6562 320.858 18.832 321.413 19.0039C322.343 19.2852 323.159 19.6016 323.862 19.9531C324.573 20.3047 325.167 20.6992 325.644 21.1367C326.12 21.5742 326.48 22.0703 326.722 22.625C326.964 23.1797 327.085 23.8086 327.085 24.5117C327.085 25.2539 326.94 25.918 326.651 26.5039C326.362 27.0898 325.944 27.5859 325.397 27.9922C324.851 28.3984 324.198 28.707 323.44 28.918C322.683 29.1289 321.835 29.2344 320.897 29.2344C320.054 29.2344 319.222 29.125 318.401 28.9062C317.581 28.6797 316.835 28.3398 316.163 27.8867C315.499 27.4336 314.968 26.8555 314.569 26.1523C314.171 25.4492 313.972 24.6172 313.972 23.6562H317.499C317.499 24.1875 317.581 24.6367 317.745 25.0039C317.909 25.3711 318.14 25.668 318.437 25.8945C318.741 26.1211 319.101 26.2852 319.515 26.3867C319.937 26.4883 320.397 26.5391 320.897 26.5391C321.507 26.5391 322.007 26.4531 322.397 26.2812C322.796 26.1094 323.089 25.8711 323.276 25.5664C323.472 25.2617 323.569 24.918 323.569 24.5352ZM338.818 24.5352C338.818 24.2305 338.772 23.957 338.678 23.7148C338.592 23.4648 338.428 23.2383 338.186 23.0352C337.943 22.8242 337.604 22.6172 337.166 22.4141C336.729 22.2109 336.162 22 335.467 21.7812C334.693 21.5312 333.959 21.25 333.264 20.9375C332.576 20.625 331.967 20.2617 331.436 19.8477C330.912 19.4258 330.498 18.9375 330.193 18.3828C329.897 17.8281 329.748 17.1836 329.748 16.4492C329.748 15.7383 329.904 15.0938 330.217 14.5156C330.529 13.9297 330.967 13.4297 331.529 13.0156C332.092 12.5938 332.756 12.2695 333.522 12.043C334.295 11.8164 335.143 11.7031 336.065 11.7031C337.322 11.7031 338.42 11.9297 339.358 12.3828C340.295 12.8359 341.022 13.457 341.537 14.2461C342.061 15.0352 342.322 15.9375 342.322 16.9531H338.83C338.83 16.4531 338.725 16.0156 338.514 15.6406C338.311 15.2578 337.998 14.957 337.576 14.7383C337.162 14.5195 336.639 14.4102 336.006 14.4102C335.397 14.4102 334.889 14.5039 334.483 14.6914C334.076 14.8711 333.772 15.1172 333.568 15.4297C333.365 15.7344 333.264 16.0781 333.264 16.4609C333.264 16.75 333.334 17.0117 333.475 17.2461C333.623 17.4805 333.842 17.6992 334.131 17.9023C334.42 18.1055 334.775 18.2969 335.197 18.4766C335.619 18.6562 336.108 18.832 336.662 19.0039C337.592 19.2852 338.408 19.6016 339.111 19.9531C339.822 20.3047 340.416 20.6992 340.893 21.1367C341.369 21.5742 341.729 22.0703 341.971 22.625C342.213 23.1797 342.334 23.8086 342.334 24.5117C342.334 25.2539 342.19 25.918 341.9 26.5039C341.611 27.0898 341.193 27.5859 340.647 27.9922C340.1 28.3984 339.447 28.707 338.69 28.918C337.932 29.1289 337.084 29.2344 336.147 29.2344C335.303 29.2344 334.471 29.125 333.65 28.9062C332.83 28.6797 332.084 28.3398 331.412 27.8867C330.748 27.4336 330.217 26.8555 329.818 26.1523C329.42 25.4492 329.221 24.6172 329.221 23.6562H332.748C332.748 24.1875 332.83 24.6367 332.994 25.0039C333.158 25.3711 333.389 25.668 333.686 25.8945C333.99 26.1211 334.35 26.2852 334.764 26.3867C335.186 26.4883 335.647 26.5391 336.147 26.5391C336.756 26.5391 337.256 26.4531 337.647 26.2812C338.045 26.1094 338.338 25.8711 338.525 25.5664C338.721 25.2617 338.818 24.918 338.818 24.5352Z" fill="white"/>
<path d="M20.1289 307.938H23.1055L27.4883 320.465L31.8711 307.938H34.8477L28.6836 325H26.293L20.1289 307.938ZM18.5234 307.938H21.4883L22.0273 320.148V325H18.5234V307.938ZM33.4883 307.938H36.4648V325H32.9492V320.148L33.4883 307.938ZM43.5577 323.57L46.9209 312.32H50.542L45.4444 326.91C45.335 327.23 45.1866 327.574 44.9991 327.941C44.8194 328.309 44.5733 328.656 44.2608 328.984C43.9561 329.32 43.5694 329.594 43.1006 329.805C42.6397 330.016 42.0733 330.121 41.4014 330.121C41.0811 330.121 40.8194 330.102 40.6162 330.062C40.4131 330.023 40.1709 329.969 39.8897 329.898V327.426C39.9756 327.426 40.0655 327.426 40.1592 327.426C40.253 327.434 40.3428 327.438 40.4287 327.438C40.8741 327.438 41.2373 327.387 41.5186 327.285C41.7998 327.184 42.0264 327.027 42.1983 326.816C42.3702 326.613 42.5069 326.348 42.6084 326.02L43.5577 323.57ZM42.1514 312.32L44.9053 321.508L45.3858 325.082L43.0889 325.328L38.5303 312.32H42.1514ZM61.4434 320.535C61.4434 320.23 61.3966 319.957 61.3028 319.715C61.2169 319.465 61.0528 319.238 60.8106 319.035C60.5684 318.824 60.2286 318.617 59.7911 318.414C59.3536 318.211 58.7872 318 58.0919 317.781C57.3184 317.531 56.5841 317.25 55.8887 316.938C55.2012 316.625 54.5919 316.262 54.0606 315.848C53.5372 315.426 53.1231 314.938 52.8184 314.383C52.5216 313.828 52.3731 313.184 52.3731 312.449C52.3731 311.738 52.5294 311.094 52.8419 310.516C53.1544 309.93 53.5919 309.43 54.1544 309.016C54.7169 308.594 55.3809 308.27 56.1466 308.043C56.92 307.816 57.7677 307.703 58.6895 307.703C59.9473 307.703 61.045 307.93 61.9825 308.383C62.92 308.836 63.6466 309.457 64.1622 310.246C64.6856 311.035 64.9473 311.938 64.9473 312.953H61.4552C61.4552 312.453 61.3497 312.016 61.1387 311.641C60.9356 311.258 60.6231 310.957 60.2012 310.738C59.7872 310.52 59.2637 310.41 58.6309 310.41C58.0216 310.41 57.5137 310.504 57.1075 310.691C56.7012 310.871 56.3966 311.117 56.1934 311.43C55.9903 311.734 55.8887 312.078 55.8887 312.461C55.8887 312.75 55.9591 313.012 56.0997 313.246C56.2481 313.48 56.4669 313.699 56.7559 313.902C57.045 314.105 57.4005 314.297 57.8223 314.477C58.2442 314.656 58.7325 314.832 59.2872 315.004C60.2169 315.285 61.0333 315.602 61.7364 315.953C62.4473 316.305 63.0411 316.699 63.5177 317.137C63.9942 317.574 64.3536 318.07 64.5958 318.625C64.838 319.18 64.9591 319.809 64.9591 320.512C64.9591 321.254 64.8145 321.918 64.5255 322.504C64.2364 323.09 63.8184 323.586 63.2716 323.992C62.7247 324.398 62.0723 324.707 61.3145 324.918C60.5567 325.129 59.7091 325.234 58.7716 325.234C57.9278 325.234 57.0958 325.125 56.2755 324.906C55.4552 324.68 54.7091 324.34 54.0372 323.887C53.3731 323.434 52.8419 322.855 52.4434 322.152C52.045 321.449 51.8458 320.617 51.8458 319.656H55.3731C55.3731 320.188 55.4552 320.637 55.6192 321.004C55.7833 321.371 56.0137 321.668 56.3106 321.895C56.6153 322.121 56.9747 322.285 57.3887 322.387C57.8106 322.488 58.2716 322.539 58.7716 322.539C59.3809 322.539 59.8809 322.453 60.2716 322.281C60.67 322.109 60.963 321.871 61.1505 321.566C61.3458 321.262 61.4434 320.918 61.4434 320.535ZM77.0792 322.469L81.6964 326.125L79.4816 328.047L74.9347 324.391L77.0792 322.469ZM81.8136 316.07V316.879C81.8136 318.176 81.6378 319.34 81.2863 320.371C80.9425 321.402 80.4464 322.281 79.798 323.008C79.1495 323.727 78.3839 324.277 77.5011 324.66C76.6183 325.043 75.6378 325.234 74.5597 325.234C73.4894 325.234 72.5089 325.043 71.6183 324.66C70.7277 324.277 69.9581 323.727 69.3097 323.008C68.6613 322.281 68.1573 321.402 67.798 320.371C67.4464 319.34 67.2706 318.176 67.2706 316.879V316.07C67.2706 314.766 67.4464 313.602 67.798 312.578C68.1573 311.547 68.6573 310.668 69.298 309.941C69.9386 309.215 70.7042 308.66 71.5948 308.277C72.4855 307.895 73.4659 307.703 74.5363 307.703C75.6144 307.703 76.5948 307.895 77.4777 308.277C78.3683 308.66 79.1378 309.215 79.7863 309.941C80.4347 310.668 80.9347 311.547 81.2863 312.578C81.6378 313.602 81.8136 314.766 81.8136 316.07ZM78.2628 316.879V316.047C78.2628 315.141 78.1769 314.344 78.005 313.656C77.8409 312.969 77.5988 312.391 77.2784 311.922C76.9659 311.453 76.5792 311.102 76.1183 310.867C75.6573 310.625 75.13 310.504 74.5363 310.504C73.9425 310.504 73.4152 310.625 72.9542 310.867C72.4933 311.102 72.1066 311.453 71.7941 311.922C71.4816 312.391 71.2433 312.969 71.0792 313.656C70.9152 314.344 70.8331 315.141 70.8331 316.047V316.879C70.8331 317.777 70.9152 318.574 71.0792 319.27C71.2433 319.957 71.4816 320.539 71.7941 321.016C72.1144 321.484 72.505 321.84 72.9659 322.082C73.4347 322.324 73.9659 322.445 74.5597 322.445C75.1534 322.445 75.6769 322.324 76.13 322.082C76.5909 321.84 76.9777 321.484 77.2902 321.016C77.6105 320.539 77.8527 319.957 78.0167 319.27C78.1808 318.574 78.2628 317.777 78.2628 316.879ZM95.7853 322.258V325H87.1955V322.258H95.7853ZM88.3322 307.938V325H84.8166V307.938H88.3322Z" fill="white"/>
<path d="M167.477 382.371C167.477 381.871 167.648 381.453 167.992 381.117C168.344 380.781 168.809 380.613 169.387 380.613C169.965 380.613 170.426 380.781 170.77 381.117C171.121 381.453 171.297 381.871 171.297 382.371C171.297 382.871 171.121 383.289 170.77 383.625C170.426 383.961 169.965 384.129 169.387 384.129C168.809 384.129 168.344 383.961 167.992 383.625C167.648 383.289 167.477 382.871 167.477 382.371ZM188.831 366.938V384H185.315L178.46 372.562V384H174.944V366.938H178.46L185.327 378.387V366.938H188.831ZM203.799 381.258V384H194.717V381.258H203.799ZM195.865 366.938V384H192.35V366.938H195.865ZM202.615 373.887V376.559H194.717V373.887H202.615ZM203.787 366.938V369.691H194.717V366.938H203.787ZM214.173 366.938V384H210.669V366.938H214.173ZM219.423 366.938V369.691H205.501V366.938H219.423Z" fill="white"/>
<path d="M413.461 130.855L408.82 145H405.082L411.422 127.938H413.801L413.461 130.855ZM417.316 145L412.664 130.855L412.289 127.938H414.691L421.066 145H417.316ZM417.105 138.648V141.402H408.094V138.648H417.105ZM429.753 138.918H425.405V136.176H429.753C430.425 136.176 430.972 136.066 431.394 135.848C431.815 135.621 432.124 135.309 432.319 134.91C432.515 134.512 432.612 134.062 432.612 133.562C432.612 133.055 432.515 132.582 432.319 132.145C432.124 131.707 431.815 131.355 431.394 131.09C430.972 130.824 430.425 130.691 429.753 130.691H426.624V145H423.108V127.938H429.753C431.089 127.938 432.233 128.18 433.187 128.664C434.147 129.141 434.882 129.801 435.39 130.645C435.897 131.488 436.151 132.453 436.151 133.539C436.151 134.641 435.897 135.594 435.39 136.398C434.882 137.203 434.147 137.824 433.187 138.262C432.233 138.699 431.089 138.918 429.753 138.918ZM442.775 127.938V145H439.272V127.938H442.775Z" fill="white"/>
<path d="M12.9023 21.8867V24.6289H3.99609V21.8867H12.9023ZM5.03906 14.9375V32H1.52344V14.9375H5.03906ZM15.4102 14.9375V32H11.9062V14.9375H15.4102ZM26.2061 14.9375V32H22.7022V14.9375H26.2061ZM31.4561 14.9375V17.6914H17.5342V14.9375H31.4561ZM35.5255 14.9375H38.502L42.8848 27.4648L47.2677 14.9375H50.2442L44.0802 32H41.6895L35.5255 14.9375ZM33.92 14.9375H36.8848L37.4239 27.1484V32H33.92V14.9375ZM48.8848 14.9375H51.8614V32H48.3458V27.1484L48.8848 14.9375ZM66.3722 29.2578V32H57.7823V29.2578H66.3722ZM58.9191 14.9375V32H55.4034V14.9375H58.9191Z" fill="white"/>
</svg>
