<svg width="477" height="363" viewBox="0 0 477 483" fill="none" xmlns="http://www.w3.org/2000/svg">
<path d="M476.46 479.778H0.540527" stroke="white" stroke-linecap="round" stroke-linejoin="round"/>
<g opacity="0.3">
<path d="M208.697 18.9965V414.204H337.054V18.9965H208.697ZM330.59 27.7758V86.106H277.167V27.7758H330.59ZM269.178 27.7758V86.106H215.161V27.7758H269.178ZM215.161 95.361H269.178V153.237H215.161V95.361ZM330.59 405.425H215.161V163.281H330.59V405.425ZM277.167 153.237V95.361H330.59V153.237H277.167Z" stroke="#310075" stroke-linecap="round" stroke-linejoin="round"/>
<path d="M336.557 18.9965V414.204H464.915V18.9965H336.557ZM458.45 27.7758V86.106H405.027V27.7758H458.45ZM397.039 27.7758V86.106H343.021V27.7758H397.039ZM343.021 95.361H397.039V153.237H343.021V95.361ZM458.45 405.425H343.021V163.281H458.45V405.425ZM405.017 153.237V95.361H458.439V153.237H405.017Z" stroke="#310075" stroke-linecap="round" stroke-linejoin="round"/>
<path d="M301.857 228.877L269.633 268.989" stroke="#310075" stroke-linecap="round" stroke-linejoin="round"/>
<path d="M309.856 218.919L304.732 225.298" stroke="#310075" stroke-linecap="round" stroke-linejoin="round"/>
<path d="M234.598 298.235L227.993 305.998" stroke="#310075" stroke-linecap="round" stroke-linejoin="round"/>
<path d="M277.394 247.949L239.538 292.44" stroke="#310075" stroke-linecap="round" stroke-linejoin="round"/>
<path d="M431.695 241.127L399.471 281.239" stroke="#310075" stroke-linecap="round" stroke-linejoin="round"/>
<path d="M439.695 231.169L434.571 237.548" stroke="#310075" stroke-linecap="round" stroke-linejoin="round"/>
<path d="M364.436 310.485L357.842 318.248" stroke="#310075" stroke-linecap="round" stroke-linejoin="round"/>
<path d="M407.232 260.188L369.376 304.679" stroke="#310075" stroke-linecap="round" stroke-linejoin="round"/>
<path d="M446.581 36.9443L431.155 56.1462" stroke="#310075" stroke-linecap="round" stroke-linejoin="round"/>
<path d="M450.407 32.1762L447.953 35.236" stroke="#310075" stroke-linecap="round" stroke-linejoin="round"/>
<path d="M414.388 70.1476L411.232 73.8561" stroke="#310075" stroke-linecap="round" stroke-linejoin="round"/>
<path d="M434.873 46.0695L416.745 67.369" stroke="#310075" stroke-linecap="round" stroke-linejoin="round"/>
<path d="M386.391 36.9443L370.965 56.1462" stroke="#310075" stroke-linecap="round" stroke-linejoin="round"/>
<path d="M390.218 32.1762L387.764 35.236" stroke="#310075" stroke-linecap="round" stroke-linejoin="round"/>
<path d="M354.199 70.1476L351.031 73.8561" stroke="#310075" stroke-linecap="round" stroke-linejoin="round"/>
<path d="M374.683 46.0695L356.566 67.369" stroke="#310075" stroke-linecap="round" stroke-linejoin="round"/>
<path d="M386.391 108.876L370.965 128.078" stroke="#310075" stroke-linecap="round" stroke-linejoin="round"/>
<path d="M390.218 104.108L387.764 107.168" stroke="#310075" stroke-linecap="round" stroke-linejoin="round"/>
<path d="M354.199 142.079L351.031 145.798" stroke="#310075" stroke-linecap="round" stroke-linejoin="round"/>
<path d="M374.683 118.012L356.566 139.301" stroke="#310075" stroke-linecap="round" stroke-linejoin="round"/>
<path d="M440.073 108.876L424.647 128.078" stroke="#310075" stroke-linecap="round" stroke-linejoin="round"/>
<path d="M443.9 104.108L441.446 107.168" stroke="#310075" stroke-linecap="round" stroke-linejoin="round"/>
<path d="M407.881 142.079L404.714 145.798" stroke="#310075" stroke-linecap="round" stroke-linejoin="round"/>
<path d="M428.366 118.012L410.249 139.301" stroke="#310075" stroke-linecap="round" stroke-linejoin="round"/>
<path d="M319.693 36.9443L304.268 56.1462" stroke="#310075" stroke-linecap="round" stroke-linejoin="round"/>
<path d="M323.52 32.1762L321.066 35.236" stroke="#310075" stroke-linecap="round" stroke-linejoin="round"/>
<path d="M287.501 70.1476L284.345 73.8561" stroke="#310075" stroke-linecap="round" stroke-linejoin="round"/>
<path d="M307.986 46.0695L289.869 67.369" stroke="#310075" stroke-linecap="round" stroke-linejoin="round"/>
<path d="M319.693 107.211L304.268 126.402" stroke="#310075" stroke-linecap="round" stroke-linejoin="round"/>
<path d="M323.52 102.443L321.066 105.492" stroke="#310075" stroke-linecap="round" stroke-linejoin="round"/>
<path d="M287.501 140.403L284.345 144.123" stroke="#310075" stroke-linecap="round" stroke-linejoin="round"/>
<path d="M307.986 116.336L289.869 137.625" stroke="#310075" stroke-linecap="round" stroke-linejoin="round"/>
<path d="M261.136 107.211L245.71 126.402" stroke="#310075" stroke-linecap="round" stroke-linejoin="round"/>
<path d="M264.963 102.443L262.509 105.492" stroke="#310075" stroke-linecap="round" stroke-linejoin="round"/>
<path d="M228.944 140.403L225.776 144.123" stroke="#310075" stroke-linecap="round" stroke-linejoin="round"/>
<path d="M249.418 116.336L231.3 137.625" stroke="#310075" stroke-linecap="round" stroke-linejoin="round"/>
<path d="M257.061 36.9443L241.646 56.1462" stroke="#310075" stroke-linecap="round" stroke-linejoin="round"/>
<path d="M260.898 32.1762L258.444 35.236" stroke="#310075" stroke-linecap="round" stroke-linejoin="round"/>
<path d="M224.868 70.1476L221.712 73.8561" stroke="#310075" stroke-linecap="round" stroke-linejoin="round"/>
<path d="M245.353 46.0695L227.236 67.369" stroke="#310075" stroke-linecap="round" stroke-linejoin="round"/>
</g>
<path opacity="0.2" d="M295.912 361.539H22.182C15.9122 361.539 10.8315 356.458 10.8315 350.187V18.3802C10.8315 12.1093 15.9122 7.02774 22.182 7.02774H295.912C302.181 7.02774 307.262 12.1093 307.262 18.3802V350.187C307.262 356.458 302.181 361.539 295.912 361.539Z" fill="#310075"/>
<path d="M287.264 355.052H13.534C7.26427 355.052 2.18359 349.97 2.18359 343.699V11.8931C2.18359 5.62218 7.26427 0.540588 13.534 0.540588H287.264C293.533 0.540588 298.614 5.62218 298.614 11.8931V343.699C298.614 349.97 293.533 355.052 287.264 355.052Z" fill="#310075" stroke="white" stroke-linecap="round" stroke-linejoin="round"/>
<path d="M255.309 0.540588H34.3647V355.052H255.309V0.540588Z" fill="#310075" stroke="white" stroke-linecap="round" stroke-linejoin="round"/>
<path d="M288.777 1.37311V355.744C294.312 355.128 298.625 350.435 298.625 344.737V12.3796C298.625 6.68175 294.323 1.98939 288.777 1.37311Z" fill="#310075" stroke="white" stroke-linecap="round" stroke-linejoin="round"/>
<path d="M298.625 138.825H288.777V194.398H298.625V138.825Z" fill="#310075" stroke="white" stroke-linecap="round" stroke-linejoin="round"/>
<path d="M298.614 47.0966V12.3796C298.614 6.26009 293.652 1.29742 287.534 1.29742H13.2638C7.14536 1.30824 2.18359 6.26009 2.18359 12.3796V47.0858H298.614V47.0966Z" fill="#310075" stroke="white" stroke-linecap="round" stroke-linejoin="round"/>
<path d="M144.572 19.2452H18.4526V27.6352H144.572V19.2452Z" fill="#310075" stroke="white" stroke-linecap="round" stroke-linejoin="round"/>
<path d="M298.614 32.1546H2.18359V47.0966H298.614V32.1546Z" stroke="white" stroke-linecap="round" stroke-linejoin="round"/>
<path d="M9.05859 36.0252H16.7661" stroke="#310075" stroke-linecap="round" stroke-linejoin="round"/>
<path d="M9.05859 39.3769H16.7661" stroke="#310075" stroke-linecap="round" stroke-linejoin="round"/>
<path d="M9.05859 42.7286H16.7661" stroke="#310075" stroke-linecap="round" stroke-linejoin="round"/>
<path d="M48.9365 35.8847V44.5991" stroke="#310075" stroke-linecap="round" stroke-linejoin="round"/>
<path d="M94.3711 35.8847V44.5991" stroke="#310075" stroke-linecap="round" stroke-linejoin="round"/>
<path d="M139.805 35.8847V44.5991" stroke="#310075" stroke-linecap="round" stroke-linejoin="round"/>
<path d="M185.229 35.8847V44.5991" stroke="#310075" stroke-linecap="round" stroke-linejoin="round"/>
<path d="M230.663 35.8847V44.5991" stroke="#310075" stroke-linecap="round" stroke-linejoin="round"/>
<path d="M298.614 14.2176V12.3796C298.614 6.26009 293.652 1.29742 287.534 1.29742H13.2638C7.14536 1.30824 2.18359 6.26009 2.18359 12.3796V14.2176H298.614Z" stroke="white" stroke-linecap="round" stroke-linejoin="round"/>
<path d="M256.228 11.1038C258.055 11.1038 259.536 9.62258 259.536 7.79538C259.536 5.96818 258.055 4.48694 256.228 4.48694C254.401 4.48694 252.92 5.96818 252.92 7.79538C252.92 9.62258 254.401 11.1038 256.228 11.1038Z" fill="#310075" stroke="white" stroke-linecap="round" stroke-linejoin="round"/>
<path d="M266.66 11.1038C268.487 11.1038 269.968 9.62258 269.968 7.79538C269.968 5.96818 268.487 4.48694 266.66 4.48694C264.833 4.48694 263.352 5.96818 263.352 7.79538C263.352 9.62258 264.833 11.1038 266.66 11.1038Z" fill="#310075" stroke="white" stroke-linecap="round" stroke-linejoin="round"/>
<path d="M280.399 7.79538C280.399 5.96817 278.918 4.48694 277.092 4.48694C275.265 4.48694 273.784 5.96817 273.784 7.79538C273.784 9.62259 275.265 11.1038 277.092 11.1038C278.918 11.1038 280.399 9.62259 280.399 7.79538Z" fill="#310075" stroke="white" stroke-linecap="round" stroke-linejoin="round"/>
<path d="M2.18359 334.369V344.748C2.18359 350.868 7.14536 355.83 13.2638 355.83H287.545C293.663 355.83 298.625 350.868 298.625 344.748V334.369H2.18359Z" fill="#310075" stroke="white" stroke-linecap="round" stroke-linejoin="round"/>
<path d="M216.642 65.4552H52.3418V184.289H216.642V65.4552Z" fill="#310075" stroke="white" stroke-linecap="round" stroke-linejoin="round"/>
<path d="M216.642 142.76L179.921 118.477L142.583 156.816L116.445 125.505L54.0822 183.218L52.3418 184.289H216.642V142.76Z" fill="#310075" stroke="white" stroke-linecap="round" stroke-linejoin="round"/>
<path d="M81.6477 109.622C90.9612 109.622 98.5112 102.07 98.5112 92.7553C98.5112 83.4401 90.9612 75.8887 81.6477 75.8887C72.3342 75.8887 64.7842 83.4401 64.7842 92.7553C64.7842 102.07 72.3342 109.622 81.6477 109.622Z" fill="#310075" stroke="white" stroke-linecap="round" stroke-linejoin="round"/>
<path d="M56.4062 195.858H219.464" stroke="white" stroke-miterlimit="10"/>
<path d="M56.4062 203.318H154.117" stroke="white" stroke-miterlimit="10"/>
<path d="M199.13 217.298H220.08" stroke="white" stroke-miterlimit="10"/>
<path d="M174.202 217.298H196.708" stroke="white" stroke-miterlimit="10"/>
<path d="M165.241 217.298H171.781" stroke="white" stroke-miterlimit="10"/>
<path d="M134.498 217.298H163.544" stroke="white" stroke-miterlimit="10"/>
<path d="M96.7275 217.298H131.352" stroke="white" stroke-miterlimit="10"/>
<path d="M69.1294 217.298H93.0951" stroke="white" stroke-miterlimit="10"/>
<path d="M56.0171 217.298H65.9839" stroke="white" stroke-miterlimit="10"/>
<path d="M76.9668 225.958H56.0171" stroke="white" stroke-miterlimit="10"/>
<path d="M101.905 225.958H79.3882" stroke="white" stroke-miterlimit="10"/>
<path d="M110.856 225.958H104.327" stroke="white" stroke-miterlimit="10"/>
<path d="M141.61 225.958H112.553" stroke="white" stroke-miterlimit="10"/>
<path d="M179.369 225.958H144.756" stroke="white" stroke-miterlimit="10"/>
<path d="M206.967 225.958H183.001" stroke="white" stroke-miterlimit="10"/>
<path d="M220.08 225.958H210.113" stroke="white" stroke-miterlimit="10"/>
<path d="M199.13 234.24H220.08" stroke="white" stroke-miterlimit="10"/>
<path d="M174.202 234.24H196.708" stroke="white" stroke-miterlimit="10"/>
<path d="M165.241 234.24H171.781" stroke="white" stroke-miterlimit="10"/>
<path d="M134.498 234.24H163.544" stroke="white" stroke-miterlimit="10"/>
<path d="M96.7275 234.24H131.352" stroke="white" stroke-miterlimit="10"/>
<path d="M69.1294 234.24H93.0951" stroke="white" stroke-miterlimit="10"/>
<path d="M56.0171 234.24H65.9839" stroke="white" stroke-miterlimit="10"/>
<path d="M76.9668 242.9H56.0171" stroke="white" stroke-miterlimit="10"/>
<path d="M101.905 242.9H79.3882" stroke="white" stroke-miterlimit="10"/>
<path d="M110.856 242.9H104.327" stroke="white" stroke-miterlimit="10"/>
<path d="M141.61 242.9H112.553" stroke="white" stroke-miterlimit="10"/>
<path d="M179.369 242.9H144.756" stroke="white" stroke-miterlimit="10"/>
<path d="M206.967 242.9H183.001" stroke="white" stroke-miterlimit="10"/>
<path d="M220.08 242.9H210.113" stroke="white" stroke-miterlimit="10"/>
<path d="M199.13 251.182H220.08" stroke="white" stroke-miterlimit="10"/>
<path d="M174.202 251.182H196.708" stroke="white" stroke-miterlimit="10"/>
<path d="M165.241 251.182H171.781" stroke="white" stroke-miterlimit="10"/>
<path d="M134.498 251.182H163.544" stroke="white" stroke-miterlimit="10"/>
<path d="M96.7275 251.182H131.352" stroke="white" stroke-miterlimit="10"/>
<path d="M69.1294 251.182H93.0951" stroke="white" stroke-miterlimit="10"/>
<path d="M56.0171 251.182H65.9839" stroke="white" stroke-miterlimit="10"/>
<path d="M76.9668 259.842H56.0171" stroke="white" stroke-miterlimit="10"/>
<path d="M101.905 259.842H79.3882" stroke="white" stroke-miterlimit="10"/>
<path d="M110.856 259.842H104.327" stroke="white" stroke-miterlimit="10"/>
<path d="M141.61 259.842H112.553" stroke="white" stroke-miterlimit="10"/>
<path d="M179.369 259.842H144.756" stroke="white" stroke-miterlimit="10"/>
<path d="M206.967 259.842H183.001" stroke="white" stroke-miterlimit="10"/>
<path d="M220.08 259.842H210.113" stroke="white" stroke-miterlimit="10"/>
<path d="M199.13 268.124H220.08" stroke="white" stroke-miterlimit="10"/>
<path d="M174.202 268.124H196.708" stroke="white" stroke-miterlimit="10"/>
<path d="M165.241 268.124H171.781" stroke="white" stroke-miterlimit="10"/>
<path d="M134.498 268.124H163.544" stroke="white" stroke-miterlimit="10"/>
<path d="M96.7275 268.124H131.352" stroke="white" stroke-miterlimit="10"/>
<path d="M69.1294 268.124H93.0951" stroke="white" stroke-miterlimit="10"/>
<path d="M56.0171 268.124H65.9839" stroke="white" stroke-miterlimit="10"/>
<path d="M76.9668 276.785H56.0171" stroke="white" stroke-miterlimit="10"/>
<path d="M101.905 276.785H79.3882" stroke="white" stroke-miterlimit="10"/>
<path d="M110.856 276.785H104.327" stroke="white" stroke-miterlimit="10"/>
<path d="M141.61 276.785H112.553" stroke="white" stroke-miterlimit="10"/>
<path d="M179.369 276.785H144.756" stroke="white" stroke-miterlimit="10"/>
<path d="M206.967 276.785H183.001" stroke="white" stroke-miterlimit="10"/>
<path d="M220.08 276.785H210.113" stroke="white" stroke-miterlimit="10"/>
<path d="M199.13 285.067H220.08" stroke="white" stroke-miterlimit="10"/>
<path d="M174.202 285.067H196.708" stroke="white" stroke-miterlimit="10"/>
<path d="M165.241 285.067H171.781" stroke="white" stroke-miterlimit="10"/>
<path d="M134.498 285.067H163.544" stroke="white" stroke-miterlimit="10"/>
<path d="M96.7275 285.067H131.352" stroke="white" stroke-miterlimit="10"/>
<path d="M69.1294 285.067H93.0951" stroke="white" stroke-miterlimit="10"/>
<path d="M56.0171 285.067H65.9839" stroke="white" stroke-miterlimit="10"/>
<path d="M76.9668 293.727H56.0171" stroke="white" stroke-miterlimit="10"/>
<path d="M101.905 293.727H79.3882" stroke="white" stroke-miterlimit="10"/>
<path d="M110.856 293.727H104.327" stroke="white" stroke-miterlimit="10"/>
<path d="M141.61 293.727H112.553" stroke="white" stroke-miterlimit="10"/>
<path d="M179.369 293.727H144.756" stroke="white" stroke-miterlimit="10"/>
<path d="M206.967 293.727H183.001" stroke="white" stroke-miterlimit="10"/>
<path d="M220.08 293.727H210.113" stroke="white" stroke-miterlimit="10"/>
<path d="M199.13 302.009H220.08" stroke="white" stroke-miterlimit="10"/>
<path d="M174.202 302.009H196.708" stroke="white" stroke-miterlimit="10"/>
<path d="M165.241 302.009H171.781" stroke="white" stroke-miterlimit="10"/>
<path d="M134.498 302.009H163.544" stroke="white" stroke-miterlimit="10"/>
<path d="M96.7275 302.009H131.352" stroke="white" stroke-miterlimit="10"/>
<path d="M69.1294 302.009H93.0951" stroke="white" stroke-miterlimit="10"/>
<path d="M56.0171 302.009H65.9839" stroke="white" stroke-miterlimit="10"/>
<path d="M76.9668 310.669H56.0171" stroke="white" stroke-miterlimit="10"/>
<path d="M101.905 310.669H79.3882" stroke="white" stroke-miterlimit="10"/>
<path d="M110.856 310.669H104.327" stroke="white" stroke-miterlimit="10"/>
<path d="M141.61 310.669H112.553" stroke="white" stroke-miterlimit="10"/>
<path d="M179.369 310.669H144.756" stroke="white" stroke-miterlimit="10"/>
<path d="M206.967 310.669H183.001" stroke="white" stroke-miterlimit="10"/>
<path d="M220.08 310.669H210.113" stroke="white" stroke-miterlimit="10"/>
<path d="M199.13 318.951H220.08" stroke="white" stroke-miterlimit="10"/>
<path d="M174.202 318.951H196.708" stroke="white" stroke-miterlimit="10"/>
<path d="M165.241 318.951H171.781" stroke="white" stroke-miterlimit="10"/>
<path d="M134.498 318.951H163.544" stroke="white" stroke-miterlimit="10"/>
<path d="M96.7275 318.951H131.352" stroke="white" stroke-miterlimit="10"/>
<path d="M69.1294 318.951H93.0951" stroke="white" stroke-miterlimit="10"/>
<path d="M56.0171 318.951H65.9839" stroke="white" stroke-miterlimit="10"/>
<path d="M76.9668 327.601H56.0171" stroke="white" stroke-miterlimit="10"/>
<path d="M101.905 327.601H79.3882" stroke="white" stroke-miterlimit="10"/>
<path d="M110.856 327.601H104.327" stroke="white" stroke-miterlimit="10"/>
<path d="M141.61 327.601H112.553" stroke="white" stroke-miterlimit="10"/>
<path d="M179.369 327.601H144.756" stroke="white" stroke-miterlimit="10"/>
<path d="M206.967 327.601H183.001" stroke="white" stroke-miterlimit="10"/>
<path d="M220.08 327.601H210.113" stroke="white" stroke-miterlimit="10"/>
<path d="M287.729 327.849C287.729 327.849 262.866 333.796 254.218 346.229C245.57 358.663 225.031 397.586 219.626 405.154C214.221 412.723 195.844 423.535 192.601 439.212C189.358 454.889 193.141 465.701 209.897 474.351C226.652 483 248.813 465.16 261.785 460.295L262.325 479.756H397.45L402.314 456.511C402.314 456.511 432.041 459.214 440.149 456.511C448.256 453.808 459.066 460.295 460.147 453.808C461.228 447.321 456.364 433.806 449.878 422.453C443.392 411.101 443.392 414.344 436.906 398.667C430.42 382.99 425.555 368.394 420.151 354.879C414.746 341.364 403.471 329.882 393.007 326.4C382.543 322.908 358.534 325.146 349.345 324.065C340.157 322.984 287.729 327.849 287.729 327.849Z" fill="#310075" stroke="white" stroke-linecap="round" stroke-linejoin="round"/>
<path d="M399.438 441.374C399.438 441.374 408.811 426.594 425.739 421.913" stroke="white" stroke-linecap="round" stroke-linejoin="round"/>
<path d="M425.274 408.744C426.712 408.009 428.193 407.349 429.707 406.776" stroke="white" stroke-linecap="round" stroke-linejoin="round"/>
<path d="M396.909 435.611C396.909 435.611 406.541 420.399 420.907 411.241" stroke="white" stroke-linecap="round" stroke-linejoin="round"/>
<path d="M403.395 381.401C398.001 394.991 390.055 418.215 391.504 434.163" stroke="white" stroke-linecap="round" stroke-linejoin="round"/>
<path d="M408.087 370.372C408.087 370.372 407.103 372.481 405.611 376.005" stroke="white" stroke-linecap="round" stroke-linejoin="round"/>
<path d="M220.361 425.091C226.068 426.627 233.008 429.968 239.44 437.049" stroke="white" stroke-linecap="round" stroke-linejoin="round"/>
<path d="M208.103 424.075C208.103 424.075 211.021 423.578 215.464 424.129" stroke="white" stroke-linecap="round" stroke-linejoin="round"/>
<path d="M228.209 415.155C234.554 419.675 242.64 427.135 245.926 437.406" stroke="white" stroke-linecap="round" stroke-linejoin="round"/>
<path d="M219.626 410.02C219.626 410.02 221.864 411.036 225.074 413.058" stroke="white" stroke-linecap="round" stroke-linejoin="round"/>
<path d="M310.883 355.074C310.883 355.074 317.856 366.696 335.292 366.307C352.729 365.918 360.079 346.932 360.079 337.245C360.079 327.557 353.885 320.973 337.605 324.844C321.336 328.714 303.132 329.103 310.872 355.063L310.883 355.074Z" fill="#310075" stroke="white" stroke-linecap="round" stroke-linejoin="round"/>
<path d="M313.597 332.206C313.597 332.206 308.948 348.089 310.883 355.063C312.818 362.036 316.699 368.232 316.699 368.232C316.699 368.232 329.866 355.83 331.812 354.284C333.747 352.738 345.756 366.296 347.302 367.842C348.848 369.389 357.766 363.972 360.469 351.181C363.182 338.391 361.247 323.287 358.534 319.405C355.82 315.534 352.718 315.145 352.718 315.145C352.718 315.145 323.661 312.042 313.597 332.196V332.206Z" fill="#310075" stroke="white" stroke-linecap="round" stroke-linejoin="round"/>
<path d="M316.31 333.763C316.31 333.763 327.542 352.749 331.033 353.138C334.525 353.527 350.016 340.737 354.275 330.282C358.534 319.816 355.053 308.582 355.053 308.582C355.053 308.582 341.886 325.244 332.968 330.671C324.061 336.099 316.31 333.774 316.31 333.774V333.763Z" fill="#310075" stroke="white" stroke-linecap="round" stroke-linejoin="round"/>
<path d="M332.968 330.66C325.466 335.223 318.807 334.304 316.883 333.893L316.505 334.077C317.24 335.309 320.029 339.915 323.056 344.305C325.088 344.835 327.52 344.629 330.374 343.116C341.541 337.223 350.232 317.351 350.232 317.351L345.259 319.816C341.281 324.033 336.73 328.357 332.958 330.65L332.968 330.66Z" fill="white" stroke="white" stroke-linecap="round" stroke-linejoin="round"/>
<path d="M277.567 230.694C277.567 230.694 252.628 270.46 257.277 293.327C261.925 316.183 283.372 343.451 276.789 350.803C270.205 358.166 266.714 355.452 269.816 359.712C272.919 363.972 291.901 368.621 305.846 363.972C319.791 359.323 321.337 339.559 313.975 329.103C306.613 318.638 293.058 278.731 298.863 269.433C304.678 260.134 327.92 265.562 336.049 269.433C344.178 273.303 354.642 296.17 353.485 306.625C352.318 317.091 356.977 341.105 372.857 341.494C388.737 341.883 393.006 326.379 393.006 326.379C393.006 326.379 382.542 328.703 382.542 322.887C382.542 317.07 391.061 309.718 387.191 293.435C383.321 277.163 374.403 274.06 373.246 257.01C372.089 239.959 365.495 223.298 352.329 213.611C339.162 203.923 304.3 189.976 277.567 230.661V230.694Z" fill="white" stroke="white" stroke-linecap="round" stroke-linejoin="round"/>
<path d="M279.794 284.753C278.67 288.699 278.248 293.9 279.545 300.625C283.372 320.454 301.457 340.272 297.976 352.446C294.495 364.621 283.718 363.572 277.459 358.36" stroke="#310075" stroke-linecap="round" stroke-linejoin="round"/>
<path d="M286.842 274.201C286.842 274.201 284.194 275.768 281.924 279.682" stroke="#310075" stroke-linecap="round" stroke-linejoin="round"/>
<path d="M291.664 337.18C293.815 340.445 295.188 343.829 295.188 347.581" stroke="#310075" stroke-linecap="round" stroke-linejoin="round"/>
<path d="M297.912 236.402C289.988 242.857 280.464 251.95 273.632 262.718C259.72 284.634 261.115 290.191 268.768 307.588C273.665 318.724 283.124 326.292 289.296 333.947" stroke="#310075" stroke-linecap="round" stroke-linejoin="round"/>
<path d="M312.57 225.85C312.57 225.85 308.624 228.207 302.981 232.423" stroke="#310075" stroke-linecap="round" stroke-linejoin="round"/>
<path d="M317.445 213.33C317.445 213.33 310.84 234.197 311.878 238.37" stroke="#310075" stroke-linecap="round" stroke-linejoin="round"/>
<path d="M372.89 333.234C374.435 334.434 376.295 335.385 378.305 336.11" stroke="#310075" stroke-linecap="round" stroke-linejoin="round"/>
<path d="M359.355 262.253C363.971 265.475 369.333 270.589 374.468 278.72C387.678 299.587 377.592 304.452 371.344 315.935C367.885 322.281 368.036 326.93 370.165 330.293" stroke="#310075" stroke-linecap="round" stroke-linejoin="round"/>
<path d="M346.654 256.804C346.654 256.804 349.724 257.02 354.307 259.269" stroke="#310075" stroke-linecap="round" stroke-linejoin="round"/>
<path d="M366.144 253.074C368.014 255.28 369.387 257.334 370.306 258.891" stroke="#310075" stroke-linecap="round" stroke-linejoin="round"/>
<path d="M317.099 231.418C317.099 231.418 319.185 239.073 337.962 239.419C349.637 239.635 357.95 244.825 363.398 250.133" stroke="#310075" stroke-linecap="round" stroke-linejoin="round"/>
<path d="M313.207 240.381C313.207 240.381 291.901 259.367 287.642 271.379C283.383 283.391 297.328 311.675 298.873 315.935C300.527 320.476 305.057 324.703 308.17 328.249C313.218 334.001 320.807 341.624 329.195 340.488C339.67 339.072 350.426 322.843 355.042 314.388C359.69 305.869 360.469 293.078 360.469 293.078C360.469 293.078 365.895 293.467 365.895 286.104C365.895 278.742 366.673 267.508 362.793 267.508C358.912 267.508 355.82 270.222 355.82 270.222C355.82 270.222 342.654 265.573 329.866 255.496C317.077 245.419 313.207 240.381 313.207 240.381Z" fill="#310075" stroke="white" stroke-linecap="round" stroke-linejoin="round"/>
<path d="M314.375 308.961C314.375 308.961 315.542 314.388 321.347 312.831C327.163 311.285 327.931 309.339 327.931 309.339" stroke="white" stroke-linecap="round" stroke-linejoin="round"/>
<path d="M313.986 317.102C313.986 317.102 326.774 321.751 334.136 313.999" stroke="white" stroke-linecap="round" stroke-linejoin="round"/>
<path d="M324.828 277.585C324.828 277.585 329.866 271.768 341.486 275.26" stroke="white" stroke-width="2" stroke-linecap="round" stroke-linejoin="round"/>
<path d="M307.781 281.845C307.781 281.845 300.03 279.131 293.447 279.131" stroke="white" stroke-width="2" stroke-linecap="round" stroke-linejoin="round"/>
<path d="M315.532 286.494C315.532 286.494 307.392 282.623 297.328 282.234C287.253 281.845 285.707 283.401 286.096 284.948C286.485 286.494 286.875 302.766 295.782 304.323C304.689 305.869 313.218 304.323 314.764 300.063C316.31 295.803 315.543 286.505 315.543 286.505L315.532 286.494Z" stroke="white" stroke-linecap="round" stroke-linejoin="round"/>
<path d="M320.948 285.758C320.948 285.758 328.374 280.666 338.265 278.709C348.156 276.752 349.929 278.05 349.789 279.639C349.648 281.228 351.799 297.36 343.249 300.29C334.687 303.209 326.028 303.014 323.834 299.046C321.64 295.078 320.959 285.769 320.959 285.769L320.948 285.758Z" stroke="white" stroke-linecap="round" stroke-linejoin="round"/>
<path d="M315.532 286.494C315.532 286.494 317.845 284.266 320.948 285.769" stroke="white" stroke-linecap="round" stroke-linejoin="round"/>
<path d="M307.759 293.186C308.062 295.305 307.457 297.143 306.397 297.295C305.338 297.446 304.235 295.857 303.922 293.738C303.619 291.619 304.224 289.781 305.284 289.629C306.343 289.478 307.446 291.067 307.759 293.186Z" fill="white"/>
<path d="M335.271 291.251C335.574 293.37 334.968 295.208 333.909 295.359C332.849 295.511 331.747 293.922 331.433 291.802C331.12 289.683 331.736 287.845 332.795 287.694C333.855 287.542 334.957 289.132 335.271 291.251Z" fill="white"/>
<path d="M349.626 277.963L355.821 270.222" stroke="white" stroke-linecap="round" stroke-linejoin="round"/>
<path d="M357.993 427.319C357.993 427.319 356.912 422.994 351.507 418.669C346.102 414.344 333.13 411.101 333.13 414.885C333.13 418.669 346.102 430.022 349.886 435.428C353.669 440.834 357.453 452.727 365.56 458.673C373.668 464.62 414.205 477.594 431.501 478.675C448.797 479.756 460.147 468.404 459.607 456.511C459.066 444.618 450.418 433.806 436.365 431.643C422.312 429.481 415.827 436.509 407.719 438.671C399.612 440.834 393.126 442.996 393.126 442.996C393.126 442.996 397.45 428.4 396.369 424.075C395.288 419.75 387.937 417.015 387.937 417.015L382.316 411.641C382.316 411.641 370.965 402.451 369.344 402.451C367.722 402.451 361.236 394.883 353.129 394.883C345.021 394.883 334.752 400.83 337.995 404.073C341.238 407.317 348.264 405.154 352.048 405.154C355.831 405.154 359.615 413.263 359.615 413.263C359.615 413.263 354.75 416.507 356.372 418.669C357.993 420.832 359.074 422.453 359.074 422.453L357.993 427.319Z" fill="#310075" stroke="white" stroke-linecap="round" stroke-linejoin="round"/>
<path d="M358.793 421.751C358.793 421.751 359.582 426.086 362.933 426.086C366.284 426.086 364.901 421.167 366.09 419.588C367.268 418.01 370.424 412.301 370.424 412.301" stroke="white" stroke-linecap="round" stroke-linejoin="round"/>
<path d="M386.164 417.804C386.164 417.804 378.478 425.091 377.894 425.492C377.311 425.892 375.527 430.022 374.154 432.195C372.781 434.357 369.43 434.952 368.447 432.195C367.463 429.438 368.836 425.102 370.025 423.134C371.203 421.167 374.943 415.253 374.943 415.253C374.943 415.253 377.505 411.512 381.051 411.512" stroke="white" stroke-linecap="round" stroke-linejoin="round"/>
<path d="M382.034 422.14C382.034 422.14 377.894 427.849 377.894 430.022C377.894 432.195 376.521 437.709 378.283 438.487C380.045 439.266 382.423 439.277 383.602 436.714C384.78 434.152 386.164 431.2 386.164 431.2C386.164 431.2 388.92 431.006 390.099 429.038" stroke="white" stroke-linecap="round" stroke-linejoin="round"/>
<path d="M386.164 431.2C386.164 431.2 386.759 432.973 389.115 434.152" stroke="white" stroke-linecap="round" stroke-linejoin="round"/>
<path d="M368.046 402.246C368.046 402.246 365.884 401.857 364.89 404.408C363.906 406.971 359.615 413.263 359.615 413.263" stroke="white" stroke-linecap="round" stroke-linejoin="round"/>
<path d="M364.501 416.031C364.501 416.031 365.096 418.399 365.29 420.367" stroke="white" stroke-linecap="round" stroke-linejoin="round"/>
<path d="M369.03 415.047C369.03 415.047 369.625 417.61 371.787 418.788" stroke="white" stroke-linecap="round" stroke-linejoin="round"/>
<path d="M393.125 442.996C393.125 442.996 388.985 456.868 385.742 460.479" stroke="white" stroke-linecap="round" stroke-linejoin="round"/>
<path d="M244.446 392.11L275.081 475.902C275.859 478.043 277.902 479.47 280.183 479.47H360.48C364.263 479.47 366.879 475.708 365.571 472.161L335.703 391.267C334.168 387.104 330.179 384.347 325.747 384.369L249.516 384.823C245.754 384.844 243.159 388.585 244.446 392.121V392.11Z" fill="#310075" stroke="white" stroke-linecap="round" stroke-linejoin="round"/>
<path d="M235.841 442.996L237.462 430.022C237.462 430.022 242.867 428.4 240.165 419.21C237.462 410.02 235.841 408.938 239.084 408.938C242.327 408.938 248.813 410.56 250.434 415.966C252.056 421.372 252.596 431.103 252.596 431.103C252.596 431.103 290.972 425.697 293.674 425.697C296.377 425.697 299.079 428.4 294.755 430.562C290.431 432.725 268.811 442.455 268.811 442.455C268.811 442.455 296.377 436.509 297.998 436.509C299.62 436.509 305.025 436.509 302.322 439.212C299.62 441.915 292.593 445.158 292.593 445.158C292.593 445.158 305.025 442.996 304.484 446.78C303.944 450.564 290.972 454.348 290.972 454.348C290.972 454.348 296.917 454.348 295.296 457.051C293.674 459.754 269.892 468.404 265.028 470.566C260.163 472.729 245.57 472.729 245.57 472.729C245.57 472.729 236.922 478.135 225.031 480.297C213.14 482.459 200.708 481.919 195.303 469.485C189.898 457.051 194.222 439.752 205.032 434.346C215.842 428.941 223.409 430.562 227.733 433.806C232.057 437.049 235.841 442.996 235.841 442.996Z" fill="#310075" stroke="white" stroke-linecap="round" stroke-linejoin="round"/>
<path d="M268.811 442.455L258.001 445.699" stroke="white" stroke-linecap="round" stroke-linejoin="round"/>
<path d="M292.593 445.158L261.244 454.889" stroke="white" stroke-linecap="round" stroke-linejoin="round"/>
<path d="M290.972 454.348L264.487 463.539" stroke="white" stroke-linecap="round" stroke-linejoin="round"/>
<path d="M235.841 442.996C235.841 442.996 233.679 447.321 227.193 442.996" stroke="white" stroke-linecap="round" stroke-linejoin="round"/>
<path d="M245.57 472.729L233.138 470.026" stroke="white" stroke-linecap="round" stroke-linejoin="round"/>
<path d="M252.596 431.103L241.246 433.265" stroke="white" stroke-linecap="round" stroke-linejoin="round"/>
<path d="M88.2745 400.592C88.1988 402.332 88.4042 404.192 89.1393 406.019C91.7985 412.679 92.5768 415.426 91.4958 420.832" stroke="white" stroke-miterlimit="10" stroke-linecap="round"/>
<path d="M90.8474 392.083C90.8474 392.083 89.7015 393.932 88.9448 396.635" stroke="white" stroke-miterlimit="10" stroke-linecap="round"/>
<path d="M100.371 392.083C100.371 392.083 95.9493 399.219 98.6734 406.019C101.333 412.679 102.111 415.426 101.03 420.832" stroke="white" stroke-miterlimit="10" stroke-linecap="round"/>
<path d="M111.008 416.907C110.986 418.107 110.835 419.372 110.543 420.832" stroke="white" stroke-miterlimit="10" stroke-linecap="round"/>
<path d="M109.884 392.083C109.884 392.083 105.462 399.219 108.187 406.019C109.16 408.452 109.884 410.355 110.349 412.063" stroke="white" stroke-miterlimit="10" stroke-linecap="round"/>
<path d="M118.056 435.244C118.056 435.244 122.466 430.833 125.677 434.444C128.887 438.055 127.677 456.1 124.877 461.711C122.066 467.323 115.634 462.003 115.634 462.003L115.656 458.1C115.656 458.1 118.531 460.76 121.742 457.549C124.952 454.338 124.077 441.655 122.877 439.644C121.677 437.633 116.867 440.444 116.867 440.444L118.067 435.233L118.056 435.244Z" fill="#310075" stroke="white" stroke-linecap="round" stroke-linejoin="round"/>
<path d="M115.569 479.129H85.0961L81.291 425.654H119.374L115.569 479.129Z" fill="#310075" stroke="white" stroke-linecap="round" stroke-linejoin="round"/>
</svg>
