<svg width="582" height="340" viewBox="0 0 582 340" fill="none" xmlns="http://www.w3.org/2000/svg">
<g clip-path="url(#clip0_333_2765)">
<path d="M223.259 14.5276C216.775 7.86661 207.72 3.73664 197.699 3.73664C177.991 3.73664 162.007 19.7349 162.007 39.4613C162.007 59.1877 177.991 75.186 197.699 75.186C217.407 75.186 233.391 59.1877 233.391 39.4613C233.391 32.3301 231.307 25.6862 227.702 20.1026" stroke="black" stroke-linecap="round" stroke-linejoin="round"/>
<path d="M170.678 55.8102C176.214 64.9508 186.235 71.056 197.691 71.056C215.127 71.056 229.256 56.9132 229.256 39.4613C229.256 22.0094 215.127 7.86661 197.691 7.86661C180.255 7.86661 166.125 22.0094 166.125 39.4613C166.125 43.0868 166.74 46.5755 167.859 49.8162" stroke="black" stroke-linecap="round" stroke-linejoin="round"/>
<path d="M214.212 39.4613H197.691L200.339 65.9256" stroke="black" stroke-linecap="round" stroke-linejoin="round"/>
<path d="M384.745 65.9256V127.841H484.552V0.427532H384.745V56.6652" stroke="black" stroke-linecap="round" stroke-linejoin="round"/>
<path d="M273.039 55.9983V127.841H372.854V0.427532H273.039V48.0633" stroke="black" stroke-linecap="round" stroke-linejoin="round"/>
<path d="M384.745 135.656H484.552V263.07H384.745V135.656Z" stroke="black" stroke-linecap="round" stroke-linejoin="round"/>
<path d="M331.865 135.656H273.039V263.07H372.854V135.656H343.107" stroke="black" stroke-linecap="round" stroke-linejoin="round"/>
<path d="M382.609 307.268H400.601V339.555H382.609V307.268Z" fill="white" stroke="black" stroke-linecap="round" stroke-linejoin="round"/>
<path d="M370.342 307.268H388.333V339.555H370.342V307.268Z" fill="white" stroke="black" stroke-linecap="round" stroke-linejoin="round"/>
<path d="M233.22 307.268H251.212V339.555H233.22V307.268Z" fill="white" stroke="black" stroke-linecap="round" stroke-linejoin="round"/>
<path d="M220.944 307.268H238.936V339.555H220.944V307.268Z" fill="white" stroke="black" stroke-linecap="round" stroke-linejoin="round"/>
<path d="M66.1389 307.251H421.565V297.674H57.2629" fill="white"/>
<path d="M66.1389 307.251H421.565V297.674H57.2629" stroke="black" stroke-linecap="round" stroke-linejoin="round"/>
<path d="M1.15334 297.674H192.086V307.251H4.49358" fill="white"/>
<path d="M1.15334 297.674H192.086V307.251H4.49358" stroke="black" stroke-linecap="round" stroke-linejoin="round"/>
<path d="M179.178 307.268H197.169V339.555H179.178V307.268Z" fill="white" stroke="black" stroke-linecap="round" stroke-linejoin="round"/>
<path d="M166.902 307.268H184.893V339.555H166.902V307.268Z" fill="white" stroke="black" stroke-linecap="round" stroke-linejoin="round"/>
<path d="M72.8792 252.501H106.649V297.563H72.8792V252.501Z" fill="white" stroke="black" stroke-linecap="round" stroke-linejoin="round"/>
<path d="M83.8397 262.77C82.5497 261.838 80.5165 260.881 78.0562 261.548C73.7847 262.711 72.9647 273.33 74.1265 281.103C75.0662 287.388 80.2688 288.935 83.6603 287.251" fill="white"/>
<path d="M83.8397 262.77C82.5497 261.838 80.5165 260.881 78.0562 261.548C73.7847 262.711 72.9647 273.33 74.1265 281.103C75.0662 287.388 80.2688 288.935 83.6603 287.251" stroke="black" stroke-linecap="round" stroke-linejoin="round"/>
<path d="M83.8995 269.799C83.8995 269.799 81.4135 264.72 80.1492 266.208C78.8763 267.687 78.6713 277.854 79.0899 280.607C79.517 283.36 82.0372 284.258 83.5151 282.351" fill="white"/>
<path d="M83.8995 269.799C83.8995 269.799 81.4135 264.72 80.1492 266.208C78.8763 267.687 78.6713 277.854 79.0899 280.607C79.517 283.36 82.0372 284.258 83.5151 282.351" stroke="black" stroke-linecap="round" stroke-linejoin="round"/>
<path d="M76.7919 220.428C76.0657 218.247 75.6471 215.802 75.6471 212.98" stroke="black" stroke-linecap="round" stroke-linejoin="round"/>
<path d="M97.1239 246.327C96.3892 244.19 94.9967 241.633 92.4167 238.914C87.7523 233.989 81.6869 230.124 78.2783 223.839" stroke="black" stroke-linecap="round" stroke-linejoin="round"/>
<path d="M97.756 252.27C97.756 252.27 98.0893 250.928 97.739 248.756" stroke="black" stroke-linecap="round" stroke-linejoin="round"/>
<path d="M74.4938 235.519C71.2561 231.826 69.1716 227.234 69.1716 221.753" stroke="black" stroke-linecap="round" stroke-linejoin="round"/>
<path d="M87.8463 248.841C87.8463 248.841 88.2307 245.404 81.3708 241.214C79.6281 240.145 77.9793 238.931 76.5014 237.572" stroke="black" stroke-linecap="round" stroke-linejoin="round"/>
<path d="M346.943 260.675C346.943 260.675 348.113 251.595 351.334 242.223C354.555 232.852 363.918 222.309 363.918 222.309C363.918 222.309 356.016 229.047 352.803 234.605C349.583 240.171 347.242 250.124 347.242 250.124C347.242 250.124 347.242 238.41 350.164 222.309C353.085 206.199 353.965 202.394 353.965 202.394C353.965 202.394 345.773 226.114 345.773 237.238C345.773 237.238 342.791 226.31 338.639 218.358C337.751 216.657 336.811 215.1 335.829 213.809C330.267 206.49 326.756 203.266 326.756 203.266C326.756 203.266 335.675 216.537 338.05 221.736L340.425 226.943C340.425 226.943 336.418 224.711 334.479 223.967C332.548 223.224 328.243 222.779 328.243 222.779C328.243 222.779 332.249 224.566 335.222 226.199C338.195 227.832 339.383 228.431 340.869 230.363C342.355 232.296 344.141 239.282 344.73 243.6C345.328 247.909 344.132 260.547 344.132 260.547L346.934 260.667L346.943 260.675Z" fill="black" stroke="black" stroke-linecap="round" stroke-linejoin="round"/>
<path d="M326.167 258.333H366.25V297.572H326.167V258.333Z" fill="white" stroke="black" stroke-linecap="round" stroke-linejoin="round"/>
<path d="M326.748 203.275C326.748 203.275 329.703 200.41 324.578 191.962C319.452 183.523 307.219 178.059 292.67 181.702C278.122 185.344 272.33 193.784 273.654 196.597C274.978 199.41 285.887 205.036 300.111 208.516C314.335 211.988 323.775 205.259 326.748 203.275Z" fill="white" stroke="black" stroke-linecap="round" stroke-linejoin="round"/>
<path d="M326.748 203.275C326.748 203.275 322.263 193.955 307.381 190.312C292.499 186.67 276.131 193.784 276.131 193.784" stroke="black" stroke-linecap="round" stroke-linejoin="round"/>
<path d="M352.692 205.207C352.692 205.207 343.765 201.231 344.423 190.15C345.081 179.059 351.864 172.441 358.647 170.286C365.43 168.132 372.367 173.433 372.367 173.433C372.367 173.433 368.898 175.254 367.899 178.068C366.908 180.881 368.556 188.824 365.746 195.443C362.935 202.061 356.648 206.037 352.684 205.207H352.692Z" fill="white" stroke="black" stroke-linecap="round" stroke-linejoin="round"/>
<path d="M352.692 205.207C352.692 205.207 352.197 194.784 354.512 185.344C356.827 175.913 359.8 173.1 362.115 172.604" stroke="black" stroke-linecap="round" stroke-linejoin="round"/>
<path d="M359.142 227.379C359.142 227.379 361.124 214.468 364.763 210.996C368.403 207.525 387.581 207.354 394.364 214.801C401.147 222.249 399.652 224.07 399.652 224.07C399.652 224.07 389.897 221.753 387.086 222.582C384.275 223.412 376.672 229.534 370.88 230.859C365.097 232.185 359.142 227.388 359.142 227.388V227.379Z" fill="white" stroke="black" stroke-linecap="round" stroke-linejoin="round"/>
<path d="M359.142 227.379C359.142 227.379 364.268 221.753 372.042 217.452C379.816 213.151 382.293 211.663 389.734 214.801" stroke="black" stroke-linecap="round" stroke-linejoin="round"/>
<path d="M329.874 222.916C329.874 222.916 327.226 227.55 322.596 228.705C317.966 229.859 314.822 230.363 306.723 228.046C298.625 225.729 296.309 226.558 294.319 226.892C292.328 227.225 294.157 224.908 299.94 219.282C305.724 213.655 314.489 211.501 321.101 213.493C327.713 215.477 329.866 219.453 329.866 222.924L329.874 222.916Z" fill="white" stroke="black" stroke-linecap="round" stroke-linejoin="round"/>
<path d="M329.874 222.916C329.874 222.916 325.244 218.94 315.65 219.273C306.057 219.607 301.102 222.745 301.102 222.745" stroke="black" stroke-linecap="round" stroke-linejoin="round"/>
<path d="M346.815 233.339C346.815 233.339 350.283 232.176 353.717 232.86C365.942 235.297 360.594 242.787 358.903 244.703C355.657 248.371 349.207 254.852 348.233 254.758C347.259 254.664 339.383 247.79 333.633 242.693C327.892 237.597 342.552 232.561 346.815 233.339Z" fill="white" stroke="black" stroke-linecap="round" stroke-linejoin="round"/>
<path d="M346.815 233.339C346.815 233.339 349.326 239.333 348.609 250.355" stroke="black" stroke-linecap="round" stroke-linejoin="round"/>
<path d="M195.606 107.567H246.487C251.64 107.567 255.816 111.748 255.816 116.905V129.773C255.816 134.93 251.64 139.111 246.487 139.111H195.606C190.454 139.111 186.277 134.93 186.277 129.773V116.905C186.277 111.748 190.454 107.567 195.606 107.567Z" fill="white" stroke="black" stroke-linecap="round" stroke-linejoin="round"/>
<path d="M222.815 139.196L208.967 151.27L213.29 139.376" fill="black"/>
<path d="M222.815 139.196L208.967 151.27L213.29 139.376" stroke="black" stroke-linecap="round" stroke-linejoin="round"/>
<path d="M232.426 125.926C230.855 125.926 229.581 124.662 229.581 123.104C229.581 121.545 230.855 120.282 232.426 120.282C233.997 120.282 235.271 121.545 235.271 123.104C235.271 124.662 233.997 125.926 232.426 125.926Z" fill="black"/>
<path d="M221.055 125.926C219.484 125.926 218.211 124.662 218.211 123.104C218.211 121.545 219.484 120.282 221.055 120.282C222.626 120.282 223.9 121.545 223.9 123.104C223.9 124.662 222.626 125.926 221.055 125.926Z" fill="black"/>
<path d="M209.676 125.926C208.105 125.926 206.831 124.662 206.831 123.104C206.831 121.545 208.105 120.282 209.676 120.282C211.247 120.282 212.521 121.545 212.521 123.104C212.521 124.662 211.247 125.926 209.676 125.926Z" fill="black"/>
<path d="M0.427154 339.478H581.573" stroke="black" stroke-linecap="round" stroke-linejoin="round"/>
<path d="M259.606 167H101L120.385 294H279L259.606 167Z" fill="white" stroke="black" stroke-linecap="round" stroke-linejoin="round"/>
<path d="M257.619 172.578H106.333L124.828 290.663H276.114L257.619 172.578Z" fill="white" stroke="black" stroke-linecap="round" stroke-linejoin="round"/>
<path d="M119.933 293.775H308.303V297.572H119.933V293.775Z" fill="white" stroke="black" stroke-linecap="round" stroke-linejoin="round"/>
<path d="M211.248 293.775H361.816V297.572H211.248V293.775Z" fill="white" stroke="black" stroke-linecap="round" stroke-linejoin="round"/>
<g clip-path="url(#clip1_333_2765)">
<path d="M249.171 278.281L246.388 278.286C243.858 278.289 241.326 278.295 238.796 278.298C235.036 278.304 231.279 278.311 227.519 278.314C222.907 278.32 218.298 278.33 213.686 278.336C208.618 278.344 203.55 278.35 198.482 278.359L182.916 278.383C178 278.391 173.087 278.399 168.171 278.407L155.374 278.425L145.654 278.44C143.819 278.444 141.984 278.445 140.148 278.448C139.869 278.447 139.586 278.455 139.307 278.448C137.228 278.422 135.51 276.915 135.275 275.055C135.115 273.78 134.971 272.504 134.816 271.229L133.816 262.89C133.355 259.034 132.893 255.178 132.428 251.322C131.891 246.836 131.353 242.351 130.815 237.865C130.25 233.143 129.682 228.423 129.118 223.7C128.553 218.978 128.037 214.675 127.494 210.163C127.03 206.288 126.566 202.413 126.101 198.538C125.765 195.729 125.429 192.92 125.092 190.111C124.935 188.797 124.772 187.487 124.621 186.174C124.405 184.307 125.73 182.77 127.829 182.738C128.087 182.733 128.347 182.736 128.605 182.737L134.005 182.73C137.216 182.724 140.43 182.719 143.644 182.714C147.89 182.708 152.138 182.7 156.383 182.695L171.039 182.673L186.656 182.649C191.73 182.641 196.806 182.635 201.88 182.626L215.759 182.605C219.54 182.599 223.325 182.593 227.106 182.587L234.794 182.576C235.76 182.575 236.727 182.561 237.695 182.573C239.791 182.599 241.492 184.125 241.724 185.99C241.778 186.429 241.83 186.865 241.881 187.303L242.638 193.624C243.043 197.014 243.451 200.402 243.856 203.793C244.364 208.036 244.873 212.28 245.381 216.526C245.941 221.194 246.501 225.866 247.061 230.534C247.619 235.184 248.176 239.834 248.734 244.481C249.242 248.719 249.751 252.955 250.256 257.19C250.662 260.567 251.067 263.944 251.472 267.324C251.723 269.414 251.973 271.503 252.224 273.593C252.273 274.013 252.327 274.433 252.374 274.853C252.589 276.723 251.264 278.248 249.168 278.289C248.508 278.302 248.619 279.236 249.281 279.223C251.874 279.172 253.676 277.282 253.412 274.925C253.369 274.532 253.319 274.142 253.273 273.749L252.541 267.638C252.135 264.258 251.73 260.879 251.325 257.496C250.814 253.242 250.306 248.988 249.795 244.736C249.232 240.038 248.667 235.34 248.105 230.639C247.54 225.933 246.978 221.229 246.413 216.523L244.875 203.703C244.465 200.289 244.057 196.877 243.647 193.462C243.396 191.374 243.146 189.286 242.895 187.198C242.846 186.783 242.797 186.369 242.745 185.955C242.479 183.829 240.61 181.97 238.217 181.685C237.127 181.553 236 181.646 234.922 181.646C232.4 181.649 229.876 181.655 227.354 181.658C223.562 181.664 219.772 181.67 215.98 181.676L202.098 181.697C196.951 181.704 191.804 181.712 186.657 181.72L170.981 181.742C166.04 181.75 161.102 181.757 156.162 181.765C151.892 181.77 147.624 181.778 143.357 181.783C140.143 181.789 136.932 181.794 133.718 181.799C131.94 181.801 130.162 181.805 128.386 181.807C128.025 181.808 127.659 181.798 127.306 181.828C124.89 182.04 123.338 183.912 123.587 186.115C123.729 187.369 123.887 188.62 124.036 189.874L125.039 198.232L126.434 209.875C126.976 214.415 127.522 218.952 128.064 223.491L129.774 237.761C130.319 242.313 130.864 246.866 131.412 251.419C131.876 255.294 132.34 259.169 132.805 263.044L133.802 271.372C133.949 272.61 134.091 273.85 134.246 275.088C134.527 277.313 136.58 279.201 139.075 279.372C139.417 279.396 139.759 279.381 140.099 279.385L145.438 279.377C148.655 279.372 151.874 279.367 155.091 279.362L167.958 279.342L182.788 279.319L198.467 279.297C203.592 279.289 208.72 279.281 213.845 279.273C218.484 279.267 223.126 279.258 227.768 279.252L239.118 279.234L246.634 279.222L249.276 279.217C249.938 279.218 249.828 278.281 249.165 278.284L249.171 278.281Z" fill="#1E1E1E"/>
<path d="M240.712 195.196L249.635 269.627C249.78 270.83 248.821 271.801 247.496 271.804L139.438 271.967C138.113 271.969 136.923 271 136.78 269.798L127.857 195.369C127.712 194.166 128.672 193.192 129.994 193.19L238.052 193.026C239.377 193.024 240.57 193.993 240.712 195.196Z" fill="white"/>
<path d="M240.199 195.197C240.307 196.104 240.415 197.008 240.526 197.915L241.4 205.202C241.818 208.684 242.236 212.163 242.653 215.645C243.144 219.751 243.638 223.858 244.129 227.964C244.62 232.07 245.149 236.459 245.657 240.708C246.131 244.661 246.605 248.616 247.079 252.569C247.465 255.79 247.85 259.011 248.238 262.232L248.96 268.265C249.01 268.682 249.064 269.096 249.11 269.513C249.225 270.544 248.534 271.309 247.385 271.337C246.394 271.36 245.396 271.339 244.405 271.343C242.103 271.346 239.801 271.349 237.502 271.352L227.528 271.366L215.286 271.384C210.766 271.391 206.249 271.399 201.732 271.404L187.616 271.425C183.048 271.432 178.476 271.438 173.908 271.445C169.741 271.452 165.571 271.458 161.404 271.465L150.923 271.48L143.404 271.493L139.647 271.5C138.526 271.501 137.472 270.908 137.299 269.796C137.259 269.543 137.237 269.287 137.208 269.035C136.999 267.288 136.788 265.539 136.579 263.793C136.216 260.768 135.855 257.744 135.491 254.719C135.027 250.852 134.562 246.983 134.101 243.116C133.595 238.889 133.086 234.659 132.581 230.432C132.082 226.263 131.581 222.095 131.082 217.927L129.778 207.056L128.828 199.118C128.683 197.899 128.525 196.68 128.391 195.461C128.279 194.439 128.991 193.671 130.129 193.656C130.457 193.652 130.786 193.657 131.112 193.655L136.253 193.648C139.122 193.643 141.992 193.639 144.861 193.635C148.604 193.629 152.348 193.625 156.094 193.618L169.096 193.6C173.755 193.591 178.416 193.585 183.076 193.577L197.062 193.555C201.476 193.548 205.892 193.542 210.306 193.534L221.846 193.515L230.883 193.5C232.783 193.497 234.68 193.494 236.578 193.491L237.854 193.489C238.978 193.487 240.037 194.075 240.21 195.192C240.303 195.793 241.332 195.792 241.239 195.192C240.998 193.636 239.527 192.561 237.849 192.556C237.445 192.554 237.043 192.557 236.638 192.557L231.065 192.565C228.066 192.57 225.064 192.575 222.064 192.578C218.19 192.582 214.317 192.59 210.44 192.595C205.997 192.601 201.555 192.609 197.112 192.615C192.413 192.623 187.717 192.628 183.018 192.636C178.319 192.644 173.625 192.649 168.929 192.657L155.783 192.677C152.023 192.683 148.263 192.689 144.506 192.693C141.634 192.697 138.762 192.701 135.89 192.705L130.868 192.712C130.572 192.713 130.277 192.707 129.983 192.714C128.322 192.75 127.21 193.907 127.36 195.416C127.475 196.584 127.64 197.752 127.78 198.92L128.725 206.817C129.162 210.471 129.602 214.123 130.039 217.777C130.543 221.975 131.046 226.175 131.55 230.373C132.053 234.571 132.572 238.898 133.082 243.157C133.549 247.051 134.016 250.944 134.482 254.838C134.846 257.879 135.212 260.919 135.575 263.96L136.194 269.116C136.236 269.455 136.256 269.799 136.347 270.136C136.723 271.557 138.18 272.421 139.69 272.424C140.884 272.429 142.079 272.419 143.27 272.418C145.751 272.415 148.232 272.411 150.714 272.407L161.197 272.392C165.402 272.386 169.607 272.38 173.814 272.374C178.418 272.367 183.02 272.361 187.623 272.352C192.366 272.344 197.108 272.337 201.853 272.33C206.425 272.323 210.993 272.316 215.564 272.309L227.872 272.29C231.214 272.283 234.553 272.28 237.894 272.274C240.172 272.27 242.449 272.267 244.727 272.263C245.664 272.261 246.605 272.281 247.539 272.258C249.198 272.22 250.315 271.055 250.152 269.543C250.111 269.155 250.059 268.77 250.012 268.383L249.3 262.441C248.914 259.218 248.526 255.997 248.141 252.773C247.662 248.78 247.183 244.787 246.704 240.791C246.19 236.51 245.677 232.229 245.164 227.947C244.65 223.666 244.171 219.673 243.675 215.535C243.255 212.023 242.833 208.514 242.413 205.003L241.546 197.772L241.234 195.178C241.163 194.575 240.134 194.579 240.208 195.179L240.199 195.197Z" fill="#1E1E1E"/>
<path d="M205.555 210.575C204.684 203.294 197.675 201.126 191.787 201.135C188.557 201.14 186.427 202.542 185.337 205.266C183.25 204.595 180.959 204.327 178.812 204.332C173.141 204.341 170.821 208.364 171.541 216.046L171.531 216.046L171.59 216.536C171.604 216.673 171.613 216.802 171.628 216.939C171.635 217.007 171.651 217.071 171.661 217.139L168.624 251.335L188.848 249.059L196.799 249.047L222.616 253.628L205.916 213.651L205.65 213.647C205.701 212.624 205.676 211.592 205.558 210.58L205.555 210.575Z" fill="#1E1E1E"/>
<path d="M239.583 271.817L156.729 271.943C155.984 267.96 155.131 259.185 160.81 251.9C167.205 243.692 177.814 242.62 186.198 241.772C193.276 241.057 215.254 238.833 229.577 252.915C236.304 259.526 238.671 267.111 239.58 271.817L239.583 271.817Z" fill="white"/>
<path d="M239.527 271.348L237.295 271.353C235.289 271.357 233.283 271.358 231.277 271.363C228.302 271.368 225.329 271.371 222.354 271.376C218.725 271.382 215.098 271.387 211.469 271.392L199.59 271.409L187.516 271.429C183.789 271.435 180.061 271.44 176.334 271.446C173.175 271.452 170.012 271.455 166.852 271.461C164.58 271.465 162.308 271.468 160.036 271.472C158.969 271.474 157.873 271.418 156.814 271.477C156.768 271.479 156.719 271.476 156.673 271.475L157.242 271.942C156.668 268.855 156.536 265.734 156.941 262.72C157.519 258.42 159.226 254.366 162.147 251.114C164.861 248.093 168.52 245.95 172.631 244.628C176.373 243.424 180.376 242.856 184.39 242.431C186.801 242.177 189.218 241.931 191.654 241.795C194.754 241.624 197.889 241.618 201.032 241.835C204.729 242.091 208.446 242.662 212.077 243.659C215.991 244.735 219.79 246.322 223.229 248.48C227.323 251.049 230.809 254.425 233.435 258.233C235.869 261.762 237.565 265.655 238.572 269.598C238.76 270.337 238.925 271.075 239.067 271.818C239.182 272.413 240.211 272.418 240.096 271.818C239.372 268.09 238.111 264.388 236.2 260.903C233.878 256.675 230.626 252.805 226.591 249.71C223.219 247.126 219.382 245.14 215.344 243.727C211.582 242.409 207.68 241.607 203.777 241.163C200.373 240.776 196.965 240.671 193.594 240.777C191.188 240.851 188.805 241.041 186.433 241.28C182.549 241.672 178.654 242.077 174.926 242.981C170.684 244.01 166.716 245.715 163.539 248.348C160.008 251.275 157.632 255.213 156.5 259.527C155.605 262.934 155.47 266.57 155.935 270.171C156.011 270.763 156.104 271.358 156.216 271.948C156.262 272.201 156.493 272.413 156.786 272.414L159.017 272.41C161.023 272.406 163.029 272.404 165.035 272.4C168.011 272.395 170.983 272.392 173.958 272.386C177.588 272.381 181.214 272.376 184.844 272.37C188.804 272.364 192.765 272.357 196.722 272.354C200.748 272.348 204.771 272.342 208.797 272.334C212.524 272.327 216.251 272.323 219.978 272.316L229.46 272.302L236.276 272.291C237.349 272.288 238.429 272.307 239.499 272.286C239.545 272.286 239.594 272.287 239.64 272.288C240.299 272.288 240.189 271.354 239.527 271.354L239.527 271.348Z" fill="#1E1E1E"/>
<path d="M215.387 267.229C215.47 267.928 214.915 268.496 214.147 268.497C213.378 268.499 212.685 267.934 212.602 267.234C212.518 266.534 213.074 265.966 213.842 265.965C214.61 265.964 215.303 266.529 215.387 267.229Z" fill="#1E1E1E"/>
<path d="M214.874 267.228C214.879 267.263 214.878 267.298 214.881 267.333C214.888 267.427 214.884 267.316 214.881 267.311C214.897 267.349 214.866 267.437 214.857 267.477C214.851 267.504 214.848 267.55 214.832 267.574C214.837 267.566 214.873 267.478 214.837 267.555C214.809 267.614 214.779 267.67 214.745 267.726C214.693 267.811 214.798 267.686 214.745 267.723C214.726 267.739 214.71 267.766 214.69 267.784C214.668 267.808 214.553 267.936 214.638 267.843C214.605 267.88 214.542 267.909 214.496 267.932C214.477 267.943 214.455 267.953 214.436 267.964C214.354 268.008 214.528 267.941 214.408 267.974C214.351 267.99 214.294 268.008 214.234 268.02C214.191 268.028 214.144 268.062 214.24 268.02C214.215 268.031 214.172 268.025 214.144 268.027C214.079 268.029 214.014 268.026 213.949 268.025C213.87 268.024 214.076 268.048 213.954 268.025C213.917 268.016 213.879 268.01 213.843 268.002C213.806 267.993 213.77 267.982 213.733 267.971C213.676 267.954 213.7 267.981 213.754 267.979C213.711 267.979 213.625 267.921 213.584 267.899C213.557 267.885 213.53 267.866 213.503 267.853C213.439 267.82 213.597 267.926 213.509 267.853C213.468 267.82 213.355 267.757 213.34 267.711C213.355 267.754 213.393 267.773 213.356 267.727C213.332 267.7 213.307 267.673 213.286 267.643C213.27 267.624 213.257 267.605 213.243 267.586C213.222 267.556 213.147 267.485 213.233 267.578C213.195 267.537 213.174 267.464 213.156 267.418C213.148 267.397 213.14 267.375 213.132 267.351C213.098 267.256 213.15 267.445 213.125 267.321C213.114 267.267 213.107 267.216 213.105 267.162C213.105 267.152 213.105 267.138 213.105 267.127C213.106 267.074 213.106 267.082 213.105 267.149C213.111 267.144 213.111 267.093 213.111 267.082C213.117 267.026 213.132 266.975 213.143 266.918C213.166 266.811 213.099 267.004 213.149 266.908C213.163 266.878 213.177 266.849 213.191 266.82C213.204 266.796 213.218 266.774 213.232 266.75C213.235 266.745 213.238 266.742 213.241 266.737C213.268 266.697 213.265 266.702 213.229 266.753C213.233 266.721 213.315 266.655 213.34 266.633C213.345 266.628 213.419 266.554 213.367 266.607C213.315 266.657 213.392 266.591 213.4 266.586C213.441 266.559 213.529 266.485 213.58 266.489C213.575 266.489 213.468 266.525 213.561 266.496C213.597 266.486 213.629 266.473 213.665 266.466C213.689 266.46 213.711 266.453 213.735 266.448C213.744 266.448 213.863 266.425 213.779 266.437C213.695 266.45 213.817 266.438 213.825 266.435C213.858 266.436 213.89 266.433 213.923 266.434C213.956 266.434 213.988 266.435 214.021 266.438C214.137 266.439 213.929 266.418 214.034 266.438C214.11 266.455 214.183 266.472 214.256 266.492C214.37 266.523 214.191 266.453 214.251 266.492C214.286 266.514 214.332 266.528 214.369 266.547C214.391 266.558 214.413 266.569 214.434 266.583C214.456 266.596 214.477 266.607 214.499 266.621C214.437 266.583 214.431 266.577 214.477 266.61C214.526 266.648 214.571 266.687 214.62 266.727C214.714 266.804 214.553 266.643 214.63 266.736C214.654 266.763 214.679 266.79 214.7 266.82C214.721 266.85 214.74 266.879 214.764 266.907C214.825 266.988 214.727 266.82 214.772 266.917C214.804 266.982 214.83 267.047 214.856 267.112C214.872 267.147 214.899 267.169 214.854 267.09C214.875 267.128 214.874 267.193 214.879 267.23C214.911 267.475 215.169 267.71 215.449 267.697C215.723 267.684 215.943 267.491 215.905 267.23C215.806 266.49 215.225 265.857 214.438 265.599C213.695 265.356 212.837 265.568 212.418 266.109C211.974 266.678 211.966 267.481 212.463 268.122C212.96 268.762 213.806 269.063 214.586 268.93C215.454 268.785 215.988 268.029 215.905 267.23C215.879 266.985 215.61 266.753 215.336 266.763C215.056 266.776 214.85 266.969 214.877 267.23L214.874 267.228Z" fill="#1E1E1E"/>
<path d="M174.248 265.963C175.016 265.962 175.71 266.527 175.793 267.227C175.877 267.926 175.321 268.494 174.553 268.495C173.785 268.496 173.091 267.931 173.008 267.232C172.924 266.532 173.48 265.964 174.248 265.963Z" fill="#1E1E1E"/>
<path d="M175.277 267.228C175.282 267.263 175.282 267.298 175.284 267.333C175.291 267.427 175.287 267.317 175.284 267.312C175.3 267.349 175.269 267.438 175.261 267.478C175.255 267.505 175.252 267.55 175.235 267.574C175.24 267.566 175.277 267.478 175.241 267.555C175.213 267.614 175.182 267.67 175.149 267.726C175.096 267.812 175.201 267.687 175.149 267.724C175.13 267.739 175.113 267.766 175.094 267.785C175.072 267.809 174.956 267.936 175.042 267.843C175.008 267.88 174.946 267.909 174.899 267.933C174.88 267.943 174.858 267.954 174.839 267.964C174.757 268.009 174.932 267.941 174.812 267.975C174.755 267.99 174.697 268.008 174.638 268.021C174.594 268.028 174.547 268.063 174.643 268.021C174.618 268.031 174.575 268.025 174.548 268.028C174.483 268.03 174.418 268.026 174.352 268.025C174.274 268.024 174.48 268.048 174.358 268.025C174.32 268.017 174.282 268.011 174.244 268.002C174.206 267.994 174.171 267.983 174.133 267.971C174.076 267.955 174.101 267.982 174.155 267.98C174.111 267.979 174.025 267.922 173.985 267.9C173.958 267.886 173.931 267.867 173.904 267.853C173.839 267.82 173.998 267.927 173.909 267.853C173.869 267.82 173.756 267.757 173.74 267.711C173.756 267.754 173.794 267.774 173.756 267.728C173.732 267.7 173.708 267.673 173.687 267.643C173.671 267.624 173.657 267.605 173.644 267.586C173.623 267.557 173.548 267.486 173.633 267.578C173.596 267.537 173.575 267.465 173.557 267.419C173.549 267.397 173.541 267.376 173.533 267.351C173.499 267.257 173.551 267.445 173.525 267.322C173.515 267.268 173.508 267.217 173.506 267.163C173.506 267.152 173.506 267.139 173.506 267.128C173.507 267.074 173.507 267.082 173.506 267.149C173.511 267.144 173.512 267.093 173.512 267.082C173.518 267.026 173.532 266.975 173.544 266.919C173.567 266.812 173.499 267.004 173.549 266.908C173.563 266.879 173.577 266.849 173.591 266.82C173.605 266.796 173.619 266.775 173.633 266.751C173.636 266.745 173.638 266.743 173.641 266.737C173.669 266.697 173.666 266.703 173.63 266.753C173.633 266.721 173.716 266.655 173.74 266.634C173.746 266.628 173.82 266.554 173.768 266.607C173.716 266.658 173.792 266.591 173.801 266.586C173.842 266.56 173.929 266.486 173.981 266.489C173.976 266.489 173.869 266.525 173.962 266.497C173.997 266.487 174.03 266.474 174.065 266.466C174.09 266.461 174.112 266.453 174.136 266.448C174.144 266.448 174.264 266.425 174.177 266.438C174.093 266.45 174.215 266.438 174.223 266.436C174.256 266.436 174.288 266.434 174.321 266.434C174.354 266.435 174.386 266.435 174.419 266.438C174.535 266.44 174.327 266.418 174.432 266.438C174.508 266.455 174.581 266.472 174.654 266.492C174.768 266.523 174.589 266.454 174.649 266.492C174.684 266.514 174.73 266.528 174.767 266.547C174.789 266.558 174.811 266.569 174.832 266.583C174.854 266.597 174.875 266.608 174.897 266.621C174.838 266.583 174.829 266.578 174.875 266.61C174.924 266.649 174.969 266.687 175.018 266.728C175.112 266.804 174.951 266.644 175.028 266.736C175.052 266.763 175.077 266.79 175.098 266.82C175.119 266.85 175.138 266.88 175.162 266.907C175.223 266.988 175.125 266.821 175.17 266.918C175.202 266.983 175.228 267.048 175.254 267.112C175.267 267.147 175.297 267.169 175.249 267.091C175.273 267.129 175.27 267.193 175.275 267.231C175.307 267.476 175.564 267.71 175.844 267.697C176.118 267.685 176.338 267.491 176.301 267.23C176.201 266.49 175.62 265.857 174.834 265.6C174.09 265.357 173.232 265.569 172.813 266.109C172.369 266.678 172.361 267.482 172.858 268.122C173.355 268.762 174.201 269.063 174.982 268.931C175.849 268.786 176.383 268.029 176.301 267.23C176.274 266.985 176.005 266.751 175.731 266.764C175.451 266.776 175.245 266.97 175.272 267.231L175.277 267.228Z" fill="#1E1E1E"/>
<path d="M161.94 265.983C162.709 265.981 163.402 266.546 163.485 267.246C163.569 267.946 163.013 268.514 162.245 268.515C161.477 268.516 160.784 267.951 160.7 267.251C160.617 266.552 161.172 265.984 161.94 265.983Z" fill="#1E1E1E"/>
<path d="M162.969 267.248C162.974 267.283 162.974 267.317 162.976 267.352C162.983 267.447 162.979 267.336 162.977 267.331C162.992 267.369 162.961 267.457 162.953 267.497C162.947 267.524 162.944 267.57 162.927 267.594C162.933 267.586 162.969 267.497 162.933 267.575C162.905 267.634 162.874 267.69 162.841 267.746C162.788 267.831 162.893 267.706 162.841 267.743C162.822 267.759 162.805 267.786 162.789 267.804C162.767 267.828 162.651 267.956 162.736 267.863C162.703 267.9 162.641 267.929 162.594 267.952C162.575 267.963 162.553 267.973 162.534 267.984C162.452 268.028 162.627 267.961 162.507 267.994C162.45 268.009 162.392 268.028 162.332 268.04C162.289 268.048 162.242 268.082 162.338 268.04C162.313 268.051 162.27 268.045 162.243 268.047C162.178 268.049 162.112 268.045 162.047 268.045C161.969 268.044 162.175 268.068 162.053 268.045C162.015 268.036 161.977 268.03 161.942 268.022C161.904 268.013 161.869 268.002 161.831 267.991C161.774 267.974 161.798 268.001 161.852 267.999C161.809 267.999 161.723 267.941 161.682 267.919C161.655 267.905 161.629 267.886 161.602 267.872C161.537 267.839 161.696 267.946 161.607 267.873C161.567 267.84 161.454 267.777 161.438 267.731C161.454 267.774 161.491 267.793 161.454 267.747C161.43 267.72 161.406 267.693 161.384 267.663C161.368 267.644 161.355 267.625 161.342 267.606C161.32 267.576 161.245 267.505 161.331 267.598C161.293 267.557 161.273 267.484 161.254 267.438C161.246 267.417 161.238 267.395 161.231 267.371C161.197 267.276 161.248 267.465 161.223 267.341C161.213 267.287 161.205 267.236 161.203 267.182C161.203 267.172 161.203 267.158 161.204 267.147C161.204 267.094 161.204 267.102 161.203 267.169C161.209 267.164 161.207 267.113 161.21 267.102C161.216 267.045 161.23 266.995 161.242 266.938C161.265 266.831 161.197 267.024 161.247 266.928C161.261 266.898 161.275 266.869 161.289 266.839C161.303 266.815 161.317 266.794 161.331 266.77C161.333 266.765 161.336 266.762 161.339 266.757C161.366 266.717 161.364 266.722 161.328 266.773C161.331 266.741 161.413 266.674 161.438 266.653C161.443 266.648 161.518 266.574 161.465 266.627C161.413 266.677 161.49 266.611 161.498 266.606C161.539 266.579 161.627 266.505 161.679 266.509C161.673 266.508 161.567 266.545 161.659 266.516C161.695 266.506 161.728 266.493 161.763 266.485C161.787 266.48 161.809 266.473 161.834 266.468C161.842 266.468 161.962 266.445 161.875 266.457C161.79 266.47 161.913 266.458 161.921 266.455C161.953 266.456 161.986 266.453 162.019 266.454C162.051 266.454 162.084 266.455 162.116 266.458C162.233 266.459 162.024 266.438 162.13 266.458C162.206 266.475 162.279 266.492 162.352 266.512C162.465 266.543 162.287 266.473 162.346 266.512C162.381 266.534 162.427 266.548 162.465 266.567C162.487 266.578 162.508 266.589 162.53 266.603C162.551 266.616 162.573 266.627 162.594 266.641C162.535 266.603 162.527 266.597 162.573 266.63C162.621 266.668 162.667 266.706 162.715 266.747C162.809 266.824 162.648 266.663 162.726 266.756C162.75 266.783 162.774 266.81 162.795 266.84C162.817 266.87 162.835 266.899 162.86 266.926C162.921 267.008 162.823 266.84 162.868 266.937C162.899 267.002 162.926 267.067 162.952 267.132C162.965 267.167 162.995 267.189 162.949 267.11C162.973 267.148 162.97 267.213 162.978 267.25C163.01 267.495 163.267 267.73 163.547 267.717C163.821 267.704 164.041 267.511 164.004 267.25C163.904 266.51 163.323 265.876 162.537 265.619C161.793 265.376 160.936 265.588 160.516 266.128C160.072 266.698 160.064 267.501 160.561 268.141C161.058 268.782 161.904 269.083 162.685 268.95C163.552 268.805 164.086 268.049 164.004 267.25C163.977 267.005 163.708 266.771 163.434 266.783C163.154 266.796 162.948 266.989 162.975 267.25L162.969 267.248Z" fill="#1E1E1E"/>
<path d="M186.667 259.105C186.75 259.804 186.195 260.372 185.426 260.373C184.658 260.374 183.965 259.809 183.882 259.11C183.798 258.41 184.354 257.842 185.122 257.841C185.89 257.84 186.583 258.405 186.667 259.105Z" fill="#1E1E1E"/>
<path d="M186.151 259.106C186.156 259.141 186.155 259.176 186.158 259.211C186.165 259.305 186.161 259.195 186.158 259.189C186.174 259.227 186.143 259.316 186.134 259.356C186.128 259.383 186.125 259.428 186.109 259.452C186.114 259.444 186.15 259.356 186.114 259.433C186.086 259.492 186.056 259.548 186.022 259.604C185.97 259.69 186.075 259.565 186.023 259.602C186.003 259.617 185.987 259.644 185.967 259.663C185.945 259.687 185.83 259.814 185.915 259.721C185.882 259.758 185.819 259.787 185.773 259.811C185.754 259.821 185.732 259.832 185.713 259.842C185.631 259.887 185.805 259.819 185.685 259.853C185.628 259.868 185.571 259.886 185.511 259.899C185.468 259.906 185.421 259.941 185.517 259.899C185.492 259.909 185.449 259.903 185.421 259.906C185.356 259.907 185.291 259.904 185.226 259.903C185.147 259.902 185.353 259.926 185.231 259.903C185.194 259.895 185.156 259.889 185.12 259.88C185.083 259.872 185.047 259.861 185.01 259.849C184.953 259.833 184.977 259.86 185.031 259.858C184.988 259.857 184.902 259.8 184.861 259.778C184.834 259.764 184.807 259.745 184.78 259.731C184.716 259.698 184.874 259.805 184.786 259.731C184.745 259.698 184.632 259.635 184.617 259.589C184.632 259.632 184.67 259.652 184.633 259.605C184.609 259.578 184.584 259.551 184.563 259.521C184.547 259.502 184.534 259.483 184.52 259.464C184.499 259.435 184.424 259.364 184.51 259.456C184.472 259.415 184.451 259.343 184.433 259.297C184.425 259.275 184.417 259.253 184.409 259.229C184.375 259.135 184.427 259.323 184.402 259.2C184.391 259.146 184.384 259.095 184.382 259.041C184.382 259.03 184.382 259.017 184.382 259.006C184.383 258.952 184.383 258.96 184.382 259.027C184.388 259.022 184.388 258.971 184.388 258.96C184.394 258.904 184.409 258.853 184.42 258.797C184.443 258.69 184.376 258.882 184.426 258.786C184.44 258.757 184.454 258.727 184.468 258.698C184.482 258.674 184.495 258.653 184.509 258.629C184.512 258.623 184.515 258.621 184.518 258.615C184.545 258.575 184.542 258.581 184.506 258.631C184.51 258.599 184.592 258.533 184.617 258.512C184.622 258.506 184.696 258.432 184.644 258.485C184.592 258.536 184.669 258.469 184.677 258.464C184.718 258.438 184.806 258.364 184.857 258.367C184.852 258.367 184.746 258.403 184.838 258.375C184.874 258.365 184.906 258.352 184.942 258.344C184.966 258.339 184.988 258.331 185.013 258.326C185.021 258.326 185.14 258.303 185.056 258.316C184.972 258.328 185.094 258.316 185.102 258.314C185.135 258.314 185.167 258.312 185.2 258.312C185.233 258.313 185.265 258.313 185.298 258.316C185.414 258.318 185.206 258.296 185.311 258.316C185.387 258.333 185.46 258.35 185.533 258.37C185.647 258.401 185.468 258.332 185.528 258.37C185.563 258.392 185.609 258.406 185.646 258.425C185.668 258.436 185.69 258.447 185.711 258.461C185.733 258.475 185.754 258.486 185.776 258.5C185.714 258.461 185.708 258.456 185.754 258.488C185.803 258.527 185.848 258.565 185.897 258.606C185.991 258.682 185.83 258.522 185.907 258.614C185.931 258.641 185.956 258.668 185.977 258.698C185.998 258.728 186.017 258.758 186.041 258.785C186.102 258.866 186.004 258.699 186.049 258.796C186.081 258.861 186.107 258.926 186.133 258.99C186.149 259.025 186.176 259.047 186.131 258.969C186.155 259.007 186.151 259.071 186.156 259.109C186.188 259.354 186.446 259.588 186.726 259.575C187 259.563 187.22 259.369 187.182 259.108C187.083 258.368 186.502 257.735 185.715 257.478C184.972 257.235 184.114 257.447 183.695 257.987C183.251 258.556 183.243 259.36 183.74 260C184.237 260.64 185.083 260.941 185.863 260.809C186.731 260.664 187.265 259.907 187.182 259.111C187.156 258.866 186.887 258.632 186.613 258.644C186.333 258.657 186.127 258.851 186.154 259.111L186.151 259.106Z" fill="#1E1E1E"/>
<path d="M199.01 265.926C199.779 265.925 200.472 266.49 200.555 267.19C200.639 267.889 200.083 268.457 199.315 268.458C198.547 268.459 197.854 267.894 197.77 267.195C197.687 266.495 198.242 265.927 199.01 265.926Z" fill="#1E1E1E"/>
<path d="M200.042 267.191C200.047 267.226 200.047 267.261 200.049 267.296C200.056 267.39 200.052 267.28 200.049 267.275C200.065 267.312 200.034 267.401 200.026 267.441C200.02 267.468 200.016 267.513 200 267.537C200.005 267.529 200.042 267.441 200.006 267.518C199.978 267.577 199.947 267.633 199.914 267.689C199.861 267.775 199.966 267.65 199.914 267.687C199.895 267.702 199.878 267.729 199.862 267.748C199.839 267.772 199.724 267.899 199.809 267.806C199.776 267.843 199.713 267.872 199.667 267.896C199.648 267.906 199.626 267.917 199.607 267.927C199.525 267.972 199.699 267.904 199.58 267.938C199.522 267.953 199.465 267.971 199.405 267.984C199.362 267.991 199.315 268.026 199.411 267.984C199.386 267.994 199.343 267.988 199.316 267.991C199.25 267.993 199.185 267.989 199.12 267.988C199.041 267.987 199.247 268.011 199.126 267.988C199.088 267.98 199.05 267.974 199.012 267.965C198.974 267.957 198.939 267.946 198.901 267.934C198.844 267.918 198.868 267.945 198.923 267.943C198.879 267.942 198.793 267.885 198.753 267.863C198.726 267.849 198.699 267.83 198.672 267.816C198.607 267.783 198.766 267.89 198.677 267.816C198.637 267.783 198.524 267.72 198.508 267.674C198.524 267.717 198.561 267.737 198.524 267.691C198.5 267.663 198.476 267.636 198.454 267.606C198.438 267.587 198.425 267.568 198.412 267.549C198.39 267.52 198.315 267.449 198.401 267.541C198.363 267.5 198.343 267.428 198.324 267.382C198.316 267.36 198.309 267.339 198.301 267.314C198.267 267.22 198.319 267.409 198.293 267.285C198.283 267.231 198.275 267.18 198.273 267.126C198.273 267.115 198.274 267.102 198.274 267.091C198.274 267.037 198.274 267.045 198.273 267.112C198.279 267.107 198.28 267.056 198.28 267.045C198.286 266.989 198.3 266.938 198.312 266.882C198.335 266.775 198.267 266.967 198.317 266.871C198.331 266.842 198.345 266.812 198.359 266.783C198.373 266.759 198.387 266.738 198.401 266.714C198.403 266.708 198.406 266.706 198.409 266.7C198.437 266.66 198.434 266.666 198.398 266.716C198.401 266.684 198.483 266.618 198.508 266.597C198.513 266.592 198.588 266.517 198.535 266.57C198.483 266.621 198.56 266.554 198.568 266.549C198.609 266.523 198.697 266.449 198.749 266.452C198.743 266.452 198.637 266.488 198.73 266.46C198.765 266.45 198.798 266.437 198.833 266.429C198.858 266.424 198.879 266.416 198.904 266.411C198.912 266.411 199.032 266.388 198.945 266.401C198.86 266.413 198.983 266.401 198.991 266.399C199.023 266.399 199.056 266.397 199.089 266.397C199.121 266.398 199.154 266.398 199.186 266.401C199.303 266.403 199.094 266.381 199.2 266.401C199.276 266.418 199.349 266.435 199.422 266.455C199.535 266.486 199.357 266.417 199.416 266.455C199.451 266.477 199.497 266.491 199.535 266.51C199.557 266.521 199.578 266.532 199.6 266.546C199.621 266.56 199.643 266.571 199.664 266.585C199.605 266.546 199.597 266.541 199.643 266.574C199.691 266.612 199.737 266.65 199.785 266.691C199.879 266.767 199.718 266.607 199.796 266.699C199.82 266.726 199.844 266.753 199.866 266.783C199.887 266.813 199.905 266.843 199.93 266.87C199.991 266.951 199.893 266.784 199.938 266.881C199.969 266.946 199.996 267.011 200.022 267.075C200.038 267.11 200.065 267.132 200.02 267.054C200.041 267.092 200.04 267.156 200.048 267.194C200.08 267.439 200.337 267.673 200.617 267.661C200.892 267.648 201.111 267.454 201.074 267.193C200.974 266.453 200.393 265.82 199.607 265.563C198.863 265.32 198.006 265.532 197.586 266.072C197.142 266.641 197.135 267.445 197.631 268.085C198.128 268.725 198.974 269.026 199.755 268.894C200.623 268.749 201.156 267.992 201.074 267.193C201.047 266.949 200.778 266.714 200.504 266.727C200.224 266.739 200.018 266.933 200.045 267.194L200.042 267.191Z" fill="#1E1E1E"/>
<path d="M198.193 255.41C198.961 255.409 199.654 255.974 199.738 256.674C199.821 257.374 199.266 257.942 198.498 257.943C197.729 257.944 197.036 257.379 196.953 256.679C196.869 255.979 197.425 255.412 198.193 255.41Z" fill="#1E1E1E"/>
<path d="M199.225 256.676C199.23 256.711 199.229 256.745 199.232 256.78C199.239 256.875 199.235 256.764 199.232 256.759C199.248 256.797 199.217 256.885 199.208 256.925C199.202 256.952 199.199 256.998 199.182 257.022C199.188 257.014 199.224 256.925 199.188 257.003C199.16 257.062 199.13 257.118 199.096 257.174C199.044 257.259 199.148 257.134 199.096 257.171C199.077 257.187 199.061 257.213 199.041 257.232C199.019 257.256 198.904 257.383 198.989 257.291C198.956 257.328 198.893 257.356 198.847 257.38C198.828 257.391 198.806 257.401 198.787 257.412C198.705 257.456 198.879 257.389 198.759 257.422C198.702 257.437 198.645 257.455 198.585 257.468C198.541 257.476 198.495 257.51 198.59 257.468C198.566 257.479 198.523 257.473 198.495 257.475C198.43 257.477 198.365 257.473 198.3 257.473C198.221 257.472 198.427 257.496 198.305 257.473C198.267 257.464 198.23 257.458 198.194 257.45C198.156 257.441 198.121 257.43 198.083 257.419C198.027 257.402 198.051 257.429 198.105 257.427C198.062 257.427 197.975 257.369 197.935 257.347C197.908 257.333 197.881 257.314 197.854 257.3C197.789 257.267 197.948 257.374 197.86 257.3C197.819 257.268 197.706 257.204 197.69 257.159C197.706 257.202 197.744 257.221 197.706 257.175C197.682 257.148 197.658 257.121 197.637 257.091C197.621 257.072 197.608 257.053 197.594 257.034C197.573 257.004 197.498 256.933 197.584 257.026C197.546 256.985 197.525 256.912 197.507 256.866C197.499 256.845 197.491 256.823 197.483 256.799C197.449 256.704 197.501 256.893 197.475 256.769C197.465 256.715 197.458 256.664 197.456 256.61C197.456 256.599 197.456 256.586 197.456 256.575C197.457 256.522 197.457 256.53 197.456 256.597C197.461 256.591 197.462 256.54 197.462 256.53C197.468 256.473 197.483 256.422 197.494 256.366C197.517 256.259 197.45 256.452 197.5 256.356C197.514 256.326 197.528 256.297 197.541 256.267C197.555 256.243 197.569 256.222 197.583 256.198C197.586 256.193 197.589 256.19 197.591 256.185C197.619 256.145 197.616 256.15 197.58 256.201C197.583 256.169 197.666 256.102 197.69 256.081C197.696 256.076 197.77 256.002 197.718 256.055C197.666 256.105 197.743 256.039 197.751 256.034C197.792 256.007 197.88 255.933 197.931 255.936C197.926 255.936 197.819 255.973 197.912 255.944C197.947 255.934 197.98 255.921 198.016 255.913C198.04 255.908 198.062 255.9 198.086 255.895C198.095 255.896 198.214 255.873 198.127 255.885C198.043 255.898 198.165 255.886 198.173 255.883C198.206 255.883 198.239 255.881 198.271 255.882C198.304 255.882 198.336 255.882 198.369 255.886C198.486 255.887 198.277 255.866 198.382 255.886C198.458 255.903 198.531 255.92 198.604 255.94C198.718 255.971 198.54 255.901 198.599 255.94C198.634 255.961 198.68 255.975 198.718 255.995C198.739 256.006 198.761 256.017 198.782 256.03C198.804 256.044 198.825 256.055 198.847 256.069C198.788 256.031 198.78 256.025 198.825 256.058C198.874 256.096 198.919 256.134 198.968 256.175C199.062 256.252 198.901 256.091 198.979 256.183C199.003 256.211 199.027 256.238 199.048 256.268C199.069 256.297 199.088 256.327 199.112 256.354C199.174 256.436 199.075 256.268 199.12 256.365C199.152 256.43 199.178 256.495 199.205 256.56C199.22 256.595 199.247 256.617 199.202 256.538C199.226 256.576 199.222 256.641 199.23 256.678C199.262 256.923 199.52 257.157 199.8 257.145C200.074 257.132 200.294 256.939 200.256 256.678C200.157 255.938 199.576 255.304 198.789 255.047C198.046 254.804 197.188 255.016 196.769 255.556C196.324 256.126 196.317 256.929 196.814 257.569C197.311 258.21 198.157 258.511 198.937 258.378C199.805 258.233 200.338 257.477 200.256 256.68C200.229 256.436 199.961 256.201 199.687 256.214C199.407 256.226 199.201 256.42 199.227 256.681L199.225 256.676Z" fill="#1E1E1E"/>
<path d="M169.207 252.893C169.975 252.892 170.668 253.457 170.751 254.156C170.835 254.856 170.279 255.424 169.511 255.425C168.743 255.426 168.05 254.861 167.966 254.161C167.883 253.462 168.438 252.894 169.207 252.893Z" fill="#1E1E1E"/>
<path d="M170.238 254.158C170.243 254.193 170.243 254.228 170.245 254.263C170.252 254.357 170.248 254.247 170.245 254.241C170.261 254.279 170.23 254.367 170.222 254.408C170.216 254.434 170.213 254.48 170.196 254.504C170.202 254.496 170.238 254.408 170.202 254.485C170.174 254.544 170.143 254.6 170.11 254.656C170.057 254.741 170.162 254.616 170.11 254.653C170.091 254.669 170.074 254.696 170.055 254.714C170.033 254.738 169.917 254.866 170.003 254.773C169.97 254.81 169.907 254.839 169.86 254.862C169.841 254.873 169.819 254.883 169.8 254.894C169.718 254.939 169.893 254.871 169.773 254.904C169.716 254.92 169.659 254.938 169.599 254.95C169.555 254.958 169.509 254.992 169.604 254.951C169.58 254.961 169.536 254.955 169.509 254.957C169.444 254.959 169.379 254.956 169.314 254.955C169.235 254.954 169.441 254.978 169.319 254.955C169.281 254.946 169.243 254.941 169.208 254.932C169.17 254.924 169.135 254.912 169.097 254.901C169.04 254.884 169.064 254.912 169.119 254.91C169.075 254.909 168.989 254.851 168.949 254.829C168.922 254.816 168.895 254.797 168.868 254.783C168.803 254.75 168.962 254.856 168.873 254.783C168.833 254.75 168.72 254.687 168.704 254.641C168.72 254.684 168.758 254.703 168.72 254.657C168.696 254.63 168.672 254.603 168.651 254.573C168.635 254.554 168.621 254.535 168.608 254.516C168.587 254.486 168.511 254.416 168.597 254.508C168.56 254.467 168.539 254.394 168.52 254.348C168.513 254.327 168.505 254.305 168.497 254.281C168.463 254.187 168.515 254.375 168.489 254.251C168.479 254.198 168.471 254.146 168.469 254.093C168.47 254.082 168.47 254.068 168.47 254.058C168.47 254.004 168.47 254.012 168.47 254.079C168.475 254.074 168.473 254.023 168.476 254.012C168.482 253.956 168.496 253.905 168.508 253.849C168.531 253.741 168.463 253.934 168.513 253.838C168.527 253.809 168.541 253.779 168.555 253.75C168.569 253.726 168.583 253.704 168.597 253.68C168.6 253.675 168.602 253.672 168.605 253.667C168.633 253.627 168.63 253.632 168.594 253.683C168.597 253.651 168.679 253.585 168.704 253.564C168.71 253.558 168.784 253.484 168.732 253.537C168.679 253.587 168.756 253.521 168.764 253.516C168.805 253.49 168.893 253.416 168.945 253.419C168.939 253.419 168.833 253.455 168.926 253.427C168.961 253.416 168.994 253.403 169.029 253.396C169.054 253.391 169.076 253.383 169.1 253.378C169.108 253.378 169.228 253.355 169.141 253.368C169.057 253.38 169.179 253.368 169.187 253.365C169.22 253.366 169.252 253.364 169.285 253.364C169.317 253.364 169.35 253.365 169.382 253.368C169.499 253.369 169.29 253.348 169.396 253.368C169.472 253.385 169.545 253.402 169.618 253.422C169.732 253.453 169.553 253.384 169.612 253.422C169.648 253.444 169.693 253.458 169.731 253.477C169.753 253.488 169.774 253.499 169.796 253.513C169.817 253.527 169.839 253.538 169.861 253.551C169.801 253.513 169.793 253.507 169.839 253.54C169.887 253.579 169.933 253.617 169.981 253.658C170.075 253.734 169.915 253.573 169.992 253.666C170.016 253.693 170.04 253.72 170.062 253.75C170.083 253.78 170.102 253.81 170.126 253.837C170.187 253.918 170.089 253.75 170.134 253.848C170.165 253.912 170.192 253.977 170.218 254.042C170.231 254.077 170.261 254.099 170.213 254.021C170.237 254.058 170.233 254.123 170.241 254.161C170.273 254.406 170.531 254.64 170.811 254.627C171.085 254.615 171.305 254.421 171.267 254.16C171.168 253.42 170.587 252.787 169.8 252.53C169.057 252.286 168.199 252.499 167.78 253.039C167.335 253.608 167.328 254.411 167.825 255.052C168.322 255.692 169.167 255.993 169.948 255.86C170.816 255.715 171.349 254.959 171.267 254.16C171.24 253.915 170.972 253.684 170.698 253.694C170.418 253.706 170.212 253.9 170.241 254.161L170.238 254.158Z" fill="#1E1E1E"/>
<path d="M213.365 248.27C214.133 248.269 214.826 248.833 214.91 249.533C214.993 250.233 214.438 250.801 213.669 250.802C212.901 250.803 212.208 250.238 212.125 249.538C212.041 248.839 212.597 248.271 213.365 248.27Z" fill="#1E1E1E"/>
<path d="M214.397 249.535C214.402 249.57 214.401 249.605 214.403 249.639C214.41 249.734 214.406 249.623 214.404 249.618C214.42 249.656 214.389 249.744 214.38 249.784C214.374 249.811 214.371 249.857 214.354 249.881C214.36 249.873 214.396 249.784 214.36 249.862C214.332 249.921 214.301 249.977 214.268 250.033C214.216 250.118 214.32 249.993 214.268 250.03C214.249 250.046 214.232 250.073 214.213 250.091C214.191 250.115 214.076 250.243 214.161 250.15C214.128 250.187 214.065 250.216 214.019 250.239C213.999 250.25 213.978 250.26 213.958 250.271C213.876 250.315 214.051 250.248 213.931 250.281C213.874 250.296 213.817 250.315 213.757 250.327C213.713 250.335 213.667 250.369 213.762 250.327C213.738 250.338 213.694 250.332 213.667 250.334C213.602 250.336 213.537 250.332 213.472 250.332C213.393 250.331 213.599 250.355 213.477 250.332C213.439 250.323 213.401 250.317 213.366 250.309C213.328 250.3 213.293 250.289 213.255 250.278C213.199 250.261 213.223 250.288 213.277 250.286C213.234 250.286 213.147 250.228 213.107 250.206C213.08 250.192 213.053 250.173 213.026 250.159C212.961 250.126 213.12 250.233 213.032 250.16C212.991 250.127 212.878 250.064 212.862 250.018C212.878 250.061 212.916 250.08 212.878 250.034C212.854 250.007 212.83 249.98 212.809 249.95C212.793 249.931 212.779 249.912 212.766 249.893C212.745 249.863 212.67 249.792 212.755 249.885C212.718 249.844 212.697 249.771 212.679 249.725C212.671 249.704 212.663 249.682 212.655 249.658C212.621 249.563 212.673 249.752 212.647 249.628C212.637 249.574 212.63 249.523 212.628 249.469C212.628 249.459 212.628 249.445 212.628 249.434C212.629 249.381 212.629 249.389 212.628 249.456C212.633 249.451 212.634 249.4 212.634 249.389C212.64 249.332 212.654 249.282 212.666 249.225C212.689 249.118 212.621 249.311 212.672 249.215C212.685 249.185 212.699 249.156 212.713 249.126C212.727 249.102 212.741 249.081 212.755 249.057C212.758 249.052 212.76 249.049 212.763 249.044C212.791 249.004 212.788 249.009 212.752 249.06C212.755 249.028 212.838 248.961 212.862 248.94C212.868 248.935 212.942 248.861 212.89 248.914C212.838 248.964 212.914 248.898 212.923 248.893C212.964 248.866 213.051 248.792 213.103 248.796C213.098 248.795 212.991 248.832 213.084 248.803C213.119 248.793 213.152 248.78 213.187 248.772C213.212 248.767 213.234 248.76 213.258 248.755C213.266 248.755 213.386 248.732 213.302 248.744C213.217 248.757 213.34 248.745 213.348 248.742C213.381 248.743 213.413 248.74 213.446 248.741C213.478 248.741 213.511 248.742 213.543 248.745C213.66 248.746 213.451 248.725 213.557 248.745C213.633 248.762 213.706 248.779 213.779 248.799C213.892 248.83 213.714 248.76 213.773 248.799C213.808 248.821 213.854 248.835 213.892 248.854C213.914 248.865 213.935 248.876 213.957 248.89C213.978 248.903 214 248.914 214.022 248.928C213.962 248.89 213.954 248.884 214 248.917C214.048 248.955 214.094 248.993 214.142 249.034C214.236 249.111 214.076 248.95 214.153 249.043C214.177 249.07 214.201 249.097 214.223 249.127C214.244 249.157 214.263 249.186 214.287 249.214C214.348 249.295 214.25 249.127 214.295 249.224C214.326 249.289 214.353 249.354 214.379 249.419C214.395 249.454 214.422 249.476 214.377 249.397C214.398 249.435 214.397 249.497 214.402 249.537C214.434 249.782 214.692 250.017 214.972 250.004C215.246 249.991 215.466 249.798 215.428 249.537C215.329 248.797 214.748 248.163 213.961 247.906C213.218 247.663 212.36 247.875 211.941 248.415C211.496 248.985 211.489 249.788 211.986 250.428C212.483 251.069 213.328 251.37 214.109 251.237C214.977 251.092 215.51 250.336 215.428 249.537C215.401 249.292 215.133 249.06 214.859 249.07C214.579 249.083 214.373 249.276 214.399 249.537L214.397 249.535Z" fill="#1E1E1E"/>
<path d="M230.048 262.516C230.816 262.515 231.509 263.08 231.593 263.779C231.676 264.479 231.121 265.047 230.352 265.048C229.584 265.049 228.891 264.484 228.807 263.784C228.724 263.085 229.279 262.517 230.048 262.516Z" fill="#1E1E1E"/>
<path d="M231.08 263.781C231.085 263.816 231.084 263.851 231.086 263.886C231.093 263.98 231.089 263.87 231.087 263.864C231.102 263.902 231.071 263.99 231.063 264.03C231.057 264.057 231.054 264.103 231.037 264.127C231.043 264.119 231.079 264.031 231.043 264.108C231.015 264.167 230.984 264.223 230.951 264.279C230.898 264.364 231.003 264.239 230.951 264.276C230.932 264.292 230.915 264.319 230.899 264.337C230.877 264.361 230.761 264.489 230.846 264.396C230.813 264.433 230.751 264.462 230.704 264.485C230.685 264.496 230.663 264.506 230.644 264.517C230.562 264.561 230.737 264.494 230.617 264.527C230.56 264.543 230.502 264.561 230.442 264.573C230.399 264.581 230.352 264.615 230.448 264.573C230.423 264.584 230.38 264.578 230.353 264.58C230.288 264.582 230.223 264.579 230.157 264.578C230.079 264.577 230.285 264.601 230.163 264.578C230.125 264.569 230.087 264.563 230.052 264.555C230.014 264.546 229.979 264.535 229.941 264.524C229.884 264.507 229.908 264.534 229.963 264.532C229.919 264.532 229.833 264.474 229.793 264.452C229.766 264.439 229.739 264.419 229.712 264.406C229.647 264.373 229.806 264.479 229.717 264.406C229.677 264.373 229.564 264.31 229.548 264.264C229.564 264.307 229.601 264.326 229.564 264.28C229.54 264.253 229.516 264.226 229.494 264.196C229.478 264.177 229.465 264.158 229.452 264.139C229.43 264.109 229.355 264.038 229.441 264.131C229.403 264.09 229.383 264.017 229.364 263.971C229.356 263.95 229.349 263.928 229.341 263.904C229.307 263.809 229.359 263.998 229.333 263.874C229.323 263.82 229.315 263.769 229.313 263.715C229.313 263.705 229.314 263.691 229.314 263.681C229.314 263.627 229.314 263.635 229.313 263.702C229.319 263.697 229.32 263.646 229.32 263.635C229.326 263.579 229.34 263.528 229.352 263.471C229.375 263.364 229.307 263.557 229.357 263.461C229.371 263.431 229.385 263.402 229.399 263.373C229.413 263.349 229.427 263.327 229.441 263.303C229.443 263.298 229.446 263.295 229.449 263.29C229.477 263.25 229.474 263.255 229.438 263.306C229.441 263.274 229.523 263.208 229.548 263.186C229.553 263.181 229.628 263.107 229.575 263.16C229.523 263.21 229.6 263.144 229.608 263.139C229.649 263.112 229.737 263.038 229.789 263.042C229.783 263.042 229.677 263.078 229.77 263.05C229.805 263.039 229.838 263.026 229.873 263.019C229.898 263.014 229.919 263.006 229.944 263.001C229.952 263.001 230.072 262.978 229.985 262.99C229.9 263.003 230.023 262.991 230.031 262.988C230.063 262.989 230.096 262.986 230.129 262.987C230.161 262.987 230.194 262.988 230.226 262.991C230.343 262.992 230.134 262.971 230.24 262.991C230.316 263.008 230.389 263.025 230.462 263.045C230.575 263.076 230.397 263.006 230.456 263.045C230.491 263.067 230.537 263.081 230.575 263.1C230.597 263.111 230.618 263.122 230.64 263.136C230.661 263.149 230.683 263.16 230.704 263.174C230.645 263.136 230.637 263.13 230.683 263.163C230.731 263.201 230.777 263.24 230.825 263.28C230.919 263.357 230.758 263.196 230.836 263.289C230.86 263.316 230.884 263.343 230.906 263.373C230.927 263.403 230.945 263.432 230.97 263.46C231.031 263.541 230.933 263.373 230.978 263.47C231.009 263.535 231.036 263.6 231.062 263.665C231.075 263.7 231.105 263.722 231.057 263.643C231.081 263.681 231.077 263.746 231.082 263.783C231.114 264.028 231.372 264.263 231.652 264.25C231.926 264.237 232.146 264.044 232.108 263.783C232.009 263.043 231.428 262.409 230.641 262.152C229.898 261.909 229.04 262.121 228.621 262.662C228.177 263.231 228.169 264.034 228.666 264.675C229.163 265.315 230.009 265.616 230.789 265.483C231.657 265.338 232.191 264.582 232.108 263.783C232.082 263.538 231.813 263.306 231.539 263.316C231.259 263.329 231.053 263.522 231.08 263.783L231.08 263.781Z" fill="#1E1E1E"/>
<path d="M215.365 187.84C215.517 189.115 214.505 190.15 213.101 190.154C211.698 190.158 210.438 189.123 210.283 187.848C210.128 186.572 211.143 185.537 212.546 185.534C213.95 185.533 215.21 186.564 215.365 187.84Z" fill="white"/>
<path d="M213.56 185.235C212.335 184.83 210.965 185.178 210.273 186.061C209.567 186.963 209.583 188.256 210.368 189.265C211.154 190.274 212.502 190.772 213.74 190.565C215.14 190.33 216.013 189.135 215.878 187.838C215.721 186.67 214.809 185.645 213.56 185.235ZM213.744 189.568C212.953 189.838 211.998 189.613 211.373 188.993C210.781 188.4 210.623 187.549 210.974 186.898C211.321 186.252 212.124 185.891 212.958 186.025C213.947 186.185 214.733 186.95 214.852 187.838C214.932 188.594 214.507 189.306 213.744 189.568Z" fill="#1E1E1E"/>
<path d="M230.588 185.208C229.364 184.803 227.994 185.151 227.301 186.034C226.595 186.936 226.611 188.229 227.397 189.238C228.182 190.247 229.53 190.745 230.768 190.538C232.169 190.303 233.042 189.108 232.906 187.811C232.747 186.643 231.834 185.618 230.586 185.208L230.588 185.208ZM230.77 189.544C229.979 189.813 229.024 189.589 228.399 188.968C227.807 188.375 227.649 187.524 227.999 186.873C228.347 186.227 229.149 185.867 229.984 186.001C230.973 186.161 231.758 186.926 231.877 187.814C231.957 188.57 231.533 189.282 230.77 189.544Z" fill="#1E1E1E"/>
<path d="M222.073 185.221C220.848 184.816 219.478 185.164 218.786 186.048C218.08 186.95 218.096 188.242 218.881 189.251C219.666 190.261 221.015 190.759 222.252 190.551C223.653 190.316 224.526 189.121 224.391 187.824C224.232 186.656 223.319 185.632 222.07 185.221L222.073 185.221ZM222.257 189.555C221.466 189.824 220.511 189.6 219.886 188.979C219.294 188.386 219.136 187.535 219.486 186.884C219.834 186.238 220.637 185.877 221.471 186.012C222.46 186.172 223.245 186.937 223.364 187.825C223.445 188.581 223.02 189.293 222.257 189.555Z" fill="#1E1E1E"/>
<path d="M146.021 186.847C145.594 186.53 145.114 186.454 144.615 186.453L141.68 186.456C138.624 186.461 135.567 186.465 132.511 186.47C131.748 186.471 130.985 186.464 130.222 186.473C129.155 186.486 128.441 187.377 128.825 188.344C129.109 189.054 129.878 189.456 130.649 189.455C133.035 189.459 135.421 189.448 137.807 189.444L145.088 189.433L145.221 189.435C145.261 189.435 145.299 189.431 145.335 189.423C145.952 189.369 146.453 189.029 146.628 188.491C146.809 187.932 146.567 187.251 146.021 186.844L146.021 186.847ZM145.11 188.504L139.377 188.512C136.679 188.516 133.978 188.519 131.279 188.526C131.022 188.525 130.761 188.527 130.503 188.527C129.99 188.525 129.535 188.031 129.847 187.621C130.018 187.395 130.297 187.412 130.577 187.412L131.655 187.41L140.105 187.398L143.813 187.394L144.793 187.393C145.146 187.392 145.514 187.477 145.631 187.852C145.738 188.2 145.482 188.495 145.105 188.507L145.11 188.504Z" fill="#1E1E1E"/>
<path d="M194.549 250.727C189.506 250.736 185.071 247.848 184.644 244.28L182.996 230.533L201.26 230.505L202.908 244.253C203.335 247.821 199.593 250.718 194.549 250.727Z" fill="white"/>
<path d="M194.493 250.259C191.732 250.254 188.603 249.328 186.659 247.264C185.828 246.38 185.29 245.36 185.154 244.279C185.125 244.034 185.095 243.789 185.066 243.544L184.535 239.115L183.882 233.655L183.637 231.61C183.595 231.268 183.58 230.919 183.514 230.577C183.511 230.561 183.509 230.545 183.509 230.531L183.052 230.998L184.86 230.994L189.231 230.987L194.494 230.979L199.068 230.972L200.57 230.969C200.803 230.969 201.053 230.989 201.284 230.967C201.294 230.968 201.305 230.968 201.316 230.968L200.746 230.501L201.051 233.047L201.692 238.399C201.881 239.981 202.07 241.561 202.262 243.143C202.304 243.493 202.345 243.842 202.387 244.192C202.483 245.008 202.367 245.796 202.027 246.515C200.981 248.721 198.319 249.947 195.683 250.196C195.291 250.234 194.895 250.251 194.496 250.254C193.836 250.256 193.946 251.19 194.609 251.187C197.592 251.174 200.672 250.176 202.334 248.007C203.076 247.036 203.498 245.891 203.454 244.644C203.441 244.318 203.391 243.987 203.352 243.659C203.178 242.209 203.003 240.758 202.831 239.308C202.608 237.446 202.384 235.584 202.161 233.722C202.033 232.664 201.941 231.604 201.78 230.547C201.778 230.53 201.775 230.514 201.775 230.498C201.746 230.245 201.485 230.032 201.206 230.032L199.398 230.036L195.027 230.042L189.764 230.051L185.19 230.058C184.454 230.059 183.708 230.034 182.975 230.062C182.964 230.062 182.953 230.062 182.942 230.062C182.665 230.061 182.454 230.276 182.486 230.529L182.803 233.169C183.021 234.998 183.242 236.828 183.461 238.658C183.647 240.224 183.837 241.787 184.023 243.354C184.06 243.658 184.094 243.962 184.134 244.266C184.267 245.331 184.726 246.377 185.448 247.286C187.299 249.62 190.43 250.863 193.372 251.134C193.786 251.172 194.199 251.19 194.611 251.19C195.274 251.19 195.161 250.257 194.498 250.256L194.493 250.259Z" fill="#1E1E1E"/>
<path d="M183.521 234.924C183.521 234.924 189.563 243.407 195.255 242.982C196.078 242.92 197.829 242.751 199.249 241.641C201.686 239.731 201.812 236.195 201.063 234.278C201.063 234.278 201.057 234.264 200.135 232.057C199.919 235.663 197.131 238.484 193.296 239.018C189.672 239.526 185.778 237.9 183.521 234.924Z" fill="#1E1E1E"/>
<path d="M202.358 223.447C202.358 223.447 203.38 221.66 206.029 222.534C208.681 223.409 208.203 229.032 204.469 229.753C204.469 229.753 203.133 230.026 201.958 229.176C201.958 229.176 202.398 225.022 202.358 223.447Z" fill="white"/>
<path d="M202.83 223.682C202.83 223.682 202.844 223.658 202.853 223.644C202.927 223.527 202.795 223.708 202.872 223.618C202.971 223.501 203.073 223.386 203.191 223.283C203.213 223.265 203.323 223.177 203.238 223.243C203.279 223.212 203.323 223.183 203.366 223.154C203.468 223.088 203.574 223.025 203.686 222.972C203.755 222.941 203.79 222.925 203.787 222.925C203.842 222.904 203.899 222.886 203.954 222.868C204.022 222.848 204.09 222.83 204.161 222.814C204.196 222.807 204.234 222.799 204.269 222.792C204.267 222.792 204.419 222.769 204.365 222.777C204.696 222.738 205.043 222.761 205.382 222.83C205.585 222.873 205.788 222.926 205.985 222.996C205.858 222.951 206.004 223.007 206.036 223.021C206.093 223.048 206.15 223.079 206.206 223.109C206.222 223.117 206.239 223.128 206.255 223.139C206.317 223.175 206.179 223.084 206.236 223.128C206.276 223.158 206.317 223.186 206.357 223.218C206.397 223.248 206.432 223.284 206.47 223.316C206.489 223.333 206.505 223.352 206.523 223.368C206.462 223.295 206.569 223.412 206.523 223.368C206.59 223.447 206.654 223.523 206.713 223.607C206.742 223.65 206.769 223.694 206.798 223.737C206.812 223.756 206.843 223.818 206.793 223.726C206.809 223.756 206.825 223.783 206.838 223.813C206.939 224.016 207.02 224.221 207.077 224.434C207.049 224.331 207.087 224.485 207.095 224.512C207.108 224.568 207.118 224.622 207.128 224.679C207.149 224.8 207.166 224.921 207.175 225.042C207.185 225.152 207.192 225.263 207.193 225.373C207.193 225.392 207.191 225.564 207.192 225.472C207.191 225.548 207.184 225.623 207.178 225.698C207.159 225.942 207.12 226.183 207.066 226.419C206.957 226.896 206.791 227.313 206.509 227.766C206.37 227.988 206.276 228.113 206.078 228.32C205.993 228.41 205.902 228.497 205.806 228.582C205.685 228.686 205.683 228.691 205.543 228.786C205.108 229.081 204.728 229.23 204.176 229.325C204.293 229.305 204.228 229.32 204.157 229.324C204.087 229.329 204.016 229.333 203.945 229.335C203.812 229.336 203.609 229.328 203.522 229.316C203.083 229.263 202.648 229.109 202.282 228.852C202.345 229.003 202.406 229.155 202.469 229.306C202.626 227.838 202.761 226.365 202.837 224.885C202.862 224.41 202.884 223.932 202.871 223.451C202.866 223.198 202.562 222.985 202.302 222.984C202.003 222.986 201.838 223.199 201.845 223.452C201.856 223.884 201.842 224.115 201.823 224.534C201.801 225.017 201.768 225.498 201.729 225.981C201.664 226.832 201.588 227.683 201.502 228.531C201.483 228.705 201.467 228.882 201.449 229.057C201.433 229.212 201.48 229.401 201.636 229.51C202.9 230.399 204.452 230.457 205.7 229.857C206.867 229.294 207.605 228.231 207.972 227.092C208.303 226.069 208.35 224.858 207.9 223.783C207.705 223.319 207.393 222.855 206.96 222.527C206.35 222.066 205.535 221.881 204.794 221.839C203.615 221.773 202.416 222.303 201.889 223.218C201.595 223.728 202.539 224.197 202.833 223.687L202.83 223.682Z" fill="#1E1E1E"/>
<path d="M179.792 223.482C179.792 223.482 178.343 221.699 175.903 222.582C173.462 223.464 175.289 229.081 179.191 229.794C179.191 229.794 180.594 230.064 181.563 229.209C181.563 229.209 180.128 225.058 179.789 223.482L179.792 223.482Z" fill="white"/>
<path d="M180.205 223.246C179.582 222.486 178.554 222 177.573 221.893C176.797 221.808 175.884 221.945 175.276 222.335C174.833 222.617 174.561 223.035 174.409 223.511C174.087 224.52 174.362 225.727 174.841 226.738C175.396 227.906 176.305 228.989 177.526 229.671C178.998 230.496 180.789 230.534 181.963 229.539C182.092 229.428 182.095 229.24 182.042 229.083C181.545 227.642 181.064 226.196 180.637 224.745C180.6 224.618 180.561 224.489 180.528 224.362C180.504 224.276 180.455 224.101 180.444 224.068C180.408 223.936 180.343 223.672 180.302 223.484C180.249 223.233 180.029 223.018 179.733 223.017C179.475 223.016 179.22 223.231 179.276 223.484C179.661 225.265 180.304 227.038 180.898 228.792C180.958 228.973 181.021 229.154 181.084 229.334C181.11 229.184 181.136 229.032 181.16 228.879C180.68 229.286 180.054 229.391 179.395 229.356C179.349 229.356 179.2 229.33 179.376 229.356C179.352 229.353 179.325 229.35 179.3 229.344C179.208 229.327 179.119 229.31 179.029 229.287C178.707 229.21 178.548 229.155 178.262 229.019C177.282 228.561 176.457 227.702 175.99 226.841C175.857 226.601 175.738 226.355 175.641 226.101C175.594 225.982 175.552 225.861 175.513 225.739C175.494 225.68 175.476 225.62 175.458 225.558C175.453 225.542 175.435 225.467 175.455 225.548C175.445 225.51 175.437 225.472 175.43 225.437C175.376 225.2 175.338 224.96 175.322 224.721C175.317 224.665 175.315 224.611 175.316 224.554C175.316 224.525 175.318 224.372 175.314 224.477C175.316 224.372 175.328 224.267 175.343 224.165C175.357 224.066 175.375 223.97 175.401 223.873C175.409 223.844 175.449 223.718 175.415 223.811C175.432 223.761 175.451 223.713 175.474 223.664C175.51 223.582 175.56 223.504 175.604 223.424C175.657 223.331 175.56 223.464 175.635 223.384C175.668 223.347 175.698 223.307 175.734 223.273C175.764 223.241 175.8 223.212 175.833 223.183C175.893 223.127 175.83 223.183 175.816 223.193C175.835 223.18 175.852 223.167 175.871 223.154C175.909 223.13 175.948 223.104 175.989 223.083C176.013 223.069 176.142 223.009 176.09 223.03C176.013 223.061 176.136 223.015 176.136 223.015C176.188 222.996 176.237 222.981 176.289 222.963C176.387 222.932 176.488 222.906 176.588 222.881C176.763 222.84 176.937 222.812 177.119 222.804C177.485 222.787 177.751 222.812 178.113 222.921C178.268 222.966 178.308 222.983 178.489 223.068C178.618 223.132 178.745 223.201 178.866 223.277C178.775 223.217 178.891 223.296 178.923 223.318C178.974 223.354 179.022 223.392 179.071 223.43C179.143 223.488 179.213 223.548 179.277 223.61C179.304 223.638 179.331 223.667 179.361 223.692C179.323 223.659 179.275 223.6 179.328 223.659C179.344 223.678 179.361 223.695 179.377 223.714C179.791 224.219 180.625 223.748 180.208 223.241L180.205 223.246Z" fill="#1E1E1E"/>
<path d="M203.824 218.111C204.231 221.499 204.715 228.59 202.927 232.799C201.249 236.752 197.945 238.884 193.296 239.018C188.647 239.153 184.976 237.522 181.574 232.401C178.175 227.277 177.22 218.216 177.22 218.216C177.22 218.216 175.768 206.113 188.929 206.091C202.789 206.069 203.821 218.111 203.821 218.111L203.824 218.111Z" fill="white"/>
<path d="M203.311 218.11C203.536 220.004 203.667 221.9 203.69 223.787C203.716 226.017 203.601 228.256 203.123 230.402C202.677 232.406 201.811 234.311 200.33 235.794C198.908 237.217 196.983 238.095 194.829 238.417C192.839 238.714 190.696 238.615 188.706 237.945C186.773 237.295 185.064 235.975 183.731 234.459C182.163 232.674 181.036 230.72 180.213 228.622C179.448 226.67 178.906 224.678 178.48 222.679C178.196 221.342 177.96 219.999 177.787 218.656C177.753 218.376 177.718 218.099 177.703 217.819C177.687 217.54 177.683 217.26 177.686 216.981C177.687 216.938 177.687 216.895 177.688 216.852C177.689 216.736 177.684 216.97 177.688 216.82C177.692 216.718 177.696 216.613 177.703 216.511C177.714 216.293 177.733 216.076 177.755 215.861C177.804 215.373 177.881 214.89 177.982 214.413C178.04 214.145 178.105 213.877 178.179 213.615C178.216 213.484 178.256 213.353 178.298 213.224C178.321 213.157 178.341 213.093 178.363 213.026C178.326 213.136 178.394 212.941 178.405 212.906C178.613 212.334 178.87 211.778 179.175 211.253C179.336 210.975 179.511 210.706 179.699 210.448C179.643 210.522 179.751 210.379 179.77 210.355C179.817 210.291 179.867 210.23 179.917 210.168C180.027 210.033 180.14 209.9 180.255 209.772C180.487 209.517 180.734 209.276 180.998 209.045C181.299 208.781 181.464 208.656 181.803 208.427C182.11 208.221 182.43 208.032 182.763 207.861C183.129 207.673 183.498 207.511 183.831 207.389C185.71 206.695 187.754 206.498 189.854 206.572C190.915 206.61 191.934 206.722 192.99 206.945C193.918 207.142 194.811 207.409 195.634 207.758C197.135 208.392 198.35 209.186 199.497 210.308C199.559 210.368 199.621 210.43 199.682 210.49C199.696 210.504 199.749 210.561 199.682 210.49C199.712 210.52 199.741 210.553 199.771 210.583C199.897 210.716 200.02 210.852 200.138 210.988C200.36 211.246 200.573 211.512 200.774 211.783C200.968 212.046 201.15 212.314 201.323 212.588C201.362 212.653 201.402 212.715 201.442 212.78C201.461 212.81 201.578 213.01 201.511 212.894C201.586 213.021 201.658 213.148 201.726 213.278C202.228 214.209 202.62 215.175 202.906 216.16C202.935 216.257 202.961 216.354 202.989 216.454C202.94 216.281 202.989 216.454 203 216.491C203.013 216.542 203.026 216.596 203.039 216.648C203.08 216.817 203.118 216.984 203.154 217.154C203.203 217.391 203.246 217.626 203.278 217.862C203.291 217.946 203.301 218.029 203.31 218.113C203.363 218.715 204.389 218.712 204.339 218.112C204.308 217.768 204.242 217.42 204.17 217.078C203.981 216.187 203.71 215.299 203.357 214.432C202.891 213.295 202.275 212.183 201.503 211.166C200.606 209.981 199.485 208.921 198.19 208.083C196.612 207.058 194.821 206.374 192.982 206.007C190.689 205.549 188.309 205.497 186.082 205.829C184.265 206.099 182.525 206.703 181.102 207.685C179.897 208.516 178.933 209.581 178.228 210.8C177.621 211.851 177.21 213.012 176.958 214.202C176.765 215.118 176.674 216.057 176.663 217.005C176.657 217.406 176.666 217.806 176.707 218.21C176.787 218.976 176.908 219.744 177.039 220.508C177.36 222.401 177.781 224.293 178.333 226.164C178.947 228.252 179.73 230.344 180.927 232.275C182.18 234.292 183.839 236.25 185.955 237.609C187.746 238.76 189.804 239.34 191.885 239.463C194.253 239.603 196.627 239.251 198.615 238.263C200.629 237.262 202.123 235.626 203.073 233.741C204.058 231.782 204.439 229.57 204.611 227.369C204.783 225.141 204.743 222.876 204.579 220.614C204.519 219.78 204.437 218.944 204.339 218.107C204.268 217.507 203.239 217.507 203.313 218.107L203.311 218.11Z" fill="#1E1E1E"/>
<path d="M186.167 221.886C186.24 222.511 185.746 223.015 185.061 223.017C184.377 223.019 183.759 222.514 183.683 221.89C183.607 221.266 184.105 220.759 184.789 220.759C185.473 220.76 186.091 221.262 186.167 221.886Z" fill="#1E1E1E"/>
<path d="M195.014 221.872C195.087 222.496 195.705 223.001 196.392 222.999C197.079 222.997 197.574 222.492 197.498 221.868C197.421 221.244 196.806 220.739 196.119 220.741C195.432 220.743 194.937 221.247 195.014 221.872Z" fill="#1E1E1E"/>
<path d="M195.176 231.159L188.379 231.17C188.379 231.17 188.666 232.703 190.378 233.028C190.378 233.028 191.871 233.436 193.624 233.023C193.624 233.023 195.241 232.896 195.176 231.159Z" fill="#1E1E1E"/>
<path d="M193.939 197.336C202.027 200.012 208.45 207.718 207.095 212.252C205.74 216.786 198.086 218.291 190 215.615C181.912 212.939 176.516 207.114 177.811 202.56C179.308 197.296 185.853 194.66 193.941 197.336L193.939 197.336Z" fill="#1E1E1E"/>
<path d="M174.139 219.051C174.869 222.735 174.655 226.381 174.78 230.045C174.875 233.695 174.695 237.411 173.42 240.775L173.382 240.761C174.301 236.374 174.589 231.837 174.584 227.288C174.431 224.562 174.087 221.702 174.137 219.048L174.139 219.051Z" fill="white"/>
<path d="M180.329 208.282C182.86 213.336 187.2 216.604 193.187 217.313C187.285 217.811 181.602 213.599 180.329 208.282Z" fill="#1E1E1E"/>
<path d="M179.663 202.747C182.351 207.872 187.033 212.206 192.714 214.604C194.93 215.578 197.234 216.257 199.618 216.849C197.475 216.776 195.295 216.381 193.183 215.701C186.867 213.717 181.233 208.635 179.663 202.75L179.663 202.747Z" fill="white"/>
<path d="M208.293 231.136C208.963 232.429 209.441 233.746 209.945 235.075C211.031 237.208 212.42 239.214 213.921 241.159L213.894 241.183C211.832 239.577 210.811 237.281 209.828 235.111C209.152 233.864 208.396 232.441 208.293 231.136Z" fill="white"/>
<path d="M185.168 199.533C186.581 204.957 191.906 208.939 197.428 211.026C199.297 211.772 201.239 212.364 203.207 212.953C201.19 212.806 199.156 212.434 197.171 211.813C191.294 210.1 185.246 205.354 185.168 199.533Z" fill="white"/>
</g>
<path d="M542.054 339.572H501.355C502.842 332.877 505.968 318.666 509.591 301.684C514.639 277.999 526.309 253.997 526.625 250.526C526.839 248.157 521.183 246.524 516.16 245.926H550.015C550.297 245.883 550.596 245.84 550.921 245.789C555.338 245.156 567.639 247.054 567.332 250.526C567.016 253.997 555.346 277.999 550.297 301.684C546.675 318.666 543.549 332.877 542.062 339.572H542.054Z" fill="white" stroke="black" stroke-linecap="round" stroke-linejoin="round"/>
<path d="M501.355 339.572H479.058C481.493 327.713 489.788 288.576 496.964 269.158C505.482 246.105 505.798 246.422 510.214 245.789C514.631 245.156 526.933 247.054 526.625 250.526C526.309 253.997 514.639 277.999 509.591 301.684C505.968 318.666 502.842 332.877 501.355 339.572Z" fill="#E5E5E5" stroke="black" stroke-linecap="round" stroke-linejoin="round"/>
<path d="M85.625 107.694V108.069H86H121.281H121.656V107.694V55V54.625H121.281H86H85.625V55V107.694ZM122.281 109.319H85C84.6549 109.319 84.375 109.04 84.375 108.694V54C84.375 53.6544 84.6549 53.375 85 53.375H122.281C122.626 53.375 122.906 53.6544 122.906 54V108.694C122.906 109.039 122.626 109.319 122.281 109.319Z" stroke="black" stroke-width="0.75"/>
<path d="M91.983 100.464V100.839H92.358H114.923H115.298V100.464V62.228V61.853H114.923H92.358H91.983V62.228V100.464ZM115.923 102.089H91.358C91.0129 102.089 90.733 101.81 90.733 101.464V61.228C90.733 60.8823 91.0129 60.603 91.358 60.603H115.923C116.268 60.603 116.548 60.8823 116.548 61.228V101.464C116.548 101.81 116.268 102.089 115.923 102.089Z" stroke="black" stroke-width="0.75"/>
<path d="M103.64 73.577C101.465 73.577 99.696 71.8069 99.696 69.633C99.696 67.4591 101.466 65.689 103.64 65.689C105.815 65.689 107.584 67.459 107.584 69.633C107.584 71.8069 105.815 73.577 103.64 73.577ZM103.64 66.939C102.154 66.939 100.946 68.1469 100.946 69.633C100.946 71.1192 102.155 72.327 103.64 72.327C105.125 72.327 106.334 71.1192 106.334 69.633C106.334 68.1469 105.126 66.939 103.64 66.939Z" stroke="black" stroke-width="0.75"/>
<path d="M106.334 81.3453C106.335 79.8598 105.126 78.651 103.64 78.651C102.154 78.651 100.946 79.8589 100.946 81.345C100.946 82.8312 102.155 84.039 103.64 84.039C105.125 84.039 106.334 82.8314 106.334 81.3453ZM106.334 81.3453L105.959 81.345H106.334C106.334 81.3451 106.334 81.3452 106.334 81.3453ZM107.584 81.346V81.3462C107.585 83.5208 105.815 85.29 103.64 85.29C101.465 85.29 99.696 83.52 99.696 81.346C99.696 79.1712 101.466 77.402 103.64 77.402C105.815 77.402 107.584 79.1721 107.584 81.346Z" stroke="black" stroke-width="0.75"/>
<path d="M106.334 93.0593C106.335 91.5738 105.126 90.365 103.64 90.365C102.154 90.365 100.946 91.5729 100.946 93.059C100.946 94.5452 102.155 95.753 103.64 95.753C105.125 95.753 106.334 94.5454 106.334 93.0593ZM106.334 93.0593L105.959 93.059H106.334C106.334 93.0591 106.334 93.0592 106.334 93.0593ZM107.584 93.06V93.0602C107.585 95.2348 105.815 97.004 103.64 97.004C101.465 97.004 99.696 95.2339 99.696 93.06C99.696 90.8852 101.466 89.116 103.64 89.116C105.815 89.116 107.584 90.886 107.584 93.06Z" stroke="black" stroke-width="0.75"/>
<path d="M232 300.458C232 300.458 233.235 291.953 237.665 287.701C242.086 283.448 252.172 283.984 262.62 289.118C273.06 294.252 280.314 300.631 280.314 300.631L232 300.458Z" fill="black" stroke="black" stroke-linecap="round" stroke-linejoin="round"/>
<path d="M413.101 230.287C413.101 230.287 412.889 220.349 412.023 216.671C411.158 212.994 409.435 210.19 410.08 205.214C410.725 200.237 412.889 196.788 410.08 196.567C407.272 196.355 404.683 199.591 404.25 203.481C403.818 207.371 404.038 210.395 404.038 210.395C404.038 210.395 401.017 196.993 400.151 194.835C399.286 192.677 396.698 189.866 395.187 189.866C393.677 189.866 388.279 193.969 388.712 195.701C389.145 197.433 389.79 197.646 391.521 197.859L393.252 198.071C393.252 198.071 395.407 204.773 395.407 206.285C395.407 207.797 389.145 208.875 385.691 212.12C382.237 215.364 379.861 219.034 380.294 219.687C380.727 220.333 382.237 222.065 383.315 224.444C384.393 226.822 384.18 232.436 388.5 237.193C392.819 241.949 397.351 244.973 397.351 244.973L400.372 258.588L413.109 230.279L413.101 230.287Z" fill="white" stroke="black" stroke-linecap="round" stroke-linejoin="round"/>
<path d="M378.335 210.836C378.335 210.836 374.448 211.482 373.583 213.427C372.718 215.372 373.15 221.853 374.228 224.664C375.306 227.475 376.384 225.963 377.037 221.42C377.682 216.884 378.335 210.828 378.335 210.828V210.836Z" fill="white" stroke="black" stroke-linecap="round" stroke-linejoin="round"/>
<path d="M385.675 207.812C385.675 207.812 381.789 206.513 379.846 207.6C377.902 208.678 376.171 215.167 376.171 218.404C376.171 221.64 377.037 224.672 378.76 222.939C380.491 221.207 381.348 217.104 382.434 214.08C383.512 211.057 385.675 207.812 385.675 207.812Z" fill="white" stroke="black" stroke-linecap="round" stroke-linejoin="round"/>
<path d="M394.959 208.458C394.959 208.458 390.207 204.135 388.917 203.922C387.619 203.71 383.732 208.245 383.087 209.545C382.442 210.844 380.711 220.136 380.499 221.215C380.286 222.294 383.307 222.727 384.818 219.916C386.328 217.104 387.406 213.435 387.406 213.435L389.995 212.569" fill="white"/>
<path d="M394.959 208.458C394.959 208.458 390.207 204.135 388.917 203.922C387.619 203.71 383.732 208.245 383.087 209.545C382.442 210.844 380.711 220.136 380.499 221.215C380.286 222.294 383.307 222.727 384.818 219.916C386.328 217.104 387.406 213.435 387.406 213.435L389.995 212.569" stroke="black" stroke-linecap="round" stroke-linejoin="round"/>
<path d="M395.824 213.647C395.824 213.647 394.747 217.104 388.264 220.128" stroke="black" stroke-linecap="round" stroke-linejoin="round"/>
<path d="M404.03 210.403C404.03 210.403 403.818 212.994 402.087 215.159C400.356 217.325 396.469 227.475 397.768 230.932C399.066 234.389 400.576 236.334 400.576 236.334" stroke="black" stroke-linecap="round" stroke-linejoin="round"/>
<path d="M397.768 194.41C397.768 194.41 396.69 197.654 393.236 198.087" stroke="black" stroke-linecap="round" stroke-linejoin="round"/>
<path d="M461.408 181.692C461.408 181.692 481.603 207.143 487.339 220.616C493.074 234.09 494.569 250.808 493.821 258.297C493.074 265.785 475.624 339.146 475.624 339.146H391.859L398.838 296.229L420.033 215.128L461.415 181.692H461.408Z" fill="white" stroke="black" stroke-linecap="round" stroke-linejoin="round"/>
<path d="M417.334 305.797C417.334 305.797 425.603 320.278 438.828 326.893" stroke="black" stroke-linecap="round" stroke-linejoin="round"/>
<path d="M380.498 131.515C380.498 131.515 379.484 143.886 380.703 148.146C381.922 152.406 385.77 154.43 385.565 158.485C385.361 162.541 381.513 170.25 382.324 172.683C383.134 175.117 386.375 177.148 387.792 177.755C389.208 178.361 398.932 194.788 400.553 196.819C402.173 198.851 405.21 198.646 407.641 197.835C410.072 197.024 413.109 195.607 414.329 195.607C415.548 195.607 424.659 205.946 424.659 205.946L456.262 173.502C456.262 173.502 448.56 168.03 448.56 164.171C448.56 160.312 460.109 136.996 458.89 126.247C457.67 115.498 437.616 98.2602 426.271 96.8427C414.926 95.4253 401.347 99.8823 396.894 102.316C392.433 104.749 390.616 106.371 390.616 106.371C390.616 106.371 393.456 101.3 391.017 102.111C388.586 102.922 384.936 109.206 384.936 109.206C384.936 109.206 383.716 101.906 381.088 106.773C378.453 111.639 378.052 118.537 378.052 118.537C378.052 118.537 372.985 110.631 371.97 116.915C370.955 123.199 376.226 129.286 380.483 131.515H380.498Z" fill="white" stroke="black" stroke-linecap="round" stroke-linejoin="round"/>
<path d="M378.067 118.529C378.067 118.529 378.477 111.631 381.104 106.765C383.74 101.898 384.951 109.198 384.951 109.198C384.951 109.198 388.602 102.914 391.033 102.103C393.464 101.292 390.624 106.363 390.624 106.363C390.624 106.363 392.449 104.741 396.902 102.308C401.363 99.8745 414.934 95.4095 426.279 96.8348C437.624 98.2523 457.686 115.49 458.898 126.239C460.117 136.988 448.568 160.304 448.568 164.163C448.568 164.328 448.584 164.502 448.615 164.675C446.428 165.171 442.927 165.612 438.844 164.777C431.952 163.36 416.351 148.556 413.109 145.508C409.868 142.468 409.459 142.059 407.232 137.799C405.006 133.539 408.247 131.31 408.853 128.672C409.459 126.034 406.626 124.412 399.129 123.806C391.631 123.199 387.579 129.278 386.368 130.089C385.148 130.901 380.491 131.507 380.491 131.507C376.234 129.278 370.971 123.191 371.978 116.907C372.993 110.623 378.06 118.529 378.06 118.529H378.067Z" fill="black" stroke="black" stroke-linecap="round" stroke-linejoin="round"/>
<path d="M422.031 136.381L425.878 94L411.087 94.2047C411.087 94.2047 407.24 112.253 411.693 137.807L422.023 136.389L422.031 136.381Z" fill="white" stroke="black" stroke-linecap="round" stroke-linejoin="round"/>
<path d="M405.86 165.254C398.95 158.338 398.95 147.125 405.86 140.209C412.77 133.292 423.973 133.292 430.883 140.209C437.793 147.125 437.793 158.338 430.883 165.254C423.973 172.171 412.77 172.171 405.86 165.254Z" fill="white" stroke="black" stroke-linecap="round" stroke-linejoin="round"/>
<path d="M410.144 160.967C405.599 156.419 405.599 149.044 410.144 144.496C414.688 139.948 422.055 139.948 426.599 144.496C431.143 149.044 431.143 156.419 426.599 160.967C422.055 165.515 414.688 165.515 410.144 160.967Z" fill="black" stroke="black" stroke-linecap="round" stroke-linejoin="round"/>
<path d="M388.028 157.383C388.531 159.163 389.294 160.501 389.727 160.375C390.16 160.249 390.097 158.714 389.593 156.934C389.09 155.154 388.327 153.816 387.894 153.942C387.461 154.068 387.524 155.603 388.028 157.383Z" fill="black" stroke="black" stroke-linecap="round" stroke-linejoin="round"/>
<path d="M382.119 148.949C382.119 148.949 385.77 146.311 387.996 146.918C390.223 147.524 391.238 148.744 391.238 148.744" stroke="black" stroke-linecap="round" stroke-linejoin="round"/>
<path d="M398.735 173.896C398.735 173.896 399.75 179.778 393.267 181.196" stroke="black" stroke-linecap="round" stroke-linejoin="round"/>
<path d="M425.477 171.865C425.477 171.865 427.302 177.337 426.287 180.582C425.272 183.826 421.63 186.669 421.63 186.669" stroke="black" stroke-linecap="round" stroke-linejoin="round"/>
<path d="M455.672 169.959C455.672 169.959 420.025 201.402 419.025 203.647C418.026 205.891 416.036 219.868 416.036 219.868C416.036 219.868 425.256 213.876 434.233 207.395C443.21 200.906 465.396 181.44 465.396 181.44L455.672 169.959Z" fill="white" stroke="black" stroke-linecap="round" stroke-linejoin="round"/>
<path d="M372.293 294.252C372.293 294.252 365.33 290.795 346.11 289.716C326.89 288.638 301.706 285.685 292.823 283.023C283.941 280.361 267.939 272.164 265.224 271.463C262.51 270.762 252.432 268.92 249.71 268.219C246.995 267.518 244.887 271.093 244.887 271.093C244.887 271.093 241.528 270.479 240.859 271.888C240.19 273.298 237.531 280.661 237.531 280.661C237.531 280.661 234.722 282.369 233.747 284.692C232.771 287.015 231.819 292.606 232.858 293.772C233.896 294.937 235.761 292.701 236.091 292C236.429 291.299 240.552 286.559 242.291 286.527C244.029 286.496 250.135 286.496 252.731 287.874C255.327 289.252 271.172 297.906 274.862 299.339C278.56 300.78 292.816 299.835 292.816 299.835C292.816 299.835 343.136 321.916 358.037 326.239C372.938 330.562 388.264 329.05 391.505 327.972C394.746 326.893 398.845 318.892 398.845 318.892L372.285 294.252H372.293Z" fill="white" stroke="black" stroke-linecap="round" stroke-linejoin="round"/>
<path d="M257.986 272.715L244.887 271.093" stroke="black" stroke-linecap="round" stroke-linejoin="round"/>
<path d="M249.859 278.464C249.859 278.464 241.307 279.684 240.237 279.834C239.167 279.983 237.523 280.661 237.523 280.661" fill="white"/>
<path d="M249.859 278.464C249.859 278.464 241.307 279.684 240.237 279.834C239.167 279.983 237.523 280.661 237.523 280.661" stroke="black" stroke-linecap="round" stroke-linejoin="round"/>
<path d="M451.809 222.073C451.809 222.073 458.205 247.697 457.049 254.974C455.892 262.25 450.653 269.534 445.995 275.353C441.338 281.173 412.834 327.176 412.834 327.176C412.834 327.176 405.564 325.137 390.726 314.656C375.888 304.174 369.201 292.528 369.201 292.528C369.201 292.528 371.821 286.417 373.567 285.252C375.314 284.086 381.128 283.795 381.128 283.795C381.128 283.795 380.837 280.59 383.166 277.393L385.494 274.188C385.494 274.188 410.222 230.224 416.327 222.365C422.432 214.506 431.456 212.466 435.524 213.34C439.599 214.214 445.122 220.325 445.122 220.325" fill="white"/>
<path d="M451.809 222.073C451.809 222.073 458.205 247.697 457.049 254.974C455.892 262.25 450.653 269.534 445.995 275.353C441.338 281.173 412.834 327.176 412.834 327.176C412.834 327.176 405.564 325.137 390.726 314.656C375.888 304.174 369.201 292.528 369.201 292.528C369.201 292.528 371.821 286.417 373.567 285.252C375.314 284.086 381.128 283.795 381.128 283.795C381.128 283.795 380.837 280.59 383.166 277.393L385.494 274.188C385.494 274.188 410.222 230.224 416.327 222.365C422.432 214.506 431.456 212.466 435.524 213.34C439.599 214.214 445.122 220.325 445.122 220.325" stroke="black" stroke-linecap="round" stroke-linejoin="round"/>
<path d="M423.534 278.905C423.534 278.905 408.239 287.181 388.814 284.692" stroke="black" stroke-linecap="round" stroke-linejoin="round"/>
</g>
<defs>
<clipPath id="clip0_333_2765">
<rect width="582" height="340" fill="white" transform="matrix(-1 0 0 1 582 0)"/>
</clipPath>
<clipPath id="clip1_333_2765">
<rect width="131" height="99" fill="white" transform="translate(123.629 180.178) rotate(0.722466)"/>
</clipPath>
</defs>
</svg>
